<?xml version="1.0" standalone="no"?>
<!DOCTYPE svg PUBLIC "-//W3C//DTD SVG 1.1//EN" "http://www.w3.org/Graphics/SVG/1.1/DTD/svg11.dtd" >
<svg xmlns="http://www.w3.org/2000/svg">
<metadata>
This is a custom SVG webfont generated by Font Squirrel.
Copyright   : Copyright c Philippe et Franois BLONDEL 1998 All rights reserved
</metadata>
<defs>
<font id="AmandineRegular" horiz-adv-x="500" >
<font-face units-per-em="1000" ascent="800" descent="-200" />
<missing-glyph horiz-adv-x="500" />
<glyph unicode=" " />
<glyph unicode="!" horiz-adv-x="770" d="M505 10q0 -1 4 -4.5t6 -5.5q2 -1 5 -1q4 0 6 1q1 0 5 2.5t5 2.5q2 1 10.5 0.5t10.5 -0.5q2 1 10.5 3.5t10.5 1.5q2 0 10 -4l11 -6q2 -1 5 -1q4 0 6 1q1 0 3 2t2 3q1 3 1 11t-1 10q0 2 -5 8t-5 8q-1 2 -3 13t-3 13q-1 5 -3 13l-2 8l-8 8l-8 8q-2 1 -10 3t-11 2q-1 0 -9 -2 l-12 -3q-2 -1 -5.5 -2.5t-4.5 -2.5l-8 -8l-8 -8q-1 -2 -3 -5.5t-2 -5.5v-63zM594 246l6 -3q4 -2 5 -2h21q1 1 4.5 5t5.5 6q2 3 6 11l5 10q0 1 1 8t1.5 15t1.5 15t1 9t2 10.5t3 10.5q0 7 0.5 25t1.5 38t2 38t1 25q0 1 1 4.5t2 8t2 8.5t1 5v11v20v20v12q0 1 0.5 7.5t1.5 13.5 t2 13t1 8v16q0 1 2 7t3 8q0 1 2.5 5.5t2.5 5.5q1 2 3 8t3 7q0 1 0.5 6t1.5 10.5t2 10t1 5.5q0 2 2.5 10.5t2.5 10.5q1 7 4 20l6 26l4 22q2 9 2 11v31l-5 5l-13 10l-8 6q-3 1 -15 1t-17 -1q-1 0 -2.5 -2t-2.5 -3t-3 -5t-2 -6q-2 -2 -3.5 -8t-2.5 -7q0 -2 -1.5 -10.5 t-3.5 -18.5t-3.5 -18.5t-1.5 -10.5t-2 -9t-3.5 -15t-3.5 -15t-2 -8q-1 -4 -2.5 -14t-2.5 -13q0 -1 -1 -5.5t-1.5 -10t-1.5 -10t-1 -5.5q-1 -3 -3.5 -13.5t-5 -23t-5 -23t-2.5 -13.5q0 -5 -1 -24.5t-1.5 -41.5t-1.5 -41.5t-1 -24.5q0 -1 -1 -4.5t-1.5 -8t-1.5 -8.5t-1 -5 q0 -2 -1 -8t-2 -13l-2 -14q-1 -6 -1 -7q0 -2 -2.5 -10.5t-2.5 -10.5q0 -3 -1 -9.5t-2 -14t-1.5 -14t-0.5 -9.5v-31q0 -1 2 -5l3 -6l5 -5q2 -2 8 -5.5t8 -5.5z" />
<glyph unicode="&#x22;" horiz-adv-x="630" d="M391 414l5 -5q2 -1 8 -1t8 1q2 0 5.5 2t5.5 3l26 26q2 2 10 12t11 15q2 2 5.5 7.5t4.5 7.5q2 2 6 10l5 11q1 2 5.5 6t4.5 5q1 1 2.5 8t3.5 8q3 2 10.5 14l15.5 26l14 27q6 13 7 17q0 1 3 6l5 12l5 11q2 6 3 7l5 10l5 11q1 2 1 8t-1 8q0 1 -4 7l-6 9q-1 1 -3 2.5t-3 2.5 q-4 2 -18 2t-18 -2q-1 0 -4.5 -3.5t-8 -7.5t-8.5 -8.5t-6 -6.5q-1 -2 -5 -9l-9 -15l-10 -17q-5 -8 -7 -12q-1 -1 -3 -7.5t-2 -7.5l-3 -6q-2 -4 -3 -5q0 -2 -2.5 -8t-4.5 -13l-5 -14q-3 -6 -3 -7l-5 -10l-8 -16l-9 -17q-4 -7 -5 -9t-4 -11l-7 -18l-6 -19q-3 -8 -4 -10 q0 -2 -5 -13t-5 -13q0 -1 2 -5zM234 436l5 -5q2 -1 8 -1t8 1q2 0 5.5 2t5.5 3l26 26q2 2 10 12t11 15q2 2 5.5 7.5t4.5 7.5q2 2 6 10l5 11q1 2 5.5 6t4.5 5q1 1 3 7.5t3 8.5q1 3 8 15l15 26l15 27q7 13 9 16q1 1 3 6.5t5 11.5t5 11.5t3 6.5l5 10l5 11q1 2 1 8t-1 8q0 1 -4 7 l-6 9q-1 1 -3 2.5t-3 2.5q-4 2 -18 2t-18 -2q-1 0 -4.5 -3.5t-8 -7.5t-8.5 -8.5t-6 -6.5q-1 -2 -5 -9l-9 -16l-10 -16q-5 -8 -7 -12q-1 -1 -3 -7.5t-2 -7.5l-3 -6q-2 -4 -3 -5q0 -2 -2.5 -8t-4.5 -13l-5 -14q-3 -6 -3 -7l-5 -10l-8 -16l-9 -17q-4 -7 -5 -9t-4 -11l-6 -18 l-7 -19q-3 -8 -4 -10q0 -2 -5 -13t-5 -13q0 -1 2 -5z" />
<glyph unicode="#" horiz-adv-x="1082" d="M512 11q2 -2 10 -6l11 -5q5 -1 18 -1q14 0 19 1q2 1 6 5t4 6q1 1 2.5 7.5t3.5 13.5t3.5 13t1.5 8q1 2 2.5 8t2.5 7l16 63q0 1 2 5l3 6l3 3q2 2 3 2q4 2 14 6t12 5q1 0 9 1t18 1.5t20 1.5t16 1h5h10h10h6q2 0 10 4.5t12 6.5q2 1 5.5 4.5t4.5 5.5t3 8t2 8q1 2 1 10 q0 9 -1 11q0 1 -2 5t-3 5q-2 2 -5.5 6t-4.5 5q-2 1 -8 3t-8 2h-16q-2 0 -7 -1t-11.5 -1.5t-12 -1.5t-6.5 -1q-3 0 -10 -1l-15 -2q-7 -1 -13.5 -1.5t-8.5 -0.5q-2 -1 -6 -1t-5 1q-2 0 -5.5 2t-4.5 3q-1 0 -1 2t1 3l5 11l5 10q1 2 3 8t3 8q0 1 0.5 6.5t1.5 12t2 11.5t1 7 q0 1 2 5t3 5q1 2 5 5.5t6 5.5q2 1 5.5 3t4.5 2h121q2 0 8 2t8 3q1 1 5 3.5t8.5 5t8 5t4.5 2.5q1 1 5.5 3t5.5 2q2 2 8 6t7 5q2 2 6 5.5t5 4.5q1 2 2.5 8t2.5 8v5q-2 5 -4 9.5t-6 6.5q-2 2 -6 3.5t-5 2.5h-26q-2 -1 -11.5 -2.5t-14.5 -3.5q-2 0 -10.5 -2.5t-10.5 -2.5h-21 q-4 0 -12 1t-16 1.5t-15.5 1.5t-9.5 1q-3 1 -11 2.5t-10 3.5q-1 0 -3 2t-2 3q2 5 7.5 21t7.5 21l5 10l9 16l8 17q4 7 5 9q1 3 1 11t-1 10q-2 3 -8 9t-8 7t-12 1t-14 -1q-2 0 -6 -2t-5 -3t-4.5 -7t-5.5 -9q-1 -1 -3 -5.5t-5 -10t-5 -10t-3 -5.5q-1 -2 -5.5 -8t-5.5 -8 q0 -1 -1.5 -5t-3.5 -8l-3 -8q-2 -4 -2 -5l-5 -10q-3 -7 -6.5 -13.5t-6 -12t-3.5 -6.5q-1 -2 -5 -5.5t-6 -5.5q-1 -1 -4.5 -2.5t-5.5 -2.5q-2 -2 -8 -3.5t-8 -2.5q-4 -1 -18 -2.5t-19 -2.5h-21q-1 1 -3 5t-2 6q0 1 -0.5 7.5t-0.5 13.5q0 8 0.5 15t0.5 11q0 3 1 13.5t1.5 23 t1.5 23.5t1 14v5q-2 3 -5.5 11t-4.5 10l-11 11q-2 2 -8 6t-8 4q-2 1 -8 1t-8 -1t-7.5 -7t-7.5 -9q-1 -1 -3 -7l-3 -9q0 -1 0.5 -5t-0.5 -5q0 -1 -1.5 -7t-3.5 -9q-1 -3 -3 -8l-2 -5h-47q-1 0 -5 -5t-6 -8l-3 -6q-2 -4 -2 -5q-1 -2 -1 -11q0 -8 1 -10q0 -1 2 -4.5t3 -5.5 q2 -2 5.5 -6t5.5 -5t13 -5t13 -5q2 -2 5.5 -8t4.5 -8q2 -2 2 -8t-2 -8q-1 -2 -9 -5.5t-12 -4.5q-2 -1 -8 -2t-12.5 -1.5t-12.5 -1.5t-9 -1h-136q-2 0 -6 -2t-5 -3q-2 -2 -6 -5.5t-4 -4.5q-2 -5 -2 -17t2 -15q0 -2 6 -8t9 -8q2 -1 10.5 -2.5t10.5 -2.5t8 -2.5t8 -2.5h137 q1 0 3 -2t2 -3q1 -2 3 -12.5t2 -14.5q1 -2 1 -8t-1 -8q0 -3 -0.5 -8.5t-1.5 -10.5l-2 -11q-1 -5 -1 -6t-2 -3l-3 -3q-2 -1 -5.5 -2.5t-5.5 -2.5h-94q-2 0 -10.5 3t-10.5 2q-2 0 -12 -4l-15 -6q0 -1 -2 -2.5t-3 -2.5l-3 -6q-2 -4 -2 -5q-1 -2 -1 -8t1 -8q0 -1 2 -5t3 -5l8 -8 l8 -8q3 0 9.5 -1t14 -2t14 -1.5t9.5 -0.5q4 0 14.5 -1t22.5 -2t22.5 -1.5t14.5 -0.5l10 -6q2 -1 2 -11t-2 -15q-1 -2 -7.5 -13t-7.5 -13t-1 -8t1 -8l2 -2q1 -2 3 -3q4 -4 14 -12t12 -9q2 -2 5.5 -3.5t5.5 -2.5h21q3 1 11 3t10 3q1 0 4.5 4t5.5 6l6 9q4 6 5 7v31q0 3 0.5 8.5 t1.5 11.5t2 10.5t1 6.5q0 1 2 3l3 3q2 1 10.5 2.5t10.5 2.5h27v-37q-1 -2 -2.5 -11.5t-3.5 -14.5q0 -2 -2 -8t-3 -13l-4 -14q-1 -6 -1 -7q-1 -4 -1 -16t1 -16q0 -2 2 -5.5t3 -4.5zM481 237q-1 1 -5 13l-6 18v11q1 2 5 11l6 15q1 2 4.5 10.5t5.5 10.5q5 1 21 3t21 2q8 1 22 1 t15 -1l5 -5l-1 -6l-2.5 -12.5t-3.5 -15.5t-3 -13q-2 -5 -5.5 -19t-5.5 -18q-1 -1 -5 -3t-5 -2q-5 -2 -17.5 -4t-14.5 -2q-6 0 -18 2t-13 4z" />
<glyph unicode="$" horiz-adv-x="798" d="M536 -73q2 -1 8 -3t13 -3l12 -3q6 -2 9 -2q1 1 5 2.5t5 2.5l11 11q1 1 2.5 5t2.5 5q0 2 2 13.5t3 13.5q0 1 2.5 7.5t2.5 7.5q1 3 1 9t-1 7q-1 2 -7.5 8t-7.5 8q-2 1 -3.5 7t-2.5 9v15q0 1 2 5t4 6q1 2 7.5 10.5t7.5 10.5q2 2 6 8t5 8l2 5q2 4 3 5t3 5t5 8.5t5 8t3 4.5 q0 1 2 5.5t3 5.5t5.5 7.5t5.5 8.5t3 5.5t2 4.5v84q0 2 -4.5 10t-6.5 11q-1 2 -7 8l-8 8q-5 3 -17 11l-15 10q-4 2 -16 5.5t-15 4.5q-2 2 -3.5 8t-2.5 8q-1 3 -2.5 15t-2.5 17q0 1 -1 8t-2 15t-1.5 15t-0.5 9q0 1 -1 5.5t-2 10t-1.5 10t-0.5 5.5q0 5 -0.5 17t-0.5 25 q0 14 0.5 25.5t0.5 16.5q0 2 4 6t6 5l5 -2l6 -3q1 -1 4.5 -3.5t8 -5t8.5 -5t5 -2.5q2 -3 5 0q2 1 6 5l5 5q0 2 2 5.5t3 5.5v5q-1 2 -3 8t-2 8q-1 1 -3 2.5t-3 2.5q-3 2 -12 7l-19 9l-19 10l-13 6q-5 8 -6.5 18t-3.5 18q-1 3 -2 9l-3 13l-3 12q-2 6 -3 8l-3 9q-2 6 -2 7l-8 8 l-8 8q-1 1 -7 2.5t-8 2.5h-11q-2 0 -5.5 -2t-4.5 -3q-2 -2 -6 -5.5t-5 -5.5t-3 -7.5t-2 -7.5q0 -3 -0.5 -9t-0.5 -13q0 -6 0.5 -12t0.5 -8q-1 -2 -2 -3l-3 -3q-2 0 -8 -1.5t-13 -3.5t-13.5 -3.5t-7.5 -1.5l-9 -3q-6 -2 -7 -2q-2 -2 -10.5 -8t-10.5 -8q-5 -4 -13 -12l-16 -16 l-16 -16q-7 -7 -8 -9q-1 -1 -3 -5l-4 -9q-3 -5 -5 -9.5t-3 -7.5q-1 -1 -3 -9l-3 -12l-3 -15q-2 -10 -2 -11q0 -3 -0.5 -10.5t-0.5 -15.5q0 -7 0.5 -13.5t0.5 -8.5q0 -1 1.5 -6.5t3 -12.5t3.5 -13.5t3 -9.5q0 -1 1.5 -4.5t3.5 -5.5q2 -5 8 -15t8 -11q1 -2 5 -5l5 -6 q3 -3 10 -7l13 -10q7 -5 12 -9t7 -5q1 -1 5.5 -3.5t10 -5t10 -5t6.5 -2.5q1 -1 7.5 -5.5t7.5 -5.5q1 0 15 -4t22 -6q2 -1 10.5 -2.5t10.5 -2.5q1 -1 2.5 -5t2.5 -6q2 -7 6.5 -21t4.5 -16v-78q0 -4 -2 -16t-3 -16q-1 -1 -2.5 -3t-3.5 -2q-2 -1 -7.5 -3t-7.5 -2q-19 -4 -38 -5 t-36 -11q-2 -2 -8 -6t-8 -5q-3 -2 -9 -8t-6 -7q-2 -3 -2 -14q0 -10 2 -13q0 -1 6 -7t9 -8q1 -1 5 -3l6 -3q2 0 10.5 -1.5t10.5 -3.5l58 21q3 1 11 1t10 -1l2 -6q1 -6 3 -10q0 -2 2 -10.5t3 -10.5q1 -1 5.5 -5t5.5 -5q0 -1 2 -5l3 -6q0 -1 2 -5l3 -10l3 -10q2 -5 2 -6 q1 -1 2.5 -3t3.5 -2zM578 226q1 -2 2.5 -5.5t2.5 -5.5v-5q-1 -2 -3 -10.5t-2 -10.5v37zM420 368q-1 0 -9 6l-12 9l-3 3q-2 2 -2 3l-8 16q-6 12 -8 15q-1 2 -3 10.5t-2 10.5q-1 3 -1 13t1 13q0 4 2 14t3 13t5 11t6 10q1 2 7 8l12 12l14 13l9 9q1 1 4.5 2.5t5.5 2.5h21 q2 -1 5.5 -5t5.5 -6q0 -1 2 -11l3 -15q0 -4 1 -11l2 -14q1 -8 1.5 -14.5t0.5 -7.5v-13v-22v-21v-12q0 -2 1.5 -8t3.5 -13l4 -13q2 -7 2 -8v-16q-3 -5 -6 -5q-4 -1 -14 -1t-12 1q-2 0 -7 3l-12 6l-13 7q-7 3 -10 5z" />
<glyph unicode="%" horiz-adv-x="996" d="M417 26q3 0 9.5 1t14 1.5t14 1.5t9.5 2q2 0 6 2t5 3t4.5 9t5.5 12q1 1 3 7.5t3 8.5q1 3 5 11t8.5 16t8 15.5t4.5 9.5l10 15q8 12 11 17q2 3 9 12l17 23l21 27l21 28q10 13 17 23t10 13q1 2 8 12l15 22l15 21l9 13q1 2 7.5 10.5t8.5 10.5q1 2 5 8t5 8q1 1 6 6.5t10 12 t10 11.5t6 7t7.5 10.5t8.5 10.5l6 9l10 11l9 11l6 6l7 7l12 11l11 11q6 5 7 7q2 2 5.5 10.5t4.5 10.5t1 8t-1 8q0 2 -2 6t-3 5l-4 2q-4 1 -9 3l-10 3q-5 1 -8 2h-6q-2 -1 -8 -2.5t-7 -2.5q-2 -1 -10 -7t-11 -9q-1 -1 -3 -2.5t-3 -2.5q-1 -2 -7.5 -10.5t-8.5 -10.5 q-1 -2 -7.5 -8t-7.5 -8q-2 -3 -7 -8l-10 -12l-9 -11l-6 -6t-5 -6l-8 -12l-8 -12q-4 -5 -5 -6t-4 -5l-7 -9l-6 -8q-3 -4 -4 -5t-5.5 -7.5t-5.5 -8.5q-3 -5 -11 -15l-14 -19l-14 -19q-6 -8 -8 -10q-1 -1 -5.5 -5t-4.5 -5q-1 -2 -5 -7t-9 -12l-8 -12q-4 -5 -5 -6q-3 -5 -12 -17 l-20 -26l-19 -25l-12 -16q-2 -2 -10.5 -13t-10.5 -13l-6 -11q-4 -9 -10 -18l-10 -18l-5 -11q-2 -2 -8.5 -10.5t-7.5 -10.5q-2 -2 -5.5 -8t-5.5 -8l-5 -10v-11q1 -4 7.5 -16t8.5 -15zM701 37l10 -11l12 -12l10 -10l5 -4h100l5 5q1 2 7.5 10.5t8.5 10.5l6 6l12 12q6 7 11.5 12 t6.5 7l8 8l10 12l9 10q4 5 5 7q1 1 2.5 7.5t2.5 8.5q1 1 4 5l8 10l9 10q4 5 5 6q2 2 3.5 8t2.5 8v16l-3 11q-2 8 -3 10l-5 5q-4 4 -8.5 8t-8 8t-4.5 5v6v12v11v8q0 1 -2 4.5t-3 5.5q-1 1 -2.5 3t-2.5 3q-2 2 -12 7l-15 8q-4 2 -12 6.5t-9 4.5h-31q-4 -1 -14 -2.5t-12 -2.5 l-15 -7q-12 -6 -17 -9q-2 -2 -8 -5.5t-8 -5.5l-11 -10q-8 -8 -10 -11q-2 -2 -8 -10.5t-8 -10.5l-6 -12l-8 -16l-8 -15l-4 -9q-1 -4 -3.5 -13t-5 -19t-4.5 -19t-3 -12v-53q1 -1 2.5 -7t3.5 -9q1 -2 2.5 -6t2.5 -4zM764 74q0 3 -0.5 11t-0.5 17q0 10 0.5 18t0.5 11q0 2 2 10 t3 11q1 2 2.5 5.5t3.5 5.5l7 11l10 15l9 13q4 6 5 8t5 5.5t6 5.5t10 8t11 8q1 1 5 2.5t5 2.5h11q1 -1 4.5 -5t5.5 -6q1 -1 3 -5t2 -5l6 -6q1 0 7.5 -2t7.5 -3q5 -3 0 -5q-1 -3 -4.5 -10.5l-7.5 -16.5l-9 -16q-4 -7 -5 -10q-1 -2 -4 -7l-7 -9l-6 -10q-3 -4 -4 -5l-10 -10 l-11 -11q-3 -3 -13 -11t-13 -10q-1 -1 -5 -3t-6 -2q-3 -2 -9 -4l-6 -2q-2 0 -6 2t-5 4zM422 347q4 -1 10.5 -3t13 -3.5t12 -3t6.5 -1.5q4 0 13 -0.5t19 -0.5t19 0.5t12 0.5l6 3q4 2 5 3l18 12q12 7 14 9q1 1 7.5 10t7.5 11q1 1 6 5.5t10 10t10 10t6 5.5t4.5 9t5.5 12 q1 2 3 8t3 8q0 1 1.5 5l3.5 9l3 8q2 3 2 4q1 3 3 9.5t3.5 13.5t3 12.5t1.5 6.5v53q-1 2 -2.5 8t-3.5 8q-1 2 -4.5 7.5t-5.5 7.5q-2 3 -8 9t-8 7q-2 2 -10 6l-11 5q-2 1 -14 2.5t-17 2.5h-21q-3 0 -9 -1t-12 -1.5t-10.5 -1.5t-5.5 -1q-2 -1 -9.5 -3.5t-15.5 -5.5l-16 -7 q-8 -4 -12 -5q-1 -1 -7 -5l-9 -6l-5 -5l-8 -8l-9 -12l-9 -11q-4 -5 -5 -6q-2 -1 -5.5 -7t-5.5 -9q-1 -1 -3 -5t-2 -5q-2 -4 -4 -11l-5 -14l-5 -14q-2 -7 -2 -8q-1 -4 -3 -16t-2 -16q0 -3 -0.5 -10t-0.5 -14q0 -6 0.5 -11.5t0.5 -6.5q1 -3 7 -15t9 -17l12 -12q9 -10 14 -14 q1 -1 4.5 -2.5t5.5 -2.5zM449 415q-2 2 -6 11l-5 10v11q0 1 2.5 7.5t2.5 8.5q0 1 1 5.5t2 10t2 10t1 5.5t2.5 5t5 8.5t5 8t2.5 4.5q1 1 3 5.5t3 5.5q0 1 2 2.5t3 2.5t7.5 5t8.5 6l10 10q4 2 14 6t12 5q3 0 9 0.5t12 0.5q7 0 13 -0.5t9 -0.5q1 -1 3 -2.5t2 -3.5v-21 q0 -1 -2.5 -5t-2.5 -5t-1 -6l-2 -10l-2 -10q-1 -5 -1 -6q0 -2 -1.5 -7t-3.5 -10l-4 -9q-1 -4 -1 -5q-2 -3 -6 -10t-9 -14.5t-10 -14t-7 -9.5l-6 -4q-6 -4 -10 -6q-2 -2 -5.5 -3.5t-4.5 -1.5q-5 -1 -19 -1q-13 0 -18 1q-2 1 -5.5 4.5t-4.5 5.5z" />
<glyph unicode="&#x26;" horiz-adv-x="942" d="M562 5q1 -2 5 -6l8 -8l8 -8q3 -3 5 -4h16q1 0 4.5 2t5.5 3t4 3t2 3v21q-1 3 -2.5 15t-3.5 16q0 2 -2.5 8t-2.5 8v10q0 1 2 3l3 3q2 0 8.5 2t7.5 3q1 0 5 1.5l9 3.5l8 3q3 2 4 2q3 2 9 3.5t7 2.5q1 0 6 0.5t10 1.5l10 2q5 1 6 1l7 7q6 6 8 9q2 1 3.5 5t2.5 5v16 q-1 2 -9 10t-12 11q-1 1 -5 2.5t-6 2.5q-3 2 -9 3.5t-7 1.5q-4 0 -13.5 0.5t-19.5 0.5t-18.5 -0.5t-11.5 -0.5q-1 0 -5.5 -1.5t-10 -3t-10 -3.5t-5.5 -2q-5 -1 -15 -1q-9 0 -11 1q-1 0 -5 6t-6 10q-1 1 -3 6.5t-5 11.5t-5 11.5t-3 7.5q0 1 -2.5 4.5t-5 8t-5 8.5t-2.5 5 q-2 4 -6 14t-5 12t-1 10q0 9 1 11q0 1 2 2.5t3 2.5t6 4t10 6.5t10 6.5t6 4t6 5l10 8l10 9l5 5q2 1 13.5 7.5t13.5 7.5q2 2 7.5 8t7.5 8q1 1 4 6t6.5 10t6.5 10t4 6t5 7l9 11l8 11q4 6 5 8q3 4 9 14t6 12q1 4 4.5 13t7 19t6 19t3.5 12q0 1 1 6.5t2 12.5l2 13q1 6 1 10 q0 3 1 13t1.5 22t1.5 22.5t1 15.5v16q0 2 -2 8t-3 8t-7 12l-9 14l-6 9q-4 6 -5 7t-5 6l-9 10q-5 6 -9.5 12t-7.5 9l-5 5q-4 3 -10 8l-12 10l-10 9q-5 4 -5 5q-4 2 -14 8t-12 7t-12 3l-15 3q-4 0 -15.5 1.5t-25 3.5t-26 3.5t-17.5 1.5h-10q-3 -1 -9 -4l-12 -6q-7 -3 -13 -6.5 t-8 -4.5q-3 -2 -13 -10l-14 -11q-4 -3 -11 -10l-14 -15l-14 -14q-7 -6 -8 -8q-2 -2 -5.5 -10t-4.5 -11q0 -1 -1 -6l-4 -13q-2 -7 -3.5 -13.5t-2.5 -9.5q0 -2 -1.5 -9.5t-3.5 -15.5t-3.5 -16t-1.5 -12q0 -1 -1 -5.5t-2 -10t-2 -10t-1 -5.5q0 -2 -2.5 -10.5t-2.5 -10.5v-37 q0 -2 2.5 -10.5t2.5 -10.5t1 -9t2 -15t2 -15t1 -8q0 -2 1.5 -6.5l3.5 -10.5l3 -11q1 -6 2 -9q0 -1 2.5 -5.5t2.5 -5.5q2 -2 5.5 -12.5t5.5 -13.5q0 -2 2 -8t3 -8q1 -1 3 -5t2 -5l7 -15q4 -11 4 -12q1 -3 1 -11t-1 -10q-1 -1 -9 -11l-12 -15q-1 -1 -6 -5.5t-10 -10t-10 -10 t-6 -5.5q-1 -2 -5 -8.5t-5 -7.5t-4.5 -5t-7.5 -9.5t-8 -10t-6 -7.5q-2 -1 -3.5 -3t-2.5 -2q-1 -1 -5 -3t-5 -2q-2 -1 -3 -3l-2 -2q-2 -2 -3.5 -10.5t-2.5 -11.5q0 -3 -1 -10t-1.5 -15.5t-1.5 -16t-1 -10.5v-32q0 -2 4.5 -10t6.5 -11q1 -1 4.5 -5t5.5 -5q1 -1 5 -4l10 -6 q5 -3 9.5 -6.5t7.5 -4.5q1 -1 4.5 -3t5.5 -2q1 -1 6 -2.5t10 -3.5t10 -3.5t6 -1.5l31 -12q15 -5 32 -9h5q5 1 19 3t18 2q1 0 4.5 1t8 2t8.5 2t5 1t6 0.5t10 1.5l10 2q5 1 6 1q2 1 8 3.5t13 6.5l13 6q6 3 8 5q1 -1 5 -2.5t5 -2.5l3 -3q2 -2 2 -3q2 -2 5.5 -10.5t5.5 -10.5z M346 105q-2 1 -5.5 3t-4.5 2q-2 2 -6 5.5t-5 5.5v5q1 2 3 8t3 8q1 3 5 10.5l8 15.5l8 16q3 8 5 11l5 5q6 4 15 11l17 14l15 12l6 5h5q2 0 11.5 -10.5t14.5 -15.5q1 -2 3 -8.5t2 -7.5l7 -13l9 -19l10 -19q4 -9 6 -12q1 -2 1 -11q0 -8 -1 -10q0 -1 -2 -3l-3 -3q-5 -2 -13 -5.5 t-16.5 -6.5t-15.5 -6t-8 -3q-4 -1 -18 -1t-19 1l-5 2l-12 4l-14 5q-7 3 -11 5zM430 373q0 1 -1.5 5t-3.5 8l-3 8q-2 4 -2 5l-5 10l-8 17l-8 16l-5 10t-3 10t-3 11q0 2 0.5 10.5t-0.5 10.5q0 1 -1 7.5t-1.5 13.5t-1.5 13t-1 8q0 3 0.5 12t1.5 19t2 19t1 13q0 1 1.5 6.5t3 12 t3.5 13t3 10.5q1 2 2.5 8t2.5 8q3 8 9 22t7 15q2 3 9 10l14 14l14 14q7 7 10 9q3 0 9.5 0.5t13.5 0.5q8 0 15 -0.5t10 -0.5q1 0 8.5 -2t12.5 -3q7 -2 13 -4.5t13 -6.5q3 -2 9 -5.5t7 -4.5q1 -2 9 -12l12 -14l6 -9q4 -6 4 -7q1 -3 3 -8.5t3.5 -11.5t3 -11t1.5 -6v-68 q0 -2 -2.5 -8.5t-3.5 -7.5q0 -1 -0.5 -5t-1.5 -8.5t-2 -8t-1 -4.5q-1 -2 -4.5 -12.5t-5.5 -14.5l-5 -11q-4 -6 -7 -12.5t-6 -12t-3 -6.5l-4 -5l-9 -10l-11 -12q-5 -6 -8 -10l-10 -10q-2 -1 -8.5 -5t-7.5 -6q-2 -1 -10.5 -7.5t-10.5 -7.5q-2 -2 -8 -6t-8 -5t-5.5 -3t-5.5 -2 q-2 -1 -10 -3t-11 -2q-2 -1 -6 -1q-3 0 -4 1q-2 1 -5 4z" />
<glyph unicode="'" horiz-adv-x="622" d="M385 511l5 -5q2 -1 8 -1t8 1q2 0 5.5 2t5.5 3l26 26q2 2 10 12t11 15q2 2 5.5 7.5t4.5 7.5q2 2 6 10l5 11q1 2 5.5 6t4.5 5q1 1 3 7.5t3 8.5q1 3 8 15l15 26l15 27q7 13 9 16q1 1 3 6.5t5 11.5t5 11.5t3 6.5l5 11l5 10q1 2 1 8t-1 8q0 1 -4 7l-6 9q-1 1 -3 2.5t-3 2.5 q-4 2 -18 2t-18 -2q-1 0 -4.5 -3.5t-8 -7.5t-8.5 -8.5t-6 -6.5q-1 -2 -5 -9l-9 -16l-10 -16q-5 -8 -7 -12q-1 -1 -3 -7.5t-2 -7.5l-3 -6q-2 -4 -3 -5q0 -2 -2.5 -8t-4.5 -13l-5 -14q-3 -6 -3 -7l-5 -10l-8 -16l-9 -17q-4 -7 -5 -9t-4 -11l-7 -18l-6 -19q-3 -8 -4 -10 q0 -2 -5 -13t-5 -13q0 -1 2 -5z" />
<glyph unicode="(" horiz-adv-x="640" d="M375 -160q-1 1 -11 6q-9 3 -11 5l-8 8l-19 19l-15 15q-3 3 -11 16q-6 10 -8 12t-7 10q-4 5 -8.5 11.5t-8.5 11.5q-2 2 -2.5 4t-1.5 3l-7 15q-6 12 -9 17q-29 61 -41.5 132.5t-7 143.5t30.5 139t71 120q1 2 7.5 10.5t8.5 10.5q1 2 5 6l5 5l14 11q10 8 12 10q1 0 5.5 2 t5.5 3q2 1 8 5t8 5q2 2 6 4l4 2h32q2 -1 10 -2.5t11 -3.5q2 0 5.5 -2t4.5 -3q2 -2 6 -5.5t5 -4.5q1 -2 2.5 -8t2.5 -8v-5q-1 -2 -2.5 -6t-2.5 -5q-11 -16 -23.5 -18.5t-29.5 -7.5q-4 -4 -12.5 -11l-17.5 -15l-17 -17q-8 -8 -11 -15l-4 -8l-6 -13l-7 -14q-3 -6 -4 -7 q0 -1 -4.5 -5t-5.5 -6q-16 -24 -24.5 -51t-12.5 -55t-5 -57t-1 -57q0 -23 1.5 -42t5 -37t10 -35.5t15.5 -38.5q9 -16 23 -36l25 -37q3 -12 10.5 -19t16.5 -13l18 -11q10 -5 18 -14q2 -2 12 -5.5t14 -5.5h11q1 0 5 2.5t5 2.5q2 2 8 3.5t8 2.5h10l6 -3q4 -2 5 -3t2.5 -10 t2.5 -11l-10 -31q-2 -1 -6 -8t-5 -8l-16 -16q-1 -1 -5 -3t-5 -2q-5 0 -13 -0.5t-17 -0.5q-8 0 -15 0.5t-8 0.5t-7 4l-12 8l-11 9t-6 5z" />
<glyph unicode=")" horiz-adv-x="449" d="M171 -142l-5 5l-6 9q-4 6 -5 7v11q1 1 3 5t3 5l21 21q2 3 7 9l10 11l9 11q4 4 5 6q1 1 3 5t3 5q1 2 7.5 10.5t7.5 10.5q2 3 6 8.5t5 6.5q1 2 2.5 8t2.5 8q1 1 4 7l5 12q3 6 5 11.5t2 6.5l4 18l4 27t5 27l3 17v74q0 6 -1 18l-2 24l-2 23t-1 14q-6 42 -17 82.5t-25 80.5 q0 4 -3 7.5t-5 9.5q-5 18 -15 31.5t-23 25t-27 21t-27 20.5l-21 21q-1 3 -1 18q0 16 1 19t7 9t9 7t16 1t16 -1q2 -1 10.5 -8t10.5 -8q2 -2 13 -5l13 -5l45 -46q17 -18 26.5 -29.5t13 -16.5t4.5 -8q18 -35 31 -75.5t21.5 -83.5t12.5 -86.5t4 -85.5q0 -69 -15 -132t-48 -120 q-3 -3 -11 -17.5t-16 -24.5q-2 -4 -3 -6.5t-2 -3.5q-1 -2 -7.5 -10.5t-8.5 -10.5q-1 -2 -5 -8.5t-5 -7.5l-11 -11q-6 -5 -15 -5q-2 -1 -9 -1q-6 0 -7 1q-2 1 -14 8.5t-18 12.5z" />
<glyph unicode="*" horiz-adv-x="637" d="M201 328q1 0 3 -2.5t3 -2.5q2 -1 10 -1t11 1l2 3q2 2 3 2q1 1 5 3t5 3q2 2 8 7.5t8 7.5q2 3 8 11l12 17l13 18l9 12q1 1 3 5t5 8.5t5 8t3 4.5q2 4 10.5 11.5t10.5 9.5q2 1 5 1q4 0 6 -1q1 -2 4 -5l8 -8l8 -8q4 -4 6 -5q1 -1 5 -4l10 -6l9 -7q5 -3 7 -4t8 -3t8 -2 q3 -1 11 -1t10 1q1 0 5 2l6 3l5 5q1 5 1 17t-1 15l-5 10q-4 8 -6 11q0 1 -4 5t-6 5q-2 2 -8 6t-8 5q-3 3 -7.5 7t-8.5 8t-7 8l-3 3v6l7 7l15 15l15 14q1 1 11 9l15 12q8 7 18 14t13 18q2 4 4 14t2 12t-2 5.5t-4 5.5q-2 1 -6 5t-9 8l-10 8q-4 3 -6 5q-2 1 -6 1q-3 0 -5 -1 q-1 0 -4.5 -2.5t-8 -5t-8.5 -5t-5 -3.5q-1 0 -6 -2l-10 -5l-9.5 -5.5t-5.5 -3.5t-4 -4.5t-7 -7.5l-6 -9q-3 -4 -4 -5l-21 -21q-1 2 -3 10.5t-3 10.5q0 1 -0.5 6.5t-1.5 12t-2 11.5t-1 7q0 1 -2 5t-3 5q-1 2 -5 5.5t-6 5.5t-8 5.5t-8 5.5h-5q-1 -1 -5 -3t-5 -3q-1 0 -3 -2 l-3 -3q-1 -2 -3 -5.5t-2 -5.5q0 -1 -1 -5.5t-1.5 -10t-1.5 -10t-1 -5.5t-3 -7.5t-6 -15t-7 -16.5l-5 -14l-5 -10q-2 -2 -6 0q-1 0 -4.5 2t-5.5 3t-8 5.5t-8 5.5l-15 6q-9 4 -11 4t-10.5 -1.5t-10.5 -3.5q-3 -2 -9 -8t-7 -8q-1 -3 -1 -13t1 -13q1 -2 7 -8t9 -8q1 -1 5 -3 t5 -2q1 -1 5 -4l8 -6l9 -7q4 -3 5 -4t5 -4l10 -6l10 -7q5 -3 6 -4q5 -3 5 -6q1 -1 1 -5q0 -3 -1 -5q-2 -2 -5 -8l-8 -13q-4 -7 -8 -13t-5 -8q-1 -1 -3 -5.5t-2 -5.5q-1 -1 -4 -5l-7 -10l-6 -10q-3 -5 -4 -6q-2 -2 -3.5 -6t-1.5 -5q-1 -4 -1 -16t1 -15q0 -3 5 -5q1 -1 5 -3 t5 -3z" />
<glyph unicode="+" horiz-adv-x="852" d="M408 59q3 -1 13.5 -3t13.5 -2q3 -1 11 -1t10 1q1 0 4.5 4.5t5.5 6.5q2 1 3.5 5t1.5 5q1 2 1 10t-1 11q0 2 -2.5 10.5t-2.5 10.5v26q1 6 2.5 20t2.5 17q2 5 6 5q3 1 15 1t16 -1q2 0 10.5 -2t10.5 -3q1 0 6 -0.5t10 -1.5l10 -2q5 -1 6 -1t7.5 -2.5t8.5 -2.5q4 -1 14 -1 t12 1q1 0 4.5 4t5.5 6t3.5 5.5t2.5 5.5v10q-1 3 -3 11t-3 10q0 1 -2 3l-3 3q-1 1 -5.5 3t-9.5 4.5t-9.5 4.5t-6.5 3q-2 2 -13.5 6t-13.5 5q-1 0 -5 2.5t-5 2.5q-2 0 -9 1.5t-15 3.5t-15 3.5t-8 2.5q-3 1 -8.5 2.5t-5.5 2.5v79q0 1 -3 5t-5 5t-6 3.5t-9 5t-9.5 5t-6.5 2.5 q-2 1 -8 1t-8 -1q-1 0 -4.5 -2t-5.5 -3t-3.5 -3t-2.5 -2q-1 -2 -2.5 -10.5t-2.5 -10.5q0 -2 -1 -11t-1.5 -18.5t-1.5 -18t-1 -10.5q-1 -5 -3 -12.5t-2 -8.5q-1 -1 -7 -3l-9 -3q-3 0 -9 -1t-13 -2t-12.5 -1.5t-7.5 -0.5h-90q-1 0 -5 -2t-5 -3q-2 -1 -5.5 -5t-5.5 -6 q-1 -2 -3 -5.5t-2 -4.5q-1 -3 -1 -14q0 -10 1 -12q0 -1 2 -3l3 -3l6 -3q4 -2 5 -2l12 -3q8 -2 16.5 -3.5t15 -3t8.5 -1.5q6 0 19.5 -0.5t28.5 -0.5t28.5 0.5t18.5 0.5v-99q0 -1 2 -5l3 -6l5 -5q4 -4 6 -5q1 -2 5 -3.5t5 -2.5z" />
<glyph unicode="," horiz-adv-x="655" d="M337 -229l5 -5q2 -1 8 -1t8 1q2 0 5.5 2t5.5 3l26 26q2 2 10 12t11 15q2 2 5.5 7.5t4.5 7.5q2 2 6 10l5 11q1 2 5.5 6t4.5 5q1 1 3 7.5t3 8.5q1 3 8 15l15 26l15 27q7 13 9 16q1 1 3 6.5t5 11.5t5 11.5t3 6.5l5 11l5 10q1 2 1 8t-1 8q0 1 -4 7l-6 9q-1 1 -3 2.5t-3 2.5 q-4 2 -18 2t-18 -2q-1 0 -4.5 -3.5t-8 -7.5t-8.5 -8.5t-6 -6.5q-1 -2 -5 -9l-9 -16l-10 -16q-5 -8 -7 -12q-1 -1 -3 -7.5t-2 -7.5l-3 -6q-2 -4 -3 -5q0 -2 -2.5 -8t-4.5 -13l-5 -14q-3 -6 -3 -7l-5 -10l-8 -16l-9 -17q-4 -7 -5 -9t-4 -11l-7 -18l-6 -19q-3 -8 -4 -10 q0 -2 -5 -13t-5 -13q0 -1 2 -5z" />
<glyph unicode="-" horiz-adv-x="762" d="M514 115q2 -1 10.5 -6t10.5 -5q1 0 6 -0.5t11 -0.5t11.5 0.5t8.5 0.5q2 0 5.5 2t4.5 3t3 5t2 6q2 4 4 12t2 9t-4.5 8.5t-6.5 12.5q-2 3 -5.5 9t-4.5 7q-4 3 -16 11t-16 10q-1 0 -11 2l-15 3h-11q-24 0 -63 1l-75 2q-37 1 -64 1.5t-29 0.5t-8.5 1t-14.5 1.5t-15 1.5t-9 1 h-5q-2 0 -8 -2t-8 -3l-6 -3l-4 -2q-2 -2 -6 -8t-5 -8t-1 -8t1 -8l5 -10l6 -9q4 -6 5 -7q2 -2 8 -5.5t8 -4.5q6 0 21.5 -1l32.5 -2l34 -2q16 -1 22 -1q1 0 7.5 -1t13.5 -1.5t13 -1.5t8 -1q6 0 21 -0.5t31 -0.5q17 0 32 0.5t21 0.5q2 -1 8 -3t8 -2q1 0 4.5 -1t8 -2t8.5 -1.5 t5 -0.5z" />
<glyph unicode="." horiz-adv-x="582" d="M338 21q2 0 10 -5t10 -5q1 0 9 4l12 6q2 2 8 5.5t8 5.5l16 16q1 2 3 7.5t2 7.5q0 1 -2 5l-3 6l-13 13q-10 10 -14 13h-46q-2 0 -5.5 -2t-5.5 -4q-2 -1 -5.5 -4.5t-4.5 -5.5q-2 -2 -3.5 -5.5t-2.5 -4.5v-21l8 -16l8 -16q2 1 5 1q4 0 6 -1z" />
<glyph unicode="/" horiz-adv-x="737" d="M136 11q-1 0 -7.5 2t-7.5 3h-11q-2 -1 -5.5 -5t-4.5 -6q-3 2 -7 10t-4 11q0 2 5 5.5t6 5.5q0 2 2.5 15.5t2.5 15.5t2 5.5t3 5.5q1 1 6 7t10 13l10 14q5 6 6 8q1 3 7 15l13 27q7 15 13.5 27t8.5 15q20 25 36 58q43 58 82 117l78 118l80 117q41 59 87 116q1 2 5 8t5 8 q1 0 3 2t2 3q1 1 6 8l7 13q2 5 4 7l4 4q2 2 10.5 7.5t10.5 7.5q2 0 6 -2t5 -3q2 -2 7 -8l12 -13q6 -6 11 -12t7 -9q1 -2 1 -13t-1 -13q0 -1 -4.5 -7t-6.5 -9q-2 -4 -8 -12t-8 -9q-114 -149 -213 -301l-197 -304q0 -1 -4 -13l-6 -18q0 -2 -1.5 -7.5t-4 -11.5t-4 -11.5 t-1.5 -6.5q-4 -8 -6 -10t-10 -6h-5q-1 0 -6 1.5t-11 3t-11.5 3.5t-8.5 3z" />
<glyph unicode="0" horiz-adv-x="701" d="M192 21q-12 12 -25 27.5t-24 33.5t-18 37t-7 39q0 32 1 80t6 97.5t15.5 91.5t30.5 62q2 3 7.5 13t7.5 14q2 2 6 8.5t5 6.5l9 9l11 12l6 6q2 2 10.5 8t10.5 7q1 1 6 3.5t10 4.5t10 4.5t6 3.5q0 1 2 3t3 2q1 1 5 3l6 3l15 6q9 4 11 4q1 0 9 2l17 5l18 5q9 2 14 4 q4 1 10.5 3t13.5 3.5t12 3t6 1.5h16q1 -1 7 -2.5t8 -3.5q2 -1 6 -2.5t5 -2.5q2 -1 5.5 -5t4.5 -6q1 0 3 -4.5t3 -5.5q3 -4 11 -12t10 -9q2 -2 12 -6l20 -10l20 -9q9 -5 11 -7l6 -6l9 -12l9.5 -13.5t6.5 -10.5q1 -2 4 -9l7 -15l6 -16t4 -12q2 -3 3.5 -13t2.5 -14v-36 q0 -1 -1.5 -6.5t-3 -12t-3.5 -13.5t-3 -11q0 -1 -2 -7t-3 -8t-5 -12.5t-6 -14.5q-18 -47 -49 -101t-68.5 -100.5t-78.5 -77.5t-77 -31h-84q-1 0 -6.5 2.5t-12.5 6.5l-13 7q-7 3 -10 5zM244 79q2 -1 5.5 -3t5.5 -2q1 -1 12 -1t14 1q22 3 41.5 13.5t39 27t39.5 36.5l43 44 l32 52q16 27 29.5 55t23 57.5t10.5 61.5v5q-1 4 -3 14t-2 12q-1 2 -3 8t-3 8q-2 4 -5.5 12t-4.5 9q-4 5 -14 15t-13 12q-2 1 -8.5 3.5t-14 5t-14.5 4.5t-10 2q-2 1 -12 1h-17h-18q-9 0 -11 -1t-8 -5t-8 -5q-2 -2 -5.5 -3.5t-4.5 -1.5q-2 -1 -11 -1t-10 1q-2 0 -10.5 5 t-10.5 5t-14.5 -6t-17.5 -10q-2 -1 -10 -9t-11 -12q-4 -5 -7.5 -12t-8.5 -12q-11 -14 -22.5 -40.5t-21.5 -60t-16.5 -71t-6.5 -72.5t7 -64.5t24 -46.5z" />
<glyph unicode="1" horiz-adv-x="496" d="M371 5q2 -1 5.5 -3t4.5 -2t5 2l6 3q2 2 6.5 6t8.5 8.5t7.5 8t3.5 4.5q2 2 4 12.5t1 13.5v247q0 3 0.5 13t1.5 22t2 22.5t1 15.5q0 3 1.5 13.5t3.5 22t3.5 22.5t2.5 16q1 3 2.5 11t2.5 10l5 10l6 11v11l-3 15q-2 10 -3 11l-6 4l-9 6q-2 2 -6 4t-5 2q-3 0 -8.5 0.5 t-11.5 0.5t-11 -0.5t-6 -0.5l-7 -7q-6 -6 -8 -9q-1 -1 -5 -7l-6 -9q-1 -1 -3 -5t-2 -5q-1 -2 -3 -8.5t-2 -7.5l-7 -11l-10 -15l-9.5 -13t-5.5 -8q-1 -1 -7 -5l-9 -6q-2 -1 -10.5 -5t-10.5 -5q-1 -1 -4.5 -3.5t-8 -5t-8.5 -5t-5 -2.5q-2 -1 -9 -3l-14 -5l-14 -5l-10 -3 q-2 -1 -12 -2.5t-15 -2.5q-2 0 -7 -1t-12 -2l-14 -2q-6 -1 -9 -1h-5q-1 0 -5 1t-8.5 2t-8 2t-4.5 1h-21q-1 0 -5 -2t-6 -4q-1 -1 -3 -2.5t-2 -2.5v-37l4 -4q4 -4 7 -6q0 -1 4 -2.5t6 -2.5q3 -2 9 -3.5t7 -2.5h37q4 0 13.5 1t20.5 2t20.5 2t13.5 1t16 2t15 3q1 0 5 2l6 3 q2 1 8 5.5t8 5.5q4 2 18 5.5t19 4.5q2 1 10.5 0.5t10.5 -0.5q1 1 5 2.5t5 2.5l5 -26q0 -2 0.5 -22t0.5 -47q0 -26 -0.5 -54t-0.5 -45q0 -3 -0.5 -14t-1.5 -24l-2 -24q-1 -11 -1 -17q0 -1 -1 -5.5t-1.5 -10t-1.5 -10t-1 -5.5v-6q1 -2 2.5 -8t2.5 -7q1 -2 5 -5.5t6 -5.5 q1 -1 5 -3t5 -2q1 -1 5 -5.5t6 -5.5z" />
<glyph unicode="2" horiz-adv-x="478" d="M342 5q-2 0 -7 1l-12 2l-11 2q-6 1 -7 1q-2 0 -9.5 1.5t-16.5 3.5t-16.5 3.5t-9.5 1.5q-3 0 -16.5 1t-28.5 1.5t-28.5 1.5t-16.5 1q-1 0 -4.5 1t-8 2t-8.5 2t-5 1h-8h-13h-14h-7q-2 0 -14 5.5t-17 9.5l-6 7q-5 4 -5 9q-1 2 -1 11t1 10q0 2 4.5 8t6.5 8l10 11q8 8 11 10 q1 2 10 8t11 8l89 89l35 76q15 33 23 45q0 1 2 7.5t3 8.5l7 15l11 22l12 22l7 14v21q-3 1 -19 1q-15 0 -18 -1q-2 0 -7 -0.5t-11 -1.5t-11 -2t-8 -1q-1 0 -7 -2l-9 -3q-3 -3 -10 -5q-2 -2 -8 -6l-13 -8q-7 -5 -13 -8.5t-8 -4.5h-5q-7 1 -19 3t-13 3q-5 3 -10 9.5t-6 11.5v10 q1 2 7 9l9 12q2 2 5.5 6t5.5 5q1 1 11 7t15 8q2 2 5.5 3.5t4.5 2.5l11 3l15 6l14 4q6 2 8 2q4 2 14 4t12 2h89q3 -2 11 -5.5t10 -5.5q2 -1 8 -4.5t8 -5.5l3 -3q2 -2 2 -3q2 -2 5.5 -7.5t5.5 -7.5q0 -3 0.5 -10.5t0.5 -16.5q0 -8 -0.5 -15.5t-0.5 -10.5q0 -1 -4.5 -9 t-6.5 -12q0 -1 -2 -3t-3 -2q-2 -3 -5 -8l-6 -12q-3 -6 -6 -11t-4 -6q-1 -2 -3 -9t-5 -15.5t-5 -15t-3 -7.5q-9 -14 -19 -37l-23 -49q-12 -26 -25.5 -48.5t-26.5 -34.5l-9 -9l-13 -14l-12.5 -14.5t-7.5 -9.5q-3 -3 0 -5q1 -1 4.5 -3t5.5 -2q5 0 18 -1l27 -2l27 -2 q13 -1 18 -1q4 0 13 -1t19 -1.5t19 -1.5t12 -1q4 0 10 -1l14 -2q7 -1 12 -1.5t6 -0.5q2 -1 10.5 -5t10.5 -6q4 -2 11.5 -10.5t9.5 -10.5q1 -1 1 -9q0 -9 -1 -12l-2 -2q-2 -2 -4 -3l-16 -8q-12 -6 -15 -8q-2 -1 -10 -2.5t-11 -2.5h-11q-1 0 -4.5 1t-8 1.5t-8.5 1.5t-5 1z" />
<glyph unicode="3" horiz-adv-x="478" d="M136 5q-3 3 -9 11t-7 10l-3 9q-2 6 -3.5 12.5t-2.5 12t-1 8.5q-1 2 1 10.5t4 10.5q0 2 4 5.5t6 5.5q2 1 5.5 3t5.5 2h31q3 0 16 -2.5t16 -2.5t9.5 -0.5t12.5 -0.5q7 0 12.5 0.5t7.5 0.5q1 0 11 4l15 6q2 1 5.5 3t5.5 3q2 2 8 5.5t7 4.5l6 6q4 4 8.5 8t8.5 8l4 4 q2 3 7.5 13t7.5 14q1 2 3 10t3 11v26q-1 1 -5 9l-6 12l-5 5q-5 4 -15 10l-11 6h-69l-31 31q-1 1 -1 9q0 9 1 12q0 2 2 5.5t3 5.5q2 2 5.5 6t5.5 4q1 1 11 3l15 3q1 0 7.5 -0.5t8.5 0.5q8 0 14.5 5t11.5 10q1 2 4.5 10t5.5 11q2 5 6.5 15t4.5 12q0 3 0.5 12t0.5 19 q0 33 -8.5 60.5t-40.5 50.5q-3 5 -8.5 6.5t-11.5 3.5q-4 1 -10 1h-12q-14 0 -15 -1q-2 -1 -5 -6l-6 -10l-6 -10q-3 -5 -4 -6l-8 -12l-12 -17q-2 -2 -3.5 -4t-2.5 -3q-2 -2 -8.5 -10.5t-7.5 -10.5q-1 -1 -3.5 -6t-4.5 -10t-4.5 -10t-3.5 -6q-1 -2 -5 -5.5t-5 -4.5 q-2 -2 -8 -4t-8 -2t-8 2t-8 4q-2 0 -8 4t-8 6l-5 5q-1 2 -1 13t1 14q0 2 2 7.5t3 7.5q1 1 4 6l7 10l6 10q3 5 4 6q2 2 8 15.5t8 15.5q2 3 5.5 9t5.5 7q5 3 14 13l19 21q10 11 19.5 20t15.5 9h37q6 -1 20 -2.5t16 -2.5q1 0 6.5 -2.5t11.5 -6.5l13 -6l11 -6q2 -2 8 -5.5 t8 -5.5q1 -1 5 -4.5t6 -5.5l24 -35q10 -17 17.5 -34t12 -36t4.5 -43q0 -9 -0.5 -18t-0.5 -13q0 -1 -0.5 -5.5t-1.5 -9.5t-2 -9.5t-1 -6.5t-1.5 -7.5t-3.5 -11.5t-3.5 -11.5t-1.5 -6.5q-1 -1 -1 -6q0 -3 1 -4q0 -4 5 -6q5 0 9.5 -4t6.5 -6q0 -1 2 -5.5t3 -5.5l10 -10 q1 -2 4 -7.5t6 -12.5t6 -13t5 -9q1 -2 3 -8t3 -8q5 -24 3 -39.5t-8.5 -28.5t-17.5 -26t-25 -32q-20 -26 -36.5 -40t-35.5 -21t-42.5 -10.5t-57.5 -7.5h-6q-1 0 -5 -1.5t-6 -3.5q-1 -1 -7.5 -5.5t-7.5 -4.5q-3 -2 -11 -6l-10 -5h-6q-2 1 -5.5 2.5t-4.5 2.5z" />
<glyph unicode="4" horiz-adv-x="464" d="M251 11q-2 2 -8 7.5t-8 7.5q-1 2 -3 8t-2 8q-1 2 -1 13q0 12 1 13q0 2 1.5 9t4 15t4 15t1.5 9v47h-22q-14 0 -29 -2t-30 -2t-29 4t-27 16q-3 1 -8 6l-11 11q-6 6 -11 11.5t-7 8.5q-2 2 -5 8l-6 12q-4 7 -6.5 13t-3.5 9q0 6 -0.5 22.5t-0.5 34.5q0 19 0.5 35.5t0.5 22.5 q0 16 5 34t11 36t11 36.5t5 35.5q0 2 2 5.5t3 5.5q3 4 11 12t10 9q1 1 9 1q9 0 12 -1q1 -1 5 -2.5t5 -3.5q5 -3 12.5 -11t8.5 -10q1 -1 1 -9q0 -9 -1 -12q0 -1 -2 -7.5t-3 -7.5q0 -2 -1.5 -8t-3.5 -13t-3.5 -13.5t-1.5 -7.5q-1 -2 -3 -9l-6 -15q-3 -8 -5 -15t-2 -9 q-4 -19 -5 -33.5t-1 -35.5q0 -10 0.5 -19t0.5 -12q0 -2 1.5 -9.5t3.5 -11.5q0 -1 2 -5t3 -5q2 -4 8 -12t8 -9q1 -1 5 -3t5 -2q2 -1 13 -1q12 0 14 1q1 0 6 1l12 3q7 1 13.5 3t10.5 3q2 1 8 3t8 2q2 2 7.5 6t5.5 5v42l3 2q3 2 5 3q2 2 6 4l4 1q2 1 13 1t13 -1q1 0 5 -1.5 t6 -3.5q9 -6 11 -17t5 -20q0 -2 2 -6t3 -4q1 -1 9 -5l12 -6q2 -1 13 -5t13 -5t8 -7t8 -9q1 -1 3 -5t2 -5q1 -2 5.5 -8t5.5 -8v-11q-1 -1 -2.5 -4.5t-3.5 -5.5q0 -1 -2 -3l-3 -3q-3 1 -21 1t-21 -1q-2 0 -10.5 -1.5t-10.5 -3.5q-1 0 -3 -2t-2 -3q-1 -2 -3 -12.5t-2 -13.5 t-1 -13t-2 -21.5t-2 -21.5t-1 -13q0 -4 -2 -16t-3 -15q0 -2 -2 -5.5t-3 -5.5l-21 -21q-1 -1 -5 -2.5t-6 -2.5h-5q-3 2 -11 5.5t-10 5.5z" />
<glyph unicode="5" horiz-adv-x="442" d="M158 5q-2 2 -8 5.5t-8 5.5q-1 1 -3 2.5t-2 2.5q-1 2 -2.5 8t-2.5 8v5q0 2 2 8t3 8l5 10q2 2 5.5 3.5t5.5 2.5h9h17h16h10q2 0 9 1t15.5 2.5t16.5 3.5l12 3q1 0 5 2t5 3q7 5 12 12.5t9 14.5q2 3 6 11l5 10v10q0 2 -2 10t-3 11q-1 2 -3 8t-3 8q-2 4 -5.5 12t-4.5 9l-21 21 q-2 2 -10 8t-11 8q-1 0 -5 2l-6 3q-6 2 -12.5 4.5t-13.5 0.5q-2 0 -8 -2t-8 -3l-11 -5l-10 -6q-3 -1 -16 -1t-15 1q-8 4 -16 12l-16 15q0 9 0.5 31t0.5 47q0 26 -0.5 48t-0.5 31q0 3 -1 10.5t-1.5 16t-1.5 16t-1 10.5q0 6 -4.5 10t-16.5 16q-11 14 -16 16.5t-5 9.5v16 q0 1 2 5l3 6q1 1 3 2.5t3 2.5q2 1 5.5 3t4.5 2q2 0 8.5 0.5t13.5 0.5q8 0 15 -0.5t10 -0.5q18 0 33 -8t30 -8q10 0 21 -3l23 -7q12 -4 23.5 -6t22.5 1l10 -3q8 -3 16 -5l16 -5q7 -2 10 -3q2 -1 8 -5t8 -6q3 -2 9 -8l7 -7q1 -2 2.5 -8t2.5 -8v-16q0 -2 -2 -10t-3 -11 q-1 -1 -2.5 -5t-3.5 -5q-2 -6 -5 -6h-42l-2 2q-2 2 -3 4q-1 1 -5 7.5t-6 7.5q-1 2 -5 6l-5 5q-2 1 -5.5 3t-5.5 2h-10q-2 0 -8 1t-13 1.5t-13.5 1.5t-7.5 1q-4 1 -10 1h-12q-14 0 -15 -1l-5 -5v-126q0 -1 2 -3t3 -2q2 -1 10 -3t11 -3q1 0 6.5 -1t11.5 -1.5t11.5 -1.5t7.5 -1 q4 -1 14.5 -5t27.5 -21q10 -5 29 -23.5t36.5 -42.5t27 -50t1.5 -47q-1 -7 -2.5 -13t-6 -14.5t-13.5 -22t-25 -34.5q-1 -1 -9 -7l-12 -9q-1 -1 -7.5 -5t-8.5 -5q-2 -2 -7.5 -8t-7.5 -8h-105q-1 0 -5 2z" />
<glyph unicode="6" horiz-adv-x="467" d="M110 26l-12 16q-7 8 -9 11q-11 12 -16 26l-11 31l-3 12q-2 8 -2 9q0 4 -0.5 15.5t-0.5 24.5q0 14 0.5 26.5t0.5 17.5q0 16 1 27.5t3 21t7 20.5l10 26q2 4 5.5 14t5.5 12q0 1 2 5.5t3 5.5q23 57 55 109t76 96l11 14q8 10 10 12q1 1 9 7l12 9l9 6q6 4 7 4q1 1 10 1t11 -1 q1 0 4.5 -2t5.5 -3l15 -10q7 -4 12 -11q1 -2 3 -5.5t2 -5.5v-15q0 -2 -2 -5.5t-3 -5.5q-8 -11 -20 -17t-22 -14l-16 -16q-2 -2 -11 -14l-15 -18l-11 -14q-8 -10 -10 -12l-12 -16l-13 -18q-6 -7 -7 -8l-10 -19l-13 -24q-6 -11 -10 -20.5t-4 -10.5v-10q14 13 31 19t35.5 7.5 t38 0.5t37.5 -1q6 0 15.5 -3.5t14.5 -5.5l20 -7q11 -3 13 -5q1 0 2.5 -2t2.5 -3q2 -2 6 -8t5 -8q0 -1 2 -7l3 -9l6 -21q4 -14 5 -15v-16q0 -3 -3 -14t-6 -19q-1 -3 -1 -5t-1 -4q-5 -19 -14 -32.5t-17 -30.5q-2 -2 -8 -10.5t-8 -10.5q-1 -2 -7.5 -8t-8.5 -8 q-21 -24 -31 -33.5t-17 -14t-14 -8.5t-22 -17q-19 -11 -42 -11q-2 0 -9 1t-14.5 1.5t-14.5 1.5t-9 1zM167 79q5 -5 11 -5q2 0 7 -0.5t10 -0.5t9 0.5t5 0.5q13 0 30.5 13.5t33 32.5t26 38t10.5 31q1 2 3 5.5t2 5.5v57q-3 4 -10 9t-16 3q-9 0 -10 -1q-2 0 -6.5 -2t-9.5 -5 l-10 -6q-5 -2 -6 -3q-3 -1 -8.5 -3t-11.5 -5t-11 -5t-6 -3q-2 0 -9 -2l-12 -3q-2 0 -15.5 -2.5t-15.5 -2.5q-3 -1 -11 -5t-10 -6q-1 0 -2.5 -4t-2.5 -6q-2 -3 -4 -9t-2 -7v-37q0 -2 2 -7l3 -11q1 -5 3 -10t3 -8q1 -2 4.5 -8t5.5 -8q2 -3 11 -11z" />
<glyph unicode="7" horiz-adv-x="557" d="M170 32q1 -2 5.5 -7t10 -10t10 -9.5t6.5 -5.5t8 -1t8 1l5 5q1 1 2.5 5t2.5 6q1 3 6 14.5t10 25t10 25t6 14.5q0 1 2 4.5t3 5.5q0 1 2.5 5t5 8.5t5 8t3.5 4.5l7 15q6 10 11.5 22l10.5 23l8 14q0 1 2 3t3 2q3 2 13 3.5t13 2.5h47q1 0 6 -1l10 -2q6 -1 10.5 -2t5.5 -1h47 q2 1 6 5t5 6v21q0 1 -2 4.5t-4 5.5q-1 2 -5 6l-5 5q-2 2 -8 5.5t-8 4.5q-1 1 -7.5 3t-8.5 3q-2 0 -11 5l-10 5q-1 0 -5.5 1t-10 2t-10 1.5t-5.5 0.5q-2 1 -8 3t-8 3q-1 0 -3 2t-2 3q2 3 5 13l5 13q1 2 3 8t3 8q0 1 2.5 5t5 8.5t5 8t2.5 4.5q1 1 3 5.5t3 5.5q0 1 2.5 4.5t5 8 t5 8.5t2.5 5q5 7 13 21t8 16q1 1 3 7.5t3 8.5q0 1 2.5 5t2.5 5v21q0 2 -2 5.5t-3 5.5q-1 0 -5 2l-6 3q-2 1 -10 2.5t-11 2.5q-5 1 -17.5 3t-13.5 2h-12h-20h-20h-11q-8 0 -26.5 1.5t-39.5 3.5t-40 3.5t-26 2.5q-27 15 -58 21q-6 2 -18 3.5t-13 1.5q-2 0 -12 -4t-14 -6 q-1 -1 -3 -2.5t-3 -3.5t-3 -5.5t-2 -4.5q-1 -4 -1 -12q0 -7 1 -9t7 -8t9 -8q1 -1 5 -3t5 -2t6 -1l10 -2q5 -1 10 -1.5t6 -0.5q2 -1 10 -3t11 -3q1 0 7.5 -2.5t8.5 -2.5q1 0 8 -1t15 -2t15 -1.5t9 -0.5q1 0 5.5 -1t10 -2t10 -1.5t5.5 -0.5h6h10h10h6q3 -1 15 -2.5t17 -3.5 q2 0 7.5 -1.5t11.5 -3.5l11 -3q4 -2 6 -2q1 -1 3 -2.5t3 -2.5v-6q-2 -4 -6 -14t-5 -12t-6 -9.5t-10 -16.5l-9 -17q-5 -8 -6 -10q-1 -1 -3 -6l-6 -12l-4 -11q-3 -6 -3 -7l-3 -6q-2 -4 -2 -5l-6 -6q-4 -4 -5 -4q-2 -1 -8 -1t-8 1q-1 0 -5.5 1.5t-10 3t-10 3.5t-5.5 2 q-2 1 -11 1q-8 0 -10 -1q-2 0 -8 -2t-8 -3q-3 -2 -9 -8t-7 -8t-1 -10q0 -7 1 -11q0 -1 2 -5t3 -5l6 -6l5 -5q1 -1 11 -4.5t15 -5.5q2 -1 8 -3t8 -3q1 0 3 -2t2 -3v-5q-1 -4 -2.5 -12t-2.5 -9q-1 -2 -3.5 -8t-5.5 -12l-8 -13q-3 -6 -4 -9q-1 -1 -4 -6.5t-8 -12.5l-8 -14 l-6 -9q-1 -2 -4 -6.5t-7 -9.5t-7 -10t-3 -6q-1 -2 -1 -10t1 -11q1 -4 7 -16t8 -15z" />
<glyph unicode="8" horiz-adv-x="554" d="M196 10q-3 0 -10 1l-15 2q-8 1 -14.5 2t-7.5 1q-2 0 -8 2t-8 3q-3 2 -9 9l-13 14q-7 7 -12.5 14t-7.5 10q-3 4 -9 16t-7 16q0 1 -0.5 6.5t-0.5 12.5t0.5 13.5t0.5 9.5t2.5 16.5t5.5 24.5q2 8 3 11l5 14q3 10 5 13q1 3 4.5 9t8.5 13l8 13q3 5 5 7l47 47q21 21 43 47v5 q-1 1 -2.5 5t-3.5 6q-2 3 -5 9l-6 11q-3 6 -6 11t-4 6t-4 6l-6 10l-7 10q-3 4 -4 5l-3 6q-2 4 -2 5q-1 4 -3 16t-2 15t-0.5 11t-0.5 16q0 9 0.5 16t0.5 10q0 2 2 10.5t3 10.5l21 42q5 8 11 16t10 10q2 1 12 5l14 6l18 6q12 4 14 4q1 0 6 0.5t12 1.5l13 2q7 1 11 2h5 q43 -7 79 -21q4 -2 11 -4l14 -5l12 -5l5 -2l15 -10q12 -8 17 -11l8 -8q6 -6 7 -8q2 -2 3.5 -8t2.5 -8v-21q0 -3 -1 -10l-2 -15q-1 -8 -2 -14.5t-1 -7.5t-1.5 -7t-3.5 -9q0 -1 -2 -5t-3 -5q-10 -14 -20 -22.5t-22 -25.5q-5 -7 -12 -15.5t-9 -10.5l-47 -47q0 -3 1 -9t2.5 -13 t3.5 -12.5t3 -7.5q2 -5 5.5 -17t5.5 -15q10 -15 16 -35t7.5 -42t-0.5 -44.5t-8 -41.5q0 -3 -4 -15t-6 -16q0 -1 -4.5 -7t-6.5 -9q-3 -5 -9 -13l-6 -8q-1 -1 -9 -5l-12 -6l-9 -3l-11 -6l-11 -4q-5 -2 -6 -2zM170 73q2 -1 7.5 -3t12.5 -3.5t13 -2.5t9 -1q1 -1 10 -1t11 1 q2 0 10.5 2t10.5 3t4.5 2t6.5 3q8 4 10 6l10 10q9 8 11 11t8 13t8 13q0 2 2 8l3 12q2 7 3.5 13t1.5 9q1 1 1 10q0 10 -1 11q0 2 -4 14l-6 18q-1 1 -3 4.5t-3 5.5q-2 5 -8 15t-7 11l-11 11q-1 1 -11 1q-9 0 -10 -1q-2 -1 -10.5 -7.5t-10.5 -8.5q-2 -1 -8 -5t-8 -5l-14 -11 q-10 -8 -12 -10l-21 -21q-2 -2 -6 -8t-5 -8q-2 -5 -6 -17t-4 -15q-1 -3 -1 -18q0 -16 1 -19q0 -1 1 -6t2.5 -11t3.5 -11.5t3 -7.5q1 -5 6 -6zM264 420q2 -2 8 -10.5t8 -10.5h5q2 5 12 10t21.5 10t20.5 10.5t9 11.5q6 6 16 18t19 25.5t16 26t7 20.5q0 1 -4 7t-6 8 q-9 12 -20 21t-22 11q-10 0 -23.5 2.5t-27.5 3.5t-26.5 -2t-18.5 -15q-14 -13 -20 -21.5t-11 -25.5v-31q1 -2 5 -14l6 -18q2 -5 3.5 -7.5t5.5 -7.5q5 -5 10 -12.5t7 -9.5z" />
<glyph unicode="9" horiz-adv-x="464" d="M271 3q-42 -4 -80.5 -1t-77.5 11q-3 2 -11 5.5t-10 5.5q-2 1 -6 5t-4 5q-2 6 -2 14q0 10 2 12q1 2 8.5 10.5t12.5 10.5q1 1 7 3t8 3h11q3 -1 13.5 -3t12.5 -3q1 0 6 -2l10 -3l10 -4q4 -1 6 -1q1 0 6 -0.5t11 -0.5t11 0.5t8 0.5q22 0 37.5 17.5t24.5 42.5t13 52t4 46 q0 2 0.5 8t0.5 13q0 8 -0.5 15.5t-0.5 10.5q0 2 -2 10.5t-3 10.5q0 1 -2 3t-3 2q-4 -1 -13.5 -2.5t-20.5 -3.5l-21 -3q-10 -1 -14 -1q-2 0 -7.5 -0.5t-11.5 -0.5t-11 0.5t-6 0.5q-3 0 -9 1.5t-13 3t-13 3t-7 2.5q-2 1 -6 5.5t-5 5.5t-7.5 5t-8.5 5l-8 8q-6 6 -7 8l-7 12 q-5 8 -9.5 22.5t-7.5 39t-3 63.5q8 28 26 47l43 42l4 2l6 3q4 2 10 4l12 5l11 5l4 2q2 1 17 1q16 0 20 -1q1 0 5 -2.5t5 -2.5q2 -1 10.5 -3t10.5 -2q3 -2 10.5 -5.5t16 -8t16 -8t10.5 -5.5q2 3 8 11t8 10q1 2 3 3l2 3q3 2 11 5.5t10 4.5h10q3 0 11 -2t10 -3l6 -3q4 -2 5 -2 l5 -10q4 -8 5 -11q2 -3 4 -11t2 -10v-53q0 -2 -1.5 -7t-3 -11.5t-3.5 -13t-3 -10.5q0 -1 -1 -5l-4 -10q-2 -6 -3.5 -11t-1.5 -6q-1 -3 -3 -13t-3 -13q0 -3 -1 -11.5t-1.5 -17.5t-1.5 -17.5t-1 -11.5q0 -69 -10.5 -121t-10.5 -89q-1 -4 -5 -16t-5 -16q-2 -3 -6 -11l-5 -10 q-11 -13 -24 -25t-28 -17q-2 -2 -8 -7.5t-8 -7.5zM181 365l4 -1q5 0 11 -1l12 -2q6 -1 10 -1h11q2 1 8 2.5t8 2.5q2 2 10 8t11 8l26 26q2 2 5.5 8t4.5 8q2 2 3.5 8t2.5 8v21q-1 1 -2.5 3t-3.5 2t-15.5 2.5t-15.5 2.5q-1 1 -5 2.5t-6 3.5q-3 2 -9 5.5t-6 4.5q-2 1 0 6l2 2 q3 2 3 3v10q-3 5 -11 12.5t-10 8.5t-10 -1t-11 -4q-2 -1 -10 -7t-11 -9q-2 -1 -5.5 -5t-5.5 -5q-20 -20 -26 -40t0 -44q2 -8 5 -15.5t5 -11.5z" />
<glyph unicode=":" horiz-adv-x="561" d="M296 10q2 0 10 -5t10 -5q1 0 9 4l12 6q2 2 8 5.5t8 5.5l16 16q1 2 3 7.5t2 7.5q0 1 -2 5l-3 6l-13 13q-10 10 -14 13h-46q-2 0 -5.5 -2t-5.5 -4q-2 -1 -5.5 -4.5t-4.5 -5.5q-2 -2 -3.5 -5.5t-2.5 -4.5v-21l8 -16l8 -16q2 1 5 1q4 0 6 -1zM296 360q1 0 5 -2.5t5 -2.5 q3 -1 11 -1t10 1q1 0 7 4t8 6t6 5.5t5 5.5q1 1 3 5t2 5q1 4 1 11q0 8 -1 10q0 1 -6 7t-10 9q-2 2 -8 6t-7 4q-2 0 -7.5 0.5t-12.5 0.5t-13 -0.5t-9 -0.5q-1 0 -4.5 -2t-5.5 -3q-1 -1 -3 -2.5t-3 -2.5l-6 -9q-4 -6 -4 -7q-1 -1 -1 -5t1 -5q1 -3 4.5 -11t5.5 -10q2 -3 8 -9 t8 -7q1 -1 5.5 -0.5t5.5 0.5z" />
<glyph unicode=";" horiz-adv-x="552" d="M239 -231q4 -1 16.5 -3t14.5 -2q5 0 17 2t15 3l7 7q6 6 8 9q2 2 5.5 8t5.5 8q1 3 6 11l9 19l10 19l6 14q1 1 3 6.5t5 11.5t5 11.5t3 6.5l7 14l9 19l10 19q4 8 6 11q0 1 2 3l3 3q1 2 3 5.5t2 4.5q1 3 1 11t-1 10q-1 4 -5 12t-5 9t-11.5 2.5t-15.5 2.5q-2 1 -8 1t-7 -1 q-2 0 -5.5 -2t-5.5 -3t-5.5 -5t-4.5 -6q-16 -29 -30.5 -59t-27.5 -61q-1 -2 -2.5 -8t-2.5 -8t-5 -8.5t-9.5 -14t-10 -14.5t-7.5 -10q-1 -2 -9 -12t-12 -14q0 -1 -2.5 -3t-2.5 -3q-1 -2 -1 -7q0 -6 1 -8q0 -1 2 -3l3 -3q2 -1 5.5 -2.5t5.5 -2.5zM369 206q2 -2 8 -4t8 -2 q1 0 9 2t12 4q3 1 9 2.5t7 2.5q2 2 6 5.5t4 4.5v42q0 2 -6 8t-9 8t-11 6l-10 5q-3 0 -9 0.5t-13 0.5q-6 0 -12 -0.5t-8 -0.5l-6 -6l-6 -9l-4 -6q-1 -2 -1 -13q0 -10 1 -14q0 -1 2 -5t3 -5q4 -5 14 -14z" />
<glyph unicode="&#x3c;" horiz-adv-x="719" d="M540 22q0 -1 -4 -6t-5 -5q-2 -8 -1 -13t0.5 -8.5t-4 -5t-14.5 -1.5q-2 1 -4 7t-4 8q-1 0 -5 2t-8.5 4t-8.5 4.5t-5 3.5q-5 3 -6.5 5t-8.5 10q-4 16 -15.5 28.5t-25.5 24.5l-27 23q-14 12 -23 26l-2 3l-4 6l-5 7q-3 4 -4 5q-1 2 -5 6l-8 10q-5 6 -9 10l-6 6 q-2 2 -7.5 11.5t-7.5 10.5q-1 1 -4.5 5t-7.5 9.5t-7.5 9.5t-4.5 5q-19 28 -35 46t-27 32t-14.5 28.5t2 34.5t22 50t46.5 76q1 2 4.5 7.5t8.5 11.5l8 10q3 5 5 7q2 4 10 16t11 16q1 2 6 10.5t12 18.5l12 18q5 9 7 11l15 19l25 33l25 33l14 20q1 2 5 8t5 8q1 0 3 2t2 3 q1 1 6 8l7 13q2 5 4 7l4 4q2 2 10.5 7.5t10.5 7.5q2 0 6 -2t5 -3l8 -8l11 -13q6 -6 11 -12t7 -9q1 -2 1 -13t-1 -13q0 -1 -4.5 -7t-6.5 -9q-2 -4 -8 -12t-8 -9l-5 -5l-10 -10l-10 -11l-6 -6l-13 -16l-19 -23l-19 -24q-9 -11 -12 -15q-1 -2 -6 -10l-13 -18l-13 -20 q-7 -10 -10 -16q-2 -2 -8 -11.5t-8 -14.5q-1 -2 -4 -7l-6 -12l-7 -11q-3 -6 -4 -7t-5 -6t-8.5 -10t-8 -9.5t-4.5 -5.5q-20 -26 -23 -48t17 -49q2 -2 6 -8t6 -8l12 -14l14 -17q7 -8 11.5 -14t4.5 -7l15 -14l28 -29l31 -34q16 -18 25 -29q2 0 5 -3t4 -5q2 -1 8.5 -10t7.5 -11 q0 -1 10 -8l15 -12q1 -1 6 -4t11 -7l10 -7q4 -4 4 -5q3 -1 6.5 -3.5t2.5 -3.5q1 -1 1.5 -5.5t-0.5 -6.5v-5q-1 -1 -4 -5l-7 -9l-6 -10z" />
<glyph unicode="=" horiz-adv-x="989" d="M259 52l6 -3q4 -2 5 -2h10q2 0 9 2t15 3.5t15 3.5t9 2q3 0 13.5 0.5t23 1.5t23 2t13.5 1q2 0 13.5 2.5t13.5 2.5h79q1 0 5.5 1t10 1.5t10 1.5t5.5 1h5q3 0 13 -1t21.5 -1.5t21.5 -1.5t13 -1h73q2 0 10.5 -2t10.5 -3l11 -5l10 -6h11q2 1 5.5 2.5t4.5 3.5q3 2 9 7.5t7 7.5 q2 3 6 11l5 10q1 4 1 14t-1 13q-1 1 -5 4.5t-6 5.5q-1 1 -5 3t-5 2q-2 1 -14 2.5t-18 3.5q-8 1 -22 3t-15 2h-142q-4 0 -18.5 -1t-31.5 -1.5t-31.5 -1.5t-18.5 -1h-26q-6 0 -17 -1l-22 -2q-12 -1 -22 -2t-13 -1t-12.5 -1.5t-20.5 -2.5l-21 -3q-10 -2 -14 -3q-2 -1 -8 -2.5 t-8 -2.5q-1 -1 -7 -5t-8 -6q-2 -1 -3 -2l-3 -3l-3 -6q-2 -4 -2 -5v-15q0 -2 2 -6t3 -5q2 -2 10 -8t11 -8zM691 247q1 -1 7.5 -3t7.5 -2q5 -1 19 -1t18 1q2 0 6 2t5 3q2 2 6 10.5t4 10.5t-1.5 12t-3.5 14t-5.5 12t-5.5 9q-1 1 -5 3l-9 4l-9.5 5.5t-7.5 3.5q-2 1 -10.5 3 t-10.5 2h-5h-9h-8h-4q-2 1 -10.5 3t-10.5 3h-11q-3 -1 -13 -3t-13 -3h-332q-3 0 -15 -6t-16 -9q-1 -1 -3 -7t-2 -9q-1 -2 -1 -8t1 -8q0 -2 2 -5.5t3 -5.5l10 -10q8 -9 11 -11q4 0 15.5 -0.5t24 -1.5t23.5 -2t16 -1h5q8 0 22 1l28 2q13 1 23 1.5t11 0.5t6.5 1t12 2t11.5 2 t7 1h152q3 -1 13.5 -3t13.5 -3q1 0 6 -1.5t11 -2.5l12 -3q5 -2 8 -3z" />
<glyph unicode="&#x3e;" horiz-adv-x="737" d="M238 736q0 1 3.5 6t4.5 6q1 4 2 7.5t1 4.5q0 13 14.5 10t32.5 -14t33 -25.5t15 -24.5q3 -2 14 -10l24 -18l23 -19q11 -8 14 -11q23 -39 52 -64t55.5 -45.5t47 -40t27 -46.5t-4.5 -65.5t-48 -96.5q-19 -29 -34 -60l-30 -63l-33 -63.5t-39 -61.5q-1 -2 -4 -8.5t-4 -8.5 q-1 0 -3 -2.5t-1 -3.5q-1 -1 -3 -5t-4.5 -8.5t-3.5 -8.5l-2 -4q-1 -3 -5 -7q-2 -2 -9.5 -8.5t-9.5 -8.5q-2 0 -6 1.5t-5 2.5q-3 2 -9 7l-13 11l-12 11q-6 5 -8 7q-1 3 -2 13t-1 13q0 1 3.5 7.5t5.5 9.5q2 4 7 12.5t7 10.5q1 1 5 6l8 11l9 11q4 5 5 7l11 17l16 25l16 26 l11 17q1 1 5 10l10 19q6 11 11 22t8 17q2 2 7 12l6 16q1 1 4 6l5 13q3 7 5 12.5t3 7.5q1 1 4.5 5.5t7.5 10.5t7 11t3 7q17 27 17.5 49.5t-22.5 47.5q-2 1 -6.5 6.5t-6.5 7.5l-15 12l-15.5 15.5t-12.5 13t-5 6.5q-3 1 -19 13l-34 29l-38 33l-29 26q-2 1 -9 9l-10 10 q0 1 -10.5 7.5t-16.5 9.5l-7 3q-5 3 -11 6l-11 6q-4 3 -4 4q-3 1 -7 3t-3 3q-1 1 -2 5.5t0 6.5l-1 1v4q1 1 3 5l6 10q3 6 5.5 11.5t4.5 8.5z" />
<glyph unicode="?" horiz-adv-x="697" d="M458 5q2 -1 14 -2.5t18 -2.5h21q1 0 7.5 2.5t7.5 2.5q16 6 24.5 10t9.5 9.5t-6 14.5t-22 24l-11 11q-2 1 -5.5 3t-4.5 2h-27q-2 -1 -8 -2.5t-7 -2.5l-8 -8l-8 -8q-2 -2 -5.5 -10t-5.5 -11v-5l3 -9q2 -6 3 -7q1 -2 4.5 -6t5.5 -5zM500 184q2 -2 6 -3.5t5 -1.5q2 -1 10 -1 q9 0 11 1q1 0 5 2t5 3l8 8l8 8q0 3 -0.5 9.5t-0.5 13.5q0 8 0.5 14.5t0.5 9.5q0 5 2 19t3 18l2 2q3 2 3 3q1 2 3 10.5t3 10.5q0 1 2.5 5.5t5 10t5 10t2.5 5.5q1 3 4.5 10.5t6.5 15.5l6 16q3 8 4 11q1 2 3.5 8.5t5 14t4.5 14.5t3 10q2 4 3.5 12t1.5 9q1 6 2 21t1.5 32 t1.5 31.5t1 20.5q-1 3 -2.5 11t-3.5 10q0 2 -4 8t-6 8l-16 16q-1 1 -5 3.5t-9 6.5l-10 6l-7 5q-2 1 -5.5 3t-5.5 2q-3 2 -9 3.5t-7 1.5q-5 0 -15.5 0.5t-22.5 0.5t-22 -0.5t-13 -0.5q-1 0 -7.5 -1t-15 -2.5t-17 -3.5t-13.5 -3q-2 -1 -7.5 -2.5t-7.5 -2.5q-3 -2 -10 -5 t-13.5 -6.5t-12 -6t-6.5 -3.5q-2 -1 -6 -5.5t-5 -5.5t-5.5 -2.5t-4.5 -2.5q-2 -1 -5.5 -5t-5.5 -6q-2 -1 -8 -9t-8 -12q-2 -2 -6 -8l-4 -7q-2 -4 -6 -16t-5 -16q0 -2 -1 -7.5t-1.5 -12.5t-1.5 -13t-1 -9v-31q0 -2 2 -8t3 -8t5 -8t6 -8q1 -1 2.5 -3t2.5 -2l15 -9q10 -6 11 -7 q1 0 5.5 -1t9.5 -2t10 -1.5t7 -0.5q3 0 9.5 -0.5t13.5 -0.5q8 0 14.5 0.5t9.5 0.5t15 2t17 3q1 0 5 2t5 3l12 11q8 8 9 10t1 8t-1 8q0 1 -2 2.5t-3 2.5q-2 1 -5.5 3t-5.5 3q-4 0 -13.5 -0.5t-20.5 -0.5t-20.5 0.5t-13.5 0.5q-2 0 -8 1.5t-8 3.5q-1 0 -2.5 2t-2.5 3 q-1 5 -1 18q0 14 1 19q1 3 3.5 9t6.5 12l6 13q3 6 5 8t7.5 7t12.5 10l13 9q6 4 9 5q2 1 10 3l18 4l20 5q10 3 15 4q2 1 10 1q9 0 11 -1q2 0 5.5 -2t5.5 -3l5 -5q4 -4 5 -6q1 -1 3 -5t2 -5q1 -3 3 -15t3 -17v-21q0 -3 -1.5 -11t-3.5 -17t-3.5 -17.5t-2.5 -11.5 q0 -3 -1.5 -8.5t-3.5 -11.5t-3.5 -11t-1.5 -6t-3 -5l-5 -9l-6 -8q-2 -3 -2 -4q-1 -2 -5 -13.5t-6 -13.5q-1 -2 -2.5 -5.5t-2.5 -4.5q0 -1 -2.5 -3t-2.5 -3q-1 -1 -5 -11l-6 -15q0 -1 -2 -7.5t-3 -8.5l-6 -11q-4 -8 -4 -10t-0.5 -9t-0.5 -15t0.5 -16t0.5 -12q0 -3 2 -11 t3 -10q0 -1 4 -5l6 -6q2 -1 8 -4.5t8 -5.5z" />
<glyph unicode="@" horiz-adv-x="1373" d="M483 21q3 -2 12 -5l19 -6q10 -4 19 -6.5t13 -3.5q8 0 28 -0.5t42 -0.5q23 0 43.5 0.5t28.5 0.5q1 0 8 1t16 3t18.5 3.5t15.5 3.5q2 0 10.5 2t10.5 3q3 1 10 3l14 4q7 3 13.5 5.5t9.5 3.5q2 0 5.5 2t4.5 3q2 1 10.5 7.5t10.5 8.5q2 1 9 4l15 7l15 6q7 3 9 4q6 3 19 9 l27 13l24 12q11 6 14 8q1 1 7.5 4.5l13.5 7.5l13 9q6 4 8 5q1 1 5.5 3t10 5t10 5t5.5 3q2 1 8 5t8 5q2 2 8 8.5t8 7.5q1 1 7 4l11 7l12 6q5 3 7 4l15 9q10 6 11 7t3 2.5t2 2.5q12 18 16 37v5q-1 2 -4.5 10.5t-5.5 10.5l-3 3q-2 2 -3 2q-2 2 -5.5 4t-4.5 2h-32q-2 -1 -8 -2.5 t-7 -3.5q-2 -1 -9 -6l-15 -12l-15 -12q-7 -5 -9 -6q-4 -4 -12 -10t-9 -6q-1 -1 -5.5 -3t-10 -5t-10 -5t-5.5 -3q-2 -1 -10 -7t-11 -9q-2 -1 -6 -5l-5 -5q-2 -1 -7 -5l-12 -8l-13.5 -8t-9.5 -5q-2 -2 -10 -6l-11 -5q-2 -1 -9 -5l-15 -9l-15 -7.5t-8 -4.5t-6 -3t-10 -5t-10 -5 t-6 -3q-2 -1 -8 -5.5t-8 -5.5q-1 0 -5 -2l-10 -3l-10 -4q-5 -1 -6 -1q-1 -1 -5.5 -3t-5.5 -2q-42 -14 -85 -19t-88 -8h-16q-1 1 -7 2.5t-9 3.5q-1 0 -5 2t-5 3q-2 1 -8 2.5t-8 2.5t-10.5 2.5t-10.5 2.5q-4 2 -16 10.5t-16 10.5l-8 8l-14 14l-15 15q-7 7 -10 11 q-2 2 -10.5 13t-10.5 13q-1 2 -7.5 8t-8.5 8q-1 1 -4 5l-6 10l-7 9q-3 5 -4 7q-2 3 -6 11l-8 16l-7 16q-4 7 -5 10q-1 1 -3 8t-5 15.5t-5 15t-3 8.5t-5 13.5t-5 13.5q-11 28 -17 56.5t-4 58.5q1 11 3 31l3 42q1 21 2.5 38t1.5 21q0 2 2 12l5 22l5 25q2 12 4 19q0 2 2 8t3 8 t4 9l7 15l6 15q3 7 4 9q0 1 2 4l3 8l3.5 9t2.5 5q1 2 5 8t5 8l11 10l16 16l16 16l10 10q1 1 7.5 5.5t8.5 5.5l2 2q2 3 3 3q2 2 10.5 8t10.5 8l10 10l16 8l16 8q2 1 13 3t13 2q1 1 8 3l13 5l13 5.5t8 2.5q2 1 8 3t8 2q3 1 9.5 3t13.5 3.5t12 3t7 1.5q1 0 6.5 1t12 1.5 t11.5 1.5t7 1t8 2.5t8 2.5q2 1 12 1t14 -1q1 0 6.5 -1t12 -1.5t11.5 -1.5t7 -1q3 0 13.5 -1t23 -1.5t23 -1.5t13.5 -1q2 0 8.5 -2.5t7.5 -2.5h6h10h10h6q4 -1 15 -3l22 -2l22 -4q10 -1 14 -2q14 -8 27 -17l26 -20q1 0 2.5 -2t2.5 -3q2 -2 8 -10t8 -11q25 -35 37 -79 q1 -3 2.5 -9t3 -13t3 -12.5t1.5 -7.5t1 -7t2 -12l2 -13q1 -7 1 -10v-11q0 -3 -1 -9t-2 -13t-2 -12.5t-1 -7.5t-2.5 -10.5t-2.5 -10.5t-1 -8t-1.5 -13t-1.5 -13.5t-1 -7.5t-1.5 -5t-3 -9t-3.5 -9.5t-3 -7.5q0 -2 -2 -5.5t-3 -5.5l-5 -7l-6 -10q-4 -5 -6.5 -9t-3.5 -5 q-1 -2 -7 -8t-9 -8t-7.5 -6.5t-9.5 -8.5l-9 -7q-4 -4 -5 -4q-2 -1 -6 -3.5t-9 -5t-10 -4.5t-7 -3t-10 -3t-11 -2q-2 -1 -8 -1t-8 1q-3 0 -13 2t-13 3q-1 0 -5 2l-6 3q-2 2 -7.5 5.5t-7.5 5.5q-2 1 -3 2l-3 3q0 1 -2 7l-3 9q-5 17 -8 34t-8 34q-1 4 -4 13t-6 19t-6.5 19 t-4.5 12v121q2 2 3.5 8t2.5 8v26q-1 1 -7 7.5t-9 8.5q-2 1 -5.5 3t-5.5 2t-8 0.5t-13 0.5q-6 0 -12 -0.5t-9 -0.5q-2 0 -5.5 -2t-4.5 -3t-3 -6t-5 -10t-5 -10t-3 -6l-5 -5q-5 0 -17 0.5t-26 0.5q-13 0 -25 -0.5t-16 -0.5q-2 0 -8.5 -0.5t-13.5 -1.5l-15 -2q-8 -1 -11 -1 q-3 -1 -11 -2.5t-10 -2.5q-2 -2 -14 -8t-17 -8l-15 -9q-10 -6 -12 -7l-10 -11l-16 -15q-9 -8 -16 -16t-10 -11q-2 -1 -6 -10t-5 -11q-1 -1 -5 -7.5t-5 -7.5l-3 -6q-2 -4 -2 -5l-3 -11l-5 -15q-3 -8 -5 -15.5t-3 -10.5q0 -7 -0.5 -24.5t-0.5 -36.5t0.5 -36t0.5 -24 q0 -3 2 -13.5t3 -13.5q2 -3 7 -15t8 -15q11 -10 20.5 -20t20.5 -19.5t26.5 -17.5t38.5 -13q3 -1 15 -0.5t17 0.5q4 0 13 1l20 2q10 1 18.5 2t11.5 1q2 0 8 2t7 3q2 1 6 7.5t5 8.5l5 5q1 1 5 4l9 6q4 4 7.5 7t4.5 4q4 3 12 11t9 10q1 1 4 6l5 10l5 10q2 5 2 6l12 21 q8 14 9 15q1 2 5 4t6 2q1 -5 7.5 -19t8.5 -18q1 -3 7 -11t8 -10t10.5 -8t10.5 -8q2 -1 9.5 -4t16.5 -7l16 -8q8 -4 11 -7l74 -5q2 0 9.5 1.5t16.5 3t16.5 3t9.5 2.5q3 1 11 4l16 8l15.5 8t10.5 6l5 4l10 9l12 10q6 6 10 9l5 5q2 4 8 11.5t8 9.5q2 3 5.5 11t4.5 10q0 1 1 5 t2 8.5t1.5 8t0.5 4.5q1 2 5 12.5t6 14.5q0 1 2.5 5.5t5 10t5 10t3.5 5.5q0 2 2 10.5t3 10.5q0 2 3 9l5 15l6 15q2 7 2 9v63q0 1 -1 5.5t-2 10t-2 10t-1 5.5v6v10v10v6q0 2 -2 12t-3 14q0 1 -2 7l-3 9q-2 4 -4 11l-5 13l-5 12q-2 5 -2 6q-1 2 -3.5 7.5t-6 12.5t-7 13t-4.5 9 q-1 2 -4.5 8t-5.5 8l-4 4l-6 8q-4 4 -7 8t-4 6l-3 3q-2 2 -3 2q-5 5 -15 13t-11 8q-1 1 -5 3t-9.5 4.5t-10 5t-7.5 3.5q-2 1 -8 3t-13 5t-13.5 5t-7.5 3q-1 0 -4.5 2t-8 3.5t-8.5 3t-5 1.5q-3 1 -9.5 2.5t-14 3.5t-14 3.5t-9.5 1.5q-2 0 -10 1t-17 2t-16.5 1.5t-9.5 0.5 t-8 1t-13 2t-13.5 1.5t-7.5 0.5q-9 0 -30.5 0.5t-45.5 0.5t-45.5 -0.5t-30.5 -0.5q-4 -1 -13 -3t-19 -4.5t-19 -4.5t-12 -3q-2 0 -6.5 -1t-10 -2t-10 -2t-5.5 -1q-2 0 -7 -1.5t-11.5 -3t-12 -3.5t-6.5 -2q-2 -1 -13 -3t-13 -2q-5 -2 -12.5 -3.5t-8.5 -2.5q-1 0 -11 -6 l-15 -9q-2 -2 -8 -5.5t-8 -5.5q-2 -1 -7 -5t-11 -8l-12 -8q-6 -4 -7 -5t-5 -3t-8.5 -5t-8 -5t-4.5 -3t-5 -6l-11 -11l-12 -14q-6 -7 -9 -11q-2 -2 -8 -10.5t-8 -10.5q-1 -2 -7 -12t-9 -14q-1 -2 -2.5 -6t-2.5 -5q0 -1 -1 -6l-4 -10l-3 -10q-2 -4 -2 -5q-1 -2 -3 -8l-4 -12 l-5.5 -13t-3.5 -9q-1 -2 -5.5 -13.5t-5.5 -13.5q0 -2 -1 -7l-4 -10q-2 -6 -3.5 -11.5t-1.5 -8.5q-1 -2 -2.5 -11.5t-2.5 -14.5q-2 -6 -4 -18t-2 -13v-8v-11v-12v-6q0 -2 -1 -9t-1.5 -15t-1.5 -15t-1 -8q0 -6 -0.5 -21t-0.5 -31q0 -15 0.5 -29t0.5 -19q0 -2 2 -12.5t3 -14.5 q1 -1 3 -5t3 -5q0 -1 0.5 -5t1.5 -8.5t2 -8t1 -4.5q1 -4 2.5 -12t2.5 -10l4 -11l5 -15l4 -13q2 -6 3 -8l5 -11l5 -10q11 -23 19 -46t23 -43q2 -2 7 -8l9 -12l10 -13l6 -9l12 -15q7 -10 9 -12q1 -2 5.5 -6t9.5 -9t10 -9.5t7 -6.5t7 -6t10 -8.5t9 -7.5t5 -4q4 -3 12 -7.5 t16 -10t16 -9.5zM530 389q-2 2 -10.5 13t-10.5 13q-1 2 -8 6t-8 5t-2.5 4.5t-2.5 5.5q-2 4 -3.5 14.5t-1.5 12.5q0 5 -0.5 17.5t-0.5 26.5q0 15 0.5 27.5t0.5 17.5q0 2 1.5 10t3.5 11l7 15q6 12 9 17q1 2 7 12t8 14l6 9q4 6 5 7l10 10q2 2 12.5 8t14.5 8q3 1 9 4.5t13 6.5 l12 6l8 4q2 1 8 3t8 2q4 1 18 3t18 3h27q1 -1 4.5 -2.5t5.5 -3.5q4 -2 6.5 -6.5t4.5 -9.5q0 -3 0.5 -12t0.5 -19t-0.5 -19t-0.5 -13q0 -1 -1.5 -6.5t-3 -12t-3.5 -13t-3 -10.5q-2 -5 -5 -14t-6 -19t-6 -19l-4 -11q-1 -2 -5 -8t-5 -8q-1 -1 -3 -7.5t-3 -7.5q-2 -5 -7.5 -17 t-7.5 -15q-2 -2 -8 -10.5t-8 -10.5l-26 -26q-2 -2 -10.5 -8t-10.5 -8l-6 -3q-4 -2 -5 -2q-4 -1 -16 -1t-16 1q-1 0 -5 2t-5 3z" />
<glyph unicode="A" horiz-adv-x="835" d="M89 11q-2 1 -7 4t-11 6t-11 6t-8 5q-2 2 -10.5 10t-10.5 11q-1 1 -4.5 9t-5.5 12q-1 1 -3 7t-3 8q-1 5 -3 12.5t-2 8.5q0 5 -0.5 13.5t-0.5 16.5q0 9 0.5 15.5t0.5 7.5q0 18 15.5 36.5t36.5 34t42 26.5t32 14q1 0 6.5 1t11.5 1.5t11.5 1.5t7.5 1t8 2.5t8 2.5t8 1 t12.5 1.5t12.5 1.5t9 1q3 1 14 1t12 -1q2 0 8 -4t8 -6q1 -2 3 -5.5t2 -5.5q1 -3 1 -14t-1 -12q0 -2 -4 -5.5t-6 -5.5q-2 -1 -8 -2.5t-8 -2.5h-26q-2 0 -10.5 2.5t-10.5 2.5q-2 1 -11 1q-15 0 -30 -5t-28 -13.5t-23 -20.5t-14 -25q-1 -2 -3 -13.5t-2 -44.5q0 -1 2 -4.5 t3 -5.5q29 -22 59.5 -25.5t58.5 6.5t52.5 31.5t43 48.5t29 58t10.5 60v121q0 2 -4 6t-7 4q-5 0 -13 -1.5t-17 -1.5q-8 0 -15.5 1.5t-11.5 7.5q-6 2 -6 5t-0.5 7.5t-0.5 9.5t0.5 9t0.5 5q5 13 21 20.5t27 11.5q5 2 11 5t4 11q0 29 -7.5 69.5t-12 81.5t-1 78t26.5 60 q2 2 5.5 6t4.5 5q1 0 7 2l9 3l12 3q8 2 9 2h21q1 0 7 -2l9 -3l10 -5l32 -32l7 -11l9 -17l10 -18q4 -9 5 -12q9 -18 17 -41t14.5 -47t12 -47.5t9.5 -43.5q0 -2 2.5 -15.5t2.5 -15.5q2 -8 6.5 -11t14.5 -5q1 0 7 -1t12 -1.5t11.5 -1.5t6.5 -1t7.5 -2t14 -5t15 -5.5t11.5 -3.5 q2 -1 5.5 -3t4.5 -2q1 -1 3 -5t2 -6q1 -1 1 -5t-1 -5q0 -2 -2 -8t-3 -8q0 -1 -2 -3t-3 -2q-2 -2 -6 -3.5t-5 -2.5q-2 0 -8 -1t-12.5 -1.5t-12.5 -1.5t-9 -1h-47q-2 -3 -3.5 -13t-1.5 -13t-0.5 -14t-0.5 -24q0 -12 0.5 -23.5t0.5 -17.5q0 -33 3.5 -73t6.5 -69q1 -7 3 -19 t2 -13l5 -10q4 -9 6 -11l16 -16h5l12 3q8 2 9 3q2 1 5 3t8 4q11 6 13 8l6 6l13 12q6 6 8 9q4 11 14 29t16 36t3.5 33.5t-23.5 22.5h-5h-9h-8h-4q-2 1 -8.5 7t-7.5 9q-1 1 -1 9q0 9 1 12q0 1 2 4.5t3 5.5l11 11q1 1 5 2.5t5 2.5q5 2 15 3.5t12 1.5q3 0 8 -1t11 -2.5 t10.5 -3.5t6.5 -3q21 -26 28.5 -57.5t3.5 -63.5t-16.5 -63t-30 -55.5t-38.5 -41t-41 -19.5q-11 -2 -29.5 -4t-28.5 4h-11q-6 1 -18 2.5t-13 2.5q-1 0 -11 8l-16 13q-1 1 -2.5 3t-2.5 2q-1 2 -3 5.5t-2 5.5q-1 3 -3 8t-3.5 11t-3 11t-1.5 7q0 1 -1 6.5t-1.5 11.5t-1.5 11.5 t-1 7.5t-2.5 15.5t-2.5 15.5q0 5 -1 25t-1.5 43.5t-1.5 43.5t-1 25q0 2 -1 9l-2 15l-2 14q-1 7 -1 9t0.5 8t-0.5 8q0 3 -1 10.5t-1.5 16t-1.5 16t-1 10.5h-42q-3 -50 -3.5 -94.5t-12.5 -90.5q-14 -92 -79 -157l-6 -6q-4 -4 -8 -8.5t-7 -7.5l-5 -5q-1 0 -11 -6l-15 -9 q-2 -2 -6 -3.5t-5 -2.5q-1 0 -5 -2l-10 -3l-10 -3q-5 -2 -6 -2l-10 -6l-11 -5q-3 -1 -13.5 -3t-13.5 -2h-36h-32q-3 0 -8.5 1.5t-12.5 3t-12.5 3.5t-8.5 3zM468 500l-6 39q-3 19 -6 35.5t-5 29.5l-4 17q0 1 -2 6l-6 10l-5 10q-3 4 -3 5q-1 2 -3 8.5t-2 7.5l-11 11h-5l-3 -3 q-2 -2 -2 -3q0 -2 -0.5 -8t-0.5 -13q0 -26 7 -53.5t9 -56.5q0 -3 1 -8t2 -11t2 -11t1 -7z" />
<glyph unicode="B" horiz-adv-x="636" d="M168 5q-7 8 -13 12t-4 18q0 15 1 18q0 5 5 9.5t16 11.5l10 5q31 3 57 8.5t43 33.5q1 2 1 11v18v17q0 10 -1 12q-3 14 -10.5 29.5l-16.5 32.5l-18 33q-8 16 -13 31q-1 2 -4.5 11.5t-5.5 14.5q-3 8 -5.5 17.5t-10.5 14.5q-4 -1 -16 -3t-15 -3q-2 0 -7 -1l-10 -4l-10 -3 q-4 -2 -5 -2q-3 -1 -9 -2t-13 -1.5t-12.5 -1t-7.5 -0.5q-3 0 -13.5 1.5t-12.5 3.5q-2 0 -9.5 6t-11.5 10q-2 1 -6 5l-5 5q-1 2 -5 8t-5 8q-2 3 -6 11l-5 10q0 2 -2 10l-3 11v5q0 49 14.5 84t38.5 74q13 19 23.5 33t21.5 26t23.5 24t30.5 27q2 2 8 5.5t8 5.5l15 9l11 6 q2 1 10.5 3t18.5 3.5t18.5 3t10.5 1.5t10.5 2.5t10.5 2.5q3 0 9.5 0.5t13.5 0.5q8 0 15 -0.5t10 -0.5q2 0 14 -2t17 -3q3 -1 11 -3t10 -2q3 -3 7 -4.5t16 -9.5q13 -6 19 -10.5t11 -7.5l31 -31q8 -8 13.5 -23t10.5 -31.5t9 -32t9 -24.5q2 -12 3.5 -20t2 -15.5t0.5 -16.5v-24 q0 -17 -1.5 -29.5t-4 -24.5t-4 -24.5t-1.5 -29.5q-1 -3 -1 -14t1 -12l5 -5q18 -18 38.5 -36.5t38 -41t29 -50t11.5 -62.5q0 -12 -0.5 -22t-0.5 -14q0 -1 -4.5 -11t-6.5 -15l-3 -6q-2 -4 -2 -5l-9 -9l-13 -14l-13 -12q-5 -6 -7 -7l-13 -8l-17 -10l-18 -11q-9 -5 -15 -8l-9 -3 q-6 -2 -7 -2h-84l-10 5q-2 2 -8 5.5t-8 5.5q-2 1 -4 3l-1 2v37q0 2 4 5.5t6 4.5t14 3l18 3q22 2 45.5 3.5t43.5 11.5q2 2 8 5.5t8 5.5l5 5l6 9q4 6 4 7q2 2 3.5 10.5t2.5 10.5v42q-8 39 -36.5 66.5t-63.5 27.5q-2 0 -14.5 -1.5t-17.5 -3.5q-1 0 -7.5 -2.5t-7.5 -2.5 q-3 -1 -16 -1t-16 1q-2 0 -10.5 2t-10.5 3q-1 1 -3 2.5t-2 2.5q-1 -1 -1 -5t1 -5q5 -11 9 -18.5t7 -15.5t5.5 -17.5t4.5 -22.5q2 -9 3.5 -15t2 -11t0.5 -11v-15q0 -7 -0.5 -13t-0.5 -8q0 -1 -1.5 -5l-3.5 -9l-3 -8q-2 -3 -2 -4q-1 -2 -3 -8.5t-2 -7.5q-3 -10 -16 -22.5 t-21 -19.5q-3 -3 -21 -9q-10 -5 -24.5 -10t-17.5 -7q-1 -1 -5.5 -3t-5.5 -3q-2 -1 -8 -3t-8 -2h-26q-5 1 -17 2.5t-14 2.5zM320 299q1 -1 3 -4.5t2 -5.5q0 2 2 10.5t4 10.5q1 1 4.5 5t7.5 8l8 8q4 4 6 5q2 2 13 6t13 5t8 5t8 5q3 3 11 13.5t10 13.5q1 1 4.5 11t5.5 15 q2 6 6.5 18t4.5 13q0 3 0.5 10t0.5 15q0 9 -0.5 17t-0.5 11q0 4 -1.5 14.5t-3.5 21.5l-3 20q-2 9 -3 12q0 1 -2.5 6.5l-5.5 12.5l-7 13l-6 10q0 1 -2 3t-3 2q-3 0 -9.5 1t-14 2t-14 2t-9.5 1q-2 0 -10.5 2.5t-10.5 2.5h-5q-8 -4 -15.5 -5.5t-11.5 -5.5q-3 -2 -11 -10 l-10 -11l-10 -26q-5 -11 -7.5 -21.5t-3.5 -22t-1 -27.5q0 -37 9.5 -74.5t23.5 -69.5q0 -2 4 -10t6 -11q2 -2 8 -13.5t8 -13.5zM105 405q3 -2 11 -6l10 -5h21q2 0 10 2t11 3q1 1 5 3t5 3q5 2 5 5q1 1 1 7q0 7 -1 9q0 2 -1 12.5t-1.5 24t-1.5 27.5t-1 25q0 6 2.5 20t2.5 17 q1 3 3.5 9.5t4.5 14t4.5 14t3.5 9.5t5 11l7 16l8 15.5t6 10.5v5h-5q-2 -1 -5.5 -3t-4.5 -2q-29 -15 -51 -41t-36.5 -57t-21.5 -64.5t-7 -63.5q0 -2 2 -8t3 -8q1 -1 2.5 -3t3.5 -2z" />
<glyph unicode="C" horiz-adv-x="484" d="M226 21l-4 3q-4 3 -8.5 7.5t-9 8.5t-5.5 7l-24 42q-10 17 -17 31.5t-11.5 29t-9 35.5t-9.5 51t-13 74q0 2 1 9t1.5 15t1.5 15t1 9q0 3 0.5 11t0.5 17q0 10 -0.5 18t-0.5 11q-57 29 -84 79t-27 112v25q0 9 0.5 16.5t2 15t3.5 21.5q3 13 7 26.5t9 25.5q2 5 5.5 14.5 t5.5 11.5q3 8 11 16l15 16q1 1 7 5l9 6l15 9q10 6 11 6t5.5 1t10.5 2l12 2q6 1 9 1h26q3 0 10 -1l13 -2q7 -1 12.5 -2t6.5 -1t6 -2t12 -4t13.5 -5t10.5 -4l6 -3q4 -2 5 -3l15 -15q2 -2 3.5 -5.5t2.5 -5.5v-11q-5 -5 -11.5 -10t-15.5 -5q-3 -1 -14 -1t-12 1q-2 0 -11 3l-20 7 q-11 3 -20.5 6.5t-11.5 4.5h-11q-2 -1 -12.5 -5t-13.5 -6l-5 -5q-5 -5 -12.5 -15t-8.5 -11q-2 -2 -5.5 -12t-5.5 -15q-8 -32 -12 -63t2 -63q3 -13 16 -37q2 -2 5.5 -8t4.5 -7q2 -4 13 -15l13 -12q2 -1 5.5 -3t5.5 -2q1 3 5 11l7 16l8 15.5t6 10.5t8 13t8 13t8 11t8 10 q3 4 10 11l15 14l14 14l8 8q1 1 9 5l12 6l15 6q9 4 11 4q4 2 16 3.5t16 2.5q54 -2 80 -16.5t26 -60.5q0 -9 -0.5 -17.5t-0.5 -11.5q0 -9 -6.5 -24t-9.5 -23q0 -1 -2 -2.5t-3 -2.5t-5 -4t-8 -6.5t-8 -6.5t-5 -4t-5 -5.5t-6 -5.5q-35 -31 -79 -47t-89 -26q-2 -2 -5.5 -10.5 t-4.5 -10.5l-6 -26q-5 -17 -5 -22q0 -6 -0.5 -21.5t-0.5 -33.5q0 -28 7.5 -58.5t21.5 -58t32.5 -49t40 -31.5t46 -6t48.5 29q2 2 5.5 7.5t5.5 7.5q2 14 9 33t7 36v10q-1 2 -2.5 12t-3.5 15q0 2 -2.5 10.5t-2.5 10.5v15q0 2 2 5.5t3 5.5l3 3q2 2 3 2q2 2 5.5 3.5t4.5 1.5 q3 1 18 1q16 0 19 -1q1 0 5 -1.5t5 -3.5l16 -16q2 -2 5.5 -7.5t5.5 -7.5v-53q0 -1 -1 -5t-2 -8.5t-2 -8t-1 -4.5t0.5 -5.5t-0.5 -5.5q0 -3 -2 -13.5t-3 -12.5q-13 -46 -40 -75t-63 -41.5t-77.5 -10t-82.5 19.5zM247 494q-1 0 -1 -2t1 -3t7 -1q7 0 8 1q16 9 26 14t19 11 t19 15l26 23q2 3 6 11t4 10q0 1 -1.5 5t-3.5 6l-5 5q-2 1 -11 1t-10 -1q-16 -5 -28 -16l-35 -31q-1 -2 -3.5 -7.5t-5.5 -11.5t-5 -11.5t-2 -6.5q-1 -1 -3 -5.5t-2 -5.5z" />
<glyph unicode="D" horiz-adv-x="642" d="M73 5q-2 0 -6.5 2.5t-9.5 5t-9.5 5t-5.5 3.5q-3 2 -10.5 9t-12.5 11q-3 5 -5 11t-4 16v16q0 17 1 28t3.5 19.5t7.5 16.5t14 20q2 2 5.5 6t5.5 5q1 1 4.5 2.5t5.5 2.5l18 6q12 4 14 5h74q1 0 7 -1l14 -2q7 -1 13 -2t8 -1h15q4 1 6 6v15q0 25 -3.5 46t-9 40t-13 38 t-16.5 39q-12 22 -22 45l-20 45q-2 2 -3.5 6t-2.5 4q-1 2 -7 8l-12 14l-12 13q-5 6 -6 8q0 1 -2 7t-3 8q-1 5 -3 17.5t-2 14.5q0 48 6.5 92t24.5 87l6 12q4 8 5 9q2 3 7.5 9.5t12.5 13.5l13 14q6 7 9 10q2 2 8 5.5t8 5.5q2 1 8 2.5t8 2.5q2 0 6.5 1t9.5 1.5t9.5 1.5t5.5 1 q3 1 19 1q15 0 18 -1q1 0 9 -2l12 -3q69 -22 123.5 -49t108.5 -72q6 -6 11.5 -15.5t10.5 -19.5l9 -19q5 -8 11 -14l7 -14q14 -24 24.5 -53.5t17.5 -61t10.5 -62.5t3.5 -57q0 -46 -1 -72.5t-4 -46.5t-9.5 -40t-17.5 -51q-4 -11 -15 -32.5t-30.5 -45.5t-47.5 -46t-65 -34 q-20 -8 -35.5 -7t-28.5 5t-25.5 8.5t-25.5 4.5q-3 1 -10.5 2.5t-16 3t-16 3t-10.5 1.5q-2 -1 -5.5 -2.5t-4.5 -2.5q-2 -1 -8.5 -5.5t-7.5 -5.5q-2 0 -8.5 -2t-7.5 -3q-2 -1 -5.5 -2.5t-5.5 -2.5q-7 -7 -17 -11.5t-19 -4.5h-40h-39q-5 0 -17 2t-15 3zM105 68q1 -1 4.5 -3 t5.5 -2h37q1 0 5 2l6 3q1 1 5 5.5t5 5.5q5 2 13 3.5t4 6.5q0 5 -1 6q-8 8 -20 16t-24.5 10.5t-24.5 -3t-21 -23.5v-11q1 -2 3 -8t3 -8zM394 95q22 -2 37 3.5t26.5 15t22 22.5t24.5 27q1 1 5 7l6 9q22 39 32.5 86t11 97t-8.5 100t-24 96l-6 12l-7 17l-6 15q-2 7 -3 8 q0 2 -4 8t-6 8l-12 15l-16 21l-15 20q-7 9 -10 12q-1 2 -5 6l-5 5l-33 18q-22 12 -48.5 23t-54 18.5t-50 5.5t-37 -17t-14.5 -48q0 -2 2 -3.5t3 -1.5h58q4 0 13.5 -0.5t19.5 -1.5t18.5 -2t11.5 -2q2 0 8 -1.5t8 -3.5q5 -3 11 -5.5t10 -10.5q1 -1 3 -5t2 -5q1 -1 1 -5 q0 -5 -1 -6q0 -3 -2 -11t-3 -10t-4.5 -5.5t-5.5 -4.5q-3 0 -9 -0.5t-13 -0.5q-6 0 -12 0.5t-8 0.5t-7 1l-10 4l-10 3q-4 2 -5 2q-2 1 -15 1q-14 0 -17 -1q-5 0 -10 -5l-11 -11l-5 -10l-3 -9q-2 -6 -2 -7q0 -3 -0.5 -11.5t-0.5 -17.5t0.5 -17.5t0.5 -11.5l8 -8q6 -6 8 -7 q1 -1 7.5 -3t7.5 -3q2 -1 6 -2.5t5 -2.5l5 -5q1 -3 1 -14t-1 -13l-4 -6l-6 -9l-6 -6v-15l3 -6q2 -4 3 -5q0 -1 2 -7.5t3 -8.5q13 -26 20 -50.5t22 -49.5q2 -2 4 -11t3.5 -19.5t2.5 -20t1 -12.5v-6q0 -14 1 -30t1.5 -31t1.5 -27t1 -16z" />
<glyph unicode="E" horiz-adv-x="531" d="M320 5l-95 21q-2 1 -11 9l-15 12q-11 9 -19 20l-18 22q-5 9 -10 15.5t-5 10.5q0 3 -3 16t-3 16q0 31 -0.5 57t3 51t15 49.5t35.5 52.5q1 1 5.5 3.5t9.5 5t9.5 4.5t6.5 3q1 1 1 7q0 7 -1 8q-1 4 -4.5 14t-5.5 13q-1 1 -5 4.5t-6 5.5q-1 1 -4.5 3t-5.5 2q-3 0 -16 3t-16 3 q-25 0 -46 13t-38 34.5t-30 48.5t-21.5 54.5t-12.5 53t-4 43.5q0 3 -0.5 10t-0.5 14q0 8 0.5 14.5t0.5 8.5q0 1 2 7l5 14l5 15q2 8 4 11q1 3 4 9l7 14q3 7 6 12t4 7l12 12l14 15q1 0 5 2l6 3q4 2 14 6t12 4q3 2 11 4t10 2h89q2 -1 10.5 -2.5t10.5 -3.5q1 0 3 -2t2 -3 q6 -6 6 -10v-42q-1 -2 -5 -6t-6 -5t-15 -1t-16 1q-2 1 -13.5 5.5t-13.5 5.5h-36q-1 -1 -5 -2.5t-6 -3.5l-5 -5q-6 -6 -13 -14.5t-13.5 -18.5t-11 -19t-4.5 -16q0 -20 1 -44t5 -48t12.5 -45.5t23.5 -36.5l26 -26q2 -2 10 -8t11 -8q2 -1 5.5 -3t5.5 -2q1 -1 6 -1q4 0 4 1 q1 1 3 7t2 9q0 7 1 17t2.5 20.5t3.5 20t4 15.5q0 9 4.5 19t11 20t13.5 19t13 15q2 2 3 3.5t2 2.5t11 7t16 9q3 2 11 6t10 4q21 6 45.5 11t48 3.5t43.5 -10.5t31 -30q1 -2 3 -8t2 -8q10 -41 -4.5 -75.5t-41.5 -63t-61.5 -50.5t-65.5 -37q-2 0 -3.5 -2t-2.5 -3v-10 q1 -2 2.5 -8t3.5 -8q0 -2 2 -5.5t3 -5.5l5 -5q3 -2 11 -8t10 -8q1 0 5.5 -2t5.5 -3l12 -12q8 -7 9 -9t1 -13t-1 -13q-2 -3 -8 -11t-8 -10q-4 0 -13 -0.5t-19 -0.5t-19 0.5t-12 0.5q-2 0 -8 2.5t-8 2.5q-3 1 -12 1q-8 0 -9 -1q-21 -7 -29 -28.5t-8 -48.5q0 -26 5 -53t11 -43 q1 -2 4.5 -8t5.5 -8q1 -1 5.5 -5t5.5 -6q5 -5 11.5 -13t30.5 -8l16 6q10 5 18 10q6 3 8 5q7 7 17 19l21 24l20 23q9 11 16 18q2 3 5.5 13t4.5 14q1 3 1 17q0 13 -1 14q0 1 -4 5t-9 8q-4 5 -6.5 7t-4 4t-2.5 4.5t-1 8.5q0 9 1 11q1 1 4.5 5t5.5 5t10.5 3t10.5 2q3 1 19 1 q15 0 18 -1q2 0 8 -1.5t8 -3.5l12 -6q8 -4 9 -4q2 -2 5.5 -8t4.5 -8t3 -12t3 -14v-11q-7 -24 -20 -51.5t-29.5 -54t-36 -50t-40.5 -38.5l-5 -3l-11 -7l-12 -6q-6 -4 -9 -5q-24 -13 -37 -16zM289 541q-1 -2 -1 -14q0 -11 1 -12t10 -1t11 1q23 8 46.5 31.5t37.5 46.5q1 2 3 8 t2 8v26q0 2 -2 3.5t-3 2.5h-21q-2 -1 -8 -2.5t-8 -3.5q-2 0 -5.5 -2t-5.5 -3q-2 -2 -8 -5.5t-7 -4.5q-22 -16 -30 -35.5t-12 -43.5z" />
<glyph unicode="F" horiz-adv-x="541" d="M131 5q-2 1 -8 2.5t-8 3.5q-2 1 -6 5t-4 5q-1 1 -1 14q0 15 1 18q0 2 2 7.5t3 7.5q0 1 2 3l3 3q2 1 5.5 2.5t5.5 2.5h5q2 -1 10.5 -3t10.5 -2q3 -1 18 -1q16 0 19 1q2 0 10 1.5t11 3.5q7 2 10 5l32 32q0 1 2.5 5t6 9t7 9.5t5.5 7.5q1 2 2.5 5.5t2.5 5.5q1 3 1 18v29v28 q0 16 -1 19q0 1 -2 8l-4 18l-5 20q-3 11 -5 17q0 2 -2 8t-3 8q0 1 -2.5 5.5t-2.5 5.5t-1 5l-4 10l-3 10q-2 5 -3 6q0 1 -2 6l-5 12l-5 11q-3 6 -3 8q-1 2 -3 10.5t-3 10.5q-1 4 -5 16t-5 16q-1 1 -3 5t-2 5q-5 5 -6 5t-5 -2.5t-5 -2.5h-37q-41 0 -70.5 17.5t-48 46t-25 64.5 t-3 73t18 71t39.5 59l6 6l11 11l11 12l8 8q1 1 7 5l9 6q2 1 5.5 2.5t5.5 2.5l14 6l16 7l14.5 5.5t7.5 2.5h21q1 0 6 -1t11 -1.5t11.5 -1.5t8.5 -1l15 -3q9 -2 18 -3.5t16.5 -3t8.5 -1.5q2 0 12 -4l14 -6q10 -3 25 -10.5t30 -16.5t28.5 -18.5t21.5 -17.5q1 -1 6 -3.5t10 -4.5 t10 -4.5t6 -3.5q2 -1 8 -5.5t8 -5.5l15 -5q6 0 21.5 -2.5t21.5 -2.5q3 -1 16 -1t15 1q2 0 14.5 2t17.5 3q2 1 10.5 2.5t10.5 2.5q1 1 8 4l15 5q8 3 15 5t9 2h10q3 -1 9 -2.5t7 -2.5q5 -5 8.5 -8t3.5 -14q0 -9 -1 -10l-21 -21q-3 -3 -9 -8l-14 -12l-12 -11q-6 -5 -7 -6 q-1 0 -5 -2l-6 -3l-9 -3q-6 -2 -7 -2q-69 6 -113.5 14t-73.5 17t-48.5 17.5t-37.5 14.5q-2 1 -13 1t-13 -1q-1 0 -5 -2l-6 -3l-5 -5q-2 -2 -6 -8t-5 -8l-21 -42v-79q0 -14 3.5 -27.5t7.5 -27.5t7 -28t3 -28q1 -1 2.5 -4.5t3.5 -5.5q0 -1 2 -3t3 -2q3 -1 21 -1t21 1 q2 0 10.5 2.5t10.5 2.5h26q1 0 5 2l6 3l5 5q0 4 1 15t1.5 22.5t1.5 22t1 14.5q1 2 2.5 10.5t3.5 10.5q1 2 4.5 10.5t5.5 10.5q1 1 2.5 3t2.5 2q2 2 6 4t5 2h47q1 0 5 -2t6 -4l8 -5l9 -6q5 -4 9 -6.5t5 -3.5q2 -1 8 -7l8 -8q2 -2 5.5 -8t5.5 -8q1 -2 2.5 -8t2.5 -8v-10 q-1 -3 -2.5 -11t-2.5 -11q-2 -3 -5.5 -13.5t-5.5 -12.5q-1 -2 -5 -8t-5 -8l-6 -6l-10 -10l-9 -9q-5 -5 -7 -6v-5q0 -14 1.5 -24.5t4 -19.5t4 -19t1.5 -22q0 -6 -0.5 -12t-0.5 -9l-15 -15q-4 -4 -11 -6h-21q-1 1 -5 2.5t-5 3.5q-3 2 -11 10t-10 11q-3 3 -6.5 12t-6.5 19.5 t-5 20.5t-3 16q-1 2 -3 5.5t-3 5.5q-3 1 -15 2.5t-16 2.5h-11q-3 0 -8.5 -1t-11.5 -1.5t-11 -1.5t-6 -1q0 -1 -2 -2.5t-3 -3.5v-5q1 -4 3 -14t2 -12q1 -3 4 -13t7 -21.5t7 -21.5t3 -13q1 -4 3 -10.5t3.5 -13t3 -12t1.5 -6.5q0 -2 0.5 -9.5t0.5 -16.5v-28q0 -16 -1.5 -32.5 t-5 -31.5t-10.5 -24q-1 -2 -5 -8l-9 -14l-10 -15l-7 -10l-10 -11q-8 -8 -11 -10q-1 -1 -5.5 -3t-5.5 -2q-1 -1 -4 -3l-7 -6q-8 -6 -10 -7t-12 -3q-6 -2 -14.5 -3.5t-16.5 -3.5l-13 -3q-6 -2 -7 -3q-2 0 -8 -2.5t-8 -2.5t-8 1t-13.5 1.5t-15 1.5t-10.5 1zM126 542q3 -2 11 -4 t10 -2t14 2t17 4q2 0 5.5 2t5.5 3q-5 38 0 77t5 75q0 1 1.5 6t3 11t3.5 11.5t3 8.5q2 6 7 15.5t9 14.5q2 7 8.5 9.5t11.5 7.5l11 11q-2 1 -10.5 2.5t-10.5 2.5t-8 3t-8 2q-1 1 -6 1q-3 0 -4 -1q-8 0 -15 -4l-12 -6q-26 -10 -47 -38t-33 -63t-11.5 -70.5t18.5 -59.5 q1 -2 4.5 -8t5.5 -8q1 -1 5 -3t6 -2z" />
<glyph unicode="G" horiz-adv-x="625" d="M352 -430q-31 7 -52 21t-35 29.5t-22 31.5t-12 28v74q0 1 4 8.5t6 12.5q2 2 5.5 8t5.5 8q0 1 11 10l30 20q13 9 27 20l28 20q16 11 19 14q2 1 8.5 5t7.5 5q5 3 12.5 9t8.5 7q2 2 8 9.5t8 11.5l3 6q2 4 2 5t0.5 5t0.5 9t-0.5 10t-0.5 7q0 4 -2 16t-3 16q0 1 -2 4.5t-3 4.5 q-3 1 -16 1t-16 -1q-2 0 -15.5 -2.5t-15.5 -2.5h-31h-27q-3 0 -8 1.5t-11 3t-11 3t-7 2.5q-41 29 -62 68.5t-31 84.5t-11 92t-1 92v16q0 2 2.5 15.5t2.5 15.5v5q-1 2 -4 6l-6 5q-2 1 -11 7l-21 14l-20 13q-10 6 -11 8q-3 2 -8 8l-12 11l-11 11q-5 5 -6 7l-3 6l-7 14 q-4 7 -7 14.5t-4 12.5q-2 4 -4 12l-5 15l-5 13q-2 6 -2 7q0 3 -0.5 12.5t-0.5 20.5t0.5 21t0.5 15q0 30 13.5 59t35 52.5t47.5 39.5t51 22q5 1 17.5 3t14.5 2q3 1 16 1t15 -1q4 0 14 -1.5t22 -3t22.5 -3t15.5 -2.5q2 -1 8 -2.5t8 -2.5q1 -1 4.5 -5t5.5 -6q1 -2 3 -5.5 t2 -4.5q1 -1 1 -6q0 -4 -1 -5q0 -2 -2 -8t-3 -8q-2 -2 -5.5 -6t-4.5 -4q-2 -1 -15 -1q-14 0 -17 1q-1 0 -5 1.5t-8 3.5l-8 4q-4 1 -5 1q-3 2 -9 3.5t-7 2.5h-11q-14 -8 -30.5 -12.5t-33 -13t-32.5 -25t-30 -49.5q-5 -24 -2.5 -53.5t12 -56.5t26 -47.5t38.5 -26.5q7 10 10 26 q1 2 3 10.5t3 10.5q0 1 3.5 9.5t9 19.5t10.5 22t8 17q2 5 6 13t5 8q1 1 6 7l12 14l14 15l10 12q2 3 8.5 9t7.5 6q1 1 5 3t9 5t9.5 5t7.5 3q2 1 8 3t8 2q6 1 15 3t18 3.5t16 3t9 1.5q14 0 32 -2.5t36.5 -8t35 -13.5t27.5 -18q3 -2 9 -8t7 -8t3 -8t2 -8q0 -3 0.5 -9.5 t0.5 -13.5t-0.5 -12.5t-0.5 -6.5q-12 -38 -44 -75.5t-73.5 -67.5t-87 -48.5t-84.5 -18.5q-1 0 -5 -2t-5 -3q-2 -1 -4 -3l-2 -2q0 -3 -2.5 -16t-2.5 -16q0 -32 -2.5 -71t1 -77.5t17.5 -73t47 -56.5q6 -2 21.5 -4t20.5 -2q2 1 14 8.5t18 12.5q8 6 14 17.5t11 24.5t9 26t8 22 q0 4 1 14.5t1.5 22t1.5 22t1 14.5q0 2 2 5.5t3 5.5q2 1 5.5 3t5.5 2q5 0 14 0.5t17 0.5t14 -1h7l16 -16v-221l5 -21h11q0 1 2.5 3t2.5 3q4 3 13 11l20 17l18 16q9 8 10 9q2 2 10.5 7.5t10.5 7.5q1 1 5.5 3t5.5 3q2 1 10.5 7.5t10.5 7.5t6.5 4.5t9.5 6.5t9 6t6 4q2 2 6 3.5 t5 2.5q1 0 11 8l22 16l22 18q10 7 11 7q2 -1 5.5 -3.5t5.5 -2.5q7 0 7 -12q0 -8 -3 -20t-6.5 -24t-8 -21.5t-7.5 -13.5q-1 -2 -8.5 -10t-8.5 -10q-3 -3 -9 -8l-11 -10l-11 -9l-5 -5l-18 -15l-30 -26l-36 -32l-36 -32l-30 -27q-13 -11 -17 -15q-11 -84 -14.5 -141t-7.5 -93.5 t-12.5 -55t-28.5 -25.5q-21 0 -44 4.5t-40 -4.5h-21zM367 -346q2 -1 10.5 -3t10.5 -2q2 -1 9 -1q6 0 7 1q2 1 6 4.5t5 5.5q0 1 2 9l3 12l3 15q2 10 2 12q1 3 2 9.5t1.5 13.5t1 12.5t0.5 6.5q0 3 0.5 12t0.5 19t-0.5 19t-0.5 13h-5q-2 -1 -8 -3t-8 -2q-1 -1 -7 -5t-8 -6 l-10 -8l-14 -10q-7 -5 -12 -9t-6 -5l-8 -8l-11 -9l-9 -9t-4 -5t-0.5 -6t-0.5 -11t0.5 -11.5t0.5 -8.5q0 -1 4.5 -7t6.5 -9q2 -2 7.5 -8t7.5 -7q2 -2 10 -5.5t11 -5.5zM268 510q-1 -3 -1 -16t1 -16q1 -1 10 -1t11 1q1 1 7.5 5.5t7.5 5.5q45 19 86 51t67 75q1 1 1 5t-1 5 q-1 2 -5 5.5t-6 5.5q-6 2 -17 9t-14 7q-2 0 -8 -0.5t-13 -1.5l-16 -3q-6 -1 -14 -5q-13 -5 -26 -13q-2 -2 -4 -2.5t-3 -1.5q-2 -1 -9 -11l-12 -15q-2 -2 -5 -7l-7 -10q-4 -5 -6 -9l-3 -5q-1 -2 -5 -12l-6 -15l-6 -18q-4 -12 -4 -13z" />
<glyph unicode="H" horiz-adv-x="747" d="M215 -4q-8 0 -15.5 4.5t-10.5 4.5l-11 10l-14 14l-12 12q-5 5 -5 6q-1 1 -2 8l-4 17q-2 10 -3.5 19t-1.5 14v63q0 1 0.5 5.5t1.5 10.5l2 12q1 6 2 9q0 5 2 14.5t3 11.5q0 2 2 5.5t3 5.5q32 52 78.5 86.5t100.5 60.5q1 1 3 2.5t2 2.5v85q0 33 5.5 77.5t5.5 95.5v21 q0 3 -1 9.5t-2 14.5t-2 14.5t-1 9.5q-3 -1 -9 -1h-12q-6 0 -12 0.5t-9 0.5q-2 0 -15.5 2.5t-15.5 2.5h-42q-3 -3 -11 -13t-10 -13q-2 -2 -5.5 -8t-5.5 -8q0 -1 -2 -5.5t-3 -5.5q-21 -34 -45 -55.5t-55 -44.5q-1 0 -3 -2t-2 -3q-3 -1 -19 -1q-15 0 -18 1q-10 4 -21 11t-16 15 q-1 2 -1 11q-2 9 4 14t13 12l10 5l16 10l17 10q7 5 9 7q1 1 5.5 5t9.5 9t10 9.5t7 7.5q6 6 8.5 13.5t4.5 15.5t4.5 15.5t8.5 13.5l3 6q2 4 3 5q0 1 1.5 6.5t3.5 11.5t3.5 11.5t1.5 7.5l5 10q4 8 6 11q0 1 2 3t3 2q2 1 10 3t11 2q2 1 11 1t10 -1l14 -7q12 -6 17 -9q1 0 3 -2 l3 -3q3 0 10.5 -1t15.5 -1.5t15.5 -1.5t10.5 -1t9.5 -0.5t12.5 -0.5q7 0 12.5 0.5t7.5 0.5t5.5 2t5.5 3q1 1 5 5.5t5 5.5l11 7l11 8q6 6 10 6q3 0 9 0.5t12 0.5t10.5 -0.5t5.5 -0.5q2 -1 10 -9t11 -12q1 -2 2.5 -8t2.5 -8v-11q0 -2 -2 -12.5t-3 -13.5q0 -2 -2.5 -8t-2.5 -8 q0 -26 -3 -60l-8 -70q-4 -36 -7.5 -74t-3.5 -72q0 -14 0.5 -27t0.5 -18h26q2 1 8 2.5t8 3.5q2 1 5.5 4.5t4.5 5.5q0 6 1 21t1.5 32t1.5 31.5t1 20.5q1 3 2.5 13t3.5 14q0 1 2 5t3 5q3 1 18 1q16 0 19 -1q1 0 4.5 -2t5.5 -3q2 -2 6 -5.5t5 -5.5q1 -1 3 -7t2 -8 q0 -6 2.5 -21.5t2.5 -21.5q2 2 6 8t5 8q0 2 1 9t1.5 15t1.5 15t1 9q1 2 3 10.5t2 10.5q0 33 4.5 69t17 67t36.5 54t63 31h6q4 -1 12 -2l16 -2q7 -1 13 -2h6q15 -6 31 -16.5t29 -23t22.5 -28t12.5 -32.5v-21q0 -2 -4 -14l-7 -17q-4 -19 -12 -38.5t-18 -38t-21.5 -35.5 t-21.5 -30l-6 -6q-2 -1 -10.5 -7.5t-10.5 -7.5q-5 -8 -11 -13.5t-13 -9.5l-14 -8q-8 -5 -14 -11q-3 -2 -13 -10.5t-14 -10.5l-10 -10q-5 -6 -5 -11t-0.5 -18t-0.5 -27t0.5 -27t0.5 -18q0 -24 0.5 -59t5.5 -69.5t15.5 -64.5t30.5 -44q3 -2 11 -6t10 -4q1 -1 8 -1t8 1 q1 0 5.5 3.5t10 7t10 7t6.5 3.5q1 1 12 1t14 -1q2 -1 6 -5t4 -6q0 -1 0.5 -5t0.5 -9t-0.5 -10t-0.5 -7q0 -5 -3 -8l-8 -10l-13 -14q-9 -8 -12 -10q-1 -1 -5 -3l-6 -3l-9 -3q-6 -2 -7 -2q-4 0 -12 -0.5t-17 -0.5q-8 0 -15 0.5t-8 0.5q-23 10 -47 25t-38 38q-20 54 -31 111 t-11 116q0 1 -1.5 7t-3.5 8q-1 2 -2.5 5.5t-2.5 5.5q0 -2 -1.5 -6t-3.5 -5t-11 -1t-10 1t-9 11t-12 16q-2 2 -8 10t-8 11q-4 -2 -16 -5.5t-16 -5.5q-2 -1 -10.5 -4.5t-10.5 -5.5t-6 -6.5t-4 -9.5q0 -30 -1.5 -49.5t-3.5 -37.5t-3.5 -39t-2.5 -53q-1 -34 -3 -53.5t-8 -32.5 t-18.5 -24t-33.5 -27q-2 -1 -5.5 -2.5t-5.5 -2.5q-1 0 -7.5 -2t-7.5 -2q-2 -1 -13.5 -6t-13.5 -5q-3 0 -11 -0.5t-18 -0.5q-9 0 -17.5 0.5t-11.5 0.5q-1 0 -4.5 1.5t-8 4t-8.5 4t-5 1.5zM252 58q2 -1 8 -3t8 -2q1 -1 8 -1t8 1q2 0 10.5 4t10.5 6l21 21q1 2 3 5.5t2 5.5 q0 4 2.5 30.5t5 59.5t2.5 65q0 33 -5 50h-5q-1 0 -6.5 -3t-12.5 -8l-13 -9q-7 -4 -10 -7l-37 -37q-21 -19 -26 -41l-3 -9q-2 -6 -3 -7q-4 -11 -4.5 -19t0 -16t2 -17t2.5 -22q4 -12 6 -20.5t10 -16.5q2 -1 8 -5t8 -5zM657 558v-21q3 1 11 4.5t10 5.5t10 9.5t11 11.5q2 2 9 11 l12 15q6 8 13.5 19.5t14 25t10.5 26.5t4 24q1 3 1 12q0 8 -1 9q0 1 -8 11t-13 15q-1 2 -3 4l-2 2h-32l-2 -2q-2 -2 -3 -4l-16 -45q-8 -21 -14.5 -42t-10 -43.5t-1.5 -47.5z" />
<glyph unicode="I" horiz-adv-x="530" d="M99 -20q-1 1 -7.5 5.5t-7.5 5.5q-1 0 -5.5 2t-5.5 3q-3 2 -9 7.5t-7 7.5q-1 1 -3 13q-1 11 -2 13t-5 9l-9 15q-4 8 -8 14q-3 8 -6 12.5t-3 7.5q-2 2 -3.5 8t-2.5 8l-3 15q-2 9 -2 11t2 8t3 8l5 5q4 4 6 5q2 2 5.5 3.5t4.5 2.5h21q2 -1 5.5 -2.5t5.5 -3.5q2 -1 5.5 -4.5 t4.5 -5.5q1 -1 3 -5l3 -6q0 -1 1 -6l4 -10l3 -10q2 -4 2 -5q4 -8 10.5 -15.5t10.5 -11.5q8 -12 32 -15t73 5q50 33 78.5 67.5t42.5 71t17.5 75.5t3.5 82l1 88q1 45 10 94q2 10 3 26l3 32q2 16 3 29t1 18q0 1 1 7.5t2 21.5t2 40t1 63q-2 1 -5.5 3t-5.5 2t-9.5 1.5t-16.5 4 t-17 4t-10 1.5t-10.5 2t-10.5 3q-1 0 -6 2l-10 3l-10 3q-4 2 -5 2q-1 1 -6 1q-4 0 -5 -1q-8 -3 -16 -7t-12 -9l-14 -14q-8 -9 -10 -12q-12 -16 -29 -36t-36.5 -38t-41 -30t-43.5 -12q-15 0 -18 1q-2 0 -5.5 2t-5.5 3q-2 2 -6 5.5t-4 4.5q-1 1 -1 10t1 12q0 3 2 9t3 6l52 27 l10 10l21 20l24 23q12 12 19 20q2 2 5 6.5t6 10t6 9.5t4 6q1 1 2.5 9t3 17t3 16.5t1.5 9.5l6 15q4 10 5 12q1 1 9 2.5t12 2.5t20 1q15 0 17 -1q1 0 7 -4.5t9 -6.5l15 -15q2 -2 8 -6t8 -5q17 0 36.5 -8t37.5 -8q3 0 8.5 -1t11.5 -1.5t11 -1.5t6 -1t4.5 2t5.5 3l6 6l12 10 q6 6 11.5 10.5t7.5 5.5q1 0 7 0.5t13 0.5q8 0 15.5 -0.5t11.5 -0.5q2 0 8 -2t8 -3l2 -3q2 -1 3 -3l6 -9l5 -6v-27q0 -4 -6 -10q-2 -2 -7.5 -10.5t-7.5 -10.5l-11 -11q-2 -2 -6 -8t-4 -8q0 -35 -8 -68l-16 -65q-8 -33 -13 -66t0 -69v-94q0 -38 -6 -82.5t-16 -89.5 t-23.5 -85.5t-28.5 -68.5q-9 -29 -35.5 -54t-59.5 -43t-68 -28.5t-63 -10.5h-26q-5 1 -17.5 2.5t-14.5 2.5z" />
<glyph unicode="J" horiz-adv-x="539" d="M147 -274q-4 2 -16 10.5t-16 10.5l-16 16q-1 2 -5 13t-5 13l-5 10l-6 11v11q5 24 14.5 41t22.5 30.5t28 23.5l30 21q1 0 5.5 2t5.5 3q12 12 25 20l27 17q2 1 15.5 10t47.5 26q2 1 13.5 5t13.5 5q4 1 10 4l12 5l10 5l4 2q2 1 6 4.5t5 5.5v53q0 4 1 18.5t1.5 31.5t1.5 31.5 t1 18.5v74q0 1 1 6.5t1.5 11.5t1.5 11.5t1 6.5v29v50v50v29q0 5 1 24.5t2 41.5t2 41.5t1 24.5q0 1 -0.5 7.5t0.5 7.5q0 2 2.5 10.5t2.5 10.5v16q0 6 -1 16t-1.5 20t-1.5 17.5t-1 9.5q0 1 -2 5t-4 6q0 1 -2 3t-3 2q-3 0 -12 1t-19.5 1.5t-19.5 1.5t-12 1q-2 1 -8 3t-8 3h-6 h-10h-10h-5q-2 0 -10 4l-11 6q-2 1 -8 3t-8 2q-1 1 -8 1t-8 -1l-2 -2q-2 -1 -3 -3q-3 -3 -8 -18q-2 -6 -7 -17t-6 -12q-2 -3 -5 -10l-6 -13q-4 -7 -6.5 -12.5t-3.5 -6.5q-2 -2 -5 -7l-6 -10q-3 -5 -6 -9.5t-4 -5.5l-6 -6l-9 -9q-5 -5 -10 -9.5t-7 -6.5q-1 -1 -7 -5l-9 -6 l-15 -9q-10 -6 -11 -7h-16q-2 1 -10.5 3t-10.5 3q-3 1 -11 5l-10 5q-1 1 -3 5t-2 6q-1 2 -1 11t1 10q0 1 4.5 4.5t6.5 5.5q1 1 7 4l11 6l12 7q5 3 6 4q2 2 10.5 8t10.5 8t6 5.5t5 5.5t4.5 6.5t6.5 9.5t6 9t4 6t3 8t2 8q1 1 4 5l5 10q3 6 5 10.5t2 5.5q1 2 2.5 8t2.5 8 q1 3 3 11t2 10q1 3 2 8t1.5 11t1.5 11t1 7t-0.5 8t0.5 8q0 2 2 5.5t3 4.5q2 2 5.5 6t8.5 9q10 11 12 12t14 1q15 0 18 -1l11 -5q8 -4 10 -6l31 -31q3 -2 15 -8.5t17 -7.5q3 -2 13 -3.5t13 -1.5q5 0 17 -0.5t25 -0.5q14 0 25.5 0.5t16.5 0.5q2 2 5.5 7.5t5.5 7.5q3 4 13 14 l13 13q8 4 16 10t11 5q1 1 10 1t11 -1q1 0 7 -1.5t8 -3.5q2 -1 6 -2.5t5 -2.5q2 -2 6 -5.5t4 -5.5q1 -1 3 -9l3 -12v-10l-3 -12q-2 -7 -3 -9q0 -1 -6 -12l-9 -15q-1 -1 -5.5 -7.5t-5.5 -7.5q-2 -5 -6 -17t-4 -15q0 -2 -1 -9.5t-2 -16.5t-2 -16.5t-1 -9.5t-1 -8t-1.5 -13.5 t-1.5 -13.5t-1 -8q0 -5 -1 -26t-1.5 -45t-1.5 -45t-1 -26q0 -3 -2 -13t-3 -13v-189q0 -2 -1 -8t-2 -13l-2 -14q-1 -6 -1 -7v-7v-12v-12v-6q0 -2 -1 -7.5t-1.5 -11.5t-1.5 -11.5t-1 -6.5v-53q0 -2 2 -10t3 -11l3 -3q1 -1 3 -2h5q21 -2 38 4.5t34 14.5t35 15.5t41 7.5 q2 0 9.5 -0.5t11.5 -1.5q2 0 8.5 4t7.5 2q1 0 4 -3l4 -4q4 -4 4 -7q-2 -3 -4 -10.5t-3 -9.5q-2 -1 -8 -7t-10 -8q-2 -2 -8 -5.5t-6 -5.5q-1 -1 -2 -6l-2 -4l-37 -19l-25 -14l-27 -14l-43 -22q-1 0 -5 -2t-5 -3q-3 -1 -7 2.5t-5 2.5l-11 -11q-1 -2 -3 -5.5t-2 -5.5 q2 -4 1.5 -16.5t-2.5 -29.5t-5.5 -35.5t-8 -34.5t-10 -26t-11.5 -10q-14 -5 -25.5 -13t-22.5 -18l-22 -19q-12 -10 -25 -18q-1 -1 -6 -4l-12 -7l-13 -9q-7 -4 -11 -7l-6 -3q-4 -2 -5 -2h-110q-2 0 -8 2t-8 3zM173 -195q2 -2 4.5 -5t6.5 -7q8 -8 10 -9t11 -1q18 0 34.5 7 t31.5 17.5t29 22.5l26 22l12 11q9 9 14 16q3 3 6.5 8.5t3.5 12.5q0 1 1.5 4.5t4 8t4 8.5t1.5 5q1 1 1 8q0 11 -12 18q0 1 -4 1q-5 0 -6 -1q-2 0 -8 -2t-8 -3q-17 -7 -38 -19.5t-43 -28t-43.5 -33.5t-38.5 -35q-1 -1 -3 -4.5t-2 -5.5v-5q0 -2 2 -6t3 -5z" />
<glyph unicode="K" horiz-adv-x="831" d="M131 -4q-2 0 -10.5 2t-10.5 2q-8 1 -16 0.5t-15 0.5t-11.5 5t-4.5 15q-1 3 -1 14q-3 11 4 16t12 12q3 2 15 6t17 5q2 0 13 -0.5t13 0.5q3 0 10 2l14 3q8 1 14.5 2.5t9.5 2.5q1 1 9 5l12 6q7 4 14 9t12 12q1 1 4 6l6 9l7 10q3 4 4 6q2 3 6 10l8 15q5 7 8 13.5t4 9.5 q2 2 3.5 7.5t1.5 7.5q1 4 1 20q0 15 -1 17q0 2 -5 11l-5 10q-1 2 -3 10.5t-2 10.5q0 1 -0.5 7t-1.5 14l-2 15q-1 7 -2 12v5q0 1 1.5 5.5t4 10t4 10t1.5 5.5v11q-2 2 -9.5 14.5t-11.5 16.5q-1 2 -5 5.5t-6 5.5q-15 15 -35.5 26.5l-41.5 22.5l-41 21q-20 11 -34 25 q-8 7 -23 21.5t-19 25.5q-2 4 -6 16l-5 15q0 4 -0.5 13t-0.5 19t0.5 19t0.5 13q0 1 1.5 6t3 11t3.5 11.5t3 7.5q14 28 31 49t37 41q4 3 16 11t16 10l5 2l11 5l14 5q7 2 12 4l9 3q6 2 7 2q2 0 7.5 1t12.5 1.5t13 1.5t9 1h21q2 0 8 -1t12.5 -1.5t12.5 -1.5t9 -1q2 0 9 -2 l12 -3q2 -1 8 -3t8 -3q5 0 10 -4.5t5 -5.5q1 -2 3 -8t3 -8v-10q-1 -2 -2.5 -5.5t-3.5 -5.5q0 -1 -2 -3t-3 -2q-2 -2 -5.5 -3.5t-4.5 -2.5h-27q-2 1 -13 5.5t-13 5.5q-3 1 -11 3t-10 2q-1 1 -8 1q-19 0 -39.5 -8.5t-39 -21t-33.5 -27.5t-22 -28q-9 -9 -13.5 -22.5t-5 -28 t3 -27.5t10.5 -22q1 -2 4.5 -5.5t7.5 -8t8 -8t6 -4.5q2 -2 11.5 -8t14.5 -8l42 -21q14 -5 25.5 -14.5t29.5 -18.5l8 -4q2 -1 12 -9l15 -12q2 -1 5.5 -5t4.5 -5q1 -2 5 -8t6 -8q2 -3 9.5 -17t11.5 -20q0 -5 4 -9.5t6 -6.5q4 -1 13 -3t19 -4.5t19 -4.5t12 -3q2 -1 8.5 -3 t7.5 -3h5q1 2 1 13q0 12 -1 14q0 1 -2 8l-5 14l-5 15l-3 10q-11 16 -17.5 33t-14.5 35q-23 34 -24.5 68.5t-1.5 73.5q0 1 2 9l3 12q1 2 3 8t2 8q1 2 3 5.5t3 5.5t7 10t8 11q15 22 29 37t29.5 24.5t34 13.5t44.5 4q35 -1 55 -2t30.5 -2.5t15 -2.5t8.5 -2t10.5 -1.5t22.5 -0.5 q3 -1 11 -2.5t10 -2.5l6 -3q4 -2 5 -2l8 -16q6 -12 7 -16q1 -2 1 -13t-1 -13q0 -1 -4 -5l-6 -6q-2 -1 -5.5 -3t-5.5 -2q-2 -1 -13 -1t-13 1q-1 0 -4.5 2t-5.5 3t-8.5 5.5t-7.5 5.5q-6 3 -16 9t-11 6q-3 1 -11 2l-16 2q-8 1 -15 1.5t-10 0.5q-1 0 -9 -2l-17 -6l-21 -7l-16 -6 q-6 -3 -8.5 -4.5t-7.5 -7.5q-5 -5 -12 -14t-9 -11l-5 -5q-12 -17 -14.5 -31.5t-2.5 -34.5q0 -19 6.5 -39.5t15.5 -41.5t19 -41t18 -38l8 -16q4 -7 6.5 -14t4 -14.5t2.5 -19.5q0 -6 0.5 -20.5t0 -32t-1.5 -35t-4 -27.5q-3 -3 0 -6q0 -2 2 -8t3 -7q0 -1 2.5 -5t5 -8.5t5 -8.5 t3.5 -5q0 -1 2.5 -5.5t5 -10t5 -10t2.5 -5.5q1 -2 7 -9l9 -12q1 -1 2.5 -3t2.5 -2l19 -16q12 -10 13 -11q27 -9 46 0.5t32.5 32t22.5 56t15 74.5l-5 10q-4 8 -6 11q-1 2 -5 6l-5 5q-1 1 -5 2.5t-6 2.5q-1 1 -7.5 3t-8.5 2l-5 5q-4 4 -5 6q-2 2 -3.5 5.5t-1.5 4.5t1.5 5 t3.5 6q0 1 2 2.5t3 2.5q2 2 8 5.5t8 5.5l10 5q3 0 9 0.5t13 0.5t12.5 -0.5t7.5 -0.5q1 0 11 -4l16 -7q2 -1 5.5 -2.5t4.5 -2.5q1 0 3 -2t2 -3q2 -2 6 -8t5 -8q2 -3 6 -11t4 -10q2 -3 3.5 -13t2.5 -13v-48q0 -2 -2 -14t-4 -17q-5 -22 -8 -43.5t-18 -40.5q-2 -13 -10 -22 t-16 -20q-11 -13 -19 -20t-13 -10.5t-8.5 -4.5t-6.5 -2q-2 0 -6 -2.5t-5 -2.5q-3 -2 -11 -3.5t-10 -2.5h-74q-1 0 -7 2t-8 4q-3 1 -11 5l-10 5q-6 3 -18 12t-22 14l-8 6q-2 2 -10 9.5t-11 11.5q-1 1 -4.5 7t-5.5 9q-2 2 -5 7t-6 11t-6 11t-4 7l-105 6q-4 0 -6 -6 q-1 -1 -3 -5l-5 -9l-4 -10t-3 -7q-1 -1 -2.5 -5t-3.5 -8.5t-3 -8.5l-2 -4q-11 -20 -20 -34.5t-19 -26.5t-22 -22.5t-28 -22.5zM378 284l3 -6q2 -4 2 -5h21q1 1 3 2.5t3 3.5v10q-5 5 -8 8.5t-11 3.5q-7 0 -8 -1q0 -1 -2 -5l-3 -6v-5z" />
<glyph unicode="L" horiz-adv-x="715" d="M441 21l-8 5l-19 11l-20 14t-16 12q-2 2 -10.5 8t-10.5 8l-9 6q-6 4 -7 4q-1 1 -4.5 -1t-5.5 -4q-2 -1 -7 -5l-10 -9l-10 -8q-4 -3 -5 -4q-2 -2 -10 -5.5t-11 -5.5q-6 -2 -17 -6t-14 -4q-2 0 -8.5 -0.5t-14.5 -0.5q-7 0 -14 0.5t-11 0.5q-2 0 -7 0.5t-11 1.5t-11 2t-8 1 l-4 2l-6 3q-4 3 -10 6.5t-12 6.5t-11 6l-4 2l-16 16q0 2 -6.5 14t-8.5 18q-2 2 -3.5 7.5t-2.5 7.5q0 2 -1 7t-1.5 11t-1.5 11t-1 8v16q1 2 2.5 8t2.5 8q2 3 6.5 8.5l9.5 11.5l10 11l6 6t6 3.5l11 5.5l12 4q6 2 8 2q1 1 5 3t5 3h58q3 0 11 -1l16 -2q9 -1 16 -2t10 -1 q1 0 5 -2.5t5 -2.5q2 -1 11 -1t10 1q1 0 3 4.5t2 6.5q2 3 3.5 13t2.5 13q0 3 1 15t1.5 27t1.5 29.5t1 22.5v21q-1 3 -2.5 13.5t-2.5 13.5q-6 0 -22 1l-34 1q-17 0 -33 1t-22 2q-2 0 -7.5 1t-12 2.5t-13 3.5t-9.5 3l-10 5q-8 4 -11 6q-1 1 -6 5l-11 7l-11 8l-9 6l-15 12 q-9 8 -11 9q-1 1 -7 9l-9 12l-6 9q-4 6 -4 7q-1 1 -2 6l-4 10q-2 5 -3.5 10t-1.5 6t-2.5 5t-2.5 5q-1 2 -2.5 7t-3 11t-3 11t-1.5 8q-2 4 -3.5 14t-2.5 12q0 3 -1 11t-1.5 17t-1.5 17.5t-1 12.5v21q0 1 1 5t1.5 8.5t1.5 8t1 4.5t1 8l2 13q1 7 2 13t1 8t2 8t3 8q1 3 5 11 l7 16l8 15.5t6 10.5q1 1 5 7t6 8l8 11q5 8 7 10q1 2 3 3.5t3 2.5q19 10 36 15q4 1 11 3t13.5 3.5t12.5 3.5l5 1q4 0 13 0.5t19 0.5t19 -0.5t12 -0.5q3 -1 11.5 -5t10.5 -6q4 -2 11.5 -10.5t9.5 -10.5v-26q-1 -1 -2.5 -4.5t-3.5 -5.5q0 -1 -2 -3l-3 -3l-10 -5q-2 0 -8 1 t-13.5 1.5t-13.5 1.5t-8 1t-7.5 0.5t-11.5 0.5t-11 -0.5t-6 -0.5q-5 0 -8 -3l-10 -8l-13 -13q-9 -9 -11 -12q-2 -2 -6 -8t-5 -8q0 -1 -1.5 -5t-3.5 -8l-3 -8q-2 -4 -2 -5q-1 -1 -3 -5.5t-3 -5.5q-5 -27 -5 -54t2.5 -50t6.5 -40t7 -24q2 -5 8 -17.5t8 -14.5l5 -5l9 -9l10 -10 q4 -5 7 -7q2 -1 8 -5t8 -6q1 -1 3.5 -2t6.5 -3q9 -4 11 -5t8 -6q13 -10 18 -10h11q4 0 11.5 1t15 1.5t13.5 1.5t7 1l15 5q12 4 17 6q1 0 2.5 2t2.5 3q1 2 3 10.5t2 10.5v53q0 6 1 17.5t1.5 23t1.5 21t1 11.5q0 1 3 13l6 26l7 31l5 25q1 4 3 11t3.5 13.5t3.5 12.5l1 5 q1 2 7 10l9 11q2 3 10.5 11t10.5 10q1 1 5 3t5 2q2 2 10.5 8.5t10.5 7.5q3 1 8 3t11 3.5t11 2.5t7 1q3 0 12.5 0.5t21.5 0.5t23 -0.5t17 -0.5t19.5 -2.5t16.5 -2.5q3 -1 11 -4.5t16 -7.5l16 -8q7 -4 10 -6q2 -2 5.5 -8t4.5 -8q2 -3 6 -11l5 -10q1 -2 3 -10.5t2 -10.5 q1 -2 1 -14q0 -11 -1 -12q0 -1 -1 -6.5t-2.5 -12.5t-3.5 -13.5t-3 -9.5q-2 -5 -5.5 -17.5t-5.5 -14.5q-1 -2 -4 -7l-6 -13l-7 -13q-3 -6 -4 -9q-2 -2 -5.5 -8t-4.5 -8l-13 -13l-21 -20l-21 -21l-14 -14q-2 -1 -10.5 -4.5t-10.5 -5.5l-5 -5q-4 -4 -8 -8.5t-8 -8.5l-5 -5 q-1 -1 -6 -5l-12 -9l-13 -9l-11 -8q-2 -2 -8 -5.5t-8 -5.5q-1 0 -5 -2l-8 -5l-8 -5q-4 -3 -5 -4q-1 0 -3 -2t-2 -3q0 -3 -1 -12t-2 -19t-2 -19t-1 -13q0 -2 -1 -9t-1.5 -14.5t-1.5 -14.5t-1 -9v-53q0 -2 -1 -12t-1.5 -21.5t-1.5 -21.5t-1 -13q-1 -4 -1 -10v-12q0 -14 1 -15 q0 -1 8 -11t13 -15q1 -1 5.5 -5t4.5 -6q1 0 0.5 -2t-0.5 -3q1 -2 3 -5.5t3 -4.5q1 -2 4.5 -6t5.5 -5q4 -3 12 -8l16 -12q8 -6 15.5 -11t9.5 -6q1 -1 7.5 -2.5t8.5 -2.5q1 0 5 -2.5t5 -2.5q3 -1 19 -1q15 0 18 1q1 0 6 1l10 4q5 1 9.5 2.5t5.5 2.5q2 1 10 9t11 12q7 8 11 20 t7 25t5 26t4 24v37q-1 4 -3 17q-2 12 -3 14t-7 8l-8 8q-2 2 -13.5 5.5t-13.5 5.5l-6 3l-4 2q-1 1 -1 7q0 7 1 9q0 2 2 8t3 7q1 2 5 6t6 5q3 2 13 6t13 4q2 1 13 1t13 -1q1 0 8 -2l14 -4l15 -5l10 -4q3 -3 4 -4.5t6 -9.5t10 -18.5t7 -15.5q0 -6 0.5 -20t0.5 -30t-0.5 -30 t-0.5 -20t-2 -18t-5 -25t-7 -25.5t-7 -20.5q-1 -1 -2.5 -5t-3.5 -5q-6 -20 -26 -38t-37 -31l-10 -6l-13 -6q-7 -4 -12.5 -6.5t-6.5 -2.5t-6 -1t-11.5 -1.5t-13.5 -1.5t-11 -1h-15q-6 1 -18 4l-24 6l-21 7q-10 3 -11 4zM183 110q2 -1 4.5 -2.5t6.5 -3.5q8 -3 10 -4t12 -1 q12 0 15 1q2 0 8 2t8 3q0 1 4 5l6 6q5 5 13 15t8 11q1 1 1 10t-1 11q0 1 -2 2.5t-3 2.5q-2 1 -5.5 3t-5.5 2q-5 2 -17 6t-14 5q-3 1 -15 3t-17 2q-1 1 -8 1t-8 -1q-6 -3 -14.5 -10t-11.5 -11q-1 -1 -1 -12t1 -14q0 -2 2 -5.5t3 -5.5zM399 573q0 -2 2 -5.5t3 -5.5q20 8 37 21 l3 3q2 2 2 3q2 1 8.5 5t7.5 5l47 47q2 3 7 8l10 12l9 10q4 5 6 7q2 3 8 13.5t8 13.5q2 4 6 16t4 15q0 2 0.5 7.5t0.5 12.5t-0.5 13t-0.5 9q0 1 -2 5l-3 6l-5 5l-6 3q-4 2 -5 2q-3 1 -12 2l-17 3l-18 3q-8 2 -11 3q-6 0 -12 -3.5t-11 -8.5l-14 -14q-8 -8 -10 -11l-16 -32 l-5 -15q-3 -9 -5 -21q-1 -5 -3 -12.5t-3.5 -15t-3 -13.5t-1.5 -7q0 -3 -1 -9t-1.5 -12.5t-1.5 -12.5t-1 -8q0 -3 -0.5 -10t-0.5 -15q0 -7 0.5 -13.5t0.5 -8.5z" />
<glyph unicode="M" horiz-adv-x="936" d="M110 16q-3 2 -11 5.5t-10 4.5l-3 3q-2 2 -2 3q-2 1 -8.5 5t-7.5 5q-4 3 -12 11t-9 10q-2 3 -7 14.5t-10 21.5q-3 8 -4 11l-3 9q-2 8 -5 19t-3 14q0 1 -1 9t-1.5 18t-1.5 20.5t-1 16.5v10q1 3 2.5 13t2.5 13q1 2 2.5 8t3.5 8q1 2 2.5 6t2.5 5l26 26q2 2 14.5 8t17.5 8 q2 1 10.5 3t10.5 2q4 0 15 0.5t22 0.5q12 0 22 -0.5t14 -0.5t15.5 -1.5t24 -3.5t23.5 -3.5t16 -2.5q2 -2 10.5 -7.5t10.5 -7.5l3 -3q2 -2 2 -3q2 -2 6 -8t5 -7q1 -2 3 -8t2 -8q1 -3 1 -19q0 -15 -1 -18q0 -1 -2 -3t-3 -2q-2 -2 -6 -3.5t-5 -1.5t-5 -0.5t-9 -0.5t-10 0.5 t-7 0.5q-3 0 -8.5 1t-11.5 1.5t-11 1.5t-6 1q-2 0 -3.5 2t-1.5 3q0 2 2.5 8t2.5 8q0 1 -2 5t-3 5q-1 2 -5 3.5t-6 2.5q-19 4 -39 3.5t-36 -8t-26 -22t-10 -36.5q0 -13 1 -16q0 -4 1.5 -12.5t4 -18t5 -17t5.5 -10.5q1 -2 5 -6.5t9 -9.5t10 -9.5t7 -6.5q2 0 14 -6.5t18 -8.5 q2 -2 8 -4t7 -2h37q2 1 10.5 2.5t10.5 3.5q3 1 11 4.5t10 5.5q2 1 5.5 5t5.5 6q2 5 10.5 16t10.5 15v5q1 3 4.5 9l7.5 13l8 13q4 5 6 7l3 6q2 4 2 5t1 5t2 8.5t2 8t1 4.5t2 6l5 11l5.5 9.5t2.5 5.5q1 2 3 13t3 13q0 2 2.5 10.5t2.5 10.5q1 4 3 14t2 12q1 4 2 10.5t1.5 13.5 t1 12t0.5 6q0 8 0.5 29.5t0.5 45.5t-0.5 46.5t-0.5 31.5q0 3 -0.5 13.5t-1 24t-1.5 26.5t-2 20q0 3 -1 11t-1.5 16.5t-1.5 15.5t-1 10q-1 4 -3 15l-3 21l-3 20q-1 9 -2 12q0 2 -2.5 8t-2.5 8t-1 9.5t-1.5 15.5t-1.5 16t-1 11v32q0 1 2 5t3 5l16 16q2 2 5.5 3.5t4.5 1.5 q5 1 21 1q15 0 16 -1q1 0 4 -3l7 -7l9 -9l7 -7q1 -1 2.5 -5t2.5 -5q0 -7 1 -25t2.5 -38.5t3.5 -38.5t3 -25q0 -3 1.5 -16t4 -28t4 -28.5t1.5 -16.5v-47q0 -3 1 -10t1.5 -15t1.5 -16t1 -12q0 -2 2.5 -15.5t2.5 -15.5q0 -3 1 -10.5t2 -16t2 -16t1 -10.5q2 2 5.5 10.5t4.5 10.5 q0 3 2.5 16t2.5 16q1 3 2 9l3 13l3 12q2 6 3 8q1 3 4.5 14.5l7.5 25.5l9 25l5 14q1 2 3 10.5t2 10.5q1 2 4.5 11t6.5 20l7 21q3 9 3 11q1 1 2.5 6.5t2.5 12.5l3 14l3 9q0 1 1.5 9t3.5 17t3.5 16.5t2.5 9.5q0 2 2 10.5t3 10.5t2.5 8.5t2.5 7.5q2 3 5.5 11t5.5 10q0 1 2 3t3 2 q6 6 10 6h42q1 0 5 -2t6 -4q1 0 3 -2t2 -3q1 -2 3 -5.5t2 -4.5q1 -1 1 -8t-1 -8q0 -3 -5 -16t-5 -16q-1 -2 -3 -10t-2 -11q0 -2 -1.5 -9.5t-4 -16.5t-4 -16.5t-1.5 -9.5t-2.5 -10.5t-2.5 -10.5q0 -3 -2.5 -16t-2.5 -16q-1 -2 -3 -10.5t-3 -10.5q0 -3 -2 -22l-5 -44l-5 -51 q-2 -26 -3 -41v-5q0 -10 1 -26.5t1.5 -32.5t1.5 -28t1 -13t1 -4.5t1.5 -8t1.5 -8.5t1 -5q0 -2 1 -7.5t1.5 -11.5t1.5 -11.5t1 -6.5q1 -5 4 -17l6 -25l7 -26l4 -16q1 -2 5 -11l6 -15l3 -6q2 -4 2 -5q1 -1 4 -5l8 -9q4 -5 8 -9.5t6 -7.5l6 -6q0 -1 2 -5t3 -5q2 -2 5.5 -6 t4.5 -5q2 -1 8 -2.5t8 -2.5h16q16 9 31 22.5t28 30t22 34t14 34.5v16q-1 4 -5 16t-6 15q-1 2 -4.5 8t-5.5 8l-11 11q-2 0 -6.5 1.5t-9.5 3.5t-9.5 3.5t-5.5 1.5l-16 16q-1 1 -1 4q0 5 1 6q0 2 2 5.5t3 5.5q2 2 5.5 6t5.5 4q2 2 7.5 4t7.5 2h58q27 -11 43.5 -34.5t24.5 -49.5 q2 -4 4 -12t2 -9v-32q-9 -24 -23 -56.5t-33 -62t-44.5 -50t-57.5 -20.5q-4 0 -14 -0.5t-21 -0.5q-10 0 -19.5 0.5t-13.5 0.5q-1 0 -7 2l-9 3q-2 1 -5.5 2.5t-5.5 2.5q-1 1 -7.5 5.5t-7.5 5.5q-1 0 -5.5 2t-5.5 3l-5 5l-9 12q-6 8 -7 9q-2 3 -6.5 12t-9 19t-9.5 19l-6 13 q-1 1 -4 7l-6 15l-6 17.5t-5 13.5q-1 1 -4 7l-5 13q-3 8 -5 14.5t-2 7.5q-2 2 -5.5 10.5t-5.5 10.5q-2 -38 -4 -80.5t-6 -77.5q-1 -2 -2.5 -12t-3.5 -14q0 -2 -2 -8t-3 -8l-6 -12q-3 -7 -4 -9q-1 -1 -5 -3t-6 -2q-3 0 -9.5 -0.5t-14.5 -0.5q-7 0 -13.5 0.5t-9.5 0.5l-16 16 q-1 1 -3 4.5t-2 5.5q-1 3 -2.5 9t-3.5 12.5t-3.5 12.5t-1.5 8t-1 8t-1.5 13t-1.5 13t-1 8q0 9 -5 15.5t-5 11.5q-3 -3 -8 -14.5t-10 -19.5q-2 -5 -4.5 -12t-4.5 -12q0 -2 -2 -5.5t-3 -5.5q-1 -1 -5.5 -7.5t-5.5 -7.5q0 -1 -2 -5.5t-3 -5.5q-1 -2 -4.5 -8t-5.5 -8l-13 -16 q-6 -8 -14 -15q-3 -3 -11 -9t-10 -7l-10 -5l-14 -8l-12 -6q-5 -2 -6 -2h-115l-5 2l-10 4l-12 6q-6 2 -10 4z" />
<glyph unicode="N" horiz-adv-x="702" d="M52 79l-7 14l-9 22l-10 22q-4 11 -5 16q-1 0 -2.5 10.5t-3.5 15.5l-3 18q-2 12 -2 13v58q0 1 1 6.5t1.5 12.5t1.5 13.5t1 9.5q1 2 2.5 12t3.5 15q1 3 2.5 11t2.5 10q0 1 2 4.5t3 5.5l6 9q4 6 5 7q1 2 5 6t8.5 8t7.5 7l5 5q1 1 11 7l15 9l6 3q4 2 5 2l17 6q12 5 14 5h16 q2 0 8 2.5t8 2.5q3 0 8 1t11 2t11 1.5t7 0.5q3 1 16 1t15 -1q2 0 8 -1.5t8 -3.5q2 -1 8 -4.5t8 -5.5l3 -3q2 -2 2 -3q1 -3 1 -14q2 -11 -4 -16t-13 -12q-4 0 -14.5 0.5t-22.5 0.5q-11 0 -21.5 -0.5t-14.5 -0.5q-5 0 -17.5 -2t-14.5 -3t-9 -7l-12 -9q-4 -3 -11 -11l-10 -10 q-2 -2 -5.5 -10t-5.5 -11q-11 -41 -11.5 -89t11.5 -90q3 -16 14 -29t23 -23q3 -3 11 -9t10 -7t10 -3t11 -2q2 -1 9 -1q6 0 7 1q18 4 31.5 17t24.5 29t20.5 33t18.5 31q1 2 4 9t6 15l6 17q3 8 5 12l21 58q10 29 10 63q1 3 3 15t3 16q1 8 3 21.5t2 15.5q0 6 1 18t1.5 25.5 t1.5 25t1 15.5v111q0 7 -1 26.5t-1.5 41.5t-1.5 41.5t-1 27.5q-1 2 -3 10t-2 11q0 1 -0.5 13.5t-1.5 27.5l-2 32q-1 17 -2 27v10q2 8 6 16t10 10q2 1 14.5 3t17.5 3h21l5 -5q4 -4 5 -6q4 -5 10 -17t6 -14t1 -11.5t1.5 -21.5t1.5 -23.5t1 -17.5v-20v-33v-33v-19q0 -4 1 -20.5 t2 -35t2 -35t1 -20.5v-5v-8v-8v-5q0 -9 2 -27t4.5 -37.5t3.5 -38t0 -29.5q1 3 3 11t2 10q1 2 3 8.5t3 7.5v11q0 11 1 29.5t1.5 36t1.5 30.5t1 14q0 45 10.5 95t31.5 96.5t52.5 85t73.5 60.5q3 1 15.5 3t16.5 2h10q5 -1 15 -2.5t12 -2.5q8 -3 19 -10l18 -11l8 -8q4 -5 9 -13 t10 -17l8 -17q4 -9 7 -13q0 -6 3.5 -16.5t7 -30t7 -49t3.5 -73.5q0 -1 -2 -8.5t-4 -12.5q0 -2 -2 -8t-3 -8q-1 -3 -3 -7.5t-5 -9.5t-5 -9t-3 -5q-1 -2 -7 -8l-8 -8l-6 -3q-4 -2 -5 -2q-4 -1 -10 -1h-12q-14 0 -15 1l-5 5q-1 1 -1.5 7.5t-0.5 14.5t0.5 17t1.5 14q0 1 1.5 4.5 t4 8t4 8.5t1.5 5l4 10l5 14l4 14q2 7 2 9q3 3 0 6q-3 13 -5 28.5t-5 30.5t-7.5 28.5t-13.5 22.5q-2 3 -10.5 11t-10.5 10q-2 1 -5.5 3t-5.5 2q-1 1 -8 1t-8 -1q-1 0 -5 -2t-5 -3l-12 -12q-6 -6 -10 -13q-5 -8 -13.5 -20.5t-11.5 -17.5q-18 -28 -28.5 -60t-15.5 -66.5 t-8 -70.5l-6 -71q-1 -3 -2.5 -11t-3.5 -10v-242q0 -6 3 -21.5t3 -21.5q0 -2 1 -11.5t1.5 -22t1.5 -25t1 -19.5v-6q0 -2 2.5 -15.5t2.5 -15.5q1 -3 1 -17q0 -13 -1 -15q0 -6 -10 -16t-16 -10q-3 -1 -18 -1q-16 0 -19 1q-8 0 -15.5 5t-10.5 11q-1 0 -2.5 6.5t-3.5 8.5 q-8 29 -12.5 53t-13.5 53q0 1 -2.5 7.5t-2.5 7.5q-1 2 -3 10.5t-2 10.5q-1 3 -2.5 8t-3 11t-3 11t-2.5 7q-2 8 -4 14t-6 13q-2 -3 -5.5 -13.5t-5.5 -13.5q0 -1 -1 -5l-4 -10l-3 -10q-2 -5 -2 -6q-1 -2 -3.5 -7.5t-5.5 -11.5t-5 -11.5t-2 -6.5q-1 -2 -4 -10l-6 -17l-7 -16 q-3 -8 -4 -10q-1 -1 -5 -8l-11 -17l-12 -19l-9 -14q-2 -3 -8 -11t-8 -10l-31 -31q-1 -1 -5 -3t-6 -2q-6 -3 -18 -7t-14 -4h-89z" />
<glyph unicode="O" horiz-adv-x="548" d="M215 11q-2 0 -8 2t-8 3q-3 1 -8.5 4t-10.5 6l-11 7q-5 3 -6 4q-3 1 -12 7.5t-20 15.5l-21 17l-16 12l-5 5q-4 4 -5 6q-1 0 -2.5 4t-3.5 6l-7 17l-10 22l-11 23q-5 11 -8 19q-5 13 -6 14q-3 9 -7.5 25t-8.5 33.5t-7 33.5t-3 24q0 4 -0.5 14.5t-0.5 21.5q0 12 0.5 22.5 t0.5 15.5q0 3 1.5 17.5t3 32t3.5 34.5l3 26q0 4 2 16t3 16l11 31l15 47l16 48l10 31l5 10q4 9 6 11q2 4 10 16t11 16q1 2 4 6t7 8l6 7q3 4 4 5q2 3 7 8l11 11l12 11l7 7q1 1 7 5l9 6q1 1 5 2.5t5 2.5l9 3q6 2 7 2q1 1 10 1q10 0 11 -1q12 -1 20.5 -5.5t16.5 -15.5 q1 -1 2.5 -4.5t2.5 -5.5v-6q-1 -2 -3 -8t-2 -7q-3 -7 -11.5 -11t-15.5 -11q-1 0 -10 -4.5t-16 -7.5q-4 -2 -7 -6l-9 -8q-1 -2 -5 -7t-9 -12l-10 -14q-5 -6 -7 -9q-2 -2 -6 -8t-5 -8t-2.5 -4.5t-3.5 -6.5q-3 -8 -4 -10t-3 -9q-3 -8 -7 -22t-6 -16q0 -1 -2 -7.5t-5 -14.5 l-5 -13q-3 -6 -4 -7q0 -2 -2.5 -12.5t-5.5 -20.5q-1 -3 -1 -5t-1 -4q-1 -3 -3 -13.5t-3 -13.5q0 -1 -1 -5.5t-1.5 -10.5t-1.5 -11.5t-1 -8.5q0 -5 -1 -12l-2 -14q-1 -6 -1 -11l-1 -5q0 -3 -0.5 -11.5t-0.5 -17.5t0.5 -17.5t0.5 -11.5q0 -2 1 -9t1.5 -15.5t1.5 -16.5t1 -12 q0 -2 2 -14t3 -17l4 -22q2 -10 7 -21l6 -11q4 -8 4 -10q1 -1 3 -7.5t3 -7.5l4 -7l4 -10t4.5 -9.5t3.5 -5.5q1 -2 7 -10.5t8 -10.5l21 -21q2 -2 13.5 -8t13.5 -8t8 -5.5t7 -4.5q2 -1 6 -5.5t5 -5.5q4 -2 16 -6t15 -4q3 -1 16 -1t16 1q5 1 17 4.5t15 5.5l21 21q3 4 9 13l13 19 l12 19l8 12q33 111 42.5 222.5t-21.5 224.5q-2 6 -13 25t-29 39q-7 3 -16 8t-11 3q-4 0 -5 -1q-1 0 -2.5 -2t-2.5 -3l-16 -32q-1 -3 -2.5 -14.5t-3 -25t-3 -25t-1.5 -14.5q-1 -2 -3 -8t-3 -7q-1 -2 -7 -8l-8 -8q-2 -1 -5.5 -3t-5.5 -2q-1 -1 -6 -1q-4 0 -5 1l-5 10 q0 3 -2.5 16t-2.5 16q0 1 -1.5 6.5t-4 11.5t-4 11.5t-1.5 6.5v37q1 2 2.5 14.5t3.5 17.5q1 3 2.5 11t2.5 10q0 1 2 4.5t3 5.5l6 9q4 6 5 7q1 2 4.5 6t8 8t8 7.5t5.5 4.5q6 6 11 6h47q2 0 10 -2t11 -4q5 -2 15 -5.5t11 -4.5q1 0 5 -4l7 -7l8 -8l7 -7q9 -12 17 -20.5t14 -16 t11 -16t10 -21.5q15 -31 21 -55.5t11 -54.5v-174q-11 -54 -19 -101.5t-23 -98.5q-1 -2 -4 -9l-6 -14l-7 -14q-3 -7 -4 -10q-1 -2 -4 -6.5t-6 -10.5l-7 -12q-3 -5 -4 -8q-4 -5 -12 -17.5t-9 -14.5q-2 -1 -5.5 -4.5t-7.5 -8t-8 -8.5t-6 -5q0 -1 -4 -2.5t-6 -2.5q-11 -5 -21 -7 l-21 -4q-2 0 -8.5 -1t-15 -1.5t-17 -1.5t-12.5 -1h-5q-4 1 -12 2l-16 4q-9 1 -16 2.5t-9 2.5z" />
<glyph unicode="P" horiz-adv-x="562" d="M168 11q-2 1 -6 4l-5 6q-1 2 -3 5.5t-2 5.5q-1 1 -1 7q0 7 1 8q0 1 2 5l3 6q3 5 7 6l9 4q4 2 10 4l12 5l11 5l4 2q1 1 12 1t14 -1q2 0 8 -2.5t8 -2.5q2 -1 13 -1t13 1q1 0 5 2l6 3q2 2 7.5 5.5t7.5 5.5q5 2 15.5 11t11.5 10l4 6l6 9q12 12 11 35.5t-10 52t-23.5 59.5 t-29.5 59l-26 50q-12 23 -16 34q-13 13 -16.5 27.5t-10.5 29.5q-1 3 -3.5 9t-4.5 12.5t-4.5 12.5t-3.5 8q-3 0 -12 1t-19 2t-19 2t-13 1q-7 1 -20.5 2.5t-15.5 2.5l-6 3q-6 2 -14 6l-15 6q-8 4 -13 6l-10 5q-1 1 -3 2.5t-2 2.5q-14 20 -21 37q-2 2 -4 8.5t-2 7.5q0 3 -1 12 t-1.5 20t-1.5 21t-1 15v32q0 2 2.5 10.5t2.5 10.5q0 1 1 6l2 12l2 11q1 6 1 8q0 1 1.5 6t2.5 11l3 11q2 6 3 8q8 23 19 48.5t25 49.5t32 45t40 36q0 1 5 3l12 6q7 4 14 7t11 5q1 1 7 3t8 2q5 2 13 4t9 2q5 0 16 0.5t22 0.5q12 0 22 -0.5t13 -0.5q66 -7 119.5 -35t96.5 -81 q2 -2 8 -10.5t7 -10.5q2 -3 6.5 -11t9.5 -16l9 -15l7 -10l6 -12l8 -17l7 -15l5 -9q2 -4 5 -12.5t6.5 -17.5t5.5 -17l4 -11q0 -2 1 -8t1.5 -13t1.5 -13.5t1 -7.5t1 -5t2 -8.5t2 -8t1 -4.5q0 -35 -2 -56.5t-4 -27.5q2 -10 -4 -20t-6 -17q-1 -2 -3 -8t-2 -8q-2 -4 -6 -14 t-5 -12q-2 -5 -8 -17.5t-8 -14.5q-8 -8 -12.5 -15.5t-13.5 -16.5l-14 -14q-8 -7 -15 -14l-12 -13l-6 -6q-2 -1 -8 -10t-8 -11q-2 -1 -5.5 -5t-4.5 -5l-9 -6q-6 -4 -7 -5q-2 -1 -11 -1q-8 0 -10 1t-10 4q-10 5 -23.5 12.5t-19.5 10.5q-2 1 -6 5t-4 5q-1 1 -1 10t1 11 q0 2 2 5.5t3 5.5l10 10q2 1 8.5 3t7.5 3q3 1 16 7l16 8l15 9q10 6 11 7l37 37q0 1 2.5 5t6 9t7 9.5t5.5 7.5q4 6 6 13l4 14q2 8 6 22l5 14q0 6 0.5 19.5t0.5 28.5t-0.5 28.5t-0.5 18.5l-1 4q-2 5 -3.5 11t-3.5 12t-3 10q-1 2 -2 6l-4 11q-3 12 -4 14t-4 7q-3 9 -9 19.5 t-8 15.5q-19 31 -42 60t-50.5 51t-59 35t-67.5 13q-11 0 -20.5 -0.5t-12.5 -0.5q-1 0 -7 -2l-9 -3l-15 -6q-10 -4 -12 -5t-7 -4t-10 -7q-5 -3 -9 -6t-5 -4t-9 -11l-12 -15q-2 -2 -6 -8t-5 -8q-8 -21 -16.5 -39.5t-15 -36.5t-11 -36.5t-4.5 -39.5v-53q0 -1 2 -8.5t3 -12.5 q1 -2 3 -8t3 -7q1 -2 2.5 -6t2.5 -5q4 -5 12 -13t9 -8h52l11 10q0 3 1 10t1.5 14.5t1.5 14t1 9.5q0 13 3.5 29t8.5 32t10.5 31.5t9.5 28.5l9 15q6 10 7 11l12 12q9 10 14 14q2 2 10 8t11 8q2 1 5.5 3t4.5 2q4 1 12.5 2t18 2t17 1.5t10.5 0.5q1 0 11 -2t15 -4q5 -1 13 -3 l8 -2q3 -2 15 -8l17 -8q1 0 3 -2t2 -3q2 -2 3.5 -11.5t2.5 -35.5q-1 -2 -2.5 -5.5t-3.5 -5.5q-1 -2 -4.5 -5.5t-5.5 -4.5q-2 -2 -6 -3.5t-5 -2.5h-52l-16 16q-1 1 -2.5 5.5t-2.5 5.5t-11 1q-9 0 -10 -1q-3 -4 -11 -16t-10 -16q-1 -1 -3 -5t-3 -5q-5 -13 -8.5 -23.5t-5 -21 t-2 -21.5t-0.5 -24q0 -10 0.5 -19t0.5 -12q0 -2 2.5 -8t2.5 -8v-21q0 -2 -2.5 -8t-2.5 -8q-1 -1 -1 -11q0 -9 1 -10l20 -56q10 -29 21.5 -56.5t23.5 -53t24 -44.5q1 -2 5 -9l8 -17l8 -17l5 -10q20 -20 23.5 -52t-3 -65.5t-21 -63t-30.5 -45.5q-2 -1 -7.5 -4.5l-11.5 -7.5 l-12 -9q-5 -4 -6 -5q-2 -1 -5.5 -3t-5.5 -2q-2 -1 -10.5 -3t-10.5 -2q-1 -1 -7.5 -3.5t-7.5 -2.5q-3 0 -11 -1t-17 -1.5t-17.5 -1.5t-12.5 -1h-24h-18q-2 0 -10 4.5t-11 6.5z" />
<glyph unicode="Q" horiz-adv-x="694" d="M530 -363q-2 2 -8 7q-6 6 -7 8q-6 6 -6 11v31q1 2 3 13.5t3 13.5v15q0 3 -1 9l-2 12l-2 13q-1 6 -1 8q0 12 0.5 42t0.5 64q0 33 -0.5 63t-0.5 42q0 4 -1 14t-1.5 22t-1.5 22t-1 14q0 3 -1.5 9.5t-3 14.5t-3 14.5t-2.5 9.5q-2 -1 -6 -2.5t-5 -3.5q-1 -1 -5 -6t-8.5 -10 t-8 -9.5t-4.5 -5.5q-2 -3 -7 -7.5t-10 -10t-9.5 -9.5t-5.5 -5q-1 0 -5 -2.5t-9 -6t-9.5 -7t-7.5 -5.5q-2 -1 -5.5 -3t-5.5 -2l-13 -5l-15 -5l-12.5 -3.5t-6.5 -1.5q-2 0 -9.5 -0.5t-15.5 -0.5t-16 0.5t-12 0.5q-3 0 -15 2t-22 5q-7 1 -10 3l-13 4q-10 4 -13 6 q-16 8 -26 13.5t-17.5 11.5l-15.5 13l-20 20q-2 2 -10.5 12.5t-10.5 13.5q-1 1 -3 5.5t-2 5.5q-11 11 -27 33t-31 47.5t-26 51.5t-11 46q0 6 -0.5 21t-0.5 32t0.5 32t0.5 21q0 1 1.5 12t3 25.5t3.5 29t3 22.5q0 5 2 17t3 14q1 5 4.5 18.5t5.5 18.5q6 18 10.5 34.5t10.5 34.5 q18 48 48.5 88.5t64.5 76.5l29 29q2 2 8 10.5t8 10.5q1 1 2.5 3t2.5 2q3 2 9 6.5t7 4.5t7 0.5t12 0.5q7 0 13.5 -0.5t9.5 -0.5q1 0 5 -2l6 -3q1 -1 2.5 -3t2.5 -3q1 -2 3 -5.5t2 -4.5q0 -3 0.5 -9.5t0.5 -14.5q0 -7 -0.5 -13.5t-0.5 -9.5q0 -2 -2 -5.5t-3 -5.5 q-3 -4 -11 -12t-10 -9t-10.5 -2.5t-10.5 -2.5q-1 -1 -9 -7l-12 -9q-1 -1 -3 -2.5t-3 -2.5q-2 -3 -6 -8l-8 -10l-8 -9q-3 -4 -4 -5q-2 -3 -7 -9l-10 -13l-9 -13q-4 -5 -5 -7q-1 -1 -3 -5t-3 -5q-1 -2 -7.5 -13.5t-7.5 -13.5q-2 -2 -5.5 -10.5t-5.5 -10.5l-3 -6l-3 -8l-15 -55 q-5 -21 -8.5 -44.5t-6.5 -57.5l-6 -91q0 -1 2 -12l3 -15q1 -2 3 -10t3 -11q5 -18 9.5 -31.5t10.5 -26t13.5 -25t18.5 -27.5q2 -2 8 -11q6 -8 8 -10t6 -7q5 -7 11.5 -15t8.5 -10l8 -8q6 -6 8 -7q26 -13 47 -21.5t48 -10.5h10q2 0 8 2t8 3q1 1 5 2.5t5 3.5q5 2 15 8t12 7 q2 2 10 8t11 8q0 1 2 2.5t3 2.5l12 15q8 10 9 12q1 1 3 7t2 8q1 1 1 6q3 4 -4.5 7.5t-12.5 7.5q-3 3 -11 9t-10 7l-6 6q-4 4 -4 5q-1 2 -1 15t1 16q0 1 4 5l6 6l6 3q4 2 5 2q3 1 21 1t21 -1q1 -2 5 -5.5t5 -5.5l6 -3q4 -2 5 -2q2 1 5.5 5t5.5 6q1 3 3 8.5t3.5 12.5t2.5 12.5 t1 8.5t0.5 15t0.5 26q0 43 -5.5 79t-5.5 79q0 1 -1 6l-2 11q-1 5 -2 9.5t-1 5.5q0 10 -1.5 24t-3.5 28l-4 24q-1 10 -1 13q-1 2 -2.5 8t-3.5 8q-1 2 -7 12.5t-8 13.5q-1 1 -2.5 3t-3.5 3l-12 9q-8 6 -9 6q-1 1 -9 3l-12 3h-10q-2 -1 -5.5 -5t-5.5 -6t-6 -12l-4 -14 q0 -3 -2.5 -16t-2.5 -16q-1 -2 -5 -7.5t-6 -7.5t-10 -8t-11 -8q-2 -2 -8 -3.5t-8 -1.5l-2 2q-2 1 -3 3q-1 1 -2.5 4.5t-2.5 5.5q-2 3 -3.5 9t-1.5 7q-1 3 -1 18q0 16 1 19q0 1 1 5t1.5 8.5t1.5 8t1 4.5l4 26q2 14 6 27q1 2 3 5.5t3 4.5q1 2 5 6l5 5q3 2 11 6t10 4q1 1 12 1 t14 -1q2 0 8 -1t13 -1.5t13 -1.5t8 -1h16q9 -1 18.5 -4t18.5 -1q0 2 1 7t1.5 11t1.5 11t1 8q1 3 3 11t3 10t4.5 5.5t5.5 4.5q1 0 8.5 2t12.5 3q4 1 14 3t12 3h6q8 -4 15 -11l11 -10q1 -2 3 -8.5t2 -7.5t1.5 -5t4 -8.5t4 -8t1.5 -4.5v-6q-2 -3 -10.5 -13t-10.5 -13 q-1 -5 -2.5 -17.5t-3 -27t-3 -27t-2.5 -17.5v-6q4 -14 10 -29l11 -28l3 -6q2 -4 2 -5q1 -5 5.5 -17t5.5 -14l3 -15q2 -10 2 -12t0.5 -10.5t0.5 -18.5t-0.5 -19.5t-0.5 -14.5q0 -7 -1 -22.5t-1.5 -32.5t-1.5 -31.5t-1 -18.5q0 -1 -1 -5t-1.5 -8.5t-1.5 -8t-1 -4.5 q-1 -3 -1 -14t1 -13q0 -1 2.5 -7.5t2.5 -7.5v-27q0 -21 -3 -38t2 -28q14 -29 35 -45t38.5 -24t27.5 -11t1 -5q2 -1 9 -6.5t8 -7.5q3 -2 3 -6q-1 -5 -7 -18l-8 -16q-2 -2 -10 -5t-12 -3l-12 3q-13 4 -19 7q-4 1 -17.5 5t-17.5 6l-2 -358q1 -3 2.5 -13.5t2.5 -13.5v-10 q-1 -3 -5 -11t-6 -10q-2 -3 -8 -9l-7 -7q-2 -1 -15 -1q-14 0 -17 1q-1 0 -7 4.5t-9 6.5z" />
<glyph unicode="R" horiz-adv-x="847" d="M615 5q-2 1 -14.5 5t-17.5 6q-2 1 -5.5 2.5t-4.5 2.5q-3 2 -7 6l-8 8l-7 7l-5 5q0 1 -2.5 6.5l-5.5 12.5l-7 13q-4 7 -6 10q0 1 0.5 3t-0.5 3q0 1 -2 7.5t-3 7.5q-1 8 -3 16l-5 14l-7 23q-4 14 -6 16q0 2 -2.5 10.5t-2.5 10.5q-1 1 -3 7.5t-2 8.5t-3 15.5t-3 15.5 q-1 4 -4 13l-6 19l-7 19l-4 12q-2 3 -10 11t-11 10q-4 1 -17.5 7.5t-19.5 8.5q-1 1 -8 1q-6 0 -7 -1t-1 -5t1 -5q0 -2 3 -8l7 -12q3 -6 6.5 -11t4.5 -6l16 -32q0 -1 2 -7.5t3 -8.5q0 -1 2.5 -5t2.5 -5t1 -5t1.5 -8.5t1.5 -8t1 -4.5q1 -2 3 -8.5t3 -7.5v-37q-1 -2 -2.5 -14.5 t-3.5 -17.5q-2 -8 -3.5 -16t-6.5 -15l-6 -9l-8 -11l-8 -11q-4 -5 -5 -6q-3 -5 -13.5 -14.5t-12.5 -11.5q-3 -2 -10 -6l-16 -8l-15 -8q-8 -3 -11 -4q-5 0 -17 -0.5t-26 -0.5q-13 0 -25 0.5t-17 0.5q-2 0 -12 1.5t-14 3.5q-1 0 -5 2t-5 3q-2 1 -3.5 3t-2.5 2q-1 2 -3 8t-2 8 v21q0 1 2 5l3 6q2 3 5.5 9t8.5 13l8 12q3 6 5 8q1 1 2.5 3t2.5 2q1 1 10 1t11 -1q1 0 4.5 -2t5.5 -3q2 -2 6.5 -7t9.5 -14q1 -1 2.5 -5.5t2.5 -5.5q2 -1 11 -1t11 1q5 2 16 9.5t15 11.5q2 3 5.5 7.5l7.5 9.5l6 10q2 4 2 5v79l-4 11l-6 15l-5 10q-4 8 -6 11l-5 11 q-5 9 -10 19l-10 18l-6 10q-1 1 -2 6l-4 10l-3 10q-2 4 -2 5t-2 6t-5 11l-5 10q-3 4 -4 5q0 1 -2 7.5t-3 8.5q-2 3 -5.5 13t-5.5 13h-10q-1 0 -5.5 -1t-10 -1.5t-10.5 -1.5t-6 -1h-121q-2 0 -12 2t-14 3q-29 5 -42.5 25.5t-16.5 48.5t2.5 61.5t15 65.5t19.5 59.5t17 44.5 q0 4 7.5 14.5t17.5 22.5l20 22q9 11 13 15l26 26q10 11 19.5 19.5t20.5 16t28 17.5l6 3q4 2 5 2q2 0 13.5 2.5l25.5 5.5l28 7l22 6l15 3q10 2 12 2t7.5 0.5t12.5 0.5t13 -0.5t9 -0.5t10 -1t14.5 -1.5t14 -1.5t8.5 -1l5 -2l10 -2.5t12 -3.5t10 -3q8 -2 15.5 -5t10.5 -5 q2 -2 8 -8.5t8 -7.5q1 -1 7.5 -5t8.5 -5l21 -21l10 -20l14 -28l14 -29q6 -13 9 -18q4 -13 6 -19t2.5 -17l1.5 -33l1 -63q-7 -42 -17 -89t-36 -84q-1 -2 -5.5 -8t-5.5 -8l-6 -12q-4 -8 -4 -9q-1 -1 -1 -15t1 -17q0 -7 4 -15t6 -11q1 -1 4 -5l5 -8l5 -8q2 -4 2 -5q1 -1 2.5 -7 t3.5 -9l3 -12q2 -7 2 -9t1 -9.5t1.5 -16.5t1.5 -17t1 -10q0 -1 4.5 -15t6.5 -21q0 -2 2 -8.5t3 -7.5q0 -1 1 -5t1.5 -8.5t1.5 -8t1 -4.5q1 -2 5 -12l6 -15l5 -11l5 -10q26 -27 49 -28t40.5 15t27.5 42.5t10 54.5q0 7 -0.5 13t-0.5 8t-4 12l-6 15q-1 1 -3 5l-6 10 q-3 6 -5 10.5t-2 5.5v5q1 2 2.5 6t2.5 5l11 11h26q2 -1 10.5 -3t10.5 -3q2 0 16 -1.5t16 -3.5q1 -1 4.5 -8.5t5.5 -12.5t6 -17l5 -15v-21q0 -4 -1 -13l-2 -17q-1 -9 -2 -16.5t-1 -10.5q0 -5 -2 -15t-3 -12q0 -6 -4.5 -17t-10.5 -23t-12 -22.5t-10 -16.5l-17 -16 q-7 -6 -15.5 -11t-19 -9.5t-26.5 -10.5h-31h-33q-3 0 -15 2t-16 3zM357 405q2 -2 5.5 -8t5.5 -8q0 -1 2 -1t3 1q1 2 5 8t5 8q4 5 7.5 7t8.5 4l9 3q6 2 7 2q3 0 9.5 1t14 1.5t14 1.5t9.5 1q2 3 5.5 13t5.5 13l22 43q10 21 18 42.5t13 44.5t5 49q0 6 0.5 16.5t0.5 20.5 t-0.5 17.5t-0.5 8.5l-6 11h-73q-2 0 -6 1.5t-5 3.5q-1 1 -2.5 7.5t-2.5 8.5q-1 1 -2.5 3t-2.5 2h-5q-1 0 -5 -2l-6 -3q-5 -2 -14 -7.5t-15.5 -9t-7.5 -4.5q-33 -36 -40.5 -78.5t-7.5 -90.5q0 -16 0.5 -31t0.5 -21q3 -17 9 -32l12 -31q0 -2 2 -8.5t3 -7.5zM115 484 q2 -1 12 -3t14 -2q21 -3 35 -0.5t34 10.5l6 3l4 2q1 1 3.5 5.5t4.5 9.5t5 10l3 7q12 31 16.5 65.5t11 67.5t20.5 63t47 51q1 2 7 5.5t9 5.5q4 2 14 6t12 4t9 1t15.5 1.5t16.5 1.5t12 1q3 0 10 0.5t15 0.5q9 0 16.5 -0.5t10.5 -0.5q0 2 -2 6t-3 5q-2 1 -6.5 4.5t-10 6.5 t-10 6t-5.5 4q-1 0 -6 1.5t-12 3t-13.5 3.5t-10.5 3h-10q-3 0 -9 -1t-13 -2t-12.5 -2t-7.5 -1q-40 0 -75.5 -15.5t-65.5 -41t-53 -59t-38 -68.5q-5 -24 -16 -51t-11 -53q0 -14 0.5 -19.5t5.5 -18.5l5 -10z" />
<glyph unicode="S" horiz-adv-x="463" d="M57 16q-1 0 -5 2.5t-5 2.5q-2 1 -8.5 2.5t-7.5 2.5l-16 16q-1 2 -3 5.5t-2 5.5v10q1 3 2.5 11t2.5 10q1 1 2.5 3t3.5 2q2 1 12 3t14 3h21q1 0 6 -2l10 -6l10 -5q4 -3 5 -3q5 -2 17 -6l15 -5h21q2 1 8 2.5t8 3.5q3 1 11 5l10 5q1 1 9 7l12 9l15 12q10 8 11 9q4 3 12 11 t9 10q2 2 6 11l5 10v258q0 3 -0.5 11t-1.5 17l-2 18q-1 8 -2 12q0 1 -1.5 4.5t-3.5 5.5q0 1 -2 3t-3 2q-6 2 -22 6l-29 7q-10 2 -16.5 5t-11.5 3q-3 1 -9.5 4.5t-13.5 8.5l-14 8q-7 4 -10 6q-3 0 -9.5 5.5t-13.5 13.5l-14 16q-7 8 -11 12q-20 33 -33.5 67t-13.5 75 q0 52 13.5 95t54.5 84q9 7 15.5 10.5t12.5 5.5t14 4t22 6q3 1 10 2.5t15 3.5l16 3q8 1 11 2h5l18 -6q12 -4 14 -5q3 -2 11 -10t10 -11q1 -1 1 -8t-1 -8t-5 -7l-6 -9q-1 -1 -4.5 -5t-5.5 -5q-3 0 -11.5 0.5t-17.5 0.5t-17.5 -0.5t-11.5 -0.5q-1 0 -7 -2l-9 -3 q-12 -7 -20.5 -11.5t-16.5 -15.5q-2 -2 -5.5 -7.5t-4.5 -7.5q-5 -11 -8 -21l-6 -16q-4 -22 -6.5 -34t-0.5 -29q4 -25 14.5 -50.5t27 -47t39 -36.5t50.5 -19h16q1 1 3 5t2 6q1 2 3 12t3 14q0 1 1 7.5t1.5 13.5t1.5 13t1 8q0 10 5 26.5t12 33.5l12 33q6 15 8 23q2 5 8 17t8 14 q1 2 6 7.5t12 12.5l14 13q6 6 10 9q0 1 4 2.5t6 3.5l18 8l19 7q5 0 17 0.5t25 0.5t25 -0.5t17 -0.5q1 0 11 -1.5t15 -3.5q5 -1 12.5 -3t8.5 -2l12 -5q7 -4 9 -6q34 -34 41 -71.5t-5 -74.5t-39 -71t-60 -61q-1 -2 -7 -5.5t-8 -5.5q-5 -2 -17.5 -8t-14.5 -8q-2 0 -10.5 -2 t-10.5 -3q-1 0 -5 -1.5t-8 -3.5l-8 -3q-4 -2 -5 -2q-2 -1 -9 -3t-15 -5t-15 -5t-9 -3l-10 -5q-5 -5 -5 -11v-331q0 -33 -20.5 -59.5t-43.5 -40.5q-1 -1 -6 -4l-12 -6l-11 -7q-6 -3 -7 -4t-5 -3.5t-8.5 -5t-8.5 -5t-5 -2.5l-16 -8q-12 -6 -15 -8l-9 -3q-6 -2 -7 -2h-37h-31 l-6 2l-14 4l-15 6q-8 2 -13 4zM352 647q0 -3 -0.5 -11.5t-0.5 -17.5t0.5 -17.5t0.5 -11.5h21q2 0 8 2t8 3q11 5 30 15.5t32 15.5q10 5 11 6q1 0 5 4l7 7l8 8l7 7q9 11 17 24l14 24q1 2 3 5.5t2 4.5q1 2 3 10.5t3 10.5v11l-3 15q-2 10 -3 11q-1 2 -7 8l-8 8q-2 1 -8.5 2.5 t-7.5 2.5q-2 1 -8 5.5t-8 5.5h-5q-1 -1 -5.5 -3t-5.5 -3q-1 0 -5 -1l-10 -4l-10 -3q-5 -2 -6 -2q-13 -5 -21 -15l-16 -22q-2 -2 -6 -8t-5 -8t-2.5 -4.5t-3.5 -6.5q-3 -8 -4 -10t-3 -9q-3 -8 -7 -20.5t-6 -17.5l-3 -12q-2 -8 -2 -9z" />
<glyph unicode="T" horiz-adv-x="900" d="M489 26q-5 5 -11.5 9t-11.5 8q-30 29 -45 66t-27 75q-14 45 -13.5 105t7 119.5t14.5 110t8 76.5q0 3 0.5 7.5t0.5 9.5t-0.5 9t-0.5 5q-1 1 -6 4l-10 7l-10 6q-5 3 -6 4q-2 2 -12 11l-21 18l-23 20l-17 14q-2 2 -8 8.5t-8 7.5q-1 1 -5 3.5t-9 6t-10 6.5t-8 5q-1 1 -5 3 t-5 2q-4 1 -11.5 3.5t-15 5.5t-14 5t-7.5 2q-1 1 -10 1t-11 -1q-2 0 -10.5 -2t-10.5 -3l-2 -2q-2 -3 -3 -3q-1 -1 -7.5 -5.5t-8.5 -5.5q-3 -2 -11 -10l-10 -11q-4 -4 -10.5 -25t-6.5 -45t11 -44.5t43 -22.5q3 0 16 -2.5t16 -2.5q1 0 5 -2t5 -3l11 -11q1 -1 1 -8t-1 -8l-8 -8 q-6 -6 -8 -7q-1 -1 -11 -2.5t-15 -3.5h-6q-1 1 -7.5 3t-7.5 3q-2 0 -7.5 1t-11.5 1.5t-11.5 1.5t-6.5 1q-2 1 -10 4.5t-11 5.5q-1 1 -5.5 4t-9.5 6t-10 6.5t-7 5.5q-5 3 -12.5 9t-8.5 6q-2 3 -5.5 9t-7 13t-6 12.5t-2.5 7.5q0 23 0.5 40t4.5 32t11 30.5t21 34.5l9 12l14 15 l12 14l7 7q3 1 12 5t25.5 8.5t42 8.5t62.5 4q7 -1 16 -5l17 -9q9 -5 17.5 -8.5t17.5 -3.5q23 -7 41 -24l33 -34q3 -3 10 -9l15 -14q7 -7 13.5 -12.5t8.5 -6.5q1 -1 5.5 -3t5.5 -3q2 -1 8 -7.5t8 -7.5q2 -3 5 0q1 1 5 7t6 8t8 14l9 20l4 8q1 2 7 10t8 11q1 1 5 6t9.5 11 t10 11.5t7.5 8.5l3 3q2 2 2 3l9 6l11 8l11 7q5 4 6 5q5 3 17 9t15 7q1 0 6.5 1t11.5 1.5t11.5 1.5t6.5 1q2 0 10.5 2.5t10.5 2.5q10 3 19 2t18 -3.5t18.5 -5.5t18.5 -3q2 -1 8 -3t8 -3q1 0 5 -2t5 -3q23 -4 39.5 -10t34.5 -21l32 -32q1 -2 5 -8t5 -8q2 -4 6 -14t5 -12v-21 q-1 -4 -2.5 -14t-3.5 -12q0 -2 -2 -7l-4 -11l-5.5 -11t-3.5 -8q-3 -12 -10.5 -26t-17.5 -27t-20.5 -24.5t-20.5 -17.5q-11 -5 -23 -9t-24 -7q-18 -2 -33.5 -4t-29.5 -12h-111q-1 1 -5 3t-5 3q-2 0 -8 2t-8 3q-1 0 -6.5 2t-11.5 5l-12 5q-6 3 -7 4q-2 1 -8 2.5t-8 2.5h-5 q-11 -19 -17 -39.5t-9 -42.5t-5 -43.5t-6 -42.5v-100q0 -38 11 -75t26 -78q2 -3 5.5 -11t5.5 -10q5 -8 8.5 -13t5.5 -7q11 -8 21.5 -17.5t21.5 -9.5q2 0 10 -0.5t17 -0.5q20 0 33.5 1.5t34.5 4.5q2 0 8 2t8 3l12 6q8 4 9 5q2 1 10 9t11 12q2 2 8 10.5t8 10.5l5 5l12 15 q8 10 9 11q2 3 6 11l5 10q0 2 2 14l3 18v5l-3 12q-2 8 -2 9q-1 2 -5 8t-6 8q-3 5 -7 7t-9 4q-2 0 -8.5 2.5t-14.5 5t-15 5t-9 2.5l-3 3q-2 2 -2 3q-1 2 -1 13t1 13q0 1 2 2.5t3 2.5q4 2 12 6.5t9 4.5q2 0 9 0.5t15 0.5q9 0 17 -0.5t12 -0.5q2 0 10 -2t11 -4q2 -1 7.5 -3.5 l12.5 -5.5l13 -7q6 -3 9 -5q1 0 3 -2t2 -3l8 -16q6 -12 8 -15q1 -2 3 -10.5t2 -10.5q1 -2 1 -13t-1 -14q0 -1 -0.5 -5.5t-1.5 -9.5t-2 -9.5t-1 -6.5l-3 -12q-2 -8 -2 -9l-5 -10q-4 -8 -6 -11l-7 -12l-9 -16l-7 -14l-3 -6q-1 -1 -4 -5l-8 -10l-9 -10l-6 -6q-3 -4 -10 -12 l-15 -15l-14 -14q-7 -6 -8 -7t-9 -4.5t-12 -5.5q-5 -2 -17 -6t-14 -5q-6 0 -21.5 -2.5t-21.5 -2.5h-50h-50zM605 610q2 0 10.5 -2.5t10.5 -2.5h23q8 0 13.5 1t11 2.5t14.5 4.5q26 8 45 16.5t40 22.5q1 2 9 14l12 18q2 2 3.5 6t1.5 5q0 2 0.5 8t0.5 12q0 7 -0.5 13t-0.5 9 q0 1 -1.5 4.5t-3.5 5.5q-12 20 -26.5 25.5t-31.5 16.5q1 -2 -7 0.5t-20.5 4t-28.5 1.5q-15 0 -28 -6l-11 -5l-14 -7l-11 -5q-5 -3 -6 -4l-37 -37q-1 -1 -5 -7.5t-6 -7.5q-1 -1 -4 -5l-7 -8l-6 -9q-3 -4 -4 -5q-1 -2 -5 -7.5t-5 -7.5q-2 -5 -6.5 -13t-4.5 -9l7 -7q6 -6 9 -8 q2 -2 7 -5l13 -6q7 -4 13 -6.5t9 -3.5q2 -1 13.5 -3t13.5 -3z" />
<glyph unicode="U" horiz-adv-x="1015" d="M757 5q-2 1 -8 2.5t-8 3.5q-4 1 -11 4t-13.5 7l-11.5 7l-6 3l-5 4q-6 4 -12 10l-14 12q-7 6 -11 10l-6 6q-1 1 -4 7l-6 11l-7 12q-3 5 -4 6q0 1 -2 3l-3 3l-73 -74q-2 -2 -12 -5.5t-15 -4.5q-1 -1 -7 -1q-7 0 -9 1q-30 2 -54.5 10t-44.5 32q-26 24 -38 56l-25 65 q-9 24 -15.5 57.5t-6.5 62.5v195q0 22 5.5 46.5t5.5 48.5v63l-3 15q-2 9 -2 11l-5 11q-4 8 -6 10q-1 2 -4 6l-6 5q-2 1 -5.5 2.5t-5.5 2.5q-5 0 -16.5 0.5t-25.5 0.5q-13 0 -25 -0.5t-17 -0.5q-2 0 -8.5 -1.5t-15 -3t-16.5 -3.5l-13 -3q-3 -1 -15 -4.5t-16 -5.5t-12 -5.5 t-9 -5.5q-2 -2 -6 -7.5t-5 -7.5q0 -3 -1 -10t-1.5 -15.5t-1.5 -16.5t-1 -11q0 -2 2 -14.5t3 -17.5q1 -2 3 -5.5t3 -4.5t9 -5l12 -6q2 -1 8 -3t7 -2h27q1 0 13 4.5t18 6.5q2 1 13.5 5.5t13.5 4.5q3 0 8.5 0.5t10.5 0.5q6 0 11 -0.5t6 -0.5q3 -1 11 -9t10 -12q1 -1 1 -9 q0 -9 -1 -12q0 -1 -2 -5t-3 -5l-16 -16q-1 -1 -4.5 -3t-5.5 -2q-2 -1 -7 -3t-10 -3.5t-9.5 -3t-5.5 -1.5t-5.5 -1t-9.5 -1.5t-9.5 -1.5t-6.5 -1q-1 -1 -8 -1t-8 1q-2 0 -10.5 2.5t-10.5 2.5h-10h-16q-39 3 -70 18.5t-41 55.5q-1 4 -3 14t-2 12q-1 3 -1 21t1 21q0 2 2.5 10.5 t2.5 10.5t0.5 9t1.5 15t2 14.5t2 8.5q6 25 25.5 43t44.5 29.5t52.5 17t50.5 5.5q3 0 13.5 0.5t22.5 0.5q27 0 44 -1t41 -5q2 -1 12 -5l14 -6q14 -5 26 -12.5t22 -18.5l9 -12q6 -8 6 -9q1 -3 4 -9l5 -14q3 -8 5 -15t2 -10q0 -6 0.5 -20t0.5 -30t-0.5 -30t-0.5 -20q0 -2 -1 -8 t-1.5 -13.5t-1.5 -14.5t-1 -11q0 -1 -1 -5t-1.5 -8.5t-1.5 -8t-1 -4.5q-1 -5 -2 -16t-2 -33.5t-1.5 -58t-0.5 -87.5q6 -28 10.5 -54.5t10.5 -51.5t15.5 -48.5t26.5 -45.5l21 -21h6q8 5 16.5 8.5t10.5 7.5q14 15 26.5 34t22 40.5t14.5 44t4 44.5q1 2 3 10.5t3 10.5q2 15 3 24 l2 18q1 9 1 20v30q0 25 1 43l3 33l3 33q2 17 2 41v5v8v8v5q0 2 1 8t2 13t2 13t1 8v64q0 2 -1 10.5t-2 18t-2 18t-1 10.5v11q1 2 3 5.5t3 4.5q2 2 7.5 8t7.5 8q1 1 5 2.5t6 2.5q2 2 8 3.5t8 2.5h10l11 -5q8 -4 10 -6q2 -1 5 -4l6 -6q1 -2 3 -5.5t2 -5.5q1 -3 2.5 -11.5 t2.5 -18.5l3 -19q2 -10 3 -14q0 -2 1 -10.5t1.5 -18.5t1.5 -18.5t1 -10.5q0 -1 2.5 -12t2.5 -40q0 -3 -1 -11.5t-1.5 -18.5t-1.5 -19.5t-1 -13.5q0 -2 -1 -7.5t-1.5 -11.5t-1.5 -11.5t-1 -6.5q0 -2 -1 -9t-2 -15t-2 -15t-1 -9q-1 -4 -4 -19l-7 -33l-6 -34q-3 -15 -4 -19 q0 -2 -1 -10t-1.5 -18.5t-1.5 -20t-1 -14.5v-37q0 -3 2 -15t3 -16q1 -3 2 -8l3 -12q2 -6 3.5 -11t2.5 -6q2 -3 6.5 -12.5t9.5 -17.5q4 -6 5 -7l10 -10q8 -9 11 -11q1 -1 11 -7l15 -9q3 -2 11 -6t15 -4q2 -1 11 -1t10 1q1 0 5 2l6 3q5 3 17 11l15 10q1 2 5 5.5t5 5.5l7 10 l10 15l9 14q4 6 6 8q1 2 4.5 12t5.5 14t3.5 12t1.5 9t-0.5 6t-1.5 11t-1.5 11.5t-1.5 8.5q0 2 -2 5.5t-3 5.5l-21 21q-1 1 -3 4.5t-2 5.5q-1 1 -1 5q0 5 1 6q0 1 2 4.5t3 5.5q3 6 16 11h5q4 -1 16 -3t15 -3l13 -3q8 -1 8 -2q2 -1 6.5 -5t9.5 -9t9.5 -10t6.5 -7l5 -10 q4 -8 5 -11q1 -2 3 -10t3 -11v-6q0 -4 -1 -11l-2 -16q-1 -7 -2 -13t-1 -7t-1.5 -7t-3.5 -9q-1 -3 -3 -8.5t-5 -11.5t-5 -11t-3 -6q0 -1 -4.5 -7.5t-5.5 -7.5l-22 -44q-11 -20 -36 -35q-1 -1 -11 -7l-15 -9l-11 -6q-8 -4 -10 -4q-3 -1 -8.5 -3t-11.5 -3.5t-11 -3t-6 -1.5h-32 q-4 0 -17.5 2t-18.5 3z" />
<glyph unicode="V" horiz-adv-x="839" d="M441 5q-2 0 -6.5 2.5t-9.5 5t-9.5 5t-5.5 3.5t-6 5l-10 9q-5 5 -9.5 10t-6.5 8q-1 0 -2.5 4t-2.5 6l-6 16l-7 20l-5.5 18t-2.5 9v195q0 13 1 22.5t1.5 19.5t1.5 21t1 26v23v14q0 26 3 60t3 57q0 10 -0.5 18.5t-0.5 11.5q0 4 -2.5 34.5t-2.5 97.5q0 1 -0.5 6t-1.5 12 l-2 13q-1 7 -1 11l-3 18q-2 12 -2 14l-5 10q-4 8 -6 11l-10 10q-3 2 -11 6l-10 5q-2 1 -12.5 2.5t-14.5 2.5h-16q-5 0 -17 -2.5t-14 -2.5q-2 -1 -12 -5l-14 -6l-8 -4l-14 -7l-16 -6q-7 -3 -10 -4l-10 -5q-36 -17 -50 -52.5t-14 -71.5q0 -7 1 -8q0 -3 2 -11t3 -10 q2 -4 10 -10t16 -11l6 -3q4 -2 5 -2q1 -1 10 -1t11 1q2 0 10.5 2t10.5 3q4 2 12 5.5t9 5.5l89 89q1 1 5 1q5 0 6 -1t7 -4.5t9 -5.5l5 -6q4 -3 5 -5q1 -1 3 -5t2 -5q-2 -4 -7.5 -16t-7.5 -16l-6 -9l-7 -11l-5.5 -11t-2.5 -6q-1 -1 -4 -5l-7 -7l-6 -8t-5 -6q-2 -3 -10.5 -11 t-10.5 -10q-3 -3 -15 -11t-16 -10q-2 -1 -8 -3t-8 -2q-5 0 -17.5 -0.5t-27.5 -0.5q-14 0 -26.5 0.5t-17.5 0.5q-1 0 -9 1.5t-12 3.5q-3 1 -9 2.5t-7 2.5q-4 2 -12 5.5t-9 5.5q-2 1 -8 7l-8 8q-2 3 -8 11t-8 10q-1 2 -3 8t-2 8q0 6 -0.5 20t-0.5 30t0.5 30t0.5 20q0 1 1 6 t1.5 11t1.5 11.5t1 8.5q1 2 2.5 8t3.5 8q1 2 4.5 10.5t5.5 10.5t6 8t5 8q1 1 10 7.5t11 7.5q1 1 7 6l11 10l11 10q5 5 7 6q1 1 6.5 3.5t12.5 4.5l12 5q5 2 6 3q1 0 6 2l10 5l9.5 5.5t6.5 2.5q1 1 7 3t14 5t15.5 5t10.5 3q2 1 10 3t11 2q6 2 16 4l10 2l95 -11q1 0 9 -6 t12 -10q3 -2 8 -7l11 -11l11 -11l7 -7q3 -3 8 -20q5 -10 8 -21.5t5 -16.5q2 -4 3.5 -12t1.5 -9v-10v-17v-17v-9q0 -2 1 -9t2 -15t2 -15t1 -8q0 -2 0.5 -14.5t1 -29t1.5 -34t2 -27.5v-6q0 -25 -5.5 -57t-5.5 -53q0 -4 -1 -19.5t-1.5 -33.5t-1.5 -33t-1 -19t-2.5 -19.5 t-2.5 -22.5q0 -20 -2.5 -53t-2.5 -71v-15v-9q0 -1 2 -6l3 -10l4 -10q1 -4 1 -5q1 -2 2.5 -10.5t2.5 -10.5t5 -8t6 -8q4 -5 11.5 -12.5t9.5 -8.5q1 -1 5 -2t9 -2l10 -1h7q1 0 7 1.5t9 3.5q2 1 5.5 2.5t5.5 2.5t7 4t11 7l9 7l4 3l16 16q3 5 11 17l10 15q1 1 4 8t6 15l6 17 q3 8 5 12t5.5 13.5t6.5 19.5l6 19q2 9 3 11q6 38 14 78l16 81q7 41 12.5 83t5.5 84v48q-1 1 -2.5 11t-3.5 15q-1 4 -2 11l-3 14q-2 7 -3 12l-2 5q-1 2 -6 7l-12 12l-12 11q-6 5 -7 7q-1 1 -5 9l-6 12l-6 15q-4 10 -4 11q0 4 -0.5 13.5t-0.5 20.5t0.5 21t0.5 14q1 2 4.5 10.5 t5.5 10.5l4 4q4 4 8.5 8t8.5 8l6 6q1 1 5 3t5 2q1 1 10 1t11 -1q5 0 17 -2t15 -3q1 0 5 -2.5t5 -2.5q2 -1 10.5 -3t10.5 -3q7 -2 10.5 -10t5.5 -16q1 -1 1 -11q0 -9 -1 -10q0 -2 -2.5 -10.5t-2.5 -10.5q-1 -3 -1 -18q0 -16 1 -19q1 -2 4.5 -5.5t5.5 -4.5q1 -1 5 -1q5 0 6 1 q1 0 7 2l9 3q1 0 4.5 1.5t8 4t8.5 4t5 1.5q4 1 14 4t20.5 6.5t18.5 6.5t10 4h11q2 -1 10.5 -3t10.5 -3q5 0 10 -4.5t5 -5.5q1 -2 3 -8t3 -8v-5q-1 -2 -3 -5.5t-3 -5.5l-9 -7l-14.5 -8.5t-13.5 -9.5l-10 -6q0 -1 -2 -3l-3 -3q-2 -2 -9.5 -5.5t-16 -8t-16.5 -8t-11 -4.5 l-15 -5q-9 -2 -19 -3.5t-18 -7.5q-1 -2 -2 -8l-2 -12q-1 -7 -1.5 -13t-0.5 -9q-27 -156 -43.5 -265t-36 -184t-50 -121.5t-85.5 -76.5q-3 -2 -15 -3.5t-17 -1.5h-31q-4 0 -11.5 1t-15.5 1.5t-14 1.5t-7 1z" />
<glyph unicode="W" horiz-adv-x="1044" d="M431 5q1 0 6 -0.5t12 -1.5l13 -2q7 -1 11 -1h5l12 3q8 2 9 2l10 5q8 4 11 6q2 1 8 4.5t8 5.5q3 2 11 8t10 8l5 5q2 2 6 8t5 8l21 42q1 3 6 10l9 15l10 13.5t7 9.5h10l3 -2l2 -4q1 -1 3 -5t3 -5l9 -14q6 -10 13 -20l13 -18q5 -9 7 -11q1 -2 5 -6l5 -5q3 -2 16 -8l16 -8 q2 -1 10.5 -3t10.5 -2h37q2 0 10 2t11 3q2 1 12 5t14 6l12 6q8 4 9 4q1 1 5 4.5t8 8.5l8 8q3 4 5 6q1 1 5 6t9 12l10 14l8 10q2 2 6 8t4 8q1 1 3 7.5t3 7.5q0 1 2.5 5.5t2.5 5.5q2 4 5.5 16t5.5 15q2 7 5.5 23t4.5 20q0 1 1 8t2 15t1.5 15t0.5 9q1 2 3 10.5t3 10.5v137 q-2 2 -4 8t-2 8q0 7 -0.5 19.5t-0.5 23.5q0 12 1 21v9l6 5q2 0 8 1l13 2l12 2q6 1 9 1l12 3l17 3q8 1 14.5 2.5t8.5 1.5q4 1 15.5 5t24.5 8t24 8t15 6q2 0 6 4t5 6q1 4 1 16t-1 16q-2 1 -5.5 2.5t-5.5 2.5q-5 2 -15 5t-11 3h-184q-4 2 -16 7t-16 6q-2 1 -10 1t-11 -1 q-1 0 -7 -2l-9 -3q-4 -2 -8.5 -4t-6.5 -7q-2 -2 -4 -5.5t-2 -4.5v-27q1 -1 5 -7t6 -8q1 -2 5.5 -6t4.5 -5q2 -3 6 -11l5 -10v-16q0 -1 1 -4.5t1.5 -8t1.5 -8.5t1 -5t1 -6t1.5 -11t1.5 -11.5t1 -8.5q1 -4 2 -11l2 -14q1 -7 2 -12v-5v-84q0 -2 -1 -9.5t-1.5 -15.5t-1.5 -16 t-2 -12q0 -2 -2 -12t-3 -14q-4 -18 -9 -37.5t-12 -36.5q-1 -3 -5 -11l-5 -10q-2 -2 -10 -12l-11 -14q-7 -8 -15.5 -14.5t-16.5 -11.5q-2 -2 -5.5 -3.5t-5.5 -2.5h-10q-3 2 -11 5.5t-10 5.5q-3 2 -11 10t-10 11q-2 2 -6 11l-5 10q-1 2 -5 8t-5 8q-2 2 -6 11l-5 10q-1 2 -5 14 t-5 17q-1 2 -3 10.5t-3 10.5l-3 18q-2 12 -2 14q0 6 -1 27t-1.5 47t-1.5 51t-1 38v68q0 3 -2 11t-3 10v137q0 2 -2 8t-4 8q0 1 -2 3t-3 2q-2 2 -5.5 3.5t-4.5 2.5h-42q-3 -1 -9 -2.5t-7 -3.5q-2 -2 -6.5 -10.5t-4.5 -10.5v-263q2 -3 3.5 -13t2.5 -13v-74q0 -2 -1 -7 t-1.5 -11t-1.5 -11t-2 -8q0 -1 -1.5 -6.5t-3.5 -11.5t-3.5 -11.5t-1.5 -6.5q-1 -2 -3 -13.5t-3 -13.5q-1 -3 -3 -10.5l-4 -14.5l-5 -14q-2 -6 -3 -8t-5.5 -8t-5.5 -8q0 -1 -2.5 -5t-2.5 -5l-12 -21q-8 -14 -9 -16t-7 -10t-9 -11l-3 -3q-2 -2 -2 -3l-6 -3q-4 -2 -5 -2h-16 l-26 26q-1 2 -2.5 8.5t-2.5 7.5t-3 5.5t-2 5.5q-1 2 -0.5 13t0.5 13q0 3 -1 17t-2 30t-2 30t-1 18v21q0 2 1 9t2 15t2 14.5t1 8.5t-0.5 10.5t0.5 10.5q0 1 1 6.5t1.5 12t1.5 11.5t1 7q0 5 1 18.5t2 28.5t1.5 28.5t0.5 19.5q0 4 0.5 14.5t0.5 20.5q0 11 -0.5 20.5t-0.5 12.5 q0 2 -0.5 8t-1.5 12l-2 13q-1 6 -1 9q-1 3 -2 9l-3 14l-3.5 12.5t-2.5 6.5q-1 3 -3.5 8t-6 11t-7 11t-4.5 7q-2 3 -8 9l-12 13l-13 12.5t-9 7.5q-1 1 -4 2l-8 4l-9 3.5t-5 1.5l-10 5q-9 5 -11 5q-5 2 -19 6t-18 5q-1 0 -6.5 0.5t-12.5 1.5l-13 2q-7 1 -10 1h-11q-3 0 -9 -1 t-13 -1.5t-12.5 -1.5t-7.5 -1t-9 -2l-12 -3q-2 -1 -8 -3t-7 -3q-3 -1 -9 -4l-12 -6q-7 -3 -13 -6.5t-9 -4.5q-2 -1 -8 -5t-7 -5l-32 -32q-1 -1 -4.5 -7t-5.5 -9q-1 -1 -3 -5t-3 -5q-5 -14 -9 -26.5t-6 -26.5q-1 -5 -3 -13.5t-3.5 -16.5t-3 -14.5t-1.5 -7.5q0 -3 -0.5 -8 t-0.5 -11t0.5 -11t0.5 -7l5 -15q4 -12 6 -17q0 -1 4 -7l6 -9q1 -2 4.5 -5.5t6.5 -8t6 -8t4 -4.5l16 -16q2 -2 10.5 -5.5t10.5 -4.5t8.5 -2.5t14.5 -2.5l14 -3q7 -2 10 -3h21q2 1 12.5 2.5t14.5 3.5l9 3l11 3q6 1 10.5 2.5t5.5 1.5q2 1 8.5 5.5t7.5 5.5q1 0 6 3l10 5l10 5 q5 2 6 2l16 16q3 3 9 10l11 13q5 7 10 12t6 7q2 2 3.5 5.5t2.5 5.5v16q-1 2 -5 5.5t-6 4.5t-10 3t-11 2q-2 1 -11 1q-8 0 -10 -1q-1 0 -5 -2t-5 -3q-2 -2 -9 -8l-15 -13l-15 -14q-7 -6 -9 -7q-1 -1 -7 -4.5t-9 -5.5q-1 -1 -5 -3t-5 -3l-9 -3q-6 -2 -7 -2q-3 0 -8.5 -0.5 t-11.5 -0.5t-11 0.5t-6 0.5q-2 0 -10 4.5t-11 6.5t-9 7.5t-7 7.5t-2.5 14.5t-2.5 17.5v47q1 4 2.5 14t2.5 13q1 1 5 7t6 8l10 10q8 9 11 11q2 2 10.5 8t10.5 8l10 5q8 4 11 6q5 2 14.5 5.5t11.5 4.5q3 1 13.5 3t13.5 2q4 1 11 1q8 0 10 -1q3 -1 11 -5l15 -7l16 -8 q7 -4 10 -6q2 -1 10 -9t11 -12q2 -1 5.5 -7.5t5.5 -8.5l6 -12q4 -7 4 -9q1 -2 2 -9.5t1.5 -16.5t1.5 -16.5t1 -9.5t2.5 -13.5t2.5 -13.5v-10q0 -5 -1 -16l-2 -23q-1 -12 -1.5 -22t-0.5 -13q0 -2 -1 -9l-2 -15l-2 -14q-1 -7 -1 -9t0.5 -8t-0.5 -8q0 -3 -1 -15.5t-1.5 -26.5 t-1.5 -26.5t-1 -15.5v-90q0 -1 2 -14.5t3 -21.5q2 -6 3.5 -18t2.5 -14q1 -3 3 -10l2 -13l3.5 -12.5t1.5 -6.5q1 -5 7.5 -17t8.5 -15l10 -10q8 -9 11 -11q2 -1 10.5 -5t10.5 -5l5 -5q2 -2 6 -4t5 -2z" />
<glyph unicode="X" horiz-adv-x="1074" d="M236 5q1 0 5.5 -2.5t5.5 -2.5q5 -1 21 -1t21 1q4 0 14 1.5t20 3.5t18.5 3.5t10.5 2.5q1 0 7.5 3t13.5 7t13 7l8 4q4 2 18 8l19 7q1 1 7.5 3t8.5 3l15 6q10 4 11 4l16 16q3 5 10 15l13 19l13 19q5 8 6 10q1 3 5.5 13t9.5 23l10 25l6 18l4 11l4.5 16.5t4.5 18.5l3 12 q1 4 3 13t3.5 18t3 17t1.5 10v52q0 4 -1 13l-2 18q-1 9 -2 17t-1 10q-1 8 -4 22.5l-6 29.5l-7 28q-3 12 -4 15t-7 16l-13 27l-15 30l-12 22q-1 1 -4 6l-8 11l-8 12q-4 5 -6 7l-10 11q-8 8 -11 10q-2 2 -7 6t-10 8.5t-9.5 8t-5.5 4.5q-1 0 -4.5 2t-5.5 3t-13.5 5t-13.5 6 q-1 0 -5 2.5t-5 2.5q-3 1 -10 3l-15 3q-8 1 -14.5 2.5t-8.5 1.5q-1 0 -5 0.5t-9 0.5t-9.5 -0.5t-7.5 -0.5q-7 0 -21.5 -0.5t-29.5 -1.5t-27.5 -2t-16.5 -1t-16 -2t-15 -3q-2 0 -8 -2l-14 -4q-8 -3 -15 -6t-11 -4q-1 0 -4.5 -2t-5.5 -3t-7 -4l-12 -8q-7 -5 -13.5 -9t-9.5 -6 t-9 -5.5t-7 -4.5t-3 -2.5t-2 -2.5q-2 -2 -6 -8.5t-5 -7.5t-5.5 -5t-4.5 -6q-1 -2 -3.5 -8t-4.5 -13l-5 -13q-3 -7 -3 -8t-2 -4.5t-3.5 -8t-3.5 -8.5t-2 -5l-3 -9q-2 -6 -2 -7q0 -2 2 -10.5t3 -10.5t5 -5.5t6 -4.5q3 -2 13 -6t13 -5t13 -1t13 1q1 0 3 2l3 3q1 2 4.5 14.5 t5.5 17.5q1 2 3 10.5t2 10.5q1 2 3 5.5t3 5.5q8 13 18 23.5t24 18.5l42 21q4 1 11 4t14.5 5t13.5 4t8 2q5 1 17 1h25h25q12 0 17 -1q2 -1 8 -2.5t8 -2.5q1 0 6 -1t10 -1.5t10 -1.5t6 -1t4.5 -2t5.5 -3q7 -5 19 -12.5t13 -8.5q3 -3 9 -10l13 -16l12 -16q6 -8 8 -11l5 -10 l9 -18l7.5 -19t4.5 -11q1 -1 3 -5t2 -5q1 -2 3 -8l3 -13l4 -14q1 -6 1 -8q1 -3 5 -13t6 -13v-116q-1 -2 -2.5 -14t-3.5 -17q0 -2 -2 -9.5t-4.5 -15.5t-5.5 -16t-4 -12q0 -1 -2 -5t-3 -5q0 -2 -2.5 -10t-5 -17t-5 -16.5t-3.5 -9.5l-8 -12q-6 -9 -13.5 -19t-15 -19t-10.5 -13 q-1 -1 -5 -3.5t-9 -6t-9.5 -7t-7.5 -4.5q-2 -1 -13.5 -5t-13.5 -6q-2 -1 -10.5 -5t-10.5 -5t-10.5 -3t-10.5 -2q-2 -1 -11 -1q-8 0 -10 1q-2 0 -7.5 1.5t-12.5 3t-13 3t-9 2.5q-1 1 -5 3.5t-6 1.5q-1 0 -13 -4l-18 -6q-11 -4 -16 -11q-1 -2 -3 -5.5t-2 -4.5q-1 -3 -1 -13 t1 -13q0 -1 2 -5l3 -6l5 -5q2 -1 10.5 -3t10.5 -2q2 -1 8 -3t8 -3zM820 42q1 -1 9.5 -4l20.5 -7l22 -9q11 -4 18 -6q2 -1 10 -2.5t10 -2.5l15 -3q9 -2 19.5 -3.5t18.5 -3t10 -1.5t8.5 0.5t8.5 0.5t9.5 1t16 2.5t16 2.5t9.5 1q2 1 10.5 0t10.5 0q3 0 11.5 2t18 4t17.5 3.5 t11 2.5q1 0 6 2.5t7 4.5t4 4.5t4 4.5q0 1 1 5t2 5q-1 2 -1 6q0 5 -2 7q0 2 -3 6t-4 6q-1 1 -6 4t-8 4q-2 2 -5 2q-4 0 -15.5 1t-24.5 1.5t-24.5 1.5t-16.5 2h-11q-9 0 -11 -1q-4 2 -13.5 2.5t-11.5 0.5q-7 1 -18 2t-22 2.5t-20 2.5t-10 2q-3 0 -10.5 1.5t-15.5 4.5l-14 4 q-7 2 -9 3q-4 1 -17 8t-17 11l-8 8l-14 11l-13 12q-7 5 -10 8q0 2 -6.5 10t-8.5 11q-3 4 -8.5 17t-7.5 15q-2 4 -9 16.5t-9 17.5q-2 4 -7 16.5t-10 26.5t-10 26.5t-6 17.5q-2 5 -5 17t-3 16v5q0 6 -0.5 13t-0.5 14v11v5l3 12l3 16q1 7 3 13l1 5q0 1 2 5t4 9t4 9.5t4 7.5 q1 3 5 10t8 15l8 15q3 7 5 9q10 19 24 35q2 3 12 13l12 12q2 2 5.5 5t5.5 4q2 2 8 5l8 4q5 2 13 5.5t9 2.5q4 1 18.5 1.5t19.5 0.5q4 0 12 -0.5t16.5 -1.5t15 -2t8.5 -1q1 0 5 -2l8 -4q4 -2 7.5 -4t4.5 -3q3 -2 9 -4t7 -2q3 -2 11 -2.5t10 0.5q4 0 12 3t10 5q1 1 3 8.5 t4 11.5q1 2 1 6v5q0 1 -5.5 9t-7.5 13q-1 2 -3 4t-3 2q-1 1 -4.5 3.5t-4.5 2.5q-2 1 -10.5 4t-10.5 4q-2 0 -7.5 3t-7.5 3q-5 1 -14 3t-19 3.5t-18 3t-11 1.5q-2 0 -9.5 0.5t-16.5 0.5h-19h-14q-32 -1 -64 -15l-14 -11l-21 -17l-20 -17l-14 -11l-4 -4q-4 -4 -7 -8l-7 -8 l-5 -5q-1 0 -3.5 -4t-3.5 -6q-2 -4 -9.5 -17t-9.5 -18l-7 -13l-6 -12q-2 -2 -4.5 -8t-2.5 -7t-2 -5l-4 -8l-5 -7q-2 -4 -2 -5q-2 -2 -4 -8t-3 -8q-1 -5 -2.5 -19t-3 -30t-2.5 -30t-1 -20q0 -1 1 -9.5t2 -12.5q1 -5 3 -13l3 -17q1 -9 2.5 -16t1.5 -8q1 -2 4 -11t5 -11 q1 -2 6.5 -11t6.5 -11q2 -2 5 -10l4 -12q1 -2 4 -11l4 -12q1 -1 1.5 -5t1.5 -5q2 -8 6.5 -21.5t5.5 -15.5t8.5 -10t7.5 -10t5 -10.5t7 -9.5q0 -2 6 -9.5t10 -11.5q2 -2 6.5 -7.5t4.5 -6.5q1 0 5.5 -3l10.5 -7l12 -9q5 -4 8 -7q2 -1 8.5 -5t6.5 -6q1 0 7 -4l11 -8q6 -4 11 -8 t7 -4z" />
<glyph unicode="Y" horiz-adv-x="856" d="M484 -490q2 0 10.5 -2.5t10.5 -2.5t12 2t14 3q1 0 5 2t8.5 3.5t8 3.5t4.5 2q2 1 13.5 2.5t13.5 2.5t7.5 2.5t7.5 2.5q1 1 6 3.5t10.5 5t10 5t5.5 2.5t6.5 1t11.5 1.5t11.5 1.5t7.5 1l2 2q2 2 3 4q2 2 5.5 7.5t5.5 7.5l6 12q4 8 4 9q2 5 3.5 18.5t1.5 18.5q1 17 1 44 t-0.5 52.5t-1.5 45t-4 21.5q-1 1 -1.5 8.5t-0.5 18.5q0 10 0.5 20.5t1.5 16.5q1 4 5 16t6 15q0 2 8 9.5t13 11.5l6 6l10 8l9 8q4 4 6 5t8 5l14 10l15.5 9.5t10.5 6.5q20 13 41.5 24t42.5 23q2 2 8 6t8 5q3 3 9 8l13 12l12.5 10.5t7.5 6.5q0 1 4 7l6 9q1 2 3 5.5t2 4.5 q1 2 3 10t3 11v5q-2 5 -4.5 9.5t-6.5 6.5q-2 2 -6 3l-4 2q-2 0 -10.5 -1.5t-10.5 -3.5q-2 -1 -8.5 -5t-7.5 -5l-15 -9q-10 -6 -11 -7q-2 -1 -7 -3l-11 -5q-6 -2 -11 -4.5t-8 -3.5q-1 0 -6 -1.5t-10 -3.5t-10 -3.5t-6 -1.5l-12 -6l-16 -8q-8 -4 -15 -8t-9 -5t-8 -5.5 t-13.5 -9.5t-13.5 -10t-8 -6q-1 -1 -4.5 -3t-5.5 -3h-5l-6 6q-1 1 -2.5 5t-2.5 5v105q0 2 0.5 11.5t1.5 20.5l2 24q1 12 1 18q0 4 1 12l2 17q1 8 2 15t1 9t2 10.5t3 10.5l3 12q2 8 3.5 15.5t2.5 13t1 6.5q1 6 3 19t3.5 26.5t3 24.5t1.5 14q0 6 0.5 22.5t0.5 35.5 q0 20 -0.5 37.5t-0.5 25.5q0 2 -2.5 13.5t-2.5 13.5v4v8v9v5q0 6 -1 18t-2 25.5t-2 25t-1 15.5q0 1 -0.5 7.5t-1.5 13.5t-2 13t-1 8q0 3 -1 14t-1.5 23.5t-1.5 23t-1 13.5q0 1 -3 5l-5 10l-6 10q-2 5 -2 7q0 1 -1 8t-1.5 15t-1.5 15t-1 9q0 1 -2 5t-3 5l-16 16q-2 2 -12.5 4 t-14.5 2q-2 0 -10 -2t-11 -4q-2 -1 -10 -7t-11 -9q-1 -1 -3 -4.5t-2 -5.5v-126q0 -5 1 -20.5t2 -36t2.5 -44t2.5 -44t2 -35.5t1 -20q0 -11 1 -35.5t1.5 -52.5t1.5 -52.5t1 -33.5v-137q-3 -7 -12 -24l-19 -35l-19 -35q-9 -16 -13 -22q-1 -2 -4 -5.5t-6.5 -8t-6.5 -8t-4 -4.5 q-2 -2 -10 -5.5t-11 -4.5q-2 -1 -8 -1t-8 1q-2 0 -5.5 4t-5.5 6q0 1 -2 5t-4.5 9.5t-5 10t-3.5 7.5q-2 3 -6 13t-5 13q-2 4 -5.5 18t-4.5 19q-1 0 0 2v3q-1 4 -3 16t-3 16q0 3 -2 15l-6 24l-5 26q-3 11 -3 14q0 4 -1 19.5t-1.5 33.5t-1.5 35.5t-1 26.5v263q-1 4 -2.5 13 t-3 19t-3 19t-1.5 13v10q0 1 -1.5 6.5t-3 12t-3.5 13.5t-3 10q-2 8 -6 22t-4 15q-2 4 -8 14t-8 12t-10.5 8.5t-10.5 7.5l-5 5l-15 12q-8 6 -17 10q-5 2 -17.5 6t-14.5 4t-7.5 1t-12.5 2t-13 1.5t-9 0.5q-5 1 -21 1t-21 -1q-2 0 -14 -2t-17 -3q-2 0 -10.5 -2t-10.5 -3l-9 -3 q-6 -2 -7 -2q-5 -2 -12.5 -6t-8.5 -5q-3 -2 -10.5 -10t-17 -17t-17.5 -18l-13 -13q-1 -1 -5 -7l-6 -9q-1 -1 -2.5 -5t-2.5 -5q-2 -4 -4 -11l-5 -14l-5 -12l-2 -5q0 -2 -1 -9t-1.5 -15t-1.5 -16.5t-1 -12.5v-42q0 -5 2 -21t3 -21q1 -2 2.5 -8t3.5 -8q1 -2 4.5 -10t5.5 -11 t5.5 -9t6.5 -12t6 -10.5t3 -5.5l5 -5q4 -4 6 -5q2 -2 7.5 -5.5t7.5 -5.5l16 -8l16 -8q1 0 7 -2l9 -3l12 -3q8 -2 9 -2q5 -1 18 -1q14 0 19 1q1 0 7 2t8 3l6 3q4 2 5 2t5 2t8.5 3.5t8 3.5t4.5 2l6 3q4 2 5 2q3 2 11 10l10 11q2 2 8 13.5t8 13.5q1 1 5 7.5t5 7.5q2 2 5.5 10.5 t5.5 10.5l3 9q2 6 2 7q1 4 1 16t-1 16q0 1 -2 4.5t-3 5.5l-11 11q-2 1 -5.5 3t-4.5 2q-5 1 -15 1t-12 -1t-7.5 -7t-7.5 -9q-1 -1 -2 -6l-4 -10l-3 -10q-2 -4 -2 -5l-6 -16q-4 -10 -5 -11l-5 -5l-9 -9q-5 -5 -9.5 -10t-7.5 -7q-1 -1 -5 -2.5t-6 -2.5q-2 -2 -8 -4t-7 -2h-16 q-5 1 -17 7.5t-15 8.5l-4 7l-6 9q-1 1 -3 5t-3 5q-1 3 -2.5 9t-2.5 7q0 3 -1 8t-2 11t-1.5 11t-0.5 7q0 3 -0.5 9.5t-0.5 13.5q0 8 0.5 14.5t0.5 9.5t0.5 8t1.5 11t2 11t1 7q1 1 5 11l6 15q1 2 2.5 6t2.5 5q0 1 2 2.5t3 2.5l11 9l15 11l14 11q6 5 8 6q1 1 5 3t5 2 q4 2 14 3.5t12 2.5h43q2 -1 9.5 -2.5t11.5 -3.5q2 0 5.5 -2t4.5 -3t5 -4.5t8 -7.5l8 -9q3 -4 5 -5q2 -2 6 -8t5 -8t3 -8t2 -8q1 -5 3 -13t3.5 -16.5t3 -15t1.5 -7.5q0 -5 1 -22.5t1.5 -39.5t1.5 -43t1 -32v-23v-38v-38v-22q0 -4 1.5 -20.5t3.5 -35t4 -35t2 -20.5 q0 -3 0.5 -14.5t1.5 -25t2 -25t1 -14.5q0 -1 2 -11l3 -15q1 -2 3 -10.5t2 -10.5t1 -7t2 -11.5t2 -12t1 -6.5q0 -2 2 -11l5 -18l5 -20q2 -9 3 -14q1 -2 2.5 -8t3.5 -8q1 -4 4 -11t5 -13.5t4 -11.5t2 -6q1 -2 5.5 -8t5.5 -8q1 -1 3 -5t2 -5l9 -12q6 -8 7 -9q3 -3 7.5 -6.5 t10 -6.5t9.5 -5.5t5 -2.5h73q2 0 10 4t11 6q2 1 8 7l13 14l13 13l8 8q2 2 5.5 3.5t5.5 2.5q0 -3 1 -11.5t2 -18t1.5 -17.5t0.5 -11v-21q0 -3 -0.5 -8.5t-1.5 -11.5t-2 -11t-1 -6q-1 -2 -2.5 -5.5t-2.5 -5.5l-37 -37l-10 -5l-11 -5l-10 -10l-16 -17l-17 -16.5t-10 -9.5 q-1 -1 -5 -2.5t-5 -2.5q-2 -1 -10.5 -7.5t-10.5 -8.5q-2 -1 -9 -5l-15 -10l-16 -10q-7 -5 -8 -6q-2 -2 -5 -6l-8 -9l-8 -10q-4 -5 -5 -7q-2 -3 -6 -10t-8 -15l-7 -17q-4 -8 -5 -11q-2 -2 -3.5 -12t-2.5 -14v-74l2 -6q2 -7 4 -9q0 -2 2 -6t3 -5q2 -2 10 -12l11 -14 q2 -2 5.5 -6t4.5 -5q2 -1 8.5 -2.5t7.5 -2.5q2 -1 13.5 -5.5t13.5 -4.5q1 0 8 -1l13 -2q7 -1 13 -2t8 -1zM463 -411q-3 2 -9 8t-7 8t-3 8t-2 8q-1 2 -1 8t1 8q0 3 2 9l3 12l3 13q1 6 2 8q2 3 5.5 11t5.5 10q1 1 6 5l12 11l13 12q7 6 11 9q1 1 7.5 5t7.5 5q3 2 11 8t10 8 q5 3 13.5 9.5t16.5 13.5l14 12q7 6 9 7l8 8l8 8q0 -3 1 -9l2 -13q1 -6 1.5 -12t0.5 -8q0 -8 0.5 -26.5t0.5 -39.5t-0.5 -40t-0.5 -26q1 -3 -1 -13.5t-4 -12.5q-1 -2 -9 -10t-12 -11q-1 -1 -5 -3l-6 -3l-18 -6q-12 -4 -13 -4q-4 0 -14.5 -0.5t-22.5 -0.5t-22.5 0.5t-14.5 0.5 q-2 0 -5.5 2t-4.5 3z" />
<glyph unicode="Z" horiz-adv-x="1021" d="M352 5q2 0 10.5 -2.5t10.5 -2.5q3 0 10.5 -0.5t15.5 -0.5q9 0 16.5 0.5t10.5 0.5q2 0 10.5 2.5t10.5 2.5q21 4 42.5 6t41.5 10q1 0 5 2.5t5 2.5q2 0 8 1t13.5 2t13.5 2t8 1q1 0 6.5 1.5t12.5 2.5l13 3q6 2 10 3q1 1 7.5 3t7.5 2q9 1 26 4t35 5l32 5q14 2 18 2h13h23h24 h14q1 0 7.5 2.5t7.5 2.5q3 0 9.5 0.5t14.5 0.5t14.5 -0.5t9.5 -0.5q1 0 7.5 -2t8.5 -3h5q2 1 8 5t8 6h57q2 -1 5.5 -3t5.5 -3h5v16q0 3 -0.5 8t-1.5 11t-2 11t-1 7q-1 3 -2.5 9t-2.5 7q-2 2 -8 5.5t-8 4.5t-10 3t-11 3q-3 0 -9 1t-13 2t-12.5 1.5t-7.5 0.5h-37 q-2 0 -10.5 -1t-18.5 -1.5t-18.5 -1.5t-10.5 -1h-14h-23h-23h-14q-3 0 -11.5 -1t-17.5 -1.5t-17 -1.5t-11 -2q-3 0 -9.5 -1.5l-14.5 -3.5l-14 -3q-7 -1 -10 -2q-2 -1 -9 -4l-15 -5l-14 -5q-7 -2 -9 -2q-2 -1 -10 -2.5t-11 -2.5q-2 -1 -13.5 -3t-13.5 -3q-1 0 -7 -2l-11 -3 q-6 -1 -11.5 -3t-6.5 -2q-5 -1 -12.5 -3t-8.5 -2q-2 0 -10.5 -1t-18.5 -2l-20 -2q-10 -1 -15 -1h-15q-4 0 -11 1l-15 2l-13.5 2t-8.5 1t-8 2t-8 3q-1 1 -8.5 11t-12.5 15l-6 9q-4 6 -4 7t-0.5 6t-0.5 11t0.5 11.5t0.5 8.5q0 1 2 7l3 9q1 1 2.5 4.5t2.5 5.5q2 3 6 10l10 16 l9 16l7 11l6 9q4 6 5 7t4.5 5t8 8t7.5 7l6 6l20 17l30 25l30 25l20 17q2 1 5.5 2.5t4.5 2.5t6 5l10 8l10 9q5 4 6 5l11 9l15 12l14 10q6 5 7 6q2 1 10 4.5t11 5.5h6q2 -1 7.5 -2.5t7.5 -2.5t10.5 -5t10.5 -6l25 -15q11 -6 23 -16q3 0 11 -1t17.5 -2t18 -2t11.5 -1h21 q1 1 11 5l15 6q2 1 5.5 2.5t5.5 2.5l9 6q6 4 6 5q1 0 3 6t3 10v5l-3 9q-2 6 -3 7q0 1 -4 2.5t-6 2.5q-2 0 -7 1t-11.5 1.5t-12 1.5t-6.5 1t-5 2l-6 3q-1 1 -7.5 5.5t-7.5 5.5q-2 1 -13.5 0.5t-13.5 -0.5q-1 0 -4.5 2t-5.5 3l-6 6l-5 5q-1 2 -1 10q0 9 1 11q1 1 5 4.5t6 5.5 q1 1 7.5 5.5t8.5 5.5t10.5 7.5t10.5 8.5q1 0 5.5 2.5t10 5t10 5t5.5 2.5q2 1 8 5.5t8 5.5q1 0 5 2.5t8.5 5t8 5t4.5 3.5q3 2 9 5.5t7 4.5q3 2 13 10l21 19l22 18q10 9 13 11q2 2 9.5 8t11.5 8q1 1 7.5 5t7.5 5l16 13q8 6 16 14q4 4 11.5 14t9.5 12l5 10q4 8 5 11q2 2 4 8.5 t2 7.5q0 4 0.5 13t0.5 18t-0.5 17t-0.5 10l-5 10l-6 11q-1 1 -4.5 5t-5.5 5q-6 5 -18 13t-14 8q-2 1 -13 0.5t-13 -0.5t-8.5 1t-14 1.5t-14.5 1.5t-11 2q-1 0 -5.5 1t-10 1.5t-10 1.5t-5.5 1h-23h-38h-38h-22q-2 0 -14.5 2t-17.5 3q-2 1 -7.5 2.5t-7.5 2.5h-90q-2 0 -9.5 1 t-16.5 2t-17 2t-10 1h-5q-1 0 -4.5 -1t-8 -2t-8.5 -2t-5 -1t-6 1l-10 2l-10 2q-5 1 -6 1q-4 0 -11 1l-15 2q-7 1 -13.5 1.5t-7.5 0.5h-58q-1 0 -5.5 1t-10 1.5t-10.5 1.5t-6 1q-5 0 -18 0.5t-27 0.5t-26.5 -0.5t-17.5 -0.5q-2 0 -10.5 -2.5t-10.5 -2.5h-16q-1 0 -4.5 -1 t-8 -1.5t-8.5 -1.5t-5 -1t-6 -1l-10 -2l-10 -2q-5 -1 -6 -1l-12 -3l-15 -5l-13 -5q-6 -2 -7 -2l-6 -5l-10 -10l-12 -12q-6 -6 -9 -10l-25 -28l-22 -30q-2 -2 -6 -8t-5 -8l-5 -10q0 -3 -0.5 -9t-0.5 -13q0 -6 0.5 -12t0.5 -9q2 -2 8 -7.5t8 -7.5t6 -4l4 -2q2 1 8 8t8 8 q2 2 13 5.5t13 5.5q1 0 7.5 6t8.5 9t7 9l10 11l9 11l6 6q1 2 5 8.5t5 7.5l3 3q2 2 3 2q6 5 18 13t13 8q4 2 13 5l18 5q9 2 17 4t10 2h137q3 -1 13 -2.5t13 -2.5q6 -2 18 -3.5t14 -1.5h7h14h13h8q11 0 31 -1l42 -2q21 -1 37.5 -2t20.5 -1q2 0 12.5 -1.5t14.5 -3.5q1 0 5 -2.5 t5 -2.5q4 -2 14 -3.5t12 -1.5h20h35h35h21q2 0 9 -1t15 -2t14.5 -2t8.5 -1q4 0 14 -1t20.5 -1.5t20.5 -1.5t14 -1q2 -1 5.5 -4.5t4.5 -5.5t1 -11q0 -8 -1 -10q0 -1 -2 -3l-3 -3q-4 -2 -11.5 -8t-9.5 -8l-11 -5l-10 -5l-10 -10l-17 -17q-8 -9 -16 -16.5t-10 -9.5q-1 -1 -5 -3 l-8 -5q-4 -2 -8 -4.5t-5 -2.5l-9 -6q-6 -4 -7 -5l-11 -11l-10 -10q-1 -1 -7.5 -2.5t-8.5 -2.5q-1 -1 -6 -4l-10 -7l-10 -7q-4 -3 -5 -3l-21 -11l-26 -12q-12 -6 -21.5 -10t-10.5 -4h-121q-2 -1 -10.5 -3t-10.5 -2t-8 -1t-13 -2l-14 -2q-6 -1 -7 -1q-5 -1 -14 -3t-19 -5 l-19 -4q-8 -2 -11 -3l-15 -7q-12 -6 -17 -9q-1 -1 -3 -2.5t-2 -3.5q-2 -2 -3.5 -5.5t-2.5 -4.5v-21q1 -1 5 -7l6 -9l5 -5q2 -1 8 -3t8 -2q5 -1 17 -1q13 0 15 1q1 0 5.5 2t9.5 5l10 5q5 3 6 3q2 1 9 2t15 1.5t15 1.5t9 1q1 0 6.5 1t11.5 1.5t11.5 1.5t6.5 1q2 0 6 -2t5 -3 q-5 -14 -15.5 -21t-21.5 -16l-21 -21q-15 -14 -31 -24.5t-32 -23.5q-2 -1 -6 -5l-9 -7l-10 -8q-5 -4 -7 -6l-2 -3q-2 -2 -3 -2q-2 -2 -9 -7l-15 -11l-15 -12q-7 -6 -8 -7q-2 -2 -8 -9.5t-8 -11.5q-2 -2 -10 -16l-11 -21l-6 -10l-10 -19l-10 -18q-5 -9 -6 -11 q-2 -2 -10.5 -13t-10.5 -13q-1 -2 -3 -8t-2 -8v-16q0 -1 2 -11l3 -15l3 -12q2 -8 2 -9l5 -10q4 -8 6 -11q1 -2 5 -8t6 -8q1 -2 4 -6l6 -8l7 -7q3 -4 4 -5q2 -3 10.5 -11t10.5 -10q1 -1 7.5 -5.5t7.5 -5.5q1 0 3 -2.5t3 -2.5q3 -2 11 -6t10 -4q1 0 4.5 -1t8 -2t8.5 -2t5 -1z " />
<glyph unicode="[" horiz-adv-x="525" d="M200 -116q1 -1 7 -2.5t9 -2.5h10q13 0 33 1l41 2q20 1 35 1.5t17 0.5q5 1 17 2.5t15 3.5q1 0 15 6t22 9l6 3q4 2 4 3q2 2 6 5.5t5 4.5q1 3 1 11t-1 10q-2 2 -9.5 6t-11.5 5q-2 0 -8.5 0.5t-14.5 1.5l-17 2q-8 1 -13 1q-6 0 -20 1t-30 2t-30 1.5t-20 0.5q-1 1 -3 2.5 t-2 2.5q-2 5 -6 17l-5 15q0 3 -1.5 13t-3.5 22t-3.5 23t-1.5 16q-1 6 -3 31.5t-5 55t-5 55t-3 31.5q0 1 -0.5 6t-1.5 11l-2 12q-1 5 -1 8q0 2 -1 22.5t-1.5 44.5t-1 44t-0.5 21q-1 2 -3 8t-3 8v52q1 2 2.5 8t3.5 8q0 2 2 4t3 2h100q2 -2 8 -3.5t8 -2.5h26l16 16q1 2 3 5.5 t2 5.5v15q0 2 -2 6t-3 5q-2 1 -10 7t-11 9l-6 3q-4 2 -5 2q-2 0 -7 1l-10 2q-5 1 -9 1.5t-5 0.5h-195q-2 0 -8 -6t-8 -10q-1 -2 -3 -7.5t-2 -7.5t2 -8t3 -8l11 -10q9 -9 10 -11q1 -1 2.5 -6t2.5 -11l4 -11q1 -6 2 -9q0 -1 0.5 -7t1.5 -13l2 -15q1 -8 1 -12v-11q0 -2 0.5 -26 t1.5 -53t1.5 -53t0.5 -26v-11q0 -2 1 -8l2 -12l2 -13q1 -6 1 -9q0 -1 1 -5.5t1.5 -10t1.5 -10.5t1 -6l4 -39l4 -60q3 -32 5 -60.5t3 -39.5q1 -4 3 -13t4.5 -19t4.5 -19t3 -12q1 -2 3 -8t3 -8t2.5 -6t2.5 -5z" />
<glyph unicode="\" horiz-adv-x="755" d="M607 11q4 -2 16 -6t16 -5h15q2 0 8 2t8 3q2 2 6 5.5t5 5.5t1 10q0 9 -1 11t-7 12t-9 14q-1 1 -5.5 5t-5.5 6q-1 1 -5 8l-10 15l-10 15q-5 7 -6 9t-7.5 8t-8.5 8q-3 4 -12 15l-21 23l-21 25q-10 11 -14 16q-4 4 -11.5 14t-9.5 12t-8 13t-8 13q-1 2 -7.5 8t-8.5 8l-6 9 l-10 13l-9 12q-5 6 -6 8q-1 1 -9 15t-12 22q-1 1 -3 5t-3 5l-6 7l-12 12l-11.5 11t-6.5 7q-2 2 -5.5 8t-5.5 8q-1 1 -3 5.5t-5 10t-5 10t-3 5.5q-1 2 -9 12l-12 15l-10 10q-2 3 -7 9l-12 13q-6 6 -11 12t-7 8q-1 1 -4 5l-6 9q-4 4 -7 7.5t-4 4.5l-6 6l-10 10q-5 5 -10 9.5 t-6 6.5q-2 2 -7 11l-11 18l-11 19q-6 8 -7 10l-11 12l-17 17l-17 18q-9 8 -13 11l-18 11q-14 8 -19 10q-3 1 -15 1t-16 -1q-2 -1 -6 -5t-5 -6q-1 -3 -1 -14q0 -10 1 -12q1 -3 9 -15t12 -17q1 -2 7 -7l12 -11l12 -11l6 -7q3 -3 13 -16l21 -29l21 -28q10 -14 13 -17l9 -9 l15 -17l15 -16q6 -8 8 -10q3 -3 9 -10l13 -16l13 -16q6 -8 8 -11l7 -10l11 -16l11 -16l7 -11q1 -2 6 -9.5t10 -16.5l10 -16q4 -8 6 -10l12 -15l18 -25l19 -26q9 -12 14 -18q1 -2 7.5 -8t8.5 -8q3 -3 13 -16l21 -29l21 -28q10 -13 13 -16q1 -2 7.5 -8t8.5 -8q1 -1 5 -6l9 -13 l10 -13q4 -7 7 -10q2 -2 5.5 -8t5.5 -8q0 -1 2 -5t3 -5q2 -2 9 -12l12 -15q1 -1 3 -2.5t2 -2.5l9 -6q6 -4 7 -4z" />
<glyph unicode="]" horiz-adv-x="475" d="M357 -137l16 16q2 3 6 11t4 10q0 3 0.5 11t0.5 17t-0.5 17.5t-0.5 12.5q0 1 -1 6.5t-2.5 12t-3.5 13.5t-3 10q-1 2 -2.5 5.5t-2.5 5.5v373q0 1 1 7.5t2.5 14.5t3.5 16.5t3 13.5q1 3 4 15l6 27l7 27q3 13 4 16v5q-1 4 -2.5 11.5t-2.5 9.5q0 1 -2 2.5t-3 2.5t-5 3t-6 2 q-2 1 -8 3t-8 3q-9 0 -31 1.5t-47.5 3t-47.5 3t-31 2.5q-2 0 -13.5 2.5t-13.5 2.5q-2 1 -10.5 0.5t-10.5 -0.5q-1 1 -7.5 3t-7.5 3h-32q-2 -2 -10.5 -9.5t-10.5 -11.5q-1 -2 -1 -8t1 -8q0 -1 2 -5l3 -6q1 0 2.5 -2t3.5 -3q2 -2 10.5 -8t10.5 -8q2 -1 5.5 -3t4.5 -2q2 0 8 -1 l12 -2q7 -1 13 -1.5t9 -0.5h37q3 0 10 -1t14.5 -1.5t14 -1.5t8.5 -1q5 -1 18.5 -5t18.5 -6q1 -1 3 -2.5t2 -2.5q1 -2 1 -10t-1 -11q0 -2 -2 -12l-3 -15q-1 -2 -2.5 -10t-2.5 -11v-284q1 -3 2.5 -15t2.5 -16v-5q0 -2 -2.5 -13.5t-2.5 -13.5q0 -5 -0.5 -17t-0.5 -25t0.5 -25 t0.5 -17q0 -2 2.5 -10.5t2.5 -10.5v-5q-2 -2 -5.5 -6.5t-4.5 -4.5h-148q-1 0 -4.5 -1.5t-5.5 -3.5q-2 -1 -5.5 -5t-5.5 -5q-1 -2 -3 -5.5t-2 -5.5q-1 -2 -1 -8t1 -8q1 -1 4 -5l7 -10l7 -10q3 -5 3 -6z" />
<glyph unicode="a" horiz-adv-x="501" d="M245 5q2 1 13.5 5.5t13.5 5.5q2 0 10.5 2t10.5 3t5.5 5t4.5 6q1 1 3 10t3 11t4.5 8t5.5 7q2 2 5 2q4 0 6 -2q20 -11 37.5 -24.5t36.5 -23t40 -13t48 5.5q1 0 6 -1t6 -2q2 2 10 3.5t10 2.5q0 1 1 6t2.5 10t2.5 9.5t1 5.5q-1 2 -4.5 5t-3.5 4q-2 5 -7.5 15.5t-7.5 12.5 q-1 1 -5 -1l-9 -3l-9 -4q-4 -1 -4 0l-35 -1l-8 5l-17 12l-17 12l-8 6q-10 6 -18 18.5t-12 24.5q-1 3 -3 11t-2 10v18v63v19q0 2 -1 10.5t-2.5 18.5t-3.5 19l-3 15q-1 1 -2.5 5t-3.5 5q-3 5 -11 13t-10 8q-8 2 -19 2q-10 0 -18 -2q-1 -1 -5 -6l-10 -10q-5 -7 -6 -10 q0 -1 -2 -6l-3 -10q-1 -6 -2.5 -10.5t-2.5 -5.5q-1 0 -13 -2t-19 -3h-10q-2 0 -10 -2t-11 -3l-32 -10q-14 -5 -26.5 -10.5t-24 -12.5t-24.5 -19q-2 -1 -3.5 -3t-2.5 -2q-2 -3 -5.5 -11t-4.5 -10l-16 -45q7 -39 13 -62.5t12.5 -39t14.5 -27.5l20 -27q27 -9 56.5 -16t74.5 0z M166 74q-21 11 -25 23t-6 35q1 9 1 21t1 23.5t4 22t10 17.5q3 3 11.5 10t18 14t19 12.5t14.5 5.5q2 1 11.5 2.5t14.5 2.5h16q1 0 5.5 -5t4.5 -11q1 -1 4 -8.5t6 -16.5l6 -15l2 -7q0 -25 -7.5 -52.5t-22.5 -48t-37 -29.5t-51 4z" />
<glyph unicode="b" horiz-adv-x="449" d="M278 -24q1 -1 17 -1q17 0 20 1q2 0 8 2t8 3q2 2 10.5 5.5t10.5 5.5q3 2 9 5t7 3q9 7 18 24t17 36t13.5 36t7.5 25q0 1 2 5t3 5q2 3 8 9t8 7l14 1q15 1 32 2t31 1.5t15 0.5l12 6q8 4 9 5v10v27q0 17 -11 24t-47 7h-19h-38h-38h-18q-2 0 -10.5 -5t-10.5 -5q-2 -1 -10.5 -3 t-10.5 -3t-6 -7t-5 -8v-22q1 -1 5.5 -7.5t5.5 -7.5q2 -2 3.5 -8.5t1.5 -7.5q0 -21 -5.5 -48t-24.5 -46q-2 -2 -10 -6t-11 -5l-21 21l-12 16q-5 8 -7 12l-10 20q-6 11 -8 16q-1 2 -3 8t-2 7q0 3 -0.5 9t-0.5 12t0.5 10.5t0.5 5.5q1 2 8 8t8 8q1 1 4 6t6 11l6 12q3 5 5 8 q17 17 31.5 48t25 66t16.5 69.5t6 58.5q0 6 0.5 22t0.5 33q0 21 -1.5 44.5t-6.5 46.5t-14.5 43.5t-25.5 36.5l-13 10l-8 6q-2 0 -8.5 0.5t-14.5 0.5q-7 0 -14.5 -0.5t-10.5 -0.5l-5 -1q-4 -2 -10 -3.5t-12 -3.5t-10 -3l-9 -3l-6 -2q-2 -1 -10 -7t-11 -9q-1 -1 -3 -2.5 t-3 -2.5q-2 -2 -5.5 -8t-4.5 -8l-6 -10l-7 -13l-5.5 -12.5t-2.5 -6.5q-1 -2 -2.5 -9.5t-3.5 -16.5l-3 -19q-1 -9 -2 -13q0 -1 -1 -9.5t-1.5 -19.5t-1.5 -22t-1 -17v-11q0 -48 5 -83.5t5 -63.5q0 -16 5.5 -34.5t5.5 -33.5q0 -2 1 -6.5t1.5 -10t1.5 -10t1 -5.5q1 -2 3 -10.5 t3 -10.5v-21q1 -1 -5 -5l-12 -10l-14 -12l-10 -7q-3 -3 -19 -15l-33 -27l-32 -25q-15 -12 -18 -13t-5.5 -4.5t-2.5 -4.5q-3 -3 -5 -13t-2 -11q1 -2 1 -5t2 -7l3 -8q1 -2 3 -4q1 -2 8.5 -5.5t9.5 -4.5l16 4q4 1 17 10l27 19l26 17q12 8 13 8q28 22 38 30.5t15 3.5l7 -7 q6 -6 8 -9q1 -1 3 -5l3 -6q24 -42 47.5 -69.5t46.5 -33.5zM199 274q0 2 -2 16t-4.5 35t-3.5 33v16q0 13 -1 23l-2 18q-1 9 -2 20t-1 27q0 17 0.5 32.5t0.5 21.5q0 11 0.5 24.5t2 27.5t4.5 26.5t8 21.5q1 1 5 7l6 9l10 10q2 1 8 3t8 2q1 1 5 1q5 0 6 -1l9 -23l9 -20 q4 -9 6 -20t2 -26q0 -30 0.5 -61t-2.5 -62t-11 -61.5t-24 -57.5q-1 -3 -6 -10l-9 -15l-10 -14q-4 -6 -6 -8z" />
<glyph unicode="c" horiz-adv-x="419" d="M246 26l-42 16v5q-1 2 -7.5 8t-8.5 8q-7 6 -11 10.5t-13 4.5t-27.5 -6t-52.5 -21l-41 -20q-24 -12 -46 -19.5t-38 -6t-16 19.5q0 1 1 7l2 14q1 7 2 13t1 8t4 8t6 8q2 0 14 6.5t18 8.5q1 1 6.5 3t7.5 3q2 0 11 2t11 3q3 2 21 7.5t30 9.5l12 4q3 1 9 2q9 3 22 5.5t16 2.5 t15 6t15 6q1 2 3 5.5t2 5.5q1 2 0.5 10.5t-0.5 10.5q1 4 3 16t3 16q1 3 4.5 15t5.5 16l5 10q4 8 6 11t5.5 9t4.5 7q2 2 6.5 6t9.5 8l10 8q4 3 6 4q1 1 7 3t9 2q5 2 17 4t14 2h53q2 -1 8 -5t7 -6q2 -2 6 -10t5 -11q1 -1 1 -10t-2 -15.5t-4 -11.5q-1 0 -9 -2l-12 -3h-16 q-1 0 -5 1t-8.5 1.5t-8 1.5t-4.5 1q-3 0 -11 -1.5t-10 -3.5q-2 -1 -6 -4.5t-5 -5.5t-5 -12t-5 -15q-2 -3 -4 -11t-2 -10v-68l16 -16q2 -1 10 -4l11 -6q2 -2 8 -3.5t8 -2.5q46 -12 81.5 -5t76.5 28q36 7 50 -0.5t13 -20t-13.5 -25.5t-28.5 -17q-2 -1 -9 -6.5t-9 -6.5 q-2 0 -15.5 -6.5t-18.5 -8.5q-42 -12 -79.5 -17.5t-79.5 12.5q-4 2 -14 6t-12 4z" />
<glyph unicode="d" horiz-adv-x="471" d="M397 5q-1 0 -5 2l-11 4l-12 5q-6 3 -9 5l-6 3q-4 2 -5 2q-18 7 -26 12.5t-13 12t-9.5 15t-14.5 20.5h-11q-1 -1 -4.5 -5t-5.5 -6t-8 -10.5t-8 -10.5q-37 -43 -77 -51t-73 7.5t-54.5 49.5t-21.5 76v28q0 3 2 15t3 17q1 2 2.5 8t3.5 8q1 3 5 11l5 10q2 2 8 10t8 11l16 16 q2 2 10.5 5.5t10.5 4.5q7 4 19 4.5t25.5 -0.5t26.5 -2.5t23 -1.5h37v16q-2 16 -3 37.5t-3.5 51t-8 68t-16.5 88.5q0 1 2 5l3 6l5 5q2 1 8 3t8 2q3 1 16 1t16 -1q5 0 10 -5l11 -11q1 -1 3 -5t2 -5v-16q0 -1 2.5 -7.5t2.5 -8.5q1 -2 3 -10.5t3 -10.5q0 -1 2 -7.5t3 -7.5 q1 -5 3.5 -15.5t4.5 -18t2 -8.5v-15v-25v-25v-14q0 -4 0.5 -14.5t1.5 -22.5t2 -22.5t2 -14.5q2 -2 5.5 -10t4.5 -11q0 -15 2.5 -26t7.5 -22.5t12 -24.5t15 -32q8 -18 20 -32t43 -36q6 -2 21 -2t21 2q1 1 11 6l22 11l23 11q10 6 11 7q2 1 7 2t7 2q2 -2 8 -3t8 -1q1 -1 4.5 -6 t3.5 -7q1 -10 -8 -22.5t-22 -25t-26.5 -22.5t-22.5 -15q-4 -2 -11 -4l-15 -6l-14 -4q-6 -2 -7 -2h-21q-4 1 -14 2.5t-12 2.5zM123 91q2 -3 8 -9t8 -7q1 -1 4 -1q5 0 6 1l12 6q7 3 9 5l6 6q4 4 9 10l10 12q5 5 7 8q4 8 8.5 16t2.5 13q0 7 -1 8q0 2 -2 5.5t-3 5.5q-1 1 -7.5 5 t-8.5 5q-1 2 -3 5.5t-2 5.5q0 1 2.5 5t2.5 5q1 1 1 3t-1 2q0 1 -2 3l-3 3q-4 0 -11.5 5t-14.5 5q-1 1 -8 1t-8 -1q-3 0 -11 -2t-10 -3q-1 0 -2.5 -2t-2.5 -3l-6 -9q-4 -6 -5 -7q-1 -2 -3 -10.5t-2 -10.5q0 -3 -0.5 -10t-0.5 -15q0 -7 0.5 -13.5t0.5 -8.5q0 -1 2 -5l3 -6 l9 -15q6 -10 7 -11z" />
<glyph unicode="e" horiz-adv-x="325" d="M166 16l-52 26q-35 25 -50 63t-19.5 74t-2 64.5t2.5 35.5q0 1 1 6l2 12l2 11q1 6 1 7q0 2 2 6t3 5l11 12l15 14l13 14q6 6 8 7q1 1 5.5 2.5t9.5 3.5t10 3.5t7 1.5q17 0 35.5 -3.5t34 -12t25.5 -23t10 -36.5q-1 -34 -1.5 -55.5t-3 -36t-7 -23.5t-12 -19t-19.5 -22.5 t-29 -33.5q-3 -3 0 -6q1 -2 4.5 -5.5t5.5 -4.5q15 -9 25.5 -13.5t21.5 -6t24 -2t33 -2.5q1 -1 12 -1q8 0 9 1q1 0 14 6t17 10q1 1 6 5l12 8l12 8q6 4 7 5q2 2 8 3.5t8 1.5q4 0 10 -9.5t6 -11.5q1 -1 1 -12q0 -8 -1 -9q-12 -24 -16 -35.5t-8.5 -17.5t-14.5 -9.5t-35 -10.5 q-2 -1 -6.5 -2t-18 -2t-39 -1.5t-67.5 -0.5q-2 1 -5.5 3t-5.5 3t-10.5 2.5t-10.5 2.5zM123 210l10 -22q3 -1 9 7t13 19l13 22q7 11 9 16v21q0 1 -2 7.5t-3 8.5t-3 5.5t-3 5.5q-1 1 -2.5 3t-2.5 2h-10q-8 -4 -16 -11t-11 -10z" />
<glyph unicode="f" horiz-adv-x="342" d="M177 -404q2 -1 8 -3t8 -2h26q3 0 15 2t17 3q2 1 8 3t8 3l5 5q2 2 5.5 8t4.5 8q12 20 17.5 43t9.5 46q0 4 1 10l2 12q1 6 1 11l1 4q0 49 1 83t-0.5 61.5t-7 53.5t-18.5 60q-2 4 11.5 7t36 9.5t51 18.5t57.5 35q16 18 20 27t-0.5 15t-16 11.5t-24.5 15.5q-20 -20 -45 -34 t-49.5 -21t-45 -5t-31.5 14l-8 9l-18 18l-19 17q-9 8 -12 8v16l2 2q2 2 4 3q-1 8 4 18t11.5 19t12 17.5t5.5 13.5q1 1 4 6l6 11l7 10q3 4 4 5t3.5 5.5t5 9.5t4.5 9.5t3 6.5l17 49q9 23 16 45.5t11 46t4 51.5q0 47 -14 80.5t-50 59.5q-1 1 -4.5 3t-5.5 2q-3 1 -9.5 3l-13.5 4 l-12 3q-6 1 -7 1h-21q-4 -1 -14.5 -3t-12.5 -3q-3 -1 -11 -4.5t-10 -5.5q-1 -1 -6 -5t-10 -9t-9.5 -10t-5.5 -8q-1 0 -3 -4l-3 -6q-2 -5 -4 -12l-6 -15l-3.5 -14t-1.5 -7q-1 -2 -2 -10.5t-2 -18t-1.5 -18t-0.5 -10.5q0 -3 -2 -13.5t-3 -13.5v-273q1 -2 3 -8t2 -8q1 -1 1 -6 q0 -4 -1 -5q-1 -2 -4.5 -7.5t-5.5 -7.5q-2 -3 -7 -7.5t-10 -10t-9.5 -9.5t-5.5 -5q-2 -1 -9 -6t-15 -10t-14 -9.5t-7 -5.5q-3 -2 -9 -9l-7 -7q-1 -1 -1 -10q0 -10 2 -15t4 -7q18 -11 38.5 -5.5t44.5 21.5q1 1 7 3t8 2q1 1 5 1q5 0 6 -1q0 -3 1 -8.5t1.5 -12.5t1.5 -12.5 t1 -8.5q0 -7 3 -23l5 -36l5.5 -38t2.5 -27q0 -30 3 -62.5t8.5 -65.5t13.5 -65t17 -60q1 -3 3 -7.5t5 -9.5t5 -9t3 -5q1 -2 4.5 -6t5.5 -5zM204 -304q-2 8 -6.5 24t-4.5 18q0 4 -1 18t-1.5 30t-1.5 30t-1 17q0 1 -1 5.5t-1.5 10t-1.5 10t-1 6.5t-1 12t-2 21.5t-2 21.5t-1 13 q0 2 -2.5 8t-2.5 8q0 1 -1 7.5t-1.5 13.5t-1.5 13t-1 8q-1 2 -3 9.5t-3 9.5q0 11 -1 29t-1 29h11q2 -1 5.5 -5t5.5 -6q13 -27 20.5 -46t13 -37t10 -38t10.5 -50l3 -15q2 -10 2 -12v-94q0 -6 -1.5 -14.5t-3.5 -17.5t-3.5 -17.5t-1.5 -14.5v-15q-1 -3 -2.5 -9t-2.5 -7 q-5 -5 -11 -5q-2 3 -5.5 15t-4.5 16zM146 262q-2 3 -3.5 11t-2.5 10v95q0 2 1 9t2 15t2 14.5t1 8.5q0 25 1 43t3 31.5t4.5 24.5t6.5 22l6 18q4 12 5 14q1 1 5 3t6 2t7 0.5t10 0.5t9 -0.5t5 -0.5q13 0 19.5 -16t8.5 -41t0 -55t-7.5 -58t-13.5 -50.5t-17 -31.5q-1 -2 -3 -5.5 t-3 -5.5q0 -1 -2 -7.5t-3 -8.5l-3 -2q-2 -2 -2 -3q-2 -2 -8 -10.5t-8 -10.5l-21 -21q-1 1 -3 2.5t-2 2.5z" />
<glyph unicode="g" horiz-adv-x="442" d="M117 -349q-25 25 -37.5 61.5t-4.5 69.5q13 44 36.5 80.5t52.5 72.5q1 1 5.5 5t5.5 5l12 15q8 11 13 18.5t6 8.5v5q0 1 -2 1t-3 -1q-35 -21 -62.5 -16t-46.5 25.5t-29.5 52.5t-10.5 65q0 34 10.5 65t33.5 49q4 4 14 12t12 9q2 2 14.5 8t17.5 8l15 6q9 4 11 5q3 1 12 2.5 t19.5 3t19.5 3t12 1.5l3 3q2 2 2 3q2 2 8.5 10.5t7.5 10.5q1 1 3 2.5t2 2.5q2 1 8 5t8 5q2 2 6 4t5 2h31q2 -1 6 -2.5t5 -3.5q2 -2 5.5 -7.5t4.5 -7.5q1 -3 1 -18v-27v-27q0 -15 -1 -18q0 -3 -2.5 -14.5t-5 -25t-5 -25t-2.5 -14.5v-17q0 -13 1 -29t1 -30v-17q3 6 13 10 t21.5 7t22.5 6.5t16 8.5q2 0 10 5t10 5q3 1 10 6t15 12l15 12l10 7q1 1 6 3.5t7 2.5q5 3 14 7t10 4q2 0 10 -2t10 -3q4 -2 9.5 -10.5t7.5 -10.5q0 -2 -2.5 -12t-4.5 -14l-6 -5q-6 -5 -8 -7q-9 -11 -32 -26.5t-47.5 -30t-44 -24.5t-22.5 -10q-2 -1 -12 -5t-12 -5 q-2 0 -11.5 -1.5t-11.5 -2.5q-3 -3 -4 -8t-1 -9q-1 -7 -2 -25t-2 -38t-1.5 -38t-0.5 -25v-18v-32v-31v-19q0 -2 -1.5 -14.5t-3.5 -17.5q0 -1 -2 -7t-3 -8l-6 -15q-4 -11 -5 -12q-2 -4 -10 -14t-11 -12q-2 -2 -11.5 -8t-14.5 -8q-2 -1 -8 -3t-8 -2h-42zM185 -302q2 -2 6 -3.5 t5 -1.5q3 0 8 -0.5t10 -0.5h9l4 1q1 0 5 8t6 13q1 2 3 10.5t2 10.5q1 2 3 7.5t2 7.5q0 7 1 25t2 38.5t2 38.5t1 25v10l-3 6q-2 4 -3 5h-10q-2 -1 -5.5 -2.5t-5.5 -2.5q-1 -2 -5 -5.5t-5 -5.5q-1 -1 -3 -5.5t-2 -5.5q-2 -2 -8 -12.5t-8 -13.5q-1 -1 -5.5 -7.5t-5.5 -8.5 q0 -1 -2 -5t-3 -5l-3 -6l-4 -8l-5.5 -7.5t-3.5 -4.5v-69q0 -1 4.5 -7t6.5 -9q1 -2 5 -5.5t5 -4.5zM133 76q2 -4 6 -10l4 -6q1 -1 10 -1t11 1q2 0 5.5 2t5.5 3l42 42q4 4 12 14t9 12q2 3 5.5 15.5t4.5 16.5q1 1 1 12q0 12 -1 14q1 5 -5 11.5t-10 9.5q-2 2 -8 3.5t-8 2.5h-21 q-3 -1 -11 -5t-10 -6q-3 -2 -9 -8l-13 -13q-7 -6 -12.5 -12t-7.5 -9q-2 -4 -3.5 -16t-2.5 -16v-47q1 0 2.5 -4t3.5 -6z" />
<glyph unicode="h" horiz-adv-x="432" d="M102 -12q-2 2 -5.5 7.5t-4.5 7.5q-1 1 -2.5 9t-3.5 12q-6 8 -9.5 25t-5.5 37t-3 40.5t-0.5 35.5t1.5 21.5t2 -1.5q-1 2 -2.5 8t-3.5 8q0 8 -1 28t-1.5 42.5t-1.5 43t-1 28.5q0 4 -2 18t-3 18v190q6 13 7 25.5t3 26.5q1 2 2.5 8t3.5 8q1 2 2.5 6t2.5 4q2 3 8 9t8 7 q2 2 7.5 3.5t7.5 1.5q5 1 24 1q17 0 18 -1q1 0 5 -3t8.5 -7t8.5 -7t5 -4q2 -1 10.5 -2.5t10.5 -2.5q1 0 7 -6.5t9 -9.5l11 -14q8 -10 10 -12l5 -10q4 -8 5 -11q1 -2 3 -10.5t2 -10.5t1 -8.5t2 -14.5l2 -16q1 -9 1 -14q0 -7 1 -18t1.5 -21.5t1.5 -19t1 -9.5q0 -2 -1 -9 t-1.5 -15t-1.5 -16t-1 -12q0 -2 -2 -9l-3 -16q-1 -8 -3 -16l-3 -12q0 -2 -2.5 -8t-2.5 -8q-1 -1 -1 -11q0 -9 1 -10q20 -15 34.5 -34t27.5 -39l25 -40q13 -21 30 -40l10 -10q1 -1 3 -5.5t3 -5.5q2 -3 10.5 -11t10.5 -10l10 -5q8 -4 11 -5q1 -1 4 -1q5 0 6 1q1 0 7.5 2 t13.5 5l13 6q6 2 8 3h11q1 -1 5 -2.5t5 -3.5q2 -1 6 -5l5 -5v-5q-3 -30 -11 -44t-21 -19.5t-31 -6.5t-42 -4h-37l-11 11q-2 1 -10.5 7t-10.5 8l-38 62q-18 27 -37 65q-3 5 -11 14.5t-10 11.5l-10 11q-8 8 -11 10q-1 0 -5 -2t-5 -3l-21 -21q-2 -2 -6 -10l-5 -11q0 -2 -1 -8 t-1.5 -13.5t-1.5 -15t-1 -11.5q0 -25 2.5 -44.5t2.5 -23.5q0 -1 2.5 -5t3.5 -5v-21q-2 -3 -8 -13t-8 -13q-1 -1 -5 -3t-6 -2q-1 -1 -13 -1q-11 0 -13 1q-2 0 -8 2t-8 3zM134 292l10 -10q2 2 6 7.5t5 7.5q7 24 16 61t13.5 76t1.5 76t-21 61l-16 16h-5l-3 -2l-2 -4 q-3 -3 -5 -10l-7 -15l-4 -11v-43q0 -16 1.5 -42t4 -52t4 -48t1.5 -31v-37z" />
<glyph unicode="i" horiz-adv-x="234" d="M58 268l12 -148q-2 -43 13 -72.5t41 -43t59.5 -10.5t69.5 26q18 11 32 29t22 39v6q4 12 0.5 17.5t-9 7.5t-10.5 2t-4 0q-1 0 -4.5 -2t-5.5 -3q-2 -2 -8 -8.5t-8 -7.5q-39 -22 -62 -25.5t-35 6.5t-15.5 30t-3.5 45l5 93v18v11q0 4 -2 14.5t-3 12.5t-4.5 6t-5.5 4 q-1 1 -14 1q-11 0 -13 -1t-7 -4q-8 -3 -15 -6.5t-9 -5.5l-2 -4q-3 -4 -5 -9l-5 -10q-3 -5 -4 -8zM98 513q8 -7 12 -13t17 -4q12 0 13 1q1 0 9 6.5t12 9.5q2 1 4 3l2 2v27q0 4 -6 10q0 1 -2 3t-3 2q0 1 -2 1t-3 -1q-3 0 -9 -1t-12 -1.5t-10.5 -1.5t-5.5 -1t-4.5 -2t-5.5 -3 q-7 -3 -11 -16v-5l3 -9q2 -6 2 -7z" />
<glyph unicode="j" horiz-adv-x="417" d="M107 -346q9 -6 19 -6.5t20.5 1t20.5 3.5t19 2q13 0 29.5 8t32 21.5t28.5 30.5t20 35v163l75 53q37 26 65.5 50t46 45t17.5 40q0 7 -1 8t0 6l5 15q3 9 1 9q-2 1 -9 10t-13 8q-4 0 -10 -6q-2 -1 -10.5 -7t-10.5 -8l-42 -37q-20 -19 -41 -35.5t-41.5 -29t-41.5 -18.5 q-2 -1 -6 1.5t-5 4.5q-1 12 -6 42.5t-10 67.5t-8.5 74t-1.5 63q0 3 2 15t3 16q0 2 2.5 8.5t2.5 7.5q1 1 1 5q0 5 -1 6q0 3 -2 11t-3 10q-2 3 -5.5 9t-5.5 6h-52q-1 0 -5 -4l-6 -6q-1 -2 -3 -8t-2 -8t-1 -11.5t-1.5 -20t-1.5 -20t-1 -11.5t-2 -10t-3 -11q-2 -6 -3.5 -15 t-3.5 -14q-1 -2 -3 -5.5t-2 -5.5q-8 -16 -26.5 -35.5t-41.5 -39.5l-47 -40l-40 -34l-4 -6q-1 -1 -2.5 -5t-2.5 -5v-5q0 -9 -0.5 -17t2.5 -14t11.5 -9t26.5 -2q6 0 24 13t40 31l46 38l39 35q1 -2 3 -7.5t4 -12t4 -12t2 -7.5q1 -3 2 -16l4 -30q2 -17 4.5 -35t5.5 -32v-11 l-2 -2q-2 -2 -4 -3q-1 -1 -4.5 -4l-8.5 -7l-8 -6q-4 -3 -5 -4q-3 -3 -8 -7l-10 -8l-9 -8l-4 -3l-58 -58q-5 -5 -11.5 -13t-13 -17t-11.5 -18t-6 -15q-2 -5 -4 -12.5t-2 -9.5v-26q5 -28 25.5 -47.5t43.5 -31.5zM128 -272q-1 1 -3 7l-3 9v10l3 12q2 8 3 9q1 2 7 10t9 11 q2 4 12 14l14 13q1 1 7.5 5t8.5 5q1 2 7 8l8 8q2 2 10.5 5.5t10.5 4.5q0 -4 0.5 -14.5t0.5 -21.5q0 -12 -0.5 -22.5t-0.5 -14.5q0 -5 -2 -13.5t-5 -17t-7 -16.5t-7 -11q-8 -8 -24.5 -12t-27.5 1q-3 1 -11 5t-10 6zM186 541l14 -9q10 -6 12 -6t14 1.5t17 3.5q1 0 3 2l3 3l6 9 q4 6 4 7q2 3 4 11t2 10t-2 10.5t-4 10.5q-1 2 -5 6t-5 4h-63q-1 0 -5 -4l-6 -6q-1 -2 -3 -5.5t-2 -5.5q-1 -1 -1 -10q0 -10 1 -11q0 -1 2 -4.5t3 -5.5z" />
<glyph unicode="k" horiz-adv-x="524" d="M124 11q1 -2 4.5 -6t5.5 -5h5q21 7 38.5 8t28 2t13 6t-5.5 21v5v10v10v6q0 3 -2 15t-3 17q-1 2 -3 8t-3 8v15h48q1 1 7 2.5t9 3.5q1 0 5 2.5t5 2.5q2 1 17 1q14 0 15 -1q3 0 14 -7t17 -9q8 0 18.5 -10.5t23.5 -25.5l27 -33q15 -17 31 -31t32.5 -21.5t32.5 -3.5h5h5 q5 3 15 11t12 10v26q-1 6 -1.5 13t-2 13.5t-5.5 10.5t-11 4q-33 5 -54 20t-34 48q-5 10 -11 12t-14 10q-2 1 -6 5l-5 5q-2 1 -9 5.5l-16 10.5l-15 10q-6 5 -7 6q-2 1 -5.5 5t-5.5 5q0 4 -1 13t-1.5 19t-1.5 19t-1 13q0 1 -2.5 5t-2.5 5t-0.5 5t-1.5 8.5t-2 8t-2 4.5 q-1 3 -9 15t-12 17l-26 26q-1 1 -1 5q0 5 1 6l2 4q2 4 5 9l5 8q3 4 4 5l16 32q0 1 1 6l4 10l3 10q2 4 2 5q2 4 5 12.5t5.5 17.5t4 16.5t1.5 11.5t0.5 12t0.5 16q0 9 -3.5 23t-8.5 28.5t-11 28.5l-10 23q-5 16 -16 37.5t-26.5 43t-34 40t-38.5 27.5q-2 1 -8 2.5t-8 2.5h-16 q-2 0 -10 -2t-11 -3q-2 -1 -5.5 -3t-4.5 -3q-2 0 -3.5 -2t-2.5 -3l-6 -9l-6 -14q-4 -7 -6.5 -12.5t-2.5 -6.5q-2 -6 -5 -17l-4 -23l-5 -21q-2 -10 -2 -13v-257q2 -2 3.5 -10.5t2.5 -10.5q0 -4 1.5 -16.5t3.5 -26.5t3.5 -27.5t1.5 -19.5q1 -1 1 -9q0 -6 -1 -6 q-1 -2 -8.5 -5.5t-12.5 -5.5q-2 -1 -10.5 -3t-10.5 -2q-4 0 -14.5 -1t-22 -1.5t-21.5 -1.5t-13 -1q-2 -1 -6 -2.5t-5 -3.5q-1 -1 -3 -4.5t-2 -5.5q-1 -1 -1 -11q0 -9 1 -10q0 -1 2 -5l3 -6l5 -5q2 -2 8 -3.5t8 -1.5q3 0 11 -0.5t18 -0.5t19 0.5t13 0.5q3 0 16 2.5t16 2.5h5 q1 -1 3 -2.5t2 -2.5q0 -6 0.5 -21t1.5 -32t2 -32t2 -21q0 -2 1.5 -9.5t3.5 -11.5q0 -1 2 -4l3 -8l3.5 -9t1.5 -5q2 -3 3.5 -13.5t2.5 -12.5v-47zM187 205q-2 5 -3.5 17t-2.5 15q0 6 -0.5 14.5t-0.5 16.5v14l1 7l32 32h10q1 0 4 -3l7 -8l9 -8l7 -7q1 -2 3 -5.5t2 -5.5 q1 -1 1 -15q0 -15 -1 -17q0 -2 -2 -12t-3 -14l-3 -6l-2 -4l-53 -27q-1 2 -3 8t-2 8zM160 426v11q0 3 -1 18t-1.5 31.5t-1.5 31.5t-1 18v79q0 2 -1.5 10t-2.5 17.5t-0.5 19.5t4.5 16v32q0 3 1 8.5t1.5 11.5t1.5 11t1 6q1 3 5 9t6 7q4 0 10 -6q1 0 5 -5t9 -12l10 -14l8 -11 q2 -2 5.5 -8t4.5 -8q1 -1 3 -5t3 -5q1 -2 8 -13t8 -13q0 -2 1 -8t1.5 -13t1.5 -13.5t1 -7.5q0 -2 1 -6.5t1.5 -10t1.5 -10t1 -5.5q0 -5 0.5 -13.5t0.5 -18.5q0 -9 -0.5 -16.5t-0.5 -9.5t-2 -8t-5 -13.5t-5.5 -14.5t-3.5 -11q-1 -3 -8 -16l-8 -16q-1 -2 -4 -6l-6 -10 q-3 -5 -6.5 -9.5t-4.5 -5.5q-2 -2 -5.5 -6t-4.5 -5t-13 -1t-13 1q-1 2 -3 8t-3 8z" />
<glyph unicode="l" horiz-adv-x="270" d="M302 13q-37 -14 -67 -6.5t-54 29t-42 53.5t-30.5 67t-20.5 68.5t-12 59.5q-1 5 -3 17.5t-2 14.5q0 3 -1 13t-1.5 23t-1.5 25t-1 18v21q0 71 15 128t48 114q16 22 31 32t43 10h10q19 -11 40 -18.5t34 -29.5q5 -5 10.5 -16t10 -24t7.5 -25t3 -19q0 -67 -15.5 -129 t-36.5 -129q-2 -3 -7 -14l-13 -24l-13 -27t-9 -19q-1 -1 -4 -5l-6 -10l-7 -10q-3 -5 -4 -6l-3 -6q-2 -4 -3 -5v-5l3 -11q2 -8 3 -10q8 -35 24.5 -50.5t38.5 -15t47.5 16t51.5 41.5h11q2 -1 5.5 -3t4.5 -3l8 -8q6 -6 7 -8l15 -28q1 -3 -9 -16t-26.5 -28t-37.5 -27.5 t-41 -15.5zM154 289q1 -2 5 -5.5t6 -4.5l30 65q15 31 25.5 62t16 62t2.5 63q-2 22 -4 33.5t-4 19t-5.5 14t-8.5 18.5q0 1 -2 3t-3 2q-1 1 -8 1q-12 0 -18 -12q-2 -3 -5 -9l-6 -12l-6 -13l-4 -8q0 -1 -1.5 -6.5t-3.5 -12l-4 -12.5l-2 -11q0 -2 -2.5 -15.5t-2.5 -15.5 q-1 -3 -2.5 -11t-2.5 -11v-152q0 -2 4 -14.5t6 -17.5z" />
<glyph unicode="m" horiz-adv-x="616" d="M537 5q1 0 8 -1t15.5 -1.5t16.5 -1.5t13 -1h10q8 0 16 4.5t10 6.5q7 4 19 11.5t13 9.5q1 1 5 9t5 12q2 2 3.5 10.5t2.5 10.5v26q0 2 -6 5l-10 5q-2 1 -9 -2t-15 -8t-14.5 -9.5t-8.5 -6.5q-2 -1 -8 -3t-8 -2q-1 -1 -8 -1q-12 0 -29 11q-2 2 -10.5 8t-10.5 8 q-14 10 -22.5 27.5t-16.5 37.5t-17 40t-23 34.5t-34 22t-50 1.5q-1 0 -4.5 -1.5t-8 -4t-8.5 -4t-5 -1.5h-32q-1 0 -4.5 1.5t-8 4t-8.5 4t-5 1.5l-9 3q-6 2 -7 2q-1 1 -8 1q-6 0 -7 -1q-2 0 -10 -2t-11 -3q-2 0 -8.5 -2.5t-7.5 -2.5q-1 -1 -9 -1q-6 0 -7 1q-11 10 -20.5 16 t-19 9t-21.5 3t-28 -2q-3 -1 -15 -7t-17 -9l-16 -16l-7 -11l-10 -16l-9 -15q-4 -7 -5 -10q-1 -2 -3 -9t-5 -15.5t-5 -15t-3 -7.5q0 -1 -5 -10l-10 -21l-10 -20q-4 -9 -4 -10q-2 -5 -6.5 -15t-4.5 -12q-1 -1 -1 -8q0 -6 1 -7q0 -2 2 -5.5t3 -5.5l6 -6q4 -4 5 -4h40l2 2 q2 1 3 3q2 2 6 8.5t5 7.5q0 1 1 4.5t1.5 8t1.5 8.5t1 5l8 17l16 32l17 33q8 16 11 21q5 8 11 16t10 10q1 1 6 1q4 0 5 -1q4 -2 11.5 -10.5t9.5 -10.5q1 -2 2.5 -7.5l3.5 -12.5l2 -13q2 -6 2 -9t0.5 -18t0.5 -32t-0.5 -32t-0.5 -18q1 -1 3 -5t3 -5q1 -2 4 -6l6 -5 q2 -1 5.5 -3t5.5 -2q1 -1 15 -1q15 0 16 1q2 0 5.5 2t5.5 3l6 6q4 4 4 5t1 7l2 16q2 9 3 14q0 3 1 16.5t1.5 30t1.5 30.5t1 17q0 2 4 6t6 5q5 0 11 -6q1 -1 4.5 -11t5.5 -15q0 -1 1 -10.5t2 -21t2 -21t1 -10.5q0 -2 1 -8t1.5 -12.5t1.5 -12.5t1 -9v-10q0 -2 2 -5.5t3 -5.5 l5 -5q2 -2 8 -3.5t8 -1.5q1 -1 13 -1t13 1q6 0 11 5l16 16q1 2 3 5.5t2 4.5v131q1 1 5 1t5 -1q1 0 5 -4l6 -6q6 -27 16.5 -48.5t24.5 -39t31.5 -33t37.5 -31.5q2 -2 8 -3.5t8 -2.5z" />
<glyph unicode="n" horiz-adv-x="523" d="M196 11v15q0 2 2.5 8t2.5 8q1 1 1 12t-1 14q-3 24 -4 52t-10 46q-5 8 -10 19.5t-7 14.5q-1 1 -5 3t-6 2q-1 0 -5 -2t-5 -3q-2 -2 -8 -10t-8 -11q-2 -4 -8 -14t-8 -13q-1 -1 -5 -10l-11 -21l-14 -25l-12 -24l-8 -16q-1 -1 -8 -6.5t-9 -8.5q-2 -2 -8 -11.5t-8 -9.5 q-1 -2 -12 -5.5t-16 -4.5q-2 -1 -7.5 -2t-7.5 0h-12q-11 0 -12 1q-1 2 -2.5 9.5t-0.5 9.5q0 1 0.5 8t1.5 9q1 5 7.5 17.5t8.5 15.5q1 1 5 3l3 2q2 2 7 5.5t6 4.5q2 1 11 18l18 37l18 37q8 17 10 20q0 1 2.5 5t5 8.5t5 8t2.5 4.5q1 1 3 5.5t3 5.5l10 11q8 8 11 10q0 1 4.5 3 t5.5 2q2 1 8 5.5t8 5.5l10 5q4 0 12.5 0.5t16.5 0.5q9 0 15.5 -0.5t8.5 -0.5q1 0 13 -8l19 -13q2 -2 10.5 -8.5t10.5 -7.5h15q2 0 8 2t8 3q1 1 5 3l6 3q3 1 10 3t14.5 3.5t14 2.5t8.5 1q1 1 10 1q10 0 11 -1q1 0 7 -2l9 -3q2 -1 5.5 -3t4.5 -2l21 -21q1 -1 6 -11l5 -10 q1 -2 4 -11q7 -18 13 -31t12 -24.5t13 -23t18 -26.5q0 -2 2.5 -7t4.5 -7l10 -3q7 -3 15 -5l14 -4q7 -2 10 -2q2 -2 12 0.5t12 2.5t7.5 -2t7.5 -2q2 -2 4.5 -6.5t3.5 -6.5q-1 -2 -3.5 -12t-4.5 -14q0 -1 -3.5 -4t-5.5 -4q0 -1 -5 -3.5t-8 -4.5t-7.5 -3.5t-9.5 -3.5l-9 -3 l-4 -2q-3 -1 -11 -0.5t-11 1.5l-12 3q-9 2 -19 5t-18 6t-11 5q-3 1 -9.5 7t-8.5 8q-1 1 -2 3.5t-2 2.5q-14 13 -22 32l-16 39q-9 20 -19 38t-26 30q-1 1 -8 1t-8 -1q-2 0 -5.5 -2t-5.5 -3q0 -1 -4 -7l-6 -9q-2 -2 -3.5 -6t-1.5 -5q-2 -4 -3.5 -21t-2.5 -39v-15v-9 q0 -1 -4 -9l-6 -12q-1 -1 -3.5 -2.5t-1.5 -2.5q4 -4 0 -11t-12.5 -14t-19.5 -12t-21 -5h-11q-1 1 -2.5 5t-2.5 6z" />
<glyph unicode="o" horiz-adv-x="295" d="M351 111q-9 -39 -30 -63t-48 -36t-58.5 -13t-62.5 6q0 3 -6 5l-11 5q-8 4 -10 6q-2 1 -10 9t-11 12q-1 1 -7 9t-8 12q-2 3 -7 9l-4 6l-4 10l-4 15l-5 14l-3 9q0 1 -1 5.5t-1.5 10.5t-1.5 12t-1 9v10q0 3 1 9t1.5 12.5t1.5 12.5t1 8q1 2 2.5 10.5t3.5 10.5q0 3 4.5 11.5 t10.5 14.5q3 5 9 13t7 9q4 0 11.5 5t14.5 5q1 0 7 1t12 1.5t11.5 1.5t6.5 1t8 0.5t16 0.5h16h8q5 -1 18 -2.5t15 -2.5q23 -6 46 -24t40 -41.5t24.5 -49.5t-1.5 -48zM167 78q15 -20 35 -21.5t38 10t31 31.5t13.5 43.5t-15 46.5t-54.5 39q-2 1 -12 2t-15 1q-2 0 -11.5 -2.5 t-10.5 -3.5q-6 -5 -16 -14.5t-10 -11.5l-4 -67q0 -1 4 -11l6 -15l3 -6q2 -4 3 -5q2 -2 7.5 -8t7.5 -8z" />
<glyph unicode="p" horiz-adv-x="522" d="M167 -268q2 -2 5.5 -6.5t4.5 -4.5q1 -1 10 -1t11 1l14 7q13 6 18 9q1 1 3 2.5t2 2.5q1 4 3 16t2 16q0 100 8 191t8 182q0 2 2 7t3 4q11 -13 25 -35t32.5 -45.5t43 -44t57.5 -29.5t75 -2t96 38q2 2 6 4t4 3q7 5 14 16.5t11.5 23.5t6 21t-2.5 8q-2 2 -4 5t-4 4q-1 0 -4.5 2 t-4.5 2q-1 1 -7 1q-5 0 -6 -1q-15 -9 -25.5 -18t-20.5 -16.5t-22 -13.5t-28 -7q-43 -5 -73 8q-45 18 -77 68t-70 128q-1 1 -0.5 2t-0.5 2q0 2 0.5 10.5t-0.5 10.5q0 4 -2 12t-3 9q-2 4 -10 11.5t-11 9.5q-2 2 -10 2q-5 0 -11 -2q-1 0 -9 -6t-12 -10q-2 -2 -6 -5.5t-5 -4.5 q-1 -2 -4.5 -10t-5.5 -11q-1 -2 -3 -8.5t-2 -7.5q-2 -4 -10.5 -16t-10.5 -16q-2 -2 -10 -9.5t-11 -11.5q-9 -11 -20 -26l-22 -31q-12 -16 -26 -30.5t-31 -25.5q-2 -2 -8 -7l-12 -9q-6 -4 -12 -7.5t-8 -4.5q-1 -1 -4.5 -6.5t-7.5 -12.5l-6 -12q-3 -6 -3 -7q0 -2 2 -9.5 t4 -10.5q1 -2 4 -5l4 -4q4 -1 16 -1.5t15 0.5q1 0 6.5 2.5t11.5 6.5l11 7l9 6q1 0 5 4l10 9q6 5 11 10l8 8q2 2 6.5 8t6.5 7q1 1 7 8l13 17l14 16q6 7 8 8q2 2 6 4t5 2t3 -2t2 -4q0 -6 -0.5 -18.5t-0.5 -27.5q0 -44 -6 -91t-6 -90v-168q1 -2 3 -5.5t3 -4.5z" />
<glyph unicode="q" horiz-adv-x="501" d="M355 -263l6 -3q4 -2 5 -2q2 -1 21 -1t21 1t5.5 5t4.5 6q2 2 3.5 7.5t2.5 7.5v79q0 3 -1 16.5t-2 28.5t-2 28t-1 16v82q1 1 8 1t8 -1q1 0 5 -1.5t8.5 -4t8.5 -4t5 -1.5h10l15 1l16 1q8 1 11 1q1 1 5.5 2t6.5 3q6 -5 20.5 1t28.5 17t24.5 22.5t8.5 17.5q8 19 6 36t-13 19 q-18 -1 -26.5 -3.5t-13.5 -9.5q-14 -18 -38 -25.5t-46.5 -4t-37.5 16.5t-10 36q-1 1 -1 12v23q0 13 -1 24.5t-2 15.5q-1 1 -3 5t-3 5q-2 4 -5 12t-5 15l-3 14q-2 6 -2 7v8v15v15v9q-1 3 -2.5 11t-3.5 10q-1 2 -4 5l-6 6q-2 0 -9 2l-12 3h-11q-2 -1 -10.5 -5t-10.5 -6 q-1 -1 -5 -4.5t-5 -5.5q-1 -1 -3 -5t-2 -6q-1 -2 -3 -7t-3.5 -11t-3 -11t-1.5 -8q-4 0 -13.5 -0.5t-20.5 -1.5t-20.5 -1.5t-13.5 -1.5q-1 0 -6 -1t-11.5 -2.5t-13.5 -3.5t-11 -3q-2 -1 -8 -3t-8 -3q-5 -2 -17 -7.5t-15 -7.5q-2 -2 -10 -8t-11 -8q-1 -2 -5 -5.5t-5 -5.5 q-2 -2 -6 -7.5t-5 -7.5q0 -2 -2 -8t-3 -8q0 -2 -1.5 -8t-3.5 -13t-3.5 -13.5t-1.5 -7.5q-2 -4 -5.5 -12t-5.5 -9q-5 -3 -18 -10t-28.5 -14t-29.5 -12t-21 -4q-2 0 -8 1.5t-8 3.5q-3 -2 -11 -10t-10 -11q-1 -1 -1 -10q-2 -8 3 -17l9 -15q2 -2 10 -6t11 -5q2 0 7 -0.5t12 -0.5 q6 0 12 0.5t9 0.5q2 0 11 7l20 16l20 16q9 7 11 7h21q1 0 2.5 -2t2.5 -3q2 -2 8.5 -10.5t7.5 -10.5l12 -15q8 -9 9 -11q2 -2 6 -5.5t8 -7.5l8 -7l4 -5l11 -5q8 -4 10 -6q1 0 3 -2.5t3 -2.5q1 -1 11 -1q11 0 13 3.5t7 8.5q2 1 10.5 2.5t10.5 2.5q2 0 5.5 2t5.5 3l11 7l18 10 l17 11q9 5 12 7h5l16 -261q0 -1 1.5 -4.5t3.5 -5.5q1 -2 5 -5.5t5 -5.5zM198 56q-13 16 -16 31q-1 1 -1 8q0 6 1 8l5 10q5 12 5 11q1 1 1 10q0 10 -1 11q0 2 -5 10.5t-5 10.5t1.5 8t3.5 8q1 2 5 6l10 10q5 5 10 9t7 6q1 1 7 3t8 3q5 1 17 2.5t15 2.5h21q1 0 5 -2l6 -3 q0 -1 2 -3l3 -3q1 -2 3 -5.5t2 -4.5q1 -1 1 -13t-1 -13q0 -2 -2 -10l-3 -11l-3 -9q-2 -6 -2 -7l-16 -32l-12 -21q-8 -14 -9 -15q-4 -5 -14 -15t-13 -12q-1 -1 -12 -1q-12 0 -14 1q-1 1 -4.5 5t-5.5 6z" />
<glyph unicode="r" horiz-adv-x="492" d="M405 11q1 0 8 -1.5t15 -4t15 -4t9 -1.5h18h19q22 -2 42 9.5t35 26.5t24 28l10 13q4 7 4.5 16t-3.5 17t-13 13.5t-23 4.5q-11 -5 -22 -15.5t-22.5 -20t-24 -16.5t-25.5 -5q0 -2 6 0t1 2q-9 0 -10 1q-2 0 -6 2t-5 3q-1 0 -7.5 2t-8.5 3q-1 1 -4.5 5t-5.5 6q-1 1 -3 4.5 t-2 5.5q-1 2 -3 8t-3 8q-1 3 -2.5 9t-3 13t-3 12.5t-1.5 7.5q0 1 -1 5.5t-1.5 10t-1.5 10t-1 5.5l-3 13q-2 8 -3.5 16t-3 15t-1.5 9q-1 2 -2.5 8t-2.5 8q-2 3 -5.5 11t-5.5 10t-8 10t-8 11l-8 8q-6 6 -7 8q-3 2 -11 6t-10 4q-3 0 -10 1t-15 1.5t-16 1.5t-12 1 q-6 0 -21.5 0.5t-33.5 0.5t-33.5 -0.5t-21.5 -0.5q-2 2 -8 3.5t-8 2.5h-32l-6 -4q-6 -5 -9 -7q-1 -1 -3 -2.5t-3 -2.5l-3 -6q-2 -4 -2 -5v-31q0 -5 -1 -12.5t-1.5 -15.5t-1.5 -15t-1 -10q0 -1 -2.5 -5t-2.5 -5q-3 -3 -6.5 -14t-6.5 -24t-7 -25.5t-9 -18.5q-5 -8 -15 -19 l-21 -24q-11 -12 -19 -24t-8 -21q1 -2 2 -8t3 -8q0 -1 2 -3l1 -2q3 -2 11 -6.5t10 -5.5t14 -1q11 0 12 1l21 20q3 2 9 10.5t8 10.5q1 1 4 5t7 8t7 8t4 5l9 12q6 8 7 9q13 30 24 67.5t26 68.5q2 4 8 10t8 6h110q1 0 5 -6t6 -10q6 -12 9.5 -21t5.5 -21q1 -6 4 -21l7 -33l6 -34 q3 -16 4 -23q1 0 0.5 -2t-0.5 -3q5 -13 13 -24l14 -23l3 -6q2 -4 2 -5v-5q2 -2 5.5 -6t5.5 -4q1 -1 10 -0.5t11 0.5z" />
<glyph unicode="s" horiz-adv-x="313" d="M182 2q-1 0 -5 1t-8.5 1.5t-8 1.5t-4.5 1q-2 0 -3.5 2t-2.5 3v16q1 1 7 8.5t9 12.5l5 5q2 1 8 3t8 2q3 0 10.5 1t16 2t16 2t10.5 1q1 0 3 1.5t2 3.5q1 3 1 14t-1 12q0 1 -2.5 5.5t-5.5 10.5t-6.5 12t-6.5 9q-5 4 -12 16.5t-9 14.5t-5.5 6t-5.5 5q-1 1 -5 1t-5 -1 q-2 -1 -5.5 -5t-5.5 -6v-18q-2 -7 -14 -21t-30.5 -31.5t-41 -35.5t-46.5 -32t-47.5 -21.5t-42.5 -4.5q-2 0 -6.5 6.5t-5.5 7.5l-3 3q-2 2 -2 3v15q0 10 15 19.5t37.5 22.5t48 31.5t47.5 46.5l18 30q2 2 5.5 12t4.5 15q1 2 2.5 7.5t3 12.5t3 13t2.5 9v10q2 8 5 16t5 10 t10.5 8t10.5 8q2 1 8 3t8 2q1 1 3 1t2 -1q3 -1 9 -2.5t7 -2.5q2 -1 8 -7t8 -9q1 -1 5 -7.5t5 -7.5q2 -2 11 -12l15 -19l6 -6q1 -1 3 -5t5 -8.5t5 -8.5q2 -3 5 -6t8 -12q4 -4 7 -8t4 -5t4.5 -7t5.5 -8q2 -4 8 -14t8 -13q1 -2 3 -5.5t2 -4.5q1 -5 4 -14l7 -19l6 -19l4 -11 q0 -1 1 -5t1.5 -8.5t1.5 -8t1 -4.5q3 -27 -18 -38t-49.5 -13t-55 2t-34.5 7z" />
<glyph unicode="t" horiz-adv-x="321" d="M-80 5q69 -6 121 22.5t87 82.5q1 1 6 10.5t7 15.5q5 11 13 11q2 0 5.5 -2t5.5 -3q1 -1 2.5 -7.5t2.5 -8.5q8 -45 30 -72.5t50.5 -40.5t58.5 -13q31 0 56.5 9.5t42 27t16.5 40.5q0 3 -4 6t-8.5 5.5t-8 5.5t-3.5 6q-37 -24 -65 -27.5t-49 7t-35 32t-22.5 48t-12.5 55.5 t-4 53q0 2 -2.5 10.5t-2.5 10.5q-1 1 -1 5t1 5q0 2 2 10t3 11q0 2 2.5 8.5t2.5 7.5q2 5 3.5 14.5t1.5 11.5q0 3 0.5 9t0.5 12q0 7 -0.5 13t-0.5 8l6 6q4 0 16 1t25.5 1.5t25.5 1.5t17 1q4 0 18 2t18 3l9 3q6 2 7 2q2 2 6 5.5t5 5.5t1 16q1 16 -3.5 18.5t-8.5 7.5q-3 0 -11 1 t-17.5 1.5t-18 1.5t-11.5 1h-5q-2 0 -10.5 -2.5t-10.5 -2.5h-26q-2 0 -8 2t-8 3q0 3 -1 11.5t-1.5 17.5t-1.5 17.5t-1 11.5q0 1 -1 5.5t-1.5 10t-1.5 10t-1 6.5q0 1 -1 7l-2 11l-2 12q-1 5 -1 6q-1 4 -4 13l-7 19l-6 19l-4 12q0 1 -2 3l-3 3q-2 1 -5.5 3t-4.5 2h-32 q-2 0 -8 -2t-8 -3q-1 -1 -4.5 -5t-5.5 -6q-3 -3 -5 -10.5t-6 -15.5q0 -11 -1 -39.5t-1.5 -60.5t-1.5 -60.5t-1 -39.5q0 -1 1 -8t1.5 -16.5t1.5 -18.5t1 -15q0 -1 1 -6l2 -12l2 -11q1 -6 1 -7v-53q0 -32 -16.5 -67.5t-42 -66.5t-57 -53t-61.5 -26q-46 -35 -26 -76z" />
<glyph unicode="u" horiz-adv-x="530" d="M369 63l46 -44q7 -14 26 -18.5t37 -5t30 1t7 -0.5q3 1 10.5 5t15 9.5t13 11t4.5 8.5q6 2 12 11.5t6 19.5t-9 17t-34 4h-10q-8 0 -12 -2q-2 0 -12.5 -4.5t-12.5 -3.5q-1 0 -12 3t-23.5 10.5t-21.5 21t-6 34.5q-3 31 -3.5 53t0.5 42.5t3 43.5t4 56q-1 2 -5 8t-5 8 q-2 2 -6 6.5t-5 4.5h-53l-2 -2q-2 -2 -3 -4q-2 -2 -6 -8t-4 -7q-2 -2 -4.5 -10.5t-1.5 -10.5q4 -27 -3.5 -66.5t-22.5 -77t-35 -66t-41 -32.5q-3 -1 -10.5 -5.5t-10.5 -5.5h-16l-3 3q-1 1 -2 3q-1 1 -3 4.5t-2 5.5q-2 3 -5.5 15t-5.5 17q-1 3 -3 11t-2 10l-3 20 q-2 13 -3.5 26.5t-3 24t-1.5 13.5q0 6 -0.5 20t-0.5 30t0.5 30t0.5 20q0 2 -2 7.5t-3 7.5q0 1 -2 3l-3 3q-2 2 -10.5 5.5t-10.5 4.5h-5q-7 -1 -19 -3t-13 -2l-16 -16q0 -4 -1 -13.5t-1.5 -20.5t-1.5 -20.5t-1 -13.5q0 -1 -0.5 -6.5t0.5 -23t4.5 -49.5t12.5 -86q2 -4 6 -16.5 t6 -17.5q0 -1 2 -7l3 -12q2 -7 4 -12.5t3 -6.5q0 -8 3 -11q6 -20 26 -26t44 -5t48 6.5t38 9.5q3 3 15 16l25 28l26 29q12 13 15 16q1 1 5 1q5 0 6 -1q2 -2 4.5 -10t5.5 -16z" />
<glyph unicode="v" horiz-adv-x="548" d="M-7 49q-2 7 2 11q1 3 4 9l6 10q3 5 6 9t5 3l52 80q2 2 9 8.5t9 8.5q0 2 5.5 12t7.5 12q5 5 11 17t10 14q4 0 9 7t13 12q9 8 15 11t1 1l52 18l10 -10q8 -9 10 -12t8 -13.5t7 -14.5l43 -111q8 -7 12 -14t8 -4q3 -3 10 4t13 12q0 1 4.5 9t6.5 11q1 2 10 17l20 32l20 32l9 14 q3 50 13 72t22.5 26t26.5 -5t25.5 -21t19.5 -23l7 -11q1 -2 8 -9l16 -15l17 -15q7 -7 9 -8q1 0 2 -1.5t2 -1.5q2 -1 10 -4l15 -8l15 -7l8 -4q2 -2 8 -6l13 -8q6 -4 11.5 -7t7.5 -4q2 -2 7 -6l10 -8q5 -4 10 -7.5t7 -4.5q1 -2 2.5 -8t0.5 -8q-1 0 -3.5 -5.5t-4.5 -8.5 q-2 -2 -6.5 -5.5t-6.5 -2.5q-3 -2 -11 -4.5t-10 -2.5q-16 0 -41 8.5t-50.5 21t-47.5 26.5t-32 25q-2 1 -6.5 1.5t-6.5 -1.5q-3 -2 -10 -10.5t-14 -18t-12.5 -18t-6.5 -11.5q-5 -13 -16 -29.5t-26 -33t-32 -29.5t-33.5 -19t-32 -2.5t-26.5 20.5q-19 11 -32 29.5t-21 38 t-11.5 35.5t-3.5 21q0 2 -7 6t-14 4q-5 0 -6 -3l-27 -45l-20 -31l-15 -23q-6 -9 -11 -19q-1 -2 -8 -8l-17 -13q-9 -7 -16.5 -11.5t-8.5 -3.5q-2 -1 -6.5 -2t-11.5 -2q-8 0 -9.5 -0.5t-6.5 3.5q-4 2 -7 5q-1 4 -3.5 12.5t-3.5 12.5z" />
<glyph unicode="w" horiz-adv-x="963" d="M588 11q-23 -3 -33 -3q-9 0 -14.5 2t-11 6.5t-12.5 11.5l-18 19l-11 18q-8 14 -10 19l-16 -16q-3 -3 -8 -7l-10 -8l-9 -8l-4 -3q-14 -14 -27.5 -18.5t-27.5 -2.5t-28 8t-28 13q-2 1 -5.5 2.5t-4.5 2.5q-2 2 -10.5 10t-10.5 11q-20 25 -30 55t-18 61q0 1 -2 5l-3 6 q-1 1 -2.5 7t-2.5 8q0 1 -1.5 7t-4 12t-4 11.5t-1.5 6.5l-3 9q-2 6 -2 7q-1 1 -2.5 3t-2.5 2q-1 1 -8 1t-8 -1q-1 0 -5 -4t-5 -6l-7 -11l-10 -15l-9 -14q-5 -6 -6 -8q-1 -1 -3 -7.5t-2 -7.5q-1 -3 -5 -13l-9 -22l-8 -21q-4 -10 -5 -13q0 -5 -3 -11.5t-6 -15.5l-10 -27 q-5 -16 -7 -19q0 -2 -0.5 -8t0.5 -8q-14 -14 -24 -23t-18 -10t-15.5 6.5t-15.5 26.5q0 2 2.5 15.5t2.5 15.5q0 1 1.5 6t3.5 10l3 10q2 5 2 6q1 2 3 10.5t3 10.5q2 6 5 16l6 20q3 10 6 18t4 9q3 7 11 23l17 35l18 35l11 23q1 2 5 6l9 10l8 9q3 4 5 6q2 3 8 9l7 7q2 1 8 3t8 2 q1 1 5 1q5 0 6 -1q5 -1 17 -2.5t14 -2.5l14 -7q13 -6 18 -9l5 -5q2 -2 8 -10t8 -11q2 -2 6 -8t4 -8q13 -20 19.5 -40.5t11 -41.5t10 -41.5t17.5 -39.5q2 -2 6 -8.5t5 -7.5t4.5 -2.5t5.5 -2.5h11q1 0 4.5 2t5.5 3l12 9q8 6 9 7q2 1 5.5 7.5t5.5 8.5q2 3 5 9l7 14 q4 7 6.5 12.5t2.5 6.5l4 12l6 20q4 11 7 21t4 15q0 3 2.5 16t2.5 16q1 2 3 10.5t2 10.5q0 1 1 5t2 8.5t2 8t1 4.5q1 2 7 8t9 8q1 1 5 3t5 2q3 0 9 0.5t12 0.5t10.5 -0.5t5.5 -0.5t9 -8t12 -13l5 -10q2 -3 3.5 -9t1.5 -7q0 -4 -4 -16t-6 -16v-142q0 -2 2 -10.5t3 -10.5 q3 -5 13.5 -14.5t12.5 -11.5q1 0 6 -0.5t11 -0.5t11.5 0.5t8.5 0.5q1 0 5 2l6 3q0 1 2 3l3 3q7 3 19 14l24 25l24 27l19 23q1 1 4 6.5l6 11.5l6 12q2 6 2 7q1 0 3 4t2 6q2 2 2 7q0 7 -1 8q0 2 -1.5 8.5t-2.5 7.5v5l4 11q2 8 2 10q1 2 3.5 6t3.5 5q2 3 8 8.5t7 6.5h9h18 q22 0 30 -2q3 0 8 -1.5t11 -3.5t11 -4t7 -3q18 -12 34.5 -19.5t34.5 -13t38 -10.5t45 -12q3 -1 7.5 -4t9 -6.5t8 -6.5t3.5 -5q1 -2 3 -7.5t3 -12.5l2 -12q1 -6 1 -7q1 -2 -1.5 -7.5t-6.5 -7.5q-1 1 -6 -1.5t-9 -3.5q-2 1 -8.5 0.5t-8.5 -1.5t-13 1.5t-16 2.5q-6 2 -18 4 t-13 2q-3 1 -11 6l-19 11l-19 11q-9 5 -12 5q-1 2 -10 3.5t-11 2.5q-5 4 -12 3.5t-14 0.5q-1 0 -5 -2t-5 -3q-2 -1 -6 -4.5t-6 -5.5q-3 -4 -8 -18t-11 -15q-9 -17 -18 -30.5t-18.5 -25.5t-21.5 -23.5t-27 -24.5q-18 -16 -35 -29.5t-32 -23.5q-2 -2 -6 -3.5t-5 -2.5l-12 -3 q-8 -2 -9 -2q-2 0 -7.5 1.5t-11.5 4t-11.5 4t-6.5 1.5z" />
<glyph unicode="x" horiz-adv-x="608" d="M379 37l13 -8q10 -7 14 -9q2 -2 9 -4q7 -4 7 -2q5 -2 16.5 -4.5t13.5 -1.5q2 -1 12.5 -1.5t15.5 -0.5q6 1 19 1.5t17 0.5q2 2 9 2.5t9 1.5t10 4t11 5q4 3 12 7l16 8l15 7q6 3 6 5q4 1 7 5t4 6q2 2 2 8q0 7 -1 10q1 1 -0.5 3t-2.5 2q-1 1 -2 1.5t-2 1.5q-4 3 -5 2 q-3 0 -11.5 -0.5t-18.5 -1.5t-18 -1.5t-11 -1.5q-2 0 -13 -5t-15 -6q-4 -2 -17 -3t-18 0q-2 1 -9 2.5t-15 3.5l-16 4q-7 2 -10 4q-2 1 -8 5.5t-10 6.5q-2 2 -4.5 5t-3.5 5q-1 4 -5 10t-4 8l-21 52q0 4 -0.5 10.5t-0.5 12.5q0 7 0.5 12.5t0.5 6.5t2 6l6 12l7 14l6 10q1 2 5 8 t6 8q2 5 5 5q1 1 12 1q13 0 14 -1q2 0 8 -2t8 -3q3 -2 11 -8t10 -8q1 0 4.5 -6t5.5 -9q1 -1 3 -5.5t3 -5.5l11 -13q6 -6 9 -4q5 0 6 1q7 7 13 12t4 16q0 12 -1 14q-2 8 -5 15.5t-6 11.5q-1 2 -4.5 5.5t-5.5 4.5q-1 1 -5 4t-9.5 6t-10.5 6l-7 5q-2 2 -5.5 3.5t-4.5 2.5 q-2 0 -8 1t-12.5 1.5t-12.5 1.5t-9 1h-21q-2 0 -8 -2t-8 -3l-32 -16q-4 -3 -14 -13t-12 -14q-1 -1 -4 -7l-7 -13l-6 -14q-3 -7 -4 -8l-5 -5q-1 0 -5 2l-6 3q-2 2 -10.5 8.5t-10.5 7.5t-14.5 3t-17.5 2q-3 0 -8.5 0.5t-11.5 0.5t-10.5 -0.5t-5.5 -0.5q-3 0 -8.5 -2 t-11.5 -4.5t-11 -5t-6 -3.5q-2 -1 -9 -7l-15 -15l-17 -17q-8 -9 -12 -14q-2 -2 -8 -10.5t-8 -10.5l-10 -10l-15 -16q-5 -4 -8.5 -10t-8.5 -11q-2 -2 -7.5 -8t-7.5 -8q-14 -7 -22 -12t-13 -11t-8.5 -15t-7.5 -25q-1 -1 -1 -6q0 -4 1 -5q1 -2 4 -6t5 -4q1 -1 15 -1t16 1 q1 0 6 2l11 5l12 5q5 2 8 4q2 1 7 4t10 7l9 6q4 3 5 4q1 0 9 10l13 16q1 2 7.5 10.5t7.5 10.5l42 42q8 7 11 10t11 9q7 7 10 7q6 2 11 2q8 0 10 -2l6 -7q6 -7 8 -12q11 -29 5.5 -47.5t-14.5 -38.5q0 -1 -2 -3t-3 -2q-2 -1 -8 -3t-8 -2q-2 -1 -13 -3t-13 -3q-2 0 -6 -2t-5 -3 t-6 -11q-3 -8 -4 -10t-1 -11t1 -10q0 -1 4 -4t6 -5q2 -1 5.5 -2.5t5.5 -2.5q4 -1 14 -3t12 -2q3 0 11.5 -0.5t17.5 -0.5t17.5 0.5t11.5 0.5q2 1 8 4.5t8 5.5t9 13.5t12 16.5q1 1 3 7.5t2 8.5q4 13 11 16q0 -1 -1 9t-2.5 22.5t-2.5 22.5t-1 9q1 -3 4 -11t6.5 -16.5t6.5 -15 t5 -7.5q-2 -1 5 -6.5t9 -10.5q2 0 7 -4t7 -6q1 0 3.5 -4t3.5 -4z" />
<glyph unicode="y" horiz-adv-x="582" d="M359 -433q4 0 11.5 6t14.5 10l32 32q1 0 3 4.5t2 5.5l5 5q12 12 18 32l9 37q1 4 2.5 14t2.5 12v5l26 169q2 3 10.5 13t10.5 13l16 16q12 12 20 19t17 12l20 11l33 19q3 3 8 7l10 8l9 7l4 4l15 14q9 9 11 13q1 1 5 7t6 8q1 1 3 5.5t2 5.5q1 1 5.5 7.5t5.5 8.5v21q0 2 -6 5 l-10 5q-1 1 -8 1t-8 -1q-2 0 -7 -3l-11 -6l-13 -7l-11 -5q-1 0 -7 -4l-9 -6q-1 -1 -6 -5l-12 -9l-12 -8q-6 -4 -7 -5l-8 -6q-5 -3 -9.5 -6.5t-8.5 -6t-5 -2.5q-3 -2 -10.5 -6l-15.5 -8l-16 -8q-8 -3 -11 -4q-2 3 -5 13l-5 13q-1 1 -1 10q0 10 1.5 24.5t4 29.5t5.5 28.5 t6 23.5q1 3 3 10t3.5 14.5t2.5 14t1 8.5v16q0 2 -2 8t-3 8l-21 21q-1 1 -5 3t-6 2h-5l-15 -3l-11 -2q-2 -1 -8 -7.5t-8 -8.5q-1 -2 -3 -10.5t-2 -10.5q-1 -1 -3 -7.5t-3 -8.5q1 -1 -2 -13t-3 -18q0 -2 -1 -7.5t-1.5 -11.5t-1.5 -11.5t-1 -6.5l-13 -39q-5 -15 -19 -35 q-2 -2 -5.5 -8t-4.5 -7q-1 -2 -3 -3.5t-2 -2.5q-15 -6 -21 -2.5t-14 18.5t-14 31l-14 34q-7 17 -15.5 33t-19.5 28l-16 16l-6 3q-4 2 -5 2l-40 12q-2 1 -6 0t-6 -1q-22 -8 -45 -23t-44.5 -34t-40 -39t-31.5 -38q-1 0 -5 -3.5t-8 -8t-8 -9.5t-5 -8v-5q-1 -4 -1 -10 q0 -5 1 -10v-5q0 -1 3 6t4 6q1 -5 1 -10v-9v-13q0 -9 7 -10q11 0 27 9t31.5 22t28 26.5t16.5 21.5q2 0 8.5 4t8.5 6q4 7 11.5 15.5t15.5 16t16 12.5t14 5q1 0 5 0.5t5 -0.5q1 0 3 -2l3 -3q13 -18 17 -30t14 -28q6 -17 21 -42.5t35 -45.5t43.5 -28.5t46.5 8.5q2 2 10.5 8 t10.5 8l5 -5v-11l-5 -47q-15 -18 -36 -38l-42 -43q-22 -22 -43 -46.5t-37 -51.5l-14 -23l-13 -19q-1 -2 -2.5 -5.5t-2.5 -5.5q-4 -14 -2.5 -27.5t7.5 -30.5q1 -11 12 -23.5t31 -23.5q-1 -5 12.5 -10.5t30.5 -9.5t32 -4.5t17 4.5q5 1 9 2t9 2zM296 -364q-2 2 -3.5 5.5 t-1.5 4.5q-1 2 -1 16t1 16q0 2 2 8t3 8q1 1 4 5.5t6 9.5t6 9.5t5 6.5l11 14q8 10 10 12l53 53q1 -2 2.5 -10.5t2.5 -10.5v-11q-1 -2 -5 -16l-6 -20q0 -2 -2 -8.5t-3 -7.5q-1 -2 -3 -10.5t-2 -10.5q-1 -2 -3 -8t-2 -8q-2 -3 -6 -11l-5 -10l-1 -2l-3 -4q-5 -5 -10 -11.5 t-7 -8.5q-1 -2 -5 -3.5t-6 -2.5h-26l-2 2q-2 2 -3 4z" />
<glyph unicode="z" horiz-adv-x="557" d="M219 -339l15 -3q10 -2 12 -2q3 0 11 -0.5t17 -0.5t17.5 0.5t11.5 0.5q2 0 14.5 2t17.5 3q12 2 27 7.5t25 13.5q2 2 8.5 6.5t12.5 9.5q5 4 9 8t11 12q8 8 10.5 10t4.5 7q4 5 9.5 14t8.5 12q12 35 19 60.5t8.5 47.5t-3 44.5t-14.5 52.5q0 1 -2.5 5.5t-5 10t-5 10t-2.5 5.5 q-3 3 0 4l21 21q1 1 2.5 10t2.5 11q1 6 5 10l26 26q1 1 4 6l6 11l7 12q3 5 4 8q1 2 3 8t3 8v5q-1 2 -3 5.5t-3 5.5q-2 2 -5.5 6t-4.5 4q-1 1 -8 1t-8 -1q-2 0 -8 -4.5t-8 -5.5t-10.5 -5t-10.5 -6l-21 -21q-2 -2 -8.5 -9t-13 -15t-12.5 -14.5t-8 -8.5q-1 -1 -2.5 -3t-2.5 -2 q-2 -2 -5.5 -3.5t-4.5 -2.5h-37q-3 1 -15 2.5t-17 3.5q-1 0 -7.5 2.5t-7.5 2.5t-5.5 -0.5t-5.5 0.5q-2 1 -5.5 4.5t-4.5 5.5t-3 10t-3 11l-18 85q-8 39 -24 78q0 1 -2.5 5.5t-5 10t-5 10t-2.5 6.5q-1 1 -3 7.5t-5 15t-5 15.5t-3 9l-8 16l-8 16q-2 2 -5.5 6t-4.5 4h-53 l-10 -10q0 -4 -1 -14l-2 -20l-2 -21q-1 -10 -1 -14q0 -23 -10.5 -54.5t-26.5 -63t-35.5 -59t-37.5 -42.5q0 -3 -2.5 -8t-1.5 -7q-8 -29 -3.5 -39.5t14.5 -11t22 5t20 9.5l19 14q5 5 13 19l18 30l16 30l11 20l5 10l8 16l8 17q4 7 5 9q2 3 8 13.5t8 13.5l11 -11q1 -1 2.5 -5 t2.5 -5q0 -5 3 -15.5t5 -19.5q2 -10 5 -22l3 -12v-31q-3 -10 -4.5 -17t-6.5 -8q-5 -3 -12 -6.5t-9 -5.5q-4 -2 -11.5 -8t-9.5 -8q-1 -1 -3 -4.5t-2 -5.5q-4 -8 3 -19l13 -18q0 -1 4 -2.5t6 -2.5q6 -1 18 -5t14 -4q1 0 6.5 1t11.5 1.5t11.5 1.5t6.5 1q1 1 11 1q9 0 10 -1 q6 0 20 -2.5t17 -2.5q12 0 12 -10q0 -5 -1 -6l-38 -39q-20 -21 -39 -43.5t-34.5 -45.5t-25.5 -45q-9 -12 -11 -25.5t-0.5 -27.5t4 -26t2.5 -21q0 -1 4 -7t6 -8l6 -6l11 -9q8 -6 10 -6q1 -1 7 -3t8 -3zM246 -270q-2 2 -2 15q0 5 0.5 10.5t1.5 10.5q5 20 14 34l22 33 q8 11 20 26l27 29l28 29l25 23q2 0 4.5 -2t6.5 -4q13 -9 21.5 -24t7.5 -36.5t-13.5 -50.5t-42.5 -67q0 -1 -2 -3t-3 -2q-1 -2 -7.5 -6t-8.5 -5t-10.5 -7.5t-10.5 -8.5q-2 -1 -7.5 -3t-7.5 -2q-6 0 -14.5 -0.5t-17.5 -0.5q-8 0 -15 1h-6z" />
<glyph unicode="~" horiz-adv-x="594" d="M399 11q2 -1 9 -2.5t14.5 -3.5t14 -3.5t9.5 -1.5h16q4 0 14.5 1.5t22 3.5t22 3.5t14.5 2.5q2 2 8 7l11 10q6 6 11 11.5t7 7.5q1 1 2.5 5t2.5 6q2 2 3.5 8t2.5 8v10q-2 3 -8 11t-8 10q-4 4 -14 10t-12 6t-12 -4t-15 -7q-1 0 -4.5 -2.5t-8 -5t-8.5 -5t-5 -2.5q-2 -2 -6 -4 l-4 -2h-37l-21 3q-14 2 -16 3q-2 0 -6 4l-10 8l-9 9q-5 4 -6 5q-2 1 -8.5 5t-7.5 5q-2 1 -7 7t-11 12l-12 11l-7 7q-3 3 -10.5 7.5t-15 10t-13.5 9.5t-8 5q-1 0 -7 1.5t-13 2.5l-16 3l-12 3q-3 1 -9 1.5t-12.5 1.5t-12.5 1.5t-8 0.5q-3 0 -12 0.5t-19 0.5t-19 -0.5t-13 -0.5 q-3 0 -9.5 -0.5t-14 -1.5t-14 -2t-9.5 -1q-1 0 -4.5 -2t-5.5 -3q-1 0 -3 -2.5t-3 -2.5q-1 -1 -5.5 -3t-10 -5t-10 -5t-5.5 -3q-3 -2 -9 -8t-7 -8q-2 -4 -2 -16t2 -15q1 -2 7 -8t9 -8q1 -1 9 -3t12 -2q2 -1 5 -1q4 0 5 1q1 0 6.5 2.5t12 5t11.5 5t7 2.5q3 1 8 3t11 3.5t11 3 t7 1.5h21q4 0 13 -1l18 -2q9 -1 17 -1.5t10 -0.5q1 -1 7 -2.5t8 -3.5q2 0 5.5 -2t5.5 -3q2 -2 8 -5.5t8 -4.5q2 -2 6.5 -5.5t9.5 -8t9 -8.5t6 -5l21 -21q14 -12 28 -22t30 -20q1 0 5 -2l6 -3l15 -6q9 -4 11 -4z" />
<glyph unicode="&#xa0;" />
<glyph unicode="&#xa3;" horiz-adv-x="810" d="M636 5l15 -3q9 -2 11 -2q5 0 21 2t21 3q3 1 11 5t10 6t6 8t5 8v15q-1 3 -3 11t-3 10q-2 5 -5.5 13t-4.5 8q-2 2 -10 2t-11 -2q-1 0 -3 -4.5t-2 -5.5q-1 -1 -5 -3t-6 -2q-1 -1 -5 -1t-5 1q-2 0 -8 2t-8 3l-11 5l-10 5q-2 2 -8 3.5t-8 2.5q-2 0 -8 -0.5t-8 0.5q-2 0 -8 2 t-8 3l-12 12q-10 9 -14 14q-1 2 -5 8t-5 8q-1 1 -3 6t-5 10t-5 10t-3 6q-1 0 -7 4l-9 6q-2 1 -5.5 3t-4.5 2q-3 2 -9 3.5t-7 2.5q-3 0 -12 1t-19.5 1.5t-19.5 1.5t-12 1h-84q-2 2 -6 12.5t-5 13.5q0 1 -0.5 7.5t-1.5 14.5t-2 17t-1 14v10q0 1 2 3t3 2q2 2 10.5 6t10.5 5 q1 0 6 1.5t10 3.5t10 3.5t6 1.5l10 5q8 4 11 6t13.5 8t12.5 8q1 1 3 2.5t2 2.5q2 2 3.5 8t1.5 8t-1.5 8t-3.5 8q-1 1 -4.5 3t-5.5 2h-121q-1 0 -3 2l-3 3q-1 2 -3 8t-2 8v31q0 2 1.5 9t3 15.5t3.5 16.5l3 12q0 2 2 8t3 8t5 8t5 8l8 8q6 6 8 7q2 2 10 6l11 5h16q1 0 5.5 -2 t10 -3.5t10 -3.5t6.5 -2t9.5 -1.5t16.5 -3.5t16.5 -3.5t9.5 -1.5q3 -1 11 -5t10 -6t10 -9.5t11 -11.5q2 -2 6.5 -8t4.5 -7v-58q0 -3 6 -9t10 -7q1 0 5.5 -0.5t10.5 -0.5t11.5 0.5t8.5 0.5q2 0 5.5 2t5.5 3q2 2 6 5.5t4 5.5q2 3 6 15t5 16q1 2 1 10q0 9 -1 11q-1 4 -5 16 t-6 16q-1 2 -4.5 8t-5.5 8l-26 26q-2 1 -8 5t-8 5q-6 3 -16 9l-20 10l-18 9q-8 4 -9 4q-3 1 -13 3t-21.5 5t-21.5 5t-13 3q-1 0 -5 2.5t-5 2.5q-2 0 -8 1l-13 2q-6 1 -12 1.5t-9 0.5q-4 1 -14 1t-13 -1q-2 0 -7.5 -2t-7.5 -3t-8 -5t-8 -6q-2 -1 -8 -7l-8 -8 q-5 -5 -14.5 -17.5t-11.5 -14.5t-5.5 -10t-5.5 -11l-4 -10l-5 -14l-4 -14q-2 -7 -2 -9q-1 -1 -2.5 -13t-3.5 -19q-3 -19 -5.5 -39.5t-4.5 -39.5l-5 -5q-5 1 -19 1t-18 -1q-1 0 -6 -1t-10 -1.5t-10 -1.5t-6 -1h-26q-1 0 -2.5 -2t-2.5 -3q-1 -2 -3 -5.5t-3 -5.5v-5q1 -2 3 -8 t3 -8q0 -1 2 -2.5t3 -2.5q2 -2 8 -6t8 -5q1 0 9 -2l12 -3q5 -1 17 -3t14 -2q3 0 10.5 -0.5t15.5 -0.5q9 0 16.5 0.5t10.5 0.5q1 -3 2 -9l3 -12l3 -13q2 -6 2 -8q2 -5 3.5 -17.5t2.5 -14.5v-52q0 -1 -2 -5t-4 -6q0 -1 -2 -2.5t-3 -2.5q-2 -2 -8 -6t-8 -5q-3 -2 -11 -6t-10 -4 q-1 0 -6 -1t-11 -2l-12 -2q-5 -1 -8 -1q-5 0 -17.5 -1t-26.5 -1.5t-27 -1.5t-18 -1q-2 -1 -10.5 -4.5t-10.5 -5.5q-1 -1 -3 -5t-2 -6q-1 -5 -1 -15q0 -9 1 -11t8.5 -10t12.5 -11q1 -1 5 -3t5 -2q2 0 10 -1t17 -2t16.5 -2t9.5 -1q1 0 7 -2l9 -3q1 0 5 -2.5t5 -2.5 q3 -2 9 -3.5t7 -1.5q2 -1 10 -1q9 0 11 1q1 0 5 1.5t6 3.5q2 1 10.5 7.5t10.5 8.5q1 0 7.5 2t7.5 3l11 6q8 4 10 4q2 1 10.5 3t10.5 3q2 0 8.5 4.5t7.5 5.5q2 2 10.5 5.5t10.5 5.5q24 7 40 9.5t30 3.5l28 2q14 1 34 6q11 -4 15 -11q1 -1 4 -5l7 -10l7 -10q3 -5 4 -6 q1 -2 9 -10.5t12 -10.5q1 -2 4.5 -5t8.5 -6l8 -6q3 -3 5 -4q1 -1 4.5 -3t5.5 -3q3 -1 13 -5t14 -5q3 -2 9 -4l6 -1h6h10h10h6q2 -1 8 -3t8 -3z" />
<glyph unicode="&#xa7;" horiz-adv-x="1301" d="M137 722h1021v-666h-1021v666zM202 277l17 -14h23l18 14v57l-10 24h-31l-17 -14v-67zM278 277l18 -14h22l18 14v34l-12 19h-23v14l29 5v9h-44l-10 -42h42v-39h-17l-12 10h-11v-10zM409 263h26l17 14v29l-10 19h-29v9l8 15l21 -9h13l-11 18h-26l-24 -18v-53zM890 277 l6 -14h12l6 14l6 6v9l-6 4l-6 62h-12l-40 -56v-19zM973 277l17 -14h22l19 14v57l-10 24h-31l-17 -14v-67zM1049 277l17 -14h23l17 14v57l-9 24h-31l-17 -14v-67zM219 277v67h23v-67h-23zM413 277v34h22v-34h-22zM990 277v67h22v-67h-22zM1066 277v67h23v-67h-23zM890 325 v-29h-17zM339 454l19 -8h35l29 24v48l-29 24h-41l-28 -24v-39zM345 465l-10 14v34l23 19h30l23 -19v-38l-23 -19h-24zM352 479l12 -9h18l11 9l-5 6l-12 -6h-12v25l8 6l21 -9v7l-11 10h-18l-12 -10v-29zM559 474l1 -63h16v94h-11l-6 -8l-24 -20v-9zM612 418l17 -7h17l24 18 v52l-1 24h-54l-3 -14v-29l11 -19h30v-9l-8 -14l-22 9h-11v-11zM687 418l17 -7h19l23 18v52l-1 24h-55l-3 -14v-29l12 -19h30v-9l-9 -14l-21 9h-12v-11zM763 425l17 -14h24l18 14v28l-13 9l7 6l11 16l-14 21h-42l-11 -19l10 -24l-7 -13v-24zM780 425v28h24v-28h-24zM629 458 v33h24v-33h-24zM704 458v33h25v-33h-25zM780 472v19h24v-19h-24zM366 198v-96h16v41h43v15h-41v28h47v12h-65zM455 198v-96h14v36l8 2q8 2 13 0l2 -1q2 -1 3 -2q1 -2 5 -7l7 -11l7 -10q4 -5 5 -7h18h16q1 0 3 2t4 3l6 10q1 2 3 3l2 2h18h17q1 0 6 -5l6 -10l3 -3q2 -2 3 -2h6 h5l-35 85q-1 3 -3 6.5t-2 4.5h-6h-6q0 -1 -3 -4l-4 -7q-1 -3 -6 -15l-11 -24l-10 -25q-5 -12 -7 -16h-5l-3 3q-3 4 -7 10l-8 10q-4 6 -6 10v3v3q1 0 9 6t8 7t0.5 4.5t0.5 5.5q0 3 -1 9v6q0 4 -5 9q-2 1 -6.5 3t-5.5 2h-4h-18h-8h-5h-18h-5zM653 198v-96h15v63q1 -3 7 -12 l11 -18l12 -17l7 -11q1 -1 3 -2.5t3 -2.5q2 0 6.5 -1t5.5 -1v98h-15v-61l-7 11l-12 17l-11 17l-7 11q-4 4 -7 5h-5h-6zM745 150q0 -4 1 -11t1 -9l4 -8q5 -8 7 -10q1 -1 3 -2.5t2 -2.5q2 -1 6.5 -3t6.5 -2h16h13q2 2 10.5 8.5t12.5 11.5v2v2q0 4 -6 4l-1 1h-2h-2v-1 q-2 0 -6 -4.5t-9 -6.5q-4 -4 -13 -4q-1 0 -4 0.5t-4 1.5q-4 2 -11 7t-7 6v39q0 2 7 7l11 8h8h10q1 0 9 -4.5t9 -5.5v-1h2h2l1 1q6 1 6 4q0 1 -2 4.5t-4 4.5q0 2 -2 4t-3 2l-6 3q-4 2 -6 2h-16h-13q-2 0 -6.5 -2t-6.5 -3l-2 -2q-2 -2 -3 -4q-2 -2 -6 -10l-5 -8q0 -1 -1 -8 t-1 -11zM851 198v-96h70v13h-52v28h46v15h-46v28h52v12h-70zM576 146l13 28l11 -28v-3l1 -3h-25v6zM472 158v26h18h17q6 0 6 -6q0 -1 0.5 -3t0.5 -4t-1 -4v-2q0 -6 -6 -6q-4 0 -18 -0.5t-17 -0.5zM1129 698h-963v-618h963v618zM504 325l1 -63h17v94h-12l-6 -8l-24 -20v-9z M693 327l1 -64h17v95h-11l-7 -9l-24 -19v-9zM811 325l1 -63h17v94h-12l-6 -8l-24 -20v-9zM592 267l17 -7h18l24 18v53l-2 23h-53l-4 -13v-30l12 -18h29v-10l-8 -13l-21 8h-12v-11zM609 307v34h24v-34h-24zM263 663v-88h72q2 0 7.5 5t7.5 7v4q1 3 1 5t-0.5 6.5t-0.5 5.5t-4 6 t-4 6v5v10v9v7q-2 2 -7.5 7t-8.5 5h-63zM382 663v-88h71v15h-51v73h-20zM476 620v-12l1 -8q0 -2 3.5 -6.5t5.5 -6.5q0 -1 2.5 -3t3.5 -3q4 -2 9.5 -4t6.5 -2q2 0 9 -0.5t12 -0.5q3 0 11 1h8q2 0 8 2t8 4q1 1 4 3t5 3q2 2 4.5 6.5t2.5 6.5v20v18q0 2 -2.5 6.5t-4.5 6.5 q-2 1 -5 3t-4 3q-2 2 -8 4t-8 2h-19h-21q-1 0 -6.5 -2t-9.5 -4q-1 -1 -3.5 -3t-2.5 -3q-2 -2 -5.5 -6.5t-3.5 -6.5l-1 -7v-11zM604 663v-88h20v57q1 -3 6 -9l10 -14l11 -13q6 -7 8 -9q15 -15 32 -15v91h-19v-55q-2 1 -6 5l-9 9l-8 10q-4 4 -5 6q-2 2 -8.5 9.5t-7.5 9.5t-4 4 t-4 2h-8h-8zM723 663v-90h11q11 0 25 1t19 1q2 0 8 2t9 4q7 1 7 6q2 2 5 6.5t3 6.5v8q1 8 1 12t-1 11v7q0 2 -3 6.5t-5 6.5t-8 7t-7 5h-64zM842 663v-88h80v15h-56v21h47v18h-47v18h56v16h-80zM953 663v-88h71v15h-51v73h-20zM288 608h38v-15h-38v15zM501 620v12q1 2 7 6.5 t9 5.5q1 0 5 0.5t7 0.5q2 0 6.5 -0.5t6.5 -0.5q2 -1 8 -5.5t6 -6.5l1 -5q1 -5 1 -7t-1 -7l-1 -5q0 -2 -6 -7.5t-8 -7.5h-13h-12q-3 2 -9 7.5t-7 7.5v12zM747 644q1 1 7 1.5t8 0.5q4 0 9.5 -0.5t6.5 -1.5q2 0 4.5 -5t4.5 -7v-15v-17q0 -2 -3 -4t-6 -3q-4 0 -15.5 -1t-15.5 -1 v53zM288 644h31v-12h-31v12z" />
<glyph unicode="&#xaa;" horiz-adv-x="501" d="M245 5q2 1 13.5 5.5t13.5 5.5q2 0 10.5 2t10.5 3t5.5 5t4.5 6q1 1 3 10t3 11t4.5 8t5.5 7q2 2 5 2q4 0 6 -2q20 -11 37.5 -24.5t36.5 -23t40 -13t48 5.5q1 0 6 -1t6 -2q2 2 10 3.5t10 2.5q0 1 1 6t2.5 10t2.5 9.5t1 5.5q-1 2 -4.5 5t-3.5 4q-2 5 -7.5 15.5t-7.5 12.5 q-1 1 -5 0l-9 -4l-9 -4q-4 -1 -4 0l-35 -1l-8 5l-17 12l-17 12l-8 6q-10 6 -18 18.5t-12 24.5q-1 3 -3 11t-2 10v18v63v19q0 2 -1 10.5t-2.5 18.5t-3.5 19l-3 15q-1 1 -2.5 5t-3.5 5q-3 5 -11 13t-10 8q-8 2 -19 2q-10 0 -18 -2q-1 -1 -5 -6l-10 -10q-5 -7 -6 -10 q0 -1 -2 -6l-2 -10l-3.5 -10.5t-2.5 -5.5q-1 0 -13 -2t-19 -3h-10q-2 0 -10 -2t-11 -3l-32 -10q-14 -5 -26.5 -10.5t-24 -12.5t-24.5 -19q-2 -1 -3.5 -3t-2.5 -2q-2 -3 -5.5 -11t-4.5 -10l-16 -45q7 -39 13 -62.5t12.5 -39t14.5 -27.5l20 -27q27 -9 56.5 -16t74.5 0zM166 74 q-21 11 -25 23t-6 35q1 9 1 21t1 23.5t4 22t10 17.5q3 3 11.5 10t18 14t19 12.5t14.5 5.5q2 1 11.5 2.5t14.5 2.5h16q1 0 5.5 -5t4.5 -11q1 -1 4 -8.5t6 -16.5l6 -15l2 -7q0 -25 -7.5 -52.5t-22.5 -48t-37 -29.5t-51 4z" />
<glyph unicode="&#xab;" horiz-adv-x="478" d="M247 339q4 -1 14 -3t13 -2t10 -0.5t15 -0.5q9 0 16.5 0.5t10.5 0.5l8 8l8 8v10q-1 2 -2.5 5.5t-2.5 5.5l-5 6q-4 3 -6 4q-1 1 -4.5 3t-5.5 3q-2 0 -8 2t-8 3q-2 0 -10.5 2t-10.5 3t-10.5 7.5t-10.5 8.5l-10 6l-19 10l-22 12q-11 6 -17 9q-2 0 -6.5 2.5l-9.5 5.5l-10 4 q-5 2 -6 3q-2 1 -5.5 5t-4.5 6q2 5 7.5 17l12.5 26l13 25q6 11 9 16q2 4 9 15l15 23q8 13 16 24.5t12 16.5q1 2 8 10l16 18l14.5 18.5t8.5 10.5t5.5 8t5.5 8l3 6q2 4 2 5v10q0 2 -2 5.5t-3 5.5l-9 9q-6 6 -7 6q-3 1 -15 1t-16 -1q-2 0 -10 -4t-11 -6q-2 -1 -6 -5t-5 -6 q-1 -1 -3 -4.5t-5 -8t-5 -8.5t-3 -5q-1 -2 -7.5 -10.5t-7.5 -10.5q-4 -5 -14 -18.5t-13 -18.5q-1 -1 -5 -7.5t-5 -7.5q-2 -2 -8 -10l-13 -19l-13 -18q-7 -9 -8 -11q-6 -8 -8.5 -18t-7.5 -19q-2 -2 -5.5 -8t-4.5 -8l-5 -5l-8 -10l-9 -10q-4 -5 -5 -6q0 -1 -2 -9l-3 -12v-5 q1 -2 2.5 -8t2.5 -8l3 -6q2 -4 3 -5t6 -5l10 -9l12 -10q5 -5 8 -7q2 -2 8 -5.5t8 -5.5q3 -2 8 -5t11 -6t11 -6t7 -4l12 -6l16 -8l15 -7l9 -5q2 -1 8 -3.5l13 -5.5l13 -4q6 -2 8 -3zM331 397q3 -2 9 -3.5t7 -1.5q4 0 14.5 -0.5t21.5 -0.5q12 0 22.5 0.5t15.5 0.5q1 0 2.5 2 t2.5 3v16q-1 1 -5 7l-6 9l-15 15q-1 1 -4 5l-6 9l-7 8q-3 4 -4 5q-2 1 -10.5 2.5t-10.5 2.5q-4 1 -14.5 5t-12.5 5l-3 3q-2 2 -2 3q-1 2 -1 10t1 11q1 4 5 16t6 15q0 1 3 6l7 10l7 10q3 4 4 6q0 1 2 5l3 8q2 4 3.5 8t1.5 5q1 2 7.5 10.5t8.5 10.5l6 9q3 5 6 11t6 11t3 6 q1 2 1 12q0 11 -1 14q-1 1 -5 4.5t-6 5.5q-1 1 -4.5 3t-5.5 3l-9 3q-6 2 -7 2q-2 0 -8 -2t-8 -3q-3 -2 -11 -10l-10 -11q-2 -3 -8 -14l-14 -23l-15 -24q-7 -12 -10 -18q-2 -5 -7 -15l-12 -22l-11 -22l-7 -15q-1 -2 -3 -10t-2 -11q0 -2 -0.5 -8t-0.5 -13q0 -6 0.5 -12t0.5 -9 t2 -11t3 -10l10 -10l11 -11q2 -1 10 -4l11 -6q2 -1 8 -3t8 -2q1 0 5 -2t8.5 -3.5t8 -3.5t4.5 -2z" />
<glyph unicode="&#xad;" horiz-adv-x="762" d="M514 115q2 -1 10.5 -6t10.5 -5q1 0 6 -0.5t11 -0.5t11.5 0.5t8.5 0.5q2 0 5.5 2t4.5 3t3 5t2 6q2 4 4 12t2 9t-4.5 8.5t-6.5 12.5q-2 3 -5.5 9t-4.5 7q-4 3 -16 11t-16 10q-1 0 -11 2l-15 3h-11q-24 0 -63 1l-75 2q-37 1 -64 1.5t-29 0.5t-8.5 1t-14.5 1.5t-15 1.5t-9 1 h-5q-2 0 -8 -2t-8 -3l-6 -3l-4 -2q-2 -2 -6 -8t-5 -8t-1 -8t1 -8l5 -10l6 -9q4 -6 5 -7q2 -2 8 -5.5t8 -4.5q6 0 21.5 -1l32.5 -2l34 -2q16 -1 22 -1q1 0 7.5 -1t13.5 -1.5t13 -1.5t8 -1q6 0 21 -0.5t31 -0.5q17 0 32 0.5t21 0.5q2 -1 8 -3t8 -2q1 0 4.5 -1t8 -2t8.5 -1.5 t5 -0.5z" />
<glyph unicode="&#xb2;" horiz-adv-x="478" d="M342 5q-2 0 -8 1l-11 2l-11 2q-6 1 -7 1q-2 0 -9.5 1.5t-16.5 3.5t-16.5 3.5t-9.5 1.5q-3 0 -16.5 1t-28.5 1.5t-28.5 1.5t-16.5 1q-1 0 -4.5 1t-8 2t-8.5 2t-5 1h-8h-13h-14h-7q-2 0 -14 5.5t-17 9.5l-6 7q-5 4 -5 9q-1 2 -1 11t1 10q0 2 4.5 8t6.5 8l10 10q8 9 11 11 q1 2 10 8t11 8l89 89l35 76q15 33 23 45q0 1 2 7.5t3 8.5l7 15l11 22l12 22l7 14v21q-3 1 -19 1q-15 0 -18 -1q-2 0 -7 -0.5t-11 -1.5t-11 -2t-8 -1q-1 0 -7 -2l-9 -3q-3 -3 -10 -5q-2 -2 -8 -6l-13 -8q-7 -5 -13 -8.5t-8 -4.5h-5q-7 1 -19 3t-13 3q-5 3 -10 9.5t-6 11.5v10 q1 2 7 10l9 11q2 2 5.5 6t5.5 5q1 1 11 7t15 8q2 2 5.5 3.5t4.5 2.5l11 3l14 6l14 4q7 2 9 2q4 2 14 4t12 2h89q3 -2 11 -5.5t10 -5.5q2 -1 8 -4.5t8 -5.5l3 -3q2 -2 2 -3q2 -2 5.5 -7.5t5.5 -7.5q0 -3 0.5 -10.5t0.5 -16.5q0 -8 -0.5 -15.5t-0.5 -10.5q0 -1 -4.5 -9 t-6.5 -12q0 -1 -2 -3t-3 -2q-2 -3 -5 -9l-6 -11q-3 -6 -6 -11t-4 -6q-1 -2 -3 -9t-5 -15.5t-5 -15t-3 -7.5q-9 -14 -20 -37l-22 -50q-12 -25 -25.5 -47.5t-26.5 -34.5q-3 -3 -9 -10l-13 -14q-7 -7 -12.5 -13.5t-7.5 -9.5q-3 -3 0 -5q1 -1 4.5 -3t5.5 -2q5 0 18 -1l27 -2 l27 -2q13 -1 18 -1q4 0 13 -1t19 -1.5t19 -1.5t12 -1q4 0 11 -1l13 -2q7 -1 12 -1.5t6 -0.5q2 -1 10.5 -5t10.5 -6q4 -2 11.5 -10.5t9.5 -10.5q1 -1 1 -9q0 -9 -1 -12l-2 -2q-2 -2 -4 -3l-16 -8q-12 -6 -15 -8q-2 -1 -10 -2.5t-11 -2.5h-11q-1 0 -4.5 1t-8 1.5t-8.5 1.5 t-5 1z" />
<glyph unicode="&#xb3;" horiz-adv-x="478" d="M136 5q-3 3 -9 11t-7 10l-3 9q-2 6 -3.5 12.5t-2.5 12t-1 8.5q-1 2 1 10.5t4 10.5q0 2 4 5.5t6 5.5q2 1 5.5 3t5.5 2h31q3 0 16 -2.5t16 -2.5t9.5 -0.5t12.5 -0.5q7 0 12.5 0.5t7.5 0.5q1 0 11 4l15 6q2 1 5.5 3t5.5 3q2 2 8 5.5t7 4.5l6 6q4 4 8.5 8t8.5 8l4 4 q2 3 7.5 13t7.5 14q1 2 3 10t3 11v26q-1 1 -5 9l-6 12l-5 5q-5 4 -15 10l-11 6h-69l-31 31q-1 1 -1 9q0 9 1 12q0 2 2 5.5t3 5.5q2 2 5.5 6t5.5 4q1 1 11 3l15 3q1 0 7.5 -0.5t8.5 0.5q8 0 14.5 5t11.5 10q1 2 4.5 10t5.5 11q2 5 6.5 15t4.5 12q0 3 0.5 12t0.5 19 q0 33 -8.5 60.5t-40.5 50.5q-3 5 -8.5 6.5t-11.5 3.5q-4 1 -10 1h-12q-14 0 -15 -1q-2 -1 -5 -6l-6 -10l-6 -10q-3 -5 -4 -6l-8 -12l-12 -17q-2 -2 -3.5 -4t-2.5 -3q-2 -2 -8.5 -10.5t-7.5 -10.5q-1 -1 -3.5 -6t-4.5 -10t-4.5 -10t-3.5 -6q-1 -2 -5 -5.5t-5 -4.5 q-2 -2 -8 -4t-8 -2t-8 2t-8 4q-2 0 -8 4t-8 6l-5 5q-1 2 -1 13t1 14q0 2 2 7.5t3 7.5q1 1 4 6l6 10l7 10q3 5 4 6q2 2 8 15.5t8 15.5q2 3 5.5 9t5.5 7q5 3 14 13l19 21q10 11 19.5 20t15.5 9h37q6 -1 20 -2.5t16 -2.5q1 0 6.5 -2.5t12.5 -6.5l12 -6l11 -6q2 -2 8 -5.5 t8 -5.5q1 -1 5 -4.5t6 -5.5l24 -35q10 -17 17.5 -34t12 -36t4.5 -43q0 -9 -0.5 -18t-0.5 -13q0 -1 -0.5 -5.5t-1.5 -9.5t-2 -9.5t-1 -6.5t-1.5 -7.5t-3.5 -11.5t-3.5 -11.5t-1.5 -6.5q-1 -1 -1 -6q0 -3 1 -4q0 -4 5 -6q5 0 9.5 -4t6.5 -6q0 -1 2 -5.5t3 -5.5l10 -10 q1 -2 4 -7.5t6 -12.5t6 -13t5 -9q1 -2 3 -8t3 -8q5 -24 3 -39.5t-8.5 -28.5t-17.5 -26t-25 -32q-20 -26 -36.5 -40t-35.5 -21t-42.5 -10.5t-57.5 -7.5h-6q-1 0 -5 -1.5t-6 -3.5q-1 -1 -7.5 -5.5t-7.5 -4.5q-3 -2 -11 -6l-10 -5h-6q-2 1 -5.5 2.5t-4.5 2.5z" />
<glyph unicode="&#xb5;" horiz-adv-x="557" d="M21 5q1 -1 4.5 -3t5.5 -2q5 -1 21 -1t21 1q1 0 3 2t2 3q1 2 3 10.5t3 10.5q0 2 -0.5 13.5t0.5 13.5q0 5 3 23t6 39.5t6.5 42.5t5.5 31q0 2 2 10.5t3 10.5q0 1 0.5 5t1.5 8.5t2 8t1 4.5l3 11q1 6 3 12.5t3.5 12t1.5 6.5l5 14q3 10 5 13q1 -3 4.5 -11t7.5 -16l8 -15 q4 -8 6 -11l12 -12q10 -10 15 -14q0 -1 4 -2.5t6 -2.5q3 -2 13 -5.5t13 -5.5h84q2 0 14.5 2t17.5 3q2 1 8 3t8 3q1 0 6 3l10 7l10 7q4 3 5 4q3 2 12 5.5t12 4.5v-63l5 -6q5 -6 8 -10l5 -5q2 -1 8 -3t8 -2q5 -1 14 -1q10 0 12 1t10 8.5t11 12.5q1 1 3 5t2 5q0 4 0.5 15.5 t1.5 24t2 23.5t2 16q0 1 2 6.5t5 12.5l6 11q2 5 2 7q1 2 1 8t-1 8q0 1 -2.5 7.5t-2.5 7.5v21q0 2 1.5 9.5t3 17t3.5 18t3 13.5l3 12l3 15q1 7 2.5 13t1.5 7q1 2 5.5 13.5t5.5 13.5v21l-5 10l-6 11q-2 4 -6.5 6t-9.5 4q-2 1 -7.5 3t-7.5 3h-6q-5 -2 -15 -3.5t-11 -2.5 l-16 -16q-1 -1 -2.5 -4.5t-2.5 -5.5q0 -1 -1 -5t-1.5 -8.5t-1.5 -8t-1 -4.5q0 -2 -2 -8t-3 -8l-3 -9l-5 -14l-5 -12q-2 -6 -3 -7t-2.5 -5t-2.5 -6q-1 -1 -3.5 -4.5t-5 -8t-5 -8.5t-2.5 -5q-1 -1 -3 -7.5t-2 -8.5q-1 -2 -3 -5.5t-3 -4.5q-2 -3 -10 -13t-11 -13 q-2 -4 -10.5 -11.5t-10.5 -9.5q-3 -3 -9 -7l-12 -9q-6 -5 -10 -8l-5 -3h-63q-1 0 -4 5l-6 12l-6 13q-4 7 -5 12q0 1 -1 6l-2 10l-2 10q-1 5 -1 6q0 2 -2 5.5t-3 4.5v142q0 1 -2 5l-3 6l-5 5q-2 1 -8 2.5t-8 2.5q-5 2 -15 4t-11 2q-2 0 -14.5 -2t-17.5 -4q-2 0 -8 -2t-8 -3 l-5 -5q-1 -2 -3 -5.5t-2 -5.5q0 -1 -1 -5.5t-2 -10t-1.5 -10t-0.5 -5.5l-5 -15l-8 -27l-9 -27l-5 -15q0 -2 -2 -12l-3 -15q0 -2 -1.5 -11.5t-3.5 -20t-3.5 -19.5t-1.5 -12q-1 -1 -3 -7.5t-3 -7.5q0 -2 -1.5 -7.5t-3 -12.5t-3 -13t-2.5 -9t-3 -13t-5 -21.5t-5 -21.5t-3 -13 q0 -2 -2.5 -10.5t-2.5 -10.5q0 -1 -1 -6l-2 -12q-1 -6 -1.5 -11.5t-0.5 -6.5l-3 -6q-2 -4 -3 -5q-1 -4 -3 -16t-2 -15q0 -4 -0.5 -14t-0.5 -21q0 -10 0.5 -20t0.5 -14l5 -10q4 -9 6 -11z" />
<glyph unicode="&#xb9;" horiz-adv-x="496" d="M371 5q2 -1 5.5 -3t4.5 -2t5 2l6 3q2 2 6.5 6t8.5 8.5t7.5 8t3.5 4.5q2 2 4 12.5t1 13.5v247q0 3 0.5 13t1.5 22t2 22.5t1 15.5q0 3 1.5 13.5t3.5 22t3.5 22.5t2.5 16q1 3 2.5 11t2.5 10l6 11l5 10v11l-3 15q-2 10 -3 11l-6 4l-9 6q-2 2 -6 4t-5 2q-3 0 -8.5 0.5 t-11.5 0.5t-11 -0.5t-6 -0.5l-7 -7q-6 -6 -8 -9q-1 -1 -5 -7l-6 -9q-1 -1 -3 -5t-2 -5q-1 -2 -3 -8.5t-2 -7.5l-7 -11l-10 -14q-5 -8 -9.5 -14t-5.5 -8q-1 -1 -7 -5l-9 -6q-2 -1 -10.5 -5t-10.5 -5q-1 -1 -4.5 -3.5t-8 -5t-8.5 -5t-5 -2.5q-2 -1 -9 -3l-14 -4l-14 -6l-10 -3 q-2 -1 -12 -2.5t-15 -2.5q-2 0 -7 -1t-12 -2l-14 -2q-6 -1 -9 -1h-5q-1 0 -5 1t-8.5 2t-8 2t-4.5 1h-21q-1 0 -5 -2t-6 -4q-1 -1 -3 -2.5t-2 -2.5v-37l4 -4q4 -4 7 -6q0 -1 4 -2.5t6 -2.5q3 -2 9 -3.5t7 -2.5h37q4 0 13.5 1t20.5 2t20.5 2t13.5 1t16 2t15 3q1 0 5 2l6 3 q2 1 8 5.5t8 5.5q4 2 18 5.5t19 4.5q2 1 10.5 0.5t10.5 -0.5q1 1 5 2.5t5 2.5l5 -26q0 -2 0.5 -22t0.5 -47q0 -26 -0.5 -54t-0.5 -45q0 -3 -0.5 -14t-1.5 -23l-2 -24q-1 -12 -1 -18q0 -1 -1 -5.5t-1.5 -10t-1.5 -10t-1 -5.5v-6q1 -2 2.5 -8t2.5 -7q1 -2 5 -5.5t6 -5.5 q1 -1 5 -3t5 -2q1 -1 5 -5.5t6 -5.5z" />
<glyph unicode="&#xba;" horiz-adv-x="295" d="M351 111q-9 -39 -30 -63t-48 -36t-58.5 -13t-62.5 6q0 3 -6 5q-2 1 -10.5 5t-10.5 6q-2 1 -10 9t-11 12q-1 1 -7 9t-8 12q-2 3 -7 9l-4 6l-4 10l-4 14l-5 14q-2 7 -3 10q0 1 -1 5.5t-1.5 10.5t-1.5 12t-1 9v10q0 3 1 9t1.5 12.5t1.5 12.5t1 8q1 2 2.5 10.5t3.5 10.5 q0 3 4.5 11.5t10.5 14.5q3 5 9 13t7 9q4 0 11.5 5t14.5 5q1 0 7 1t12 1.5t11.5 1.5t6.5 1t8 0.5t16 0.5h16h8q5 -1 18 -2.5t15 -2.5q23 -6 46 -24t40 -41.5t24.5 -49.5t-1.5 -48zM167 78q15 -20 35 -21.5t38 10t31 31.5t13.5 43.5t-15 46.5t-54.5 39q-2 1 -12 2t-15 1 q-2 0 -11.5 -2.5t-10.5 -3.5q-6 -5 -16 -14.5t-10 -11.5l-4 -67q0 -1 4 -11l6 -15l3 -6q2 -4 3 -5q2 -2 7.5 -8t7.5 -8z" />
<glyph unicode="&#xbb;" horiz-adv-x="636" d="M241 319q1 -1 7.5 -4t13.5 -7t13 -7t8 -3q2 -1 10 -1t11 1q1 0 4.5 2t5.5 3q1 1 3 2.5t3 3.5q1 1 4 6l8 10l9 10l5 5l5 6q4 3 5 5q1 1 5 4l8 7l9 6q4 3 5 4l7 8q7 6 9 7l6 6l12 11l11.5 9.5t6.5 5.5q2 1 8 7.5t8 8.5q2 1 9 8l15 13l15 13l8 8q5 4 17 16l25 26l25 25 l17 17q2 1 3.5 4.5t2.5 5.5v27l-5 6l-6 9q-1 2 -3 4l-2 2q-1 0 -7 2l-9 3q-1 0 -6.5 1.5t-11.5 3.5t-12 3.5t-7 1.5l-11 6l-10 5q-1 1 -7.5 3t-7.5 2l-16 8l-16 8q-2 1 -8 5.5t-8 4.5q-1 1 -5.5 3t-10 5t-10 5t-5.5 3q-2 1 -6.5 6t-10 10t-10 10t-5.5 6t-4.5 4l-8.5 7l-8 6 q-4 3 -5 4q-2 1 -5.5 3t-5.5 2q-4 1 -18 1t-18 -1q-2 -1 -6 -4.5t-5 -5.5q-1 -4 -1 -16t1 -16q0 -1 4.5 -7t6.5 -9l5 -5q2 -2 8 -10.5t8 -10.5q0 -1 2 -3t3 -2l6 -9q4 -6 4 -7q1 -2 1 -6q0 -3 -1 -5q-3 1 -10 3l-14 5q-7 2 -13.5 4.5t-9.5 3.5l-21 21q-1 1 -4.5 3t-5.5 2 q-5 2 -15 4t-12 2t-10.5 -2t-10.5 -4q-1 0 -4.5 -4t-5.5 -6q-1 -1 -3 -5t-2 -6q-1 0 -1 -2t1 -3l2 -10l4 -13q1 -7 2.5 -12.5t1.5 -6.5t4.5 -7t6.5 -9q1 -1 2.5 -3t2.5 -2h10q2 1 5.5 2.5t5.5 2.5l63 -31v-11q-1 -1 -6 -8l-13 -17q-8 -11 -13 -17l-11 -14q-8 -10 -10 -12 l-5 -5q-4 -4 -5 -6q-1 -1 -7 -9l-9 -12q-2 -3 -6.5 -8.5t-8.5 -11.5t-7.5 -10.5t-3.5 -5.5q-1 -1 -3 -5t-2 -6q-2 -5 -6.5 -15t-4.5 -11q-1 -4 -1 -14t1 -12t5 -8t6 -8q0 -1 4 -3t6 -2q1 -1 6.5 -2.5l12.5 -3.5l11 -4q5 -1 7 -1zM346 461q1 2 4.5 10t5.5 11l6 9q4 6 5 7 q2 2 13 8t13 8q3 2 13 12l14 14q1 1 3 5t2 5v37q0 2 -2 5.5t-3 5.5h10q1 -1 5 -2.5t6 -3.5q7 -5 19 -12.5t12 -8.5v-5l-6 -7l-16 -16l-19 -19q-10 -10 -17 -16q-1 -1 -6.5 -5.5t-11.5 -10t-12 -10t-7 -5.5t-5 -5.5t-5 -5.5q-2 -2 -10.5 -5.5t-10.5 -4.5v5zM372 619 q-1 -3 -3 -3q-1 0 -2 3q-1 2 2 2q4 0 3 -2z" />
<glyph unicode="&#xc3;" horiz-adv-x="835" d="M521 903q2 -1 9 -2.5t14.5 -3.5t14 -3.5t9.5 -1.5h16q4 0 14.5 1.5t22 3.5t22 3.5t14.5 2.5l7 7l12 10q6 6 11 11.5t7 7.5q1 1 2.5 5t2.5 6q2 2 3.5 8t2.5 8v10q-2 3 -8 11t-8 10q-4 4 -14 10t-12 6t-12 -4t-15 -7q-1 0 -4.5 -2.5t-8 -5t-8.5 -5t-5 -2.5q-2 -2 -6 -4 l-4 -2h-37l-21 3q-14 2 -16 3q-2 0 -6 4l-10 9l-10 8l-5 5q-2 1 -8.5 5t-7.5 5q-2 1 -7 7t-12 12l-12 12l-6 6q-3 3 -10.5 7.5t-15 10t-13.5 9.5t-8 5q-1 0 -7 1.5t-14 2.5l-15 4q-8 1 -12 2q-3 1 -9 1.5t-12.5 1.5t-12.5 1.5t-8 0.5q-3 0 -12 0.5t-19 0.5t-19 -0.5 t-13 -0.5q-3 0 -9.5 -0.5t-14 -1.5t-14 -2t-9.5 -1q-1 0 -4.5 -2t-5.5 -3q-1 0 -3 -2.5t-3 -2.5q-1 -1 -5.5 -3t-10 -5t-10 -5t-5.5 -3q-3 -2 -9 -8t-7 -8q-2 -4 -2 -16t2 -15q1 -2 7 -8t9 -8q1 -1 9 -3t12 -2q2 -1 5 -1q4 0 5 1q1 0 6.5 2.5t12 5t11.5 5t7 2.5q3 1 8 3 t11 3.5t11 3t7 1.5h21q4 0 13 -1l18 -2q9 -1 17 -1.5t10 -0.5q1 -1 7 -2.5t8 -3.5q2 0 5.5 -2t5.5 -3q2 -2 8 -5.5t8 -4.5q2 -2 6.5 -5.5t9.5 -8t9 -8.5t6 -5l21 -21q14 -12 28 -22t30 -20q1 0 5 -2l6 -3l15 -6q9 -4 11 -4zM89 11q-2 1 -7 4t-11 6t-11 6t-8 5l-10 10 q-9 8 -11 11q-1 1 -4.5 9t-5.5 12q-1 1 -3 7t-3 8q-1 5 -3 12.5t-2 8.5q0 5 -0.5 13.5t-0.5 16.5q0 9 0.5 15.5t0.5 7.5q0 18 15.5 36.5t36.5 34t42 26.5t32 14q1 0 6.5 1t11.5 1.5t11.5 1.5t7.5 1t8 2.5t8 2.5t8 1t12.5 1.5t12.5 1.5t9 1q3 1 14 1t12 -1q2 0 8 -4t8 -6 q1 -2 3 -5.5t2 -5.5q1 -3 1 -14t-1 -12q0 -2 -4 -5.5t-6 -5.5q-2 -1 -8 -2.5t-8 -2.5h-26q-2 0 -10.5 2.5t-10.5 2.5q-2 1 -11 1q-15 0 -30 -5t-28 -13.5t-23 -20.5t-14 -25q-1 -2 -3 -13.5t-2 -44.5q0 -1 2 -4.5t3 -5.5q29 -22 59.5 -25.5t58.5 6.5t52.5 31.5t43 48.5 t29 58t10.5 60v121q0 2 -4 6t-7 4q-5 0 -13 -1.5t-17 -1.5q-8 0 -15.5 1.5t-11.5 7.5q-6 2 -6 5t-0.5 7.5t-0.5 9.5t0.5 9t0.5 5q5 13 21 20.5t27 11.5q5 2 11 5t4 11q0 29 -7.5 69.5t-12 81.5t-1 78t26.5 60q2 2 5.5 6t4.5 5q1 0 7 2l9 3l12 3q8 2 9 2h21q1 0 7 -2l9 -3 l10 -5l32 -32l7 -11l9 -17l9 -18q5 -9 6 -12q9 -18 17 -41t14.5 -47t12 -47.5t9.5 -43.5q0 -2 2.5 -15.5t2.5 -15.5q2 -8 6.5 -11t14.5 -5q1 0 7 -1t12 -1.5t11.5 -1.5t6.5 -1t7.5 -2t14 -5t15 -5.5t11.5 -3.5q2 -1 5.5 -3t4.5 -2q1 -1 3 -5t2 -6q1 -1 1 -5t-1 -5 q0 -2 -2 -8t-3 -8q0 -1 -2 -3t-3 -2q-2 -2 -6 -3.5t-5 -2.5q-2 0 -8 -1t-12.5 -1.5t-12.5 -1.5t-9 -1h-47q-2 -3 -3.5 -13t-1.5 -13t-0.5 -14t-0.5 -24q0 -12 0.5 -23.5t0.5 -17.5q0 -33 3.5 -73t6.5 -69q1 -7 3 -19t2 -13l5 -10q4 -9 6 -11l16 -16h5l12 3q8 2 9 3q2 1 5 3 t8 4q11 6 13 8l6 6l12 12q7 6 9 9q4 11 14 29t16 36t3.5 33.5t-23.5 22.5h-5h-9h-8h-4q-2 1 -8.5 7t-7.5 9q-1 1 -1 9q0 9 1 12q0 1 2 4.5t3 5.5l11 11q1 1 5 2.5t5 2.5q5 2 15 3.5t12 1.5q3 0 8 -1t11 -2.5t10.5 -3.5t6.5 -3q21 -26 28.5 -57.5t3.5 -63.5t-16.5 -63 t-30 -55.5t-38.5 -41t-41 -19.5q-11 -2 -29.5 -4t-28.5 4h-11q-6 1 -18 2.5t-13 2.5q-1 0 -11 8l-16 13q-1 1 -2.5 3t-2.5 2q-1 2 -3 5.5t-2 5.5q-1 3 -3 8t-3.5 11t-3 11t-1.5 7q0 1 -1 6.5t-1.5 11.5t-1.5 11.5t-1 7.5t-2.5 15.5t-2.5 15.5q0 5 -1 25t-1.5 43.5t-1.5 43.5 t-1 25q0 2 -1 9l-2 15l-2 14q-1 7 -1 9t0.5 8t-0.5 8q0 3 -1 10.5t-1.5 16t-1.5 16t-1 10.5h-42q-3 -50 -3.5 -94.5t-12.5 -90.5q-14 -92 -79 -157l-6 -6q-4 -4 -8 -8.5t-7 -7.5l-5 -5q-1 0 -11 -6l-15 -9q-2 -2 -6 -3.5t-5 -2.5q-1 0 -6 -2l-10 -3l-10 -3q-4 -2 -5 -2 l-11 -6l-10 -5q-3 -1 -13.5 -3t-13.5 -2h-36h-32q-3 0 -8.5 1.5t-12.5 3t-12.5 3.5t-8.5 3zM468 500l-6 38q-3 20 -6 36.5t-6 29.5l-3 17q0 1 -3 5l-5 10l-5 10q-3 5 -3 6q-1 2 -3 8.5t-2 7.5l-11 11h-5l-3 -3q-2 -2 -2 -3q0 -2 -0.5 -8t-0.5 -13q0 -26 7 -53.5t9 -56.5 q0 -3 1 -8t2 -11t2 -11t1 -7z" />
<glyph unicode="&#xd1;" horiz-adv-x="702" d="M793 1002q2 -1 9 -2.5t14.5 -3.5t14 -3.5t9.5 -1.5h16q4 0 14.5 1.5t22 3.5t22 3.5t14.5 2.5l7 7l12 11q6 5 11 10.5t7 7.5q1 1 2.5 5t2.5 6q2 2 3.5 8t2.5 8v10q-2 3 -8 11t-8 10q-4 4 -14 10t-12 6t-12 -4t-15 -7q-1 0 -4.5 -2.5t-8 -5t-8.5 -5t-5 -2.5q-2 -2 -6 -4 l-4 -2h-37l-21 3q-14 2 -16 3q-2 0 -6 4l-10 8l-10 9l-5 5q-2 1 -8.5 5t-7.5 5q-2 1 -7 7t-12 12l-12 11l-6 7q-3 3 -10.5 7.5t-15 10t-13.5 9.5t-8 5q-1 0 -7 1.5l-14 3.5l-15 2l-12 3q-3 1 -9 1.5t-12.5 1.5t-12.5 1.5t-8 0.5q-3 0 -12 0.5t-19 0.5t-19 -0.5t-13 -0.5 q-3 0 -9.5 -0.5t-14 -1.5t-14 -2t-9.5 -1q-1 0 -4.5 -2t-5.5 -3q-1 0 -3 -2.5t-3 -2.5q-1 -1 -5.5 -3t-10 -5t-10 -5t-5.5 -3q-3 -2 -9 -8t-7 -8q-2 -4 -2 -16t2 -15q1 -2 7 -8t9 -8q1 -1 9 -3t12 -2q2 -1 5 -1q4 0 5 1q1 0 6.5 2.5t12 5t11.5 5t7 2.5q3 1 8 3t11 3.5t11 3 t7 1.5h21q4 0 13 -1l18 -2q9 -1 17 -1.5t10 -0.5q1 -1 7 -2.5t8 -3.5q2 0 5.5 -2t5.5 -3q2 -2 8 -5.5t8 -4.5q2 -2 6.5 -5.5t9.5 -8t9 -8.5t6 -5l21 -21q14 -12 28 -22t30 -20q1 0 5 -2l6 -3l15 -6q9 -4 11 -4zM52 79q-2 4 -6 14l-10 22l-10 23q-4 10 -5 15q-1 0 -2.5 10.5 t-3.5 15.5l-3 18q-2 12 -2 13v58q0 1 1 6.5t1.5 12.5t1.5 13.5t1 9.5q1 2 2.5 12t3.5 15q1 3 2.5 11t2.5 10q0 1 2 4.5t3 5.5l6 9q4 6 5 7q1 2 5 6t8.5 8t8.5 8l4 4q1 1 11 7l15 9l6 3q4 2 5 2l17 7q12 4 14 4h16q2 0 8 2.5t8 2.5q3 0 8 1t11 2t11 1.5t7 0.5q3 1 16 1t15 -1 q2 0 8 -1.5t8 -3.5q2 -1 8 -4.5t8 -5.5l3 -3q2 -2 2 -3q1 -3 1 -14q2 -11 -4 -16t-13 -12q-4 0 -14.5 0.5t-22.5 0.5q-11 0 -21.5 -0.5t-14.5 -0.5q-5 0 -17.5 -2t-14.5 -3t-10 -7l-11 -9q-4 -3 -11 -11l-10 -10q-2 -2 -5.5 -10t-5.5 -11q-11 -41 -11.5 -89t11.5 -90 q3 -16 14 -29t23 -23q3 -3 11 -9t10 -7t10 -3t11 -2q2 -1 9 -1q6 0 7 1q18 4 31.5 17t24.5 29t20.5 33t18.5 31q1 2 4 9t6 15l6 17q3 8 5 12l21 58q10 29 10 63q1 3 3 15t3 16q1 8 3 21.5t2 15.5q0 6 1 18t1.5 25.5t1.5 25t1 15.5v111q0 7 -1 26.5t-1.5 41.5t-1.5 41.5 t-1 27.5q-1 2 -3 10t-2 11q0 1 -0.5 13.5t-1.5 27.5l-2 32q-1 17 -2 27v10q2 8 6 16t10 10q2 1 14.5 3t17.5 3h21l5 -5q4 -4 5 -6q4 -5 10 -17t6 -14t1 -11.5t1.5 -21.5t1.5 -23.5t1 -17.5v-20v-33v-33v-19q0 -4 1 -20.5t2 -35t2 -35t1 -20.5v-5v-8v-8v-5q0 -9 2 -27 t4.5 -37.5t3.5 -38t0 -29.5q1 3 3 11t2 10q1 2 3 8.5t3 7.5v11q0 11 1 29.5t1.5 36t1.5 30.5t1 14q0 45 10.5 95t31.5 96.5t52.5 85t73.5 60.5q3 1 15.5 3t16.5 2h10q5 -1 15 -2.5t12 -2.5q8 -3 18 -10l19 -11l8 -8q4 -5 9 -13t10 -17l8 -17q4 -9 7 -13q0 -6 3.5 -16.5 t7 -30t7 -49t3.5 -73.5q0 -1 -2 -8.5t-4 -12.5q0 -2 -2 -8t-3 -8q-1 -3 -3 -7.5t-5 -9.5t-5 -9t-3 -5q-1 -2 -7 -8l-8 -8l-6 -3q-4 -2 -5 -2q-4 -1 -10 -1h-12q-14 0 -15 1l-5 5q-1 1 -1.5 7.5t-0.5 14.5t0.5 17t1.5 14q0 1 1.5 4.5t4 8t4 8.5t1.5 5l4 10l4 15l5 14q2 6 2 8 q3 3 0 6q-3 13 -5 28.5t-5 30.5t-7.5 28.5t-13.5 22.5q-2 3 -10 11l-11 10q-2 1 -5.5 3t-5.5 2q-1 1 -8 1t-8 -1q-1 0 -5 -2t-5 -3l-12 -12q-6 -6 -10 -13q-5 -8 -13.5 -20.5t-11.5 -17.5q-18 -28 -28.5 -60t-15.5 -66.5t-8 -70.5l-6 -71q-1 -3 -2.5 -11t-3.5 -10v-242 q0 -6 3 -21.5t3 -21.5q0 -2 1 -11.5t1.5 -22t1.5 -25t1 -19.5v-6q0 -2 2.5 -15.5t2.5 -15.5q1 -3 1 -17q0 -13 -1 -15q0 -6 -10 -16t-16 -10q-3 -1 -18 -1q-16 0 -19 1q-8 0 -15.5 5t-10.5 11q-1 0 -2.5 6.5t-3.5 8.5q-8 29 -12.5 53t-13.5 53q0 1 -2.5 7.5t-2.5 7.5 q-1 2 -3 10.5t-2 10.5q-1 3 -2.5 8t-3 11t-3 11t-2.5 7q-2 8 -4 14t-6 13q-2 -3 -5.5 -13.5t-5.5 -13.5q0 -1 -2 -5l-3 -10l-3 -10q-2 -5 -2 -6q-1 -2 -3.5 -7.5t-5.5 -11.5t-5 -11.5t-2 -6.5q-1 -2 -4 -10l-6 -17l-7 -16q-3 -8 -4 -10q-1 -1 -5 -8l-11 -16l-12 -20l-9 -14 q-2 -3 -8 -11t-8 -10l-31 -31q-1 -1 -5 -3t-6 -2q-6 -3 -18 -7t-14 -4h-89z" />
<glyph unicode="&#xd5;" horiz-adv-x="548" d="M335 903q2 -1 9 -2.5t14.5 -3.5t14 -3.5t9.5 -1.5h16q4 0 14.5 1.5t22 3.5t22 3.5t14.5 2.5l7 7l12 10q6 6 11 11.5t7 7.5q1 1 2.5 5t2.5 6q2 2 3.5 8t2.5 8v10q-2 3 -8 11t-8 10q-4 4 -14 10t-12 6t-12 -4t-15 -7q-1 0 -4.5 -2.5t-8 -5t-8.5 -5t-5 -2.5q-2 -2 -6 -4 l-4 -2h-37l-21 3q-14 2 -16 3q-2 0 -6 4l-10 9l-10 8l-5 5q-2 1 -8.5 5t-7.5 5q-2 1 -7 7t-12 12l-12 12l-6 6q-3 3 -10.5 7.5t-15 10t-13.5 9.5t-8 5q-1 0 -7 1.5t-14 2.5l-15 4q-8 1 -12 2q-3 1 -9 1.5t-12.5 1.5t-12.5 1.5t-8 0.5q-3 0 -12 0.5t-19 0.5t-19 -0.5 t-13 -0.5q-3 0 -9.5 -0.5t-14 -1.5t-14 -2t-9.5 -1q-1 0 -4.5 -2t-5.5 -3q-1 0 -3 -2.5t-3 -2.5q-1 -1 -5.5 -3t-10 -5t-10 -5t-5.5 -3q-3 -2 -9 -8t-7 -8q-2 -4 -2 -16t2 -15q1 -2 7 -8t9 -8q1 -1 9 -3t12 -2q2 -1 5 -1q4 0 5 1q1 0 6.5 2.5t12 5t11.5 5t7 2.5q3 1 8 3 t11 3.5t11 3t7 1.5h21q4 0 13 -1l18 -2q9 -1 17 -1.5t10 -0.5q1 -1 7 -2.5t8 -3.5q2 0 5.5 -2t5.5 -3q2 -2 8 -5.5t8 -4.5q2 -2 6.5 -5.5t9.5 -8t9 -8.5t6 -5l21 -21q14 -12 28 -22t30 -20q1 0 5 -2l6 -3l15 -6q9 -4 11 -4zM215 11q-2 0 -8 2t-8 3q-3 1 -8.5 4t-10.5 6 l-11 7q-5 3 -6 4q-3 1 -12 7.5t-20 15.5l-21 17l-16 12l-6 5q-3 4 -4 6q-1 0 -2.5 4t-3.5 6l-8 18q-4 10 -10 22l-10 22q-5 11 -8 19q-5 13 -6 14q-3 9 -7.5 25t-8.5 33.5t-7 33.5t-3 24q0 4 -0.5 14.5t-0.5 21.5q0 12 0.5 22.5t0.5 15.5q0 3 1.5 17.5t3 32t3.5 34.5l3 26 q0 4 2 16t3 16l10 31l16 48l16 47l10 31l5 10q4 9 6 11q2 4 10 16t11 16q1 2 4 6l6 8l7 7q3 4 4 5q2 3 7 8l11 11l11 11q6 5 8 7q1 1 7 5l9 6q1 1 5 2.5t5 2.5l9 3q6 2 7 2q1 1 10 1q10 0 11 -1q12 -1 20.5 -5.5t16.5 -15.5q1 -1 2.5 -4.5t2.5 -5.5v-6q-1 -2 -3 -8t-2 -7 q-3 -7 -11.5 -11t-15.5 -11q-1 0 -10 -4.5t-16 -7.5q-4 -2 -7 -5l-9 -9q-1 -2 -5 -7t-9 -12l-10 -14q-5 -6 -7 -9q-2 -2 -6 -8t-5 -8t-2.5 -4.5t-3.5 -6.5q-3 -8 -4 -10t-3 -9q-3 -8 -7 -22t-6 -16q0 -1 -2 -7.5t-5 -13.5l-6 -14q-2 -6 -3 -7q0 -2 -2.5 -12.5t-5.5 -20.5 q-1 -3 -1 -5t-1 -4q-1 -3 -3 -13.5t-3 -13.5q0 -1 -1 -5.5t-1.5 -10.5t-1.5 -11.5t-1 -8.5q0 -5 -1 -12l-2 -14q-1 -6 -1 -11l-1 -5q0 -3 -0.5 -11.5t-0.5 -17.5t0.5 -17.5t0.5 -11.5q0 -2 1 -9t1.5 -15.5t1.5 -16.5t1 -12q0 -2 2 -14t3 -17l4 -22q2 -10 7 -21l6 -11 q4 -8 4 -10q1 -1 3 -7.5t3 -7.5l4 -7l4 -10t4.5 -9.5t3.5 -5.5q1 -2 7 -10.5t8 -10.5l21 -21q2 -2 13.5 -8t13.5 -8t8 -5.5t7 -4.5q2 -1 6 -5.5t5 -5.5q4 -2 16 -6t15 -4q3 -1 16 -1t16 1q5 1 17 4.5t15 5.5l21 21q3 4 9 13l12 19l13 19l8 12q33 111 42.5 222.5t-21.5 224.5 q-2 6 -13 25t-29 39q-7 3 -16 8t-11 3q-4 0 -5 -1q-1 0 -2.5 -2t-2.5 -3l-16 -32q-1 -3 -2.5 -14.5t-3 -25t-3 -25t-1.5 -14.5q-1 -2 -3 -8t-3 -7q-1 -2 -7 -8l-8 -8q-2 -1 -5.5 -3t-5.5 -2q-1 -1 -6 -1q-4 0 -5 1l-5 10q0 3 -2.5 16t-2.5 16q0 1 -1.5 6.5t-4 11.5t-4 11.5 t-1.5 6.5v37q1 2 2.5 14.5t3.5 17.5q1 3 2.5 11t2.5 10q0 1 2 4.5t3 5.5l6 9q4 6 5 7q1 2 4.5 6t8 8t8 7.5t5.5 4.5q6 6 11 6h47q2 0 10 -2t11 -4q5 -2 15 -5.5t11 -4.5q1 0 5 -3l7 -8l8 -8l7 -7q9 -12 17 -20.5t14 -16t11 -16t10 -21.5q15 -31 21 -55.5t11 -54.5v-174 q-11 -54 -19 -101.5t-23 -98.5q-1 -2 -4 -9l-6 -14l-7 -14q-3 -7 -4 -10q-1 -2 -4 -6.5l-7 -10.5l-6 -11q-3 -6 -4 -9q-4 -5 -12 -17.5t-9 -14.5q-2 -1 -5.5 -4.5t-7.5 -8t-8 -8.5t-6 -5q0 -1 -4 -2.5t-6 -2.5q-11 -5 -21 -7l-21 -4q-2 0 -8.5 -1t-15 -1.5t-17 -1.5 t-12.5 -1h-5q-4 1 -12 2l-16 4q-9 1 -16 2.5t-9 2.5z" />
<glyph unicode="&#xe0;" horiz-adv-x="608" d="M229 16q2 -1 10.5 -3.5t18.5 -5t18.5 -5t10.5 -2.5h21q5 1 17 2.5t14 2.5t13.5 5.5t13.5 5.5q2 0 10.5 2t10.5 3t5.5 5t4.5 6q1 1 3 10t3 11t4.5 8t5.5 7q2 2 5 2q4 0 6 -2q20 -13 38 -28.5t36.5 -26t40 -12.5t47.5 12q1 1 6 -0.5t6 -2.5q2 2 10 3.5t10 2.5q0 2 -2 10 t-3 10t-4.5 5t-3.5 4q-2 5 -7.5 15.5t-7.5 12.5t-8 1.5t-7 1.5h-39q-2 -1 -4.5 7t-5.5 10q-2 1 -12 5t-15 7q-1 0 -4.5 2t-4.5 3q-10 6 -18 18.5t-12 24.5q-1 3 -3 11t-2 10v18v32v31v19q0 2 -1.5 10.5t-3.5 18.5l-3 20q-1 9 -2 14q-1 1 -2.5 5t-3.5 5q-3 5 -11 13t-10 8 q-5 2 -19 2t-18 -2q-1 0 -3.5 -3.5t-6.5 -7.5l-7 -8q-3 -4 -4 -7q0 -1 -2 -6l-3 -10l-3 -10q-1 -5 -2 -6q-1 0 -13 -2t-19 -3h-10q-2 0 -10 -2t-11 -3q-2 -1 -8 -2.5t-8 -2.5l-12 -4l-13 -5l-12 -5l-5 -2q-1 0 -9 -6l-12 -10l-14 -11q-10 -8 -12 -10q-2 -1 -3.5 -3t-2.5 -2 q-2 -3 -5.5 -11t-4.5 -10q-1 -3 -3.5 -9t-5 -13t-4.5 -13.5t-3 -9.5q-114 -73 -150 -107q-8 -12 -14 -23.5t-8 -20.5t2.5 -14.5t19.5 -5.5q1 0 2.5 -2.5t2.5 -2.5h5q2 1 6 2.5t5 2.5q7 7 26 19.5t41 23.5t43 17.5t32 3.5q2 -1 6.5 -4.5t9 -8t8.5 -9t5 -5.5q2 -3 8 -9t8 -7 t10.5 -3t10.5 -2zM260 74q-1 0 -7 4t-8 6t-6.5 6t-4.5 5t-1 5.5t-1.5 10.5t-1.5 12t-1 9q-1 4 -1 16t1 15q0 3 2 13t3 13q2 5 5.5 15t5.5 12q1 1 11 9l15 12q1 0 5 2t5 3q2 2 13.5 8.5t13.5 7.5t11.5 2.5t14.5 2.5h16q1 0 2.5 -2t2.5 -3t3 -5t2 -6q2 -2 4 -8t2 -7 q0 -3 1 -10.5t1.5 -17t1.5 -18t1 -12.5v-27l-21 -42q-2 -2 -5.5 -8t-5.5 -8l-15 -15l-9 -6q-6 -4 -7 -5h-16q-4 1 -16 5t-16 6zM404 494q2 -1 8 -3t7 -2q4 -1 12 -1t9 1q2 0 8 6t8 9q3 3 0 6q0 2 -2 5.5t-3 4.5q-1 2 -5 5.5t-6 5.5l-4 2q-5 2 -6 3l-21 21q-1 1 -3 5.5 t-2 5.5q-1 1 -5 4.5t-8 8.5l-9 8l-5 5l-5 11l-5 10q-1 1 -6 5.5t-10 10t-10 10t-6 5.5t-5 7l-8 12l-8 12q-4 5 -5 6t-2.5 3t-2.5 2q-2 2 -6 4t-5 2h-47l-8 -8l-8 -8v-21q0 -1 2 -5t4 -6q1 -2 5 -7l9 -12l10 -13l7 -10q3 -3 9 -11l13 -16l12 -15q6 -8 8 -10t5.5 -6t5.5 -5 q1 -1 7.5 -5t7.5 -5q2 -2 10.5 -8.5t10.5 -7.5q1 -1 7.5 -3.5t14 -6t15 -6.5t11.5 -5z" />
<glyph unicode="&#xe2;" horiz-adv-x="501" d="M135 16q-2 0 -10.5 2t-10.5 3t-8 7t-8 9l-5 5l-10 8q-5 4 -9 8t-5 6l-15 113q1 3 3.5 9.5t4.5 13t4.5 13t3.5 9.5q1 2 4.5 10t5.5 11q1 0 2.5 2t3.5 3q12 12 21.5 18t20 10.5t22 8t27.5 10.5q2 1 8 2.5t8 2.5q3 1 11 3t10 2h10q7 1 19 3t13 2q1 1 2.5 5.5t2.5 9.5l3 11 q2 5 2 6q1 3 6 9l10 11q4 5 5 6q6 2 18 2q13 0 19 -2q2 0 10 -8t11 -13q2 -1 3.5 -5t2.5 -5l3 -15q2 -9 3.5 -19t2.5 -18.5t1 -10.5v-19v-31v-32v-18q0 -2 2 -10t3 -11q4 -12 12 -24.5t18 -18.5q1 -1 4.5 -3t4.5 -2q5 -3 15 -7t12 -5q3 -2 5.5 -10t4.5 -7h39q0 -1 4 0l9 4 l9 3q4 2 5 1q2 -2 7.5 -12.5t7.5 -15.5q0 -1 3.5 -4t4.5 -5q0 -1 -1 -5.5t-2.5 -9.5t-2.5 -10t-1 -6q-2 -1 -10 -2.5t-10 -3.5q-1 1 -6 2t-6 1q-27 -9 -48 -5.5t-39.5 13.5t-36.5 23t-38 24q-2 2 -6 2q-3 0 -5 -2q-2 -1 -5.5 -7t-4.5 -8t-3 -11t-3 -10q-1 -2 -4.5 -6 t-5.5 -5t-10.5 -3t-10.5 -2q-2 -1 -13.5 -5.5t-13.5 -5.5t-14 -2.5t-17 -2.5h-21q-2 0 -10.5 2t-18.5 5l-18 5q-9 3 -11 4zM166 74q4 -2 16 -6t16 -5h16q1 1 7 5l9 6l15 15q2 2 5.5 8t5.5 8l21 42v27q0 4 -1 12.5t-1.5 18t-1.5 17t-1 10.5q0 1 -2 7t-4 8q0 6 -4.5 11t-5.5 5 h-16q-5 -1 -14.5 -2.5t-11.5 -2.5q-1 0 -5 -2.5t-8.5 -5t-8.5 -5t-5 -3.5t-5 -3t-5 -2l-15 -12q-10 -8 -11 -9q-2 -2 -5.5 -12t-5.5 -15q-1 -3 -3 -13t-2 -13q-1 -2 -1 -15t1 -16q0 -3 1 -9t1.5 -12t1.5 -10.5t1 -5.5q3 -4 11.5 -11t14.5 -10zM52 452l-9 9q-6 6 -6 7 q-1 1 -1 10t1 11q0 1 2 5l3 6q1 1 2.5 3t2.5 2q3 0 16 5t16 5l11 6l10 5q1 1 7.5 2.5t8.5 2.5q4 2 14 8t12 8l7 7l17 15l19 17q9 8 15 14q1 1 3 2.5t2 2.5q1 1 6 7l10 14l10 13q4 6 6 8q0 1 2 3t3 2q2 2 5.5 3.5t4.5 1.5q3 1 16 1t16 -1q2 0 8 -1.5t8 -3.5q2 -1 5.5 -4.5 t4.5 -5.5q2 -2 6 -13.5t5 -13.5q0 -1 4 -7t6 -8q3 -5 9 -12.5t7 -8.5l37 -37q2 -2 8 -10t8 -11q2 -4 8 -14t7 -13q2 -3 0 -5q-3 -5 -11 -12.5t-10 -8.5q-6 -2 -20 -2t-22 2q-2 1 -11 7l-15 9q-1 1 -5 5.5t-5 4.5q-2 2 -13.5 8t-13.5 8t-8 10.5t-8 10.5q-3 5 -5 5q-1 1 -8 1 t-8 -1l-5 -5q-3 -2 -11 -8t-10 -8l-10 -5q-9 -4 -11 -5q-3 -2 -9 -5l-12 -7q-6 -4 -11 -6l-5 -3q-1 -1 -5 -4t-8 -6.5t-8 -6.5t-5 -4t-7.5 -3t-8.5 -2q-2 -1 -10.5 -6t-10.5 -5t-7.5 -0.5t-12.5 -0.5t-13 0.5t-9 0.5q-1 0 -5 2z" />
<glyph unicode="&#xe3;" horiz-adv-x="501" d="M420 441q2 -1 9 -2.5t14.5 -3.5t14 -3.5t9.5 -1.5h16q4 0 14.5 1.5t22 3.5t22 3.5t14.5 2.5q2 2 8 7l11 10q6 6 11 11.5t7 7.5q1 1 2.5 5t2.5 6q2 2 3.5 8t2.5 8v10q-2 3 -8 11t-8 10q-4 4 -14 10t-12 6t-12 -4t-15 -7q-1 0 -4.5 -2.5t-8 -5t-8.5 -5t-5 -2.5q-2 -2 -6 -4 l-4 -2h-37l-21 3q-14 2 -16 3q-2 0 -7 4l-9 9l-9 8q-5 4 -6 5q-2 1 -8.5 5t-7.5 5q-2 1 -7 7t-11 12l-12 12l-7 6q-3 3 -10.5 7.5t-15 10t-13.5 9.5t-8 5q-1 0 -7 1.5t-13 2.5l-16 4q-8 1 -12 2q-3 1 -9 1.5t-12.5 1.5t-12.5 1.5t-8 0.5q-3 0 -12 0.5t-19 0.5t-19 -0.5 t-13 -0.5q-3 0 -9.5 -0.5t-14 -1.5t-14 -2t-9.5 -1q-1 0 -4.5 -2t-5.5 -3q-1 0 -3 -2.5t-3 -2.5q-1 -1 -5.5 -3t-10 -5t-10 -5t-5.5 -3q-3 -2 -9 -8t-7 -8q-2 -4 -2 -16t2 -15q1 -2 7 -8t9 -8q1 -1 9 -3t12 -2q2 -1 5 -1q4 0 5 1q1 0 6.5 2.5t12 5t11.5 5t7 2.5q3 1 8 3 t11 3.5t11 3t7 1.5h21q4 0 13 -1l18 -2q9 -1 17 -1.5t10 -0.5q1 -1 7 -2.5t8 -3.5q2 0 5.5 -2t5.5 -3q2 -2 8 -5.5t8 -4.5q2 -2 6.5 -5.5t9.5 -8t9 -8.5t6 -5l21 -21q14 -12 28 -22t30 -20q1 0 5 -2l6 -3l14 -6q10 -4 12 -4zM245 5q2 1 13.5 5.5t13.5 5.5q2 0 10.5 2t10.5 3 t5.5 5t4.5 6q1 1 3 10t3 11t4.5 8t5.5 7q2 2 5 2q4 0 6 -2q20 -11 37.5 -24.5t36.5 -23t40 -13t48 5.5q1 0 6 -1t6 -2q2 2 10 3.5t10 2.5q0 1 1 6t2.5 10t2.5 9.5t1 5.5q-1 2 -4.5 5t-3.5 4q-2 5 -7.5 15.5t-7.5 12.5q-1 1 -5 0l-9 -4l-9 -4q-4 -1 -4 0l-35 -1l-8 5l-17 12 l-17 12l-8 6q-10 6 -18 18.5t-12 24.5q-1 3 -3 11t-2 10v18v63v19q0 2 -1 10.5t-2.5 18.5t-3.5 19l-3 15q-1 1 -2.5 5t-3.5 5q-3 5 -11 13t-10 8q-8 2 -19 2q-10 0 -18 -2q-1 -1 -5 -6l-10 -10q-5 -7 -6 -10q0 -1 -2 -6l-2 -10l-3.5 -10.5t-2.5 -5.5q-1 0 -13 -2t-19 -3h-10 q-2 0 -10 -2t-11 -3l-32 -10q-14 -5 -26.5 -10.5t-24 -12.5t-24.5 -19q-2 -1 -3.5 -3t-2.5 -2q-2 -3 -5.5 -11t-4.5 -10l-16 -45q7 -39 13 -62.5t12.5 -39t14.5 -27.5l20 -27q27 -9 56.5 -16t74.5 0zM166 74q-21 11 -25 23t-6 35q1 9 1 21t1 23.5t4 22t10 17.5q3 3 11.5 10 t18 14t19 12.5t14.5 5.5q2 1 11.5 2.5t14.5 2.5h16q1 0 5.5 -5t4.5 -11q1 -1 4 -8.5t6 -16.5l6 -15l2 -7q0 -25 -7.5 -52.5t-22.5 -48t-37 -29.5t-51 4z" />
<glyph unicode="&#xe7;" horiz-adv-x="439" d="M270 -284l9 -3q6 -2 7 -2q6 0 16.5 -0.5t21.5 -0.5t20 0.5t11 0.5q2 1 18 8.5t24 12.5q1 1 9 7l12 9q0 1 2 2.5t3 2.5l21 63q1 3 3 11t2 10v11q0 3 -1 11t-1.5 17.5t-1.5 18t-1 11.5q-1 2 -5 7.5t-6 7.5q-2 3 -10 11t-11 10q-1 2 -5 3.5t-5 2.5q-4 0 -13 1t-19 2t-19 1.5 t-12 0.5q0 1 2 2.5t3 2.5q2 2 10.5 8t10.5 8q2 1 13 4l26 7q15 4 27.5 8t15.5 7l6 6l5 4q0 1 -4.5 7t-10.5 12l-10 11q-5 6 -5 8l-5 10q-1 2 -3 3l-2 2q-3 1 -11 1t-10 -1q-2 0 -11 -5l-10 -5q-2 -1 -8 -3l-14 -3l-13 -4q-6 -1 -8 -1q-3 -1 -15 -4.5t-16 -5.5q-1 -1 -5 -3 l-6 -3q-2 -1 -10.5 -2.5t-10.5 -2.5h-21q-1 0 -4.5 2t-5.5 3l-3 3q-2 2 -2 3q-2 1 -8.5 5t-7.5 5l-32 32q-2 2 -6 8t-4 8q0 1 -0.5 6t-0.5 11t0.5 11.5t0.5 7.5q0 3 4 15t6 17q1 2 7 12t9 14q3 5 9 12.5t7 8.5t5 3l9 4l9.5 5.5t7.5 3.5q3 2 11 3.5t10 1.5t10 -1.5t11 -3.5 l11 -6q8 -4 10 -4q3 -3 6 0q4 1 12 2.5t9 2.5q2 1 6 5t4 5q2 5 2 17t-2 15q-1 2 -7 8t-9 8q-1 0 -5.5 1t-9.5 1.5t-10 1.5t-6 1q-2 0 -10.5 2.5t-10.5 2.5t-8 0.5t-13 0.5q-6 0 -12 -0.5t-9 -0.5q-2 0 -14.5 -2t-17.5 -3q-2 -1 -10 -2.5t-11 -2.5q-3 -2 -9 -3.5t-7 -2.5 l-5 -5l-9 -9q-5 -5 -10 -9.5t-7 -7.5q-1 -1 -5 -7l-6 -9q-1 -2 -2.5 -5.5t-2.5 -4.5q-1 -2 -3 -8l-4 -13l-5.5 -13t-3.5 -9l-6 -18q-4 -12 -4 -13q0 -2 -0.5 -10t-0.5 -17t0.5 -18t0.5 -13q0 -5 2 -17t3 -14t7 -9.5t9 -12.5q23 -23 27 -29.5t4 -7.5t4.5 -2t27.5 -13 q2 -1 8 -5.5t8 -5.5t13 -7.5t13 -7.5l11 -11v-5q0 -1 -1 -6l-2 -10l-2 -10q-1 -5 -1 -6v-26q0 -1 2 -5t4 -6t5.5 -6t4.5 -4h53q2 2 7.5 5.5t7.5 4.5q2 2 6 3.5t5 2.5q3 1 11 3t10 2h16l5 -5l3 -6q2 -4 2 -5q1 -2 1 -10q0 -9 -1 -11q0 -1 -2 -4.5t-3 -5.5q-2 -3 -5.5 -9 t-4.5 -7l-11 -10q-8 -9 -11 -11h-57q-2 0 -8.5 -2t-7.5 -3q-3 -2 -9 -10.5t-7 -10.5q-1 -4 -1 -14t1 -13l7 -7q6 -6 9 -8q1 -1 4.5 -3t5.5 -3zM-21 16q3 -2 11 -6l10 -5h31q2 0 8 2t8 3q3 2 11 5.5t10 5.5q3 1 7.5 4.5t9.5 7t9 6t5 3.5q5 3 17 15t15 17q1 1 1 5t-1 5 q0 1 -2 3t-3 2q-5 2 -15 6.5t-12 4.5l-6 -2q-6 -1 -13.5 -2.5t-15 -3.5t-12.5 -3q-1 0 -7.5 -2.5t-8.5 -2.5q-1 0 -6.5 -1t-11.5 -1.5t-11.5 -1.5t-6.5 -1t-3 -2.5t-3 -2.5q-1 -2 -7.5 -6t-7.5 -5q-2 -1 -3 -3l-3 -2l-3 -6q-2 -4 -2 -5v-16q0 -1 2 -4.5t3 -5.5l3 -3 q2 -2 3 -2z" />
<glyph unicode="&#xe8;" horiz-adv-x="347" d="M188 16q2 -1 10.5 -2.5t10.5 -2.5t5.5 -3t5.5 -3h110q2 0 10 2t11 4q25 7 35 10.5t14.5 9.5t8.5 17.5t16 35.5q1 1 1 9q0 10 -1 12q0 2 -6 11.5t-10 9.5q-2 0 -8 -1.5t-8 -3.5q-1 -1 -7 -5l-12 -8l-12 -8q-5 -4 -6 -5q-4 -4 -17 -10t-14 -6q-1 -1 -9 -1q-10 0 -12 1 q-6 0 -16.5 1t-20.5 1.5t-17.5 1.5t-8.5 1q-2 0 -7 2l-10 5l-12 5q-5 2 -8 4q-2 1 -5.5 4.5t-4.5 5.5q-3 3 0 6l15 15q1 1 5 4l8 7l9 6q4 3 5 4q2 3 10 13l11 14l5 10q4 8 5 11q2 6 6 20t5 16v74q0 2 -2 8t-4 8q0 1 -4.5 7.5t-5.5 8.5q-1 1 -3 7.5t-2 7.5l-3 6q-2 4 -3 5 l-10 5l-18 6q-12 4 -14 5q-3 0 -10.5 0.5t-15.5 0.5t-15.5 -0.5t-10.5 -0.5q-2 0 -7 -1.5t-10 -3.5t-9.5 -3.5t-5.5 -2.5q-2 -1 -8 -7l-13 -13l-15 -15l-11 -12q-1 -1 -3 -5t-2 -6q0 -1 -1 -6l-2 -12l-2 -11q-1 -6 -1 -7q0 -2 -4.5 -13.5t-5.5 -13.5q-1 -1 -1 -10 q0 -10 1 -11q0 -1 1 -4.5t1.5 -8t1.5 -8.5t1 -5q0 -9 -0.5 -13t-0.5 -7q0 -2 2 -5l5 -13q2 -5 5.5 -9.5t1.5 -9.5l30 -77q4 3 7.5 0.5t7.5 -7.5l7 -12q4 -6 9 -10zM146 200v84q3 3 11 10t16 11h10q1 0 2.5 -2t2.5 -3q1 -2 3 -5.5t3 -5.5t3 -8.5t2 -7.5v-21q0 -1 -4.5 -11 t-6.5 -15q-1 -2 -2.5 -6t-2.5 -5l-5 -5l-13 -10l-8 -6zM337 540q2 -1 8 -3t7 -2q2 -1 12 -1q8 0 9 1q2 0 8 6t8 9q3 3 0 6q0 2 -2 5.5t-3 4.5q-1 2 -5 5.5t-6 5.5l-4 2q-5 2 -6 3l-21 21q-1 1 -3 5.5t-2 5.5q-1 1 -5 4.5t-8 8.5l-9 8l-5 5l-5 11l-5 10l-10 11q-9 9 -16 14 l-6 6q-1 1 -5 7q-5 8 -12 18t-9 12q-1 1 -2.5 3t-2.5 2q-2 2 -6 4t-5 2h-47l-16 -16v-21q0 -1 2 -5t4 -6q1 -2 5 -7l9 -12l10 -13l7 -10q5 -5 16 -18l18 -25q7 -8 10.5 -13t8.5 -7q1 -1 7.5 -5t7.5 -5q2 -2 10.5 -8.5t10.5 -7.5q1 -2 8 -4l14 -6l15 -6q7 -3 11 -5z" />
<glyph unicode="&#xe9;" horiz-adv-x="347" d="M188 16q2 -1 10.5 -2.5t10.5 -2.5t5.5 -3t5.5 -3h110q2 0 10 2t11 4q25 7 35 10.5t14.5 9.5t8.5 17.5t16 35.5q1 1 1 9q0 10 -1 12q0 2 -6 11.5t-10 9.5q-2 0 -8 -1.5t-8 -3.5q-1 -1 -7 -5l-12 -8l-12 -8q-5 -4 -6 -5q-4 -4 -17 -10t-14 -6q-1 -1 -9 -1q-10 0 -12 1 q-6 0 -16.5 1t-20.5 1.5t-17.5 1.5t-8.5 1q-2 0 -7 2l-10 5l-12 5q-5 2 -8 4q-2 1 -5.5 4.5t-4.5 5.5q-3 3 0 6l15 15q1 1 5 4l8 7l9 6q4 3 5 4q2 3 10 13l11 14l5 10q4 8 5 11q2 6 6 20t5 16v74q0 2 -2 8t-4 8q0 1 -4.5 7.5t-5.5 8.5q-1 1 -3 7.5t-2 7.5l-3 6q-2 4 -3 5 l-10 5l-18 6q-12 4 -14 5q-3 0 -10.5 0.5t-15.5 0.5t-15.5 -0.5t-10.5 -0.5q-2 0 -7 -1.5t-10 -3.5t-9.5 -3.5t-5.5 -2.5q-2 -1 -8 -7l-13 -13l-15 -15l-11 -12q-1 -1 -3 -5t-2 -6q0 -1 -1 -6l-2 -12l-2 -11q-1 -6 -1 -7q0 -2 -4.5 -13.5t-5.5 -13.5q-1 -1 -1 -10 q0 -10 1 -11q0 -1 1 -4.5t1.5 -8t1.5 -8.5t1 -5q0 -9 -0.5 -13t-0.5 -7q0 -2 2 -5l5 -13q2 -5 5.5 -9.5t1.5 -9.5l30 -77q4 3 7.5 0.5t7.5 -7.5l7 -12q4 -6 9 -10zM146 200v84q3 3 11 10t16 11h10q1 0 2.5 -2t2.5 -3q1 -2 3 -5.5t3 -5.5t3 -8.5t2 -7.5v-21q0 -1 -4.5 -11 t-6.5 -15q-1 -2 -2.5 -6t-2.5 -5l-5 -5l-13 -10l-8 -6zM79 542q3 -2 11 -6t10 -4q2 -1 17 -1q14 0 15 1q1 0 5 2t8 5l8 6q4 2 5 3q6 1 10 5q2 0 8.5 2t7.5 3q4 2 14 8t12 8l10 10l11 11q2 2 13 8q12 6 14 8q2 1 6 6l10 9q5 5 9 9.5t6 6.5l5 10l6 11v5q-2 2 -5.5 6t-5.5 5 h-16q-3 -1 -9 -2.5t-13 -3t-12.5 -3t-7.5 -2.5q-1 0 -7.5 -4.5t-7.5 -5.5q-2 -1 -5.5 -3t-5.5 -2q-1 -1 -7.5 -3t-8.5 -3t-10.5 -7.5t-10.5 -7.5q-2 -2 -14 -8t-17 -8q-1 0 -5 -1.5t-8.5 -4t-8 -4t-4.5 -1.5q-5 -2 -17 -7.5t-15 -7.5q-1 -1 -2.5 -3t-2.5 -3q-2 -2 -3.5 -5.5 t-1.5 -4.5q-1 -1 -1 -11q0 -9 1 -10q0 -2 4 -5.5t6 -5.5z" />
<glyph unicode="&#xea;" horiz-adv-x="347" d="M188 16q2 -1 10.5 -2.5t10.5 -2.5t5.5 -3t5.5 -3h110q2 0 10 2t11 4q25 7 35 10.5t14.5 9.5t8.5 17.5t16 35.5q1 1 1 9q0 10 -1 12q0 2 -6 11.5t-10 9.5q-2 0 -8 -1.5t-8 -3.5q-1 -1 -7 -5l-12 -8l-12 -8q-5 -4 -6 -5q-4 -4 -17 -10t-14 -6q-1 -1 -9 -1q-10 0 -12 1 q-6 0 -16.5 1t-20.5 1.5t-17.5 1.5t-8.5 1q-2 0 -7 2l-10 5l-12 5q-5 2 -8 4q-2 1 -5.5 4.5t-4.5 5.5q-3 3 0 6l15 15q1 1 5 4l8 7l9 6q4 3 5 4q2 3 10 13l11 14l5 10q4 8 5 11q2 6 6 20t5 16v74q0 2 -2 8t-4 8q0 1 -4.5 7.5t-5.5 8.5q-1 1 -3 7.5t-2 7.5l-3 6q-2 4 -3 5 l-10 5l-18 6q-12 4 -14 5q-3 0 -10.5 0.5t-15.5 0.5t-15.5 -0.5t-10.5 -0.5q-2 0 -7 -1.5t-10 -3.5t-9.5 -3.5t-5.5 -2.5q-2 -1 -8 -7l-13 -13l-15 -15l-11 -12q-1 -1 -3 -5t-2 -6q0 -1 -1 -6l-2 -12l-2 -11q-1 -6 -1 -7q0 -2 -4.5 -13.5t-5.5 -13.5q-1 -1 -1 -10 q0 -10 1 -11q0 -1 1 -4.5t1.5 -8t1.5 -8.5t1 -5q0 -9 -0.5 -13t-0.5 -7q0 -2 2 -5l5 -13q2 -5 5.5 -9.5t1.5 -9.5l30 -77q4 3 7.5 0.5t7.5 -7.5l7 -12q4 -6 9 -10zM146 200v84q3 3 11 10t16 11h10q1 0 2.5 -2t2.5 -3q1 -2 3 -5.5t3 -5.5t3 -8.5t2 -7.5v-21q0 -1 -4.5 -11 t-6.5 -15q-1 -2 -2.5 -6t-2.5 -5l-5 -5l-13 -10l-8 -6zM10 500l6 -3q4 -2 5 -2q3 0 9 -0.5t13 -0.5t12.5 0.5t7.5 0.5t10.5 5t10.5 6q7 0 12 4l9 5l12 10q7 5 9 7l5 3q5 2 11 6l12 7q6 3 9 5l10 5l11 5q2 2 10 8t11 8l5 5q1 1 8 1t8 -1q2 0 5 -5q2 -2 8 -10.5t8 -10.5 t13.5 -8t13.5 -8q1 0 5 -4.5t5 -5.5l15 -9q9 -6 11 -7q10 -2 22 -2t20 2q2 1 10 8.5t11 12.5q2 2 0 5q-1 3 -7 13t-8 14q-2 3 -8 11t-8 10l-37 37q-1 1 -7 8.5t-9 12.5q-2 2 -6 8t-4 7q-1 2 -5 13.5t-6 13.5q-1 2 -4.5 5.5t-5.5 4.5q-2 2 -8 3.5t-8 1.5q-2 1 -16 1t-16 -1 q-1 0 -4.5 -1.5t-5.5 -3.5q-1 0 -3 -2t-2 -3q-2 -2 -6 -8l-10 -13l-10 -14q-5 -6 -6 -7q0 -1 -2 -2.5t-3 -2.5q-6 -6 -15 -14l-19 -17l-17 -15l-7 -7q-2 -2 -12 -8t-14 -8q-2 -1 -8.5 -2.5t-7.5 -2.5l-10 -5l-11 -6q-3 0 -16 -5t-16 -5l-1 -2q-1 -2 -2 -3l-3 -6q-2 -4 -2 -5 q-1 -1 -1 -11q0 -9 1 -10q0 -1 5 -7t8 -9z" />
<glyph unicode="&#xee;" horiz-adv-x="355" d="M114 75q-20 -32 -49 -50.5t-61 -23.5q-2 2 -9.5 7.5t-9.5 6.5t-3.5 8t-2.5 9q-1 3 -3 15t-2 14q1 1 3.5 4.5t3.5 5.5q1 1 8.5 7t9.5 7q1 1 7.5 4t8.5 5q12 6 25 15t25 19.5t21 21t14 18.5q1 1 4.5 7t5.5 9q2 2 8.5 10.5t7.5 10.5q0 1 1 4.5t1.5 8t1.5 8.5t1 5q1 3 3 8.5 t3.5 11.5t3 11t1.5 6q1 3 4 8l5 10q2 5 5 9l2 4q1 1 5 3.5t9 4.5t10 5l7 3q2 1 13 1q12 0 14 -1q2 0 5.5 -4t4.5 -6t3 -12.5t2 -14.5v-11v-18v-18v-11q1 -2 3 -10.5t3 -10.5q0 -2 1 -8t1.5 -13t1.5 -13.5t1 -7.5q0 -2 2.5 -8t2.5 -7q0 -9 5.5 -23t15 -25.5t23.5 -17t32 2.5 q2 1 8 7.5t8 8.5q2 1 5.5 3t4.5 2q2 0 14.5 -2t17.5 -3q1 -1 4.5 -2.5t5.5 -3.5q1 0 3 -2t2 -3q2 -1 3.5 -5t2.5 -5v-6q-1 -2 -3 -5.5t-3 -4.5q-2 -3 -6.5 -8t-10 -10t-9.5 -9l-5 -5q-27 -16 -57 -23t-54 8q-9 6 -24 14.5t-23 16.5q-1 1 -5 7t-5 9q-2 3 -6.5 11.5t-8.5 18.5 l-9 20q-4 9 -5 12q-2 -2 -9 -7l-15 -10q-9 -5 -16 -10t-8 -7q-1 -1 -3 -5.5t-3 -5.5zM5 445q-3 3 -8.5 9t-5.5 7q-1 1 -1 10t1 11q0 1 2 5l3 6l3 3l1 2q3 0 16 5t16 5l11 5l10 6q1 1 7.5 2.5t8.5 2.5q4 2 14 8t12 8l7 6l17 15l19 17l15 15q1 1 3 2.5t2 2.5q1 1 6 7l10 13 l10 14q4 6 6 8q0 1 2 3t3 2q2 2 5.5 3.5t4.5 1.5q3 1 16 1t16 -1q2 0 8 -1.5t8 -3.5q2 -1 5.5 -4.5t4.5 -5.5q2 -2 6 -13.5t5 -13.5q0 -1 4 -7t6 -8q3 -5 9 -12.5t7 -8.5l37 -37q2 -2 8 -10t8 -11q2 -4 8 -14t7 -13q2 -3 0 -5q-3 -5 -11 -12.5t-10 -8.5q-6 -2 -20 -2t-22 2 q-2 1 -11 7l-15 9q-1 1 -5 5.5t-5 4.5q-2 2 -13.5 8t-13.5 8t-8 10.5t-8 10.5q-3 5 -5 5q-1 1 -8 1t-8 -1l-5 -5q-3 -2 -11 -8t-10 -8q-2 -1 -10.5 -5t-10.5 -5l-9 -6l-12 -7q-6 -3 -11 -6l-5 -2q-1 -1 -5 -4t-8 -6.5t-8 -6.5t-5 -4t-7.5 -3t-8.5 -2q-2 -1 -10.5 -6 t-10.5 -5t-7.5 -0.5t-12.5 -0.5t-13 0.5t-9 0.5q-1 0 -5 2z" />
</font>
</defs>
</svg>
